<svg width="210" height="40" viewBox="0 0 210 40" fill="none" xmlns="http://www.w3.org/2000/svg">
<rect width="83.6364" height="40" fill="#107BB6"/>
<path d="M13.3643 23.8192C13.2734 23.1829 13.2734 22.2738 13.2734 21.8192L14.1825 10.9102H17.6371L16.6371 21.9102C16.4553 24.2738 17.3643 26.0011 19.6371 26.0011C22.0007 26.0011 23.2734 24.2738 23.4553 22.1829L24.6371 10.9102H28.1825L27.1825 22.0011C26.8189 26.2738 24.0007 29.4556 19.5462 29.4556C16.0916 29.5465 13.8189 27.1829 13.3643 23.8192Z" fill="white"/>
<path d="M29.0018 20.1822C29.4564 14.9094 32.9109 10.6367 38.9109 10.6367C40.4564 10.6367 42.0018 11.0004 43.5473 12.0004L43.1836 16.364C41.82 14.5458 40.1836 14.1822 38.6382 14.1822C34.9109 14.1822 32.9109 16.8185 32.5473 20.1822C32.2746 23.4549 33.9109 26.0913 37.5473 26.0913C39.0927 26.0913 40.82 25.6367 42.5473 23.8185L42.0927 28.1822C40.3655 29.0913 38.82 29.5458 37.1836 29.5458C31.2746 29.5458 28.5473 25.0913 29.0018 20.1822Z" fill="white"/>
<path d="M46.272 10.9102H49.7266L48.4538 25.7283H53.4538C53.8175 25.7283 54.9993 25.7283 55.272 25.7283C55.272 25.9102 54.9993 29.1829 54.9993 29.1829H44.7266L46.272 10.9102Z" fill="white"/>
<path fill-rule="evenodd" clip-rule="evenodd" d="M65.0923 10.0918H65.3651L71.9105 29.0918H68.1832L67.3651 26.1827H60.6378L59.2741 29.0918H55.5469L65.0923 10.0918ZM64.7287 17.0009C64.6378 17.1827 64.5469 17.4554 64.456 17.7282C64.456 17.7603 64.1603 18.452 63.7821 19.3367C63.0911 20.9535 62.1245 23.2149 62.1832 23.2736H66.5469C66.5469 23.2736 65.1832 18.6373 65.0014 17.8191C64.9771 17.7216 64.9527 17.6307 64.9301 17.5463C64.8683 17.3158 64.8196 17.134 64.8196 17.0009H64.7287Z" fill="white"/>
<path fill-rule="evenodd" clip-rule="evenodd" d="M99.9091 4.9082H96.6364L91 20.6355H94.2727L95.2727 17.2718H101L102.091 20.6355H105.455L99.9091 4.9082ZM98.9091 10.3627L100.364 14.9082H96.1818L97.5455 10.3627C97.8182 9.54457 98.1818 7.9082 98.1818 7.9082H98.2727C98.2727 7.9082 98.6364 9.54457 98.9091 10.3627Z" fill="white"/>
<path d="M109.363 10.908C110.181 9.72621 111.272 9.08984 112.818 9.08984C115.181 9.08984 116.727 10.8171 116.727 13.3626V20.7262H113.636V13.8171C113.636 12.6353 112.909 11.7262 111.636 11.7262C110.363 11.7262 109.363 12.8171 109.363 14.3626V20.8171H106.363V9.36257H109.272L109.363 10.908Z" fill="white"/>
<path fill-rule="evenodd" clip-rule="evenodd" d="M122.818 8.99911C120 8.99911 118 11.4537 118 14.9991C118 18.7264 119.909 20.9991 122.727 20.9991C124.273 20.9991 125.455 20.2718 126.091 19.1809H126.182V20.6355H129.091V4.9082H126.091V10.6355H126C125.364 9.72638 124.455 8.99911 122.818 8.99911ZM123.455 11.4537C125.364 11.4537 126.091 12.9082 126.091 15.09C126.091 17.1809 125.182 18.4537 123.364 18.4537C121.818 18.4537 121 17.1809 121 14.9991C121 12.9082 121.818 11.4537 123.455 11.4537Z" fill="white"/>
<path fill-rule="evenodd" clip-rule="evenodd" d="M135.909 9C132.636 9 130.363 11.6364 130.363 15C130.363 18.3636 132.545 21 136.181 21C139.091 21 140.818 19.2727 141.272 17.2727H138.363C138 18.0909 137.363 18.6364 136.181 18.6364C134.454 18.6364 133.454 17.5455 133.272 15.8182H141.454C141.454 11.8182 139.545 9 135.909 9ZM138.454 13.8182H133.454C133.636 12.3636 134.454 11.3636 136.091 11.3636C137.454 11.3636 138.363 12.3636 138.454 13.8182Z" fill="white"/>
<path d="M145.819 11.1806C146.547 9.90785 147.365 9.27148 148.637 9.27148C149.001 9.27148 149.183 9.27148 149.365 9.36239V11.9988H149.274C147.274 11.8169 145.91 12.8169 145.91 15.1806V20.726H142.91V9.36239H145.819V11.1806Z" fill="white"/>
<path d="M149.816 16.9989H152.635C152.816 18.2717 153.725 18.908 155.089 18.908C156.362 18.908 157.18 18.3626 157.18 17.6353C157.18 16.5444 155.725 16.4535 154.18 16.1808C152.18 15.8171 150.18 15.2717 150.18 12.7262C150.18 10.2717 152.18 9.08984 154.816 9.08984C157.816 9.08984 159.453 10.5444 159.635 12.8171H156.907C156.816 11.6353 155.998 11.1808 154.725 11.1808C153.544 11.1808 152.816 11.6353 152.816 12.4535C152.816 13.4535 154.271 13.5444 155.907 13.8171C157.816 14.1808 159.907 14.7262 159.907 17.3626C159.907 19.6353 157.998 20.9989 155.18 20.9989C151.816 20.9989 149.998 19.4535 149.816 16.9989Z" fill="white"/>
<path fill-rule="evenodd" clip-rule="evenodd" d="M166.456 9C162.911 9 160.547 11.6364 160.547 15C160.547 18.3636 162.911 21 166.456 21C170.001 21 172.365 18.3636 172.365 15C172.365 11.6364 170.001 9 166.456 9ZM166.547 11.2727C168.365 11.2727 169.365 12.8182 169.365 15C169.365 17.2727 168.274 18.7273 166.547 18.6364C164.729 18.6364 163.729 17.2727 163.729 15C163.729 12.7273 164.729 11.2727 166.547 11.2727Z" fill="white"/>
<path d="M176.636 10.908C177.454 9.72621 178.545 9.08984 180.09 9.08984C182.454 9.08984 183.999 10.8171 183.999 13.3626V20.7262H180.999V13.8171C180.999 12.6353 180.272 11.7262 178.999 11.7262C177.727 11.7262 176.727 12.8171 176.727 14.3626V20.8171H173.727V9.36257H176.636V10.908Z" fill="white"/>
<path d="M91.3633 31.3642H92.4542C92.636 32.8187 93.5451 33.6369 95.1815 33.6369C96.3633 33.6369 97.2724 33.0914 97.2724 32.0005C97.2724 30.8187 96.1815 30.546 94.636 30.1824C93.0906 29.8187 91.7269 29.3642 91.7269 27.7278C91.7269 26.2733 92.9087 25.4551 94.7269 25.4551C96.9087 25.4551 97.8178 26.546 98.0906 28.1824H96.9996C96.8178 26.9096 95.9996 26.2733 94.7269 26.2733C93.5451 26.2733 92.7269 26.7278 92.7269 27.6369C92.7269 28.6369 93.7269 28.9096 94.9996 29.1824C96.7269 29.546 98.2724 29.9096 98.2724 31.9096C98.2724 33.546 96.9087 34.4551 94.9996 34.4551C92.636 34.546 91.4542 33.1824 91.3633 31.3642Z" fill="white"/>
<path d="M99.0898 31.182C99.0898 29.3638 100.272 27.8184 102.181 27.8184C103.726 27.8184 104.635 28.7275 104.908 30.0002H103.908C103.726 29.0911 103.181 28.6365 102.181 28.6365C100.817 28.6365 100.181 29.7275 100.181 31.182C100.181 32.5456 100.908 33.7275 102.181 33.7275C103.181 33.7275 103.817 33.0911 103.908 32.182H104.908C104.726 33.7275 103.817 34.6365 102.181 34.6365C100.272 34.5456 99.0898 33.0002 99.0898 31.182Z" fill="white"/>
<path d="M106.816 28.8196C107.271 28.1832 107.907 27.8196 108.816 27.8196C110.18 27.8196 110.907 28.5469 110.907 29.8196V34.2741H109.998V30.0014C109.998 29.1832 109.453 28.7287 108.544 28.7287C107.544 28.7287 106.816 29.456 106.816 30.456V34.3651H105.816V25.5469H106.816V28.8196Z" fill="white"/>
<path fill-rule="evenodd" clip-rule="evenodd" d="M115.001 27.8184C113.092 27.8184 111.91 29.3638 111.91 31.182C111.91 33.0002 113.092 34.5456 115.001 34.5456C116.91 34.5456 118.092 33.0002 118.092 31.182C118.092 29.2729 116.91 27.8184 115.001 27.8184ZM115.001 28.6365C116.274 28.6365 117.001 29.8184 117.001 31.182C117.001 32.5456 116.274 33.7275 115.001 33.7275C113.728 33.7275 113.001 32.6365 113.001 31.182C113.001 29.7275 113.728 28.6365 115.001 28.6365Z" fill="white"/>
<path fill-rule="evenodd" clip-rule="evenodd" d="M121.817 27.8184C119.908 27.8184 118.727 29.3638 118.727 31.182C118.727 33.0002 119.817 34.5456 121.817 34.5456C123.727 34.5456 124.908 33.0002 124.908 31.182C124.908 29.2729 123.727 27.8184 121.817 27.8184ZM121.817 28.6365C123.09 28.6365 123.817 29.8184 123.817 31.182C123.817 32.5456 123.09 33.7275 121.817 33.7275C120.545 33.7275 119.817 32.6365 119.817 31.182C119.817 29.7275 120.545 28.6365 121.817 28.6365Z" fill="white"/>
<path d="M125.816 25.5469H126.816V34.3651H125.816V25.5469Z" fill="white"/>
<path fill-rule="evenodd" clip-rule="evenodd" d="M132.907 27.8184C130.998 27.8184 129.816 29.3638 129.816 31.182C129.816 33.0002 130.998 34.5456 132.907 34.5456C134.816 34.5456 135.998 33.0002 135.998 31.182C135.998 29.2729 134.816 27.8184 132.907 27.8184ZM132.907 28.6365C134.18 28.6365 134.907 29.8184 134.907 31.182C134.907 32.5456 134.18 33.7275 132.907 33.7275C131.635 33.7275 130.907 32.6365 130.907 31.182C130.907 29.7275 131.635 28.6365 132.907 28.6365Z" fill="white"/>
<path d="M136.273 28.0014H137.183V27.0014C137.183 25.9105 137.819 25.5469 138.91 25.5469C139.092 25.5469 139.273 25.5469 139.455 25.5469V26.3651C139.273 26.3651 139.273 26.3651 139.092 26.3651C138.455 26.3651 138.183 26.5469 138.183 27.0014V28.0014H139.364V28.8196H138.183V34.3651H137.183V28.8196H136.273V28.0014Z" fill="white"/>
<path d="M142.363 25.5469H143.818L146.636 32.8196L149.454 25.5469H150.909V34.3651H149.818V27.1832C149.818 27.1832 149.545 27.9105 149.454 28.2741L147.091 34.3651H146.272L143.909 28.2741C143.727 27.8196 143.545 27.1832 143.545 27.1832V34.3651H142.545L142.363 25.5469Z" fill="white"/>
<path fill-rule="evenodd" clip-rule="evenodd" d="M154.272 34.4556C155.363 34.4556 155.999 33.9102 156.363 33.4556C156.453 34.092 156.817 34.3647 157.363 34.3647C157.535 34.3647 157.672 34.3282 157.772 34.3014C157.829 34.286 157.875 34.2738 157.908 34.2738V33.5465C157.363 33.7283 157.272 33.4556 157.272 32.9102V29.9102C157.272 28.3647 156.272 27.9102 154.908 27.9102C153.181 27.9102 152.363 28.8192 152.363 30.092H153.363C153.363 29.1829 153.908 28.7283 154.908 28.7283C155.817 28.7283 156.363 29.092 156.363 29.8192C156.363 30.4475 155.888 30.533 155.172 30.6619C155.06 30.6822 154.941 30.7036 154.817 30.7283C153.272 30.9102 152.09 31.1829 152.09 32.7283C152.09 33.9102 153.09 34.4556 154.272 34.4556ZM156.363 30.9102V32.0011C156.363 32.7283 155.817 33.7283 154.363 33.6374C153.726 33.6374 153.09 33.4556 153.09 32.6374C153.09 31.7283 153.908 31.5465 154.908 31.3647C155.453 31.2738 155.999 31.092 156.363 30.9102Z" fill="white"/>
<path d="M159.727 28.8184C160.181 28.182 160.817 27.8184 161.727 27.8184C163.09 27.8184 163.908 28.5456 163.908 29.8184V34.2729H162.908V30.0002C162.908 29.182 162.363 28.7275 161.454 28.7275C160.454 28.7275 159.727 29.4547 159.727 30.4547V34.3638H158.727V28.0002H159.727V28.8184Z" fill="white"/>
<path fill-rule="evenodd" clip-rule="evenodd" d="M166.998 34.4556C168.089 34.4556 168.725 33.9102 169.089 33.4556C169.18 34.092 169.453 34.3647 170.089 34.3647C170.262 34.3647 170.398 34.3282 170.498 34.3014C170.556 34.286 170.601 34.2738 170.635 34.2738V33.5465C170.089 33.7283 169.998 33.4556 169.998 32.9102V29.9102C169.998 28.3647 168.998 27.9102 167.635 27.9102C165.907 27.9102 165.089 28.8192 165.089 30.092H166.089C166.089 29.1829 166.635 28.7283 167.635 28.7283C168.544 28.7283 169.089 29.092 169.089 29.8192C169.089 30.4475 168.614 30.533 167.899 30.6619C167.786 30.6822 167.667 30.7036 167.544 30.7283C165.998 30.9102 164.816 31.1829 164.816 32.7283C164.816 33.9102 165.816 34.4556 166.998 34.4556ZM169.089 30.9102V32.0011C169.089 32.7283 168.453 33.7283 167.089 33.6374C166.453 33.6374 165.816 33.4556 165.816 32.6374C165.816 31.7283 166.635 31.5465 167.635 31.3647C168.18 31.2738 168.725 31.092 169.089 30.9102Z" fill="white"/>
<path fill-rule="evenodd" clip-rule="evenodd" d="M172.092 34.7283H171.183C171.274 35.8192 172.183 36.4556 173.728 36.4556C175.456 36.4556 176.547 35.6374 176.547 34.0011V28.0011H175.547V28.8192C175.183 28.2738 174.547 27.9102 173.637 27.9102C172.183 27.9102 170.91 29.0011 170.91 31.0011C170.91 32.8192 172.092 34.1829 173.728 34.1829C174.637 34.1829 175.183 33.8192 175.637 33.1829V34.092C175.637 35.1829 175.001 35.7283 173.819 35.7283C172.819 35.7283 172.183 35.4556 172.092 34.7283ZM173.819 28.6374C175.183 28.6374 175.728 29.5465 175.728 30.9102C175.728 32.2738 175.274 33.2738 173.819 33.1829C172.637 33.1829 172.001 32.2738 172.001 30.9102C172.001 29.5465 172.637 28.6374 173.819 28.6374Z" fill="white"/>
<path fill-rule="evenodd" clip-rule="evenodd" d="M180.637 27.8184C178.819 27.8184 177.637 29.3638 177.637 31.182C177.637 33.0002 178.728 34.5456 180.728 34.4547C182.182 34.4547 183.182 33.7275 183.455 32.3638H182.455C182.273 33.182 181.637 33.6365 180.728 33.6365C179.455 33.6365 178.728 32.6365 178.637 31.3638H183.546C183.546 29.2729 182.546 27.8184 180.637 27.8184ZM182.455 30.6365H178.637C178.819 29.5456 179.455 28.6365 180.637 28.6365C181.728 28.6365 182.364 29.3638 182.455 30.6365Z" fill="white"/>
<path d="M184.453 28.0002H185.453V28.9093C185.817 28.2729 186.544 27.8184 187.362 27.8184C188.18 27.8184 188.726 28.182 188.999 28.9093C189.362 28.182 190.18 27.8184 190.908 27.8184C191.999 27.8184 192.817 28.5456 192.817 29.8184V34.2729H191.817V29.9093C191.817 29.0911 191.271 28.6365 190.635 28.6365C189.817 28.6365 189.089 29.3638 189.089 30.3638V34.2729H188.18V29.9093C188.18 29.0911 187.726 28.6365 187.089 28.6365C186.271 28.6365 185.453 29.3638 185.453 30.3638V34.2729H184.544L184.453 28.0002Z" fill="white"/>
<path fill-rule="evenodd" clip-rule="evenodd" d="M196.91 27.8184C195.092 27.8184 193.91 29.3638 193.91 31.182C193.91 33.0002 195.001 34.5456 197.001 34.4547C198.456 34.4547 199.456 33.7275 199.728 32.3638H198.728C198.547 33.182 197.91 33.6365 197.001 33.6365C195.728 33.6365 195.001 32.6365 194.91 31.3638H199.819C199.819 29.2729 198.819 27.8184 196.91 27.8184ZM198.728 30.6365H194.91C195.092 29.5456 195.728 28.6365 196.91 28.6365C198.001 28.6365 198.637 29.3638 198.728 30.6365Z" fill="white"/>
<path d="M201.727 28.8184C202.181 28.182 202.817 27.8184 203.727 27.8184C205.09 27.8184 205.908 28.5456 205.908 29.8184V34.2729H204.908V30.0002C204.908 29.182 204.363 28.7275 203.454 28.7275C202.454 28.7275 201.727 29.4547 201.727 30.4547V34.3638H200.727V28.0002H201.727V28.8184Z" fill="white"/>
<path d="M206.547 28H207.456V26H208.456V28H209.729V28.8182H208.456V32.9091C208.456 33.3636 208.729 33.5455 209.092 33.5455C209.274 33.5455 209.547 33.5455 209.638 33.4545V34.3636C209.365 34.3636 209.092 34.4545 208.82 34.4545C208.001 34.4545 207.456 34.0909 207.456 33.2727V28.9091H206.547L206.547 28Z" fill="white"/>
</svg>
