
<svg width="75" height="40" viewBox="0 0 75 40" fill="none" xmlns="http://www.w3.org/2000/svg">
<rect x="25" width="4" height="25" fill="white"/>
<path d="M66.8339 21.4947V13.6827H74.3238V10.2464H66.8339V3.43627H74.7088V0H63V25H75V21.4947H66.8339Z" fill="white"/>
<path d="M56.9994 12.0024H57.0058L56.993 11.996L56.9994 12.0024Z" fill="#1F140F"/>
<path d="M56.9994 12.0024H57.0058L56.993 11.996L56.9994 12.0024Z" fill="#1F140F"/>
<path d="M52.5252 13.5818L53.0987 13.9009L53.5644 14.1499C55.7251 15.2923 57.0493 16.0965 57.0493 18.0687C57.0493 21.2599 54.198 21.6013 52.9814 21.6013C51.0045 21.6013 49.1227 20.778 48.4067 20.4238L47.1236 19.7855V24.2788L47.8047 24.4511C49.4655 24.8176 51.1609 25.0017 52.8611 25C56.7959 25 61 23.1172 61 17.8357C61 14.2233 59.172 12.7808 56.967 11.3926L54.2519 9.87043C51.6382 8.48864 50.7321 7.91741 50.7321 6.06969C50.7321 4.41664 52.031 3.34759 54.0396 3.34759C55.7251 3.34759 57.2933 3.98583 58.475 4.53472L59.7422 5.12828V0.711641L59.0484 0.545698C57.5598 0.182985 56.0337 -0.000199516 54.5021 1.63066e-07C49.9464 1.63066e-07 47 2.55297 47 6.48136C47 10.5597 49.8101 12.0947 52.5252 13.5786" fill="white"/>
<path d="M45 21.4947H36.8307V13.6827H44.3206V10.2464H36.8307V3.43627H44.7121V0H33V25H45V21.4947Z" fill="white"/>
<path d="M14 25C14.694 24.7715 15.3635 24.4849 16 24.1439V12H14V25Z" fill="white"/>
<path d="M17 24C17.7327 23.527 18.4032 22.9883 19 22.3932V13H17V24Z" fill="white"/>
<path d="M12 26C12.6741 25.964 13.3436 25.8631 14 25.6988V12H12V26Z" fill="white"/>
<path d="M20 20C21.3128 18.2607 22.004 16.272 22 14.2463V12H20V20Z" fill="white"/>
<rect x="8" width="2" height="11" fill="white"/>
<rect x="5" width="2" height="11" fill="white"/>
<rect x="3" width="2" height="11" fill="white"/>
<path d="M2 0H1.57091C0.693907 0.010348 -0.00822947 0.615817 7.28744e-05 1.35457V11H2V0Z" fill="white"/>
<path fill-rule="evenodd" clip-rule="evenodd" d="M0 12.2437V14.3587C0 20.5888 4.43018 25.6785 10 26V12H0V12.2437ZM5.27239 13.5499C5.97309 13.5348 6.61262 13.9794 6.89052 14.6748C7.16842 15.3702 7.02945 16.1783 6.5389 16.7193C6.04835 17.2603 5.30372 17.4268 4.65486 17.1405C4.00599 16.8542 3.58186 16.1721 3.58172 15.4146C3.57302 14.3954 4.32949 13.5611 5.27239 13.5499ZM6.89052 19.6528C6.61262 18.9574 5.97309 18.5128 5.27239 18.5279C4.81929 18.5324 4.38644 18.7315 4.06928 19.0812C3.75212 19.431 3.57671 19.9028 3.58172 20.3926C3.58186 21.1501 4.00599 21.8322 4.65486 22.1185C5.30372 22.4048 6.04835 22.2383 6.5389 21.6973C7.02945 21.1563 7.16842 20.3483 6.89052 19.6528Z" fill="white"/>
<path fill-rule="evenodd" clip-rule="evenodd" d="M20.69 0H12V11H21.9999V1.35457C22.0068 0.615817 21.4213 0.010348 20.69 0ZM16.7386 9.42857C16.042 9.4439 15.4055 9.03184 15.1284 8.38611C14.8512 7.74037 14.9885 6.98943 15.4757 6.48631C15.963 5.9832 16.7032 5.828 17.3484 6.09367C17.9936 6.35935 18.4154 6.99305 18.4156 7.69686C18.4206 8.15114 18.2467 8.58882 17.9322 8.91358C17.6177 9.23835 17.1883 9.4236 16.7386 9.42857ZM15.0585 3.14286C15.0516 4.08764 15.8033 4.85964 16.7386 4.86829V4.87457C17.1883 4.8696 17.6177 4.68435 17.9322 4.35958C18.2467 4.03482 18.4206 3.59714 18.4156 3.14286C18.4156 2.20642 17.6641 1.44729 16.737 1.44729C15.81 1.44729 15.0585 2.20642 15.0585 3.14286Z" fill="white"/>
<path d="M30.7306 36.0025C30.2539 35.9752 29.8013 36.177 29.5714 36.5193V36.0525H29V39H29.5714V37.2128C29.5617 36.9938 29.6657 36.7817 29.8577 36.6286C30.0497 36.4756 30.3118 36.3959 30.5796 36.4092C31.1592 36.4092 31.4286 36.6393 31.4286 37.1595V39H32V37.1928C32 36.3359 31.4776 36.0058 30.7306 36.0058" fill="white"/>
<rect x="32.7773" y="36" width="0.446809" height="3" fill="white"/>
<path d="M27.5056 37.3824C27.5056 38.3627 27.1188 38.6046 26.4697 38.6046C25.8206 38.6046 25.491 38.2778 25.491 37.4542V35.0033H25V37.5098C25 38.4706 25.528 39 26.4596 39C27.5056 39 28 38.4085 28 37.4477V35H27.5056V37.3824Z" fill="white"/>
<path d="M32.5 35C32.2239 35 32 35.2239 32 35.5C32 35.7761 32.2239 36 32.5 36C32.7761 36 33 35.7761 33 35.5C32.9971 35.2251 32.7749 35.0029 32.5 35Z" fill="white"/>
<path d="M34.5202 38.5181L33.5581 36H33L34.1787 39H34.836L36 36H35.4676L34.5202 38.5181Z" fill="white"/>
<path d="M64.5183 38.5181L63.5575 36H63L64.1773 39H64.8337L66 36H65.4682L64.5183 38.5181Z" fill="white"/>
<path d="M59.5425 38.3046L57.6209 35H57V39H57.4575V35.5695L59.451 39H60V35H59.5425V38.3046Z" fill="white"/>
<path fill-rule="evenodd" clip-rule="evenodd" d="M61.644 36C61.6475 36 61.651 36 61.6544 36H61.6333C61.6369 36 61.6404 36 61.644 36ZM61.644 36C60.9244 36.0023 60.2535 36.2459 60.1735 36.902H60.7659C60.8209 36.5477 61.1086 36.3805 61.6121 36.3805C62.1157 36.3805 62.4118 36.574 62.4118 37.0364V37.2464H61.8745C60.9182 37.2464 60 37.4727 60 38.1451C60 38.7387 60.5501 38.9978 61.244 38.9978C61.6968 39.0204 62.134 38.8652 62.4076 38.5846V38.9486H63V37.0364C63 36.2304 62.3549 36.0023 61.644 36ZM61.299 38.6338C61.9295 38.6338 62.4076 38.3845 62.4076 37.9351L62.4118 37.5744H61.8956C61.1425 37.5744 60.5924 37.7187 60.5924 38.1451C60.5924 38.4435 60.7786 38.6338 61.299 38.6338Z" fill="white"/>
<path d="M47.5612 38.1293L46.56 36H46L47.2868 38.6633L46.6638 40H47.1904L49 36H48.4697L47.5612 38.1293Z" fill="white"/>
<path d="M53.5131 35.0802V35.6298H53V36.0802H53.5131V39H54.0788V36.0802H54.9515V35.6298H54.0788V35.0229C54.0788 34.6794 54.2283 34.4428 54.596 34.4428C54.7342 34.4432 54.8712 34.4678 55 34.5153V34.0649C54.8705 34.0207 54.7337 33.9987 54.596 34.0001C53.8848 34.0001 53.5333 34.3817 53.5333 35.084" fill="white"/>
<path fill-rule="evenodd" clip-rule="evenodd" d="M50.4118 36.4369C50.6959 36.1513 51.0902 35.9931 51.5 36.0002V36.0102C51.9091 36.0012 52.3035 36.1579 52.5879 36.4424C52.8723 36.7269 53.0209 37.1134 52.9976 37.5085V37.5518C52.9976 38.3516 52.3271 39 51.5 39C50.6729 39 50.0023 38.3516 50.0023 37.5518V37.5051C49.9792 37.1095 50.1276 36.7224 50.4118 36.4369ZM51.5 38.673C52.1108 38.673 52.4973 38.2292 52.4973 37.5618V37.5185C52.4973 36.8378 52.1108 36.3973 51.5 36.3973C50.8892 36.3973 50.5027 36.8478 50.5027 37.5151V37.5618C50.5027 38.2325 50.8892 38.673 51.5 38.673Z" fill="white"/>
<path fill-rule="evenodd" clip-rule="evenodd" d="M72.1648 36.9019C72.2451 36.2427 72.9211 36 73.6437 36H73.6352C74.3493 36 75 36.2263 75 37.0364V38.9484H74.4085V38.5844C74.1344 38.866 73.6959 39.0214 73.2423 38.9976C72.5493 38.9976 72 38.7385 72 38.1449C72 37.4726 72.9127 37.2463 73.8718 37.2463H74.4V37.0364C74.4 36.5739 74.1042 36.3804 73.6014 36.3804C73.0986 36.3804 72.8113 36.5477 72.7563 36.9019H72.1648ZM73.3014 38.6336C73.931 38.6336 74.4085 38.3843 74.4085 37.935L74.4127 37.5742H73.8972C73.1451 37.5742 72.5958 37.7186 72.5958 38.1449C72.5958 38.4434 72.7817 38.6336 73.3014 38.6336Z" fill="white"/>
<path d="M70.6497 36.5814V36.051H70V39H70.6497V37.3821C70.6497 36.6548 71.174 36.468 72 36.4413V36.001C71.4289 35.9829 70.8978 36.2112 70.6497 36.5814Z" fill="white"/>
<path d="M69.6497 36.5814V36.051H69V39H69.6497V37.3821C69.6497 36.6548 70.174 36.468 71 36.4413V36.001C70.4289 35.9829 69.8978 36.2112 69.6497 36.5814Z" fill="white"/>
<path fill-rule="evenodd" clip-rule="evenodd" d="M67.644 36C67.6475 36 67.651 36 67.6544 36H67.6333C67.6369 36 67.6404 36 67.644 36ZM67.644 36C66.9244 36.0023 66.2535 36.2459 66.1735 36.902H66.7659C66.8251 36.5477 67.1086 36.3805 67.6121 36.3805C68.1157 36.3805 68.4118 36.574 68.4118 37.0364V37.2464H67.8745C66.9182 37.2464 66 37.4727 66 38.1451C66 38.7387 66.5501 38.9978 67.244 38.9978C67.6968 39.0204 68.134 38.8652 68.4076 38.5846V38.9486H69V37.0364C69 36.2304 68.3549 36.0023 67.644 36ZM67.299 38.6338C67.9295 38.6338 68.4076 38.3845 68.4076 37.9351L68.4118 37.5744H67.8956C67.1425 37.5744 66.5924 37.7187 66.5924 38.1451C66.5924 38.4435 66.7786 38.6338 67.299 38.6338Z" fill="white"/>
<path d="M45.101 38.0972V36.1601H45.9505V35.7296H45.101V35H44.5237V35.7296H44V36.1601H44.5237V38.1447C44.4982 38.3796 44.5942 38.6121 44.7848 38.7772C44.9754 38.9423 45.2402 39.0222 45.5052 38.9947C45.6732 38.9994 45.8409 38.9772 46 38.929V38.4985C45.8579 38.5465 45.7067 38.57 45.5546 38.5678C45.2619 38.5678 45.101 38.4146 45.101 38.0972Z" fill="white"/>
<rect x="43.7773" y="36" width="0.446809" height="3" fill="white"/>
<path d="M39.6357 36.5814V36.051H39V39H39.6497V37.3821C39.6497 36.6548 40.174 36.468 41 36.4413V36.001C40.4289 35.9829 39.8978 36.2112 39.6497 36.5814" fill="white"/>
<path fill-rule="evenodd" clip-rule="evenodd" d="M36.0049 37.4849C36.0049 36.6097 36.6364 36 37.5339 36L37.5228 36.0066C38.2909 36.0066 39 36.4097 39 37.4456V37.5931H36.5404C36.5663 38.2519 36.9208 38.6191 37.5892 38.6191C38.0878 38.6191 38.387 38.4421 38.4571 38.1143H38.9741C38.8597 38.6945 38.3205 38.9993 37.5819 38.9993C37.1457 39.0117 36.7243 38.8586 36.4232 38.5782C36.1221 38.2978 35.97 37.9169 36.0049 37.5308V37.4849ZM37.5228 36.3901C36.9978 36.3915 36.5676 36.7603 36.5478 37.2259H38.4608C38.4091 36.6294 38.0583 36.3901 37.5228 36.3901Z" fill="white"/>
<path d="M42.0806 37.2585C41.597 37.1632 41.4657 37.0581 41.4657 36.7985C41.4657 36.5389 41.6627 36.3812 41.9642 36.3812C42.2657 36.3812 42.4597 36.5192 42.5194 36.8379H42.9224C42.8507 36.2103 42.4448 36 41.9701 36C41.5552 36 41.0746 36.276 41.0746 36.8149C41.0746 37.3538 41.3075 37.5312 41.991 37.6692C42.4 37.7514 42.606 37.8532 42.606 38.1588C42.606 38.4644 42.4299 38.6188 42.0299 38.6188C41.6299 38.6188 41.4328 38.402 41.409 38.057H41C41.0239 38.6517 41.403 39 42.0328 39C42.6627 39 43 38.6451 43 38.1194C43 37.5016 42.6179 37.3702 42.0716 37.2585" fill="white"/>
<path d="M43.5 35C43.2239 35 43 35.2239 43 35.5C43 35.7761 43.2239 36 43.5 36C43.7761 36 44 35.7761 44 35.5C43.9971 35.2251 43.7749 35.0029 43.5 35Z" fill="white"/>
<path fill-rule="evenodd" clip-rule="evenodd" d="M72.9964 30.9716V31.0284C73.0409 31.7184 72.6705 32.3744 72.0344 32.7319C71.3984 33.0894 70.6016 33.0894 69.9656 32.7319C69.3295 32.3744 68.9591 31.7184 69.0036 31.0284V30.9716C68.9591 30.2816 69.3295 29.6256 69.9656 29.2681C70.6016 28.9106 71.3984 28.9106 72.0344 29.2681C72.6705 29.6256 73.0409 30.2816 72.9964 30.9716ZM69.6691 30.9783V31.0284V31.0351C69.6691 31.8949 70.1835 32.4603 71 32.4603C71.8165 32.4603 72.3309 31.8882 72.3309 31.0351V30.9849C72.3309 30.1118 71.8165 29.5464 71 29.5464C70.1835 29.5464 69.6691 30.1118 69.6691 30.9783Z" fill="white"/>
<path fill-rule="evenodd" clip-rule="evenodd" d="M69.0344 29.2681C69.6705 29.6256 70.0409 30.2816 69.9964 30.9716V31.0284C70.0409 31.7184 69.6705 32.3744 69.0344 32.7319C68.3984 33.0894 67.6016 33.0894 66.9656 32.7319C66.3295 32.3744 65.9591 31.7184 66.0036 31.0284V30.9716C65.9591 30.2816 66.3295 29.6256 66.9656 29.2681C67.6016 28.9106 68.3984 28.9106 69.0344 29.2681ZM67.9964 32.4603C68.8129 32.4603 69.3273 31.8882 69.3273 31.0351V30.9849C69.3273 30.1118 68.8129 29.5464 67.9964 29.5464C67.1799 29.5464 66.6655 30.1118 66.6655 30.9783V31.0351C66.6655 31.8949 67.1799 32.4603 67.9964 32.4603Z" fill="white"/>
<path d="M34.542 32.4897C33.9056 32.4897 33.6573 32.2021 33.6119 31.7432H33C33.0385 32.5342 33.6049 33 34.549 33C35.493 33 36 32.5274 36 31.8253C36 31.0034 35.4266 30.8253 34.6014 30.6781C33.8741 30.5514 33.6783 30.411 33.6783 30.0651C33.6783 29.7192 33.972 29.5103 34.4266 29.5103C34.8811 29.5103 35.1678 29.6952 35.2587 30.1164H35.8636C35.7587 29.2808 35.1469 29 34.4371 29C33.8182 29 33.1014 29.3699 33.1014 30.0856C33.1014 30.8014 33.451 31.0411 34.4755 31.226C35.0874 31.3356 35.3986 31.4692 35.3986 31.8767C35.3986 32.2842 35.1329 32.4897 34.5385 32.4897" fill="white"/>
<rect x="74" y="28" width="1" height="5" fill="white"/>
<path d="M37.5042 27C37.2286 26.9977 37.0031 27.2189 37 27.4944C36.997 27.77 37.2175 27.9961 37.493 28C37.7686 28.0038 37.9954 27.784 38 27.5084C37.9977 27.2332 37.7752 27.0107 37.5 27.0084" fill="white"/>
<path fill-rule="evenodd" clip-rule="evenodd" d="M44.0385 29C45.0482 29 45.9961 29.5548 45.9961 30.9247L46 31.1301H42.7206C42.7553 32.0103 43.2293 32.5 44.1195 32.5C44.7938 32.5 45.183 32.2671 45.2755 31.8151H45.9653C45.815 32.5925 45.0906 33 44.1079 33C42.8748 33 42 32.2329 42 31.0411V30.9829C42 29.8116 42.8401 29 44.0385 29ZM44.0385 29.5103C43.3295 29.5103 42.8555 29.9452 42.7399 30.6301H45.2871C45.2216 29.8288 44.7476 29.5103 44.0385 29.5103Z" fill="white"/>
<rect x="37" y="29" width="1" height="4" fill="white"/>
<path fill-rule="evenodd" clip-rule="evenodd" d="M28.7068 29.3236C28.7451 29.8079 28.3725 30.2477 27.8156 30.3769C28.6779 30.5523 29 30.9274 29 31.5728V31.6019C29 32.5469 28.2324 33 27.0405 33H25V28H26.7782C27.9007 28 28.7068 28.3236 28.7068 29.2945V29.3236ZM25.6943 28.4757H26.7743C27.6075 28.4757 28.001 28.7055 28.001 29.2718V29.301C28.001 29.9159 27.6692 30.1812 26.7936 30.1812H25.6943V28.4757ZM27.0096 32.5243C27.893 32.5243 28.2787 32.2039 28.2787 31.5955V31.5663C28.2787 30.9515 27.8698 30.657 26.9132 30.657H25.6943V32.5243H27.0096Z" fill="white"/>
<path d="M58 31.5548C58 30.6354 57.357 30.2953 56.135 30.1379C55.0124 29.9868 54.8135 29.7443 54.8135 29.2657C54.8135 28.7872 55.2043 28.4754 55.9574 28.4754C56.7105 28.4754 57.1155 28.7273 57.2469 29.3382H57.8437C57.7371 28.4754 57.0551 28 55.9574 28C54.9201 28 54.1812 28.5699 54.1812 29.3193C54.1812 30.1851 54.8632 30.5031 56.0142 30.6606C57.0586 30.8086 57.3428 31.0416 57.3428 31.6052C57.3428 32.1688 56.7993 32.5246 56.0924 32.5246C54.9876 32.5246 54.7247 32.0334 54.643 31.4572H54C54.0995 32.2884 54.6288 33 56.0959 33C57.1865 33 57.9893 32.3703 57.9893 31.5642" fill="white"/>
<path d="M52 31.8253C52 31.0034 51.4272 30.8253 50.603 30.6781C49.8766 30.5514 49.681 30.411 49.681 30.0651C49.681 29.7192 49.9744 29.5103 50.4284 29.5103C50.8824 29.5103 51.1688 29.6952 51.2596 30.1164H51.8638C51.759 29.2808 51.1478 29 50.4389 29C49.8207 29 49.1048 29.3699 49.1048 30.0856C49.1048 30.8014 49.454 31.0411 50.4773 31.226C51.0885 31.3356 51.3993 31.4692 51.3993 31.8767C51.3993 32.2842 51.1339 32.4897 50.5402 32.4897C49.9464 32.4897 49.6566 32.2021 49.6112 31.7432H49C49.0384 32.5342 49.6042 33 50.5471 33C51.4901 33 51.9965 32.5274 51.9965 31.8253" fill="white"/>
<path d="M42 32.9896V30.5847C42 29.4465 41.476 29.0023 40.722 29.0023C40.2447 28.9721 39.7938 29.2419 39.5623 29.6963V29.0682H39V32.9896H39.5719V30.6229C39.5634 30.3315 39.6679 30.0496 39.8598 29.8458C40.0517 29.642 40.3135 29.5349 40.5815 29.5506C41.1629 29.5506 41.4313 29.8594 41.4313 30.5465V33L42 32.9896Z" fill="white"/>
<path d="M49 31.8253C49 31.0034 48.4266 30.8253 47.6014 30.6781C46.8741 30.5514 46.6783 30.411 46.6783 30.0651C46.6783 29.7192 46.972 29.5103 47.4266 29.5103C47.8811 29.5103 48.1678 29.6952 48.2587 30.1164H48.8636C48.7587 29.2808 48.1469 29 47.4371 29C46.8182 29 46.1014 29.3699 46.1014 30.0856C46.1014 30.8014 46.451 31.0411 47.4755 31.226C48.0874 31.3356 48.3986 31.4692 48.3986 31.8767C48.3986 32.2842 48.1329 32.4897 47.5385 32.4897C46.9441 32.4897 46.6538 32.2021 46.6084 31.7432H46C46.0385 32.5342 46.6049 33 47.549 33C48.493 33 49 32.5274 49 31.8253Z" fill="white"/>
<path d="M64.4287 30.8845V33H65V30.9234C65 29.942 64.4766 29.5589 63.7234 29.5589C63.2464 29.5322 62.7956 29.7651 62.5649 30.1574V28H62V32.997H62.5713V30.9563C62.5604 30.7063 62.6614 30.4633 62.8498 30.286C63.0383 30.1088 63.2971 30.0134 63.5638 30.0227C64.1447 30.0227 64.4128 30.289 64.4128 30.8815" fill="white"/>
<path d="M33 32.932V29H32.4213V31.3836C32.4296 31.6726 32.3261 31.9523 32.1355 32.1561C31.945 32.3599 31.6844 32.4695 31.4159 32.4588C30.8438 32.4588 30.569 32.1491 30.569 31.4601V29H30V31.4879C30 32.5701 30.5431 32.9981 31.2705 32.9981C31.7494 33.0255 32.2006 32.7549 32.431 32.3022V32.925L33 32.932Z" fill="white"/>
<path d="M62 31.5603H61.3659C61.3092 32.125 60.7597 32.546 60.1283 32.5084C59.2955 32.5084 58.7187 32.0052 58.7187 31.0571V30.9989C58.7187 30.0885 59.3223 29.5271 60.1054 29.5271C60.6947 29.4648 61.2293 29.8413 61.301 30.3691H61.9771C61.8434 29.3868 61.003 29 60.1015 29C59.5249 28.9992 58.9734 29.2112 58.5766 29.5862C58.1799 29.9611 57.9729 30.4659 58.0044 30.9818V31.04C57.9664 31.5575 58.1742 32.0654 58.5765 32.4383C58.9788 32.8112 59.5383 33.0144 60.1168 32.9978C61.0776 33.0421 61.9073 32.4012 62 31.5431" fill="white"/>
</svg>
