<svg width="18" height="18" viewBox="0 0 18 18" fill="none" xmlns="http://www.w3.org/2000/svg">
<path fill-rule="evenodd" clip-rule="evenodd" d="M11.7037 8.09921H5.56938C5.19772 8.09921 4.89607 8.40553 4.89607 8.78399C4.89607 9.16245 5.19772 9.46877 5.56938 9.46877H11.7037C12.0758 9.46877 12.377 9.16245 12.377 8.78399C12.377 8.40553 12.0758 8.09921 11.7037 8.09921ZM13.7945 14.0299C10.9505 16.9219 6.32304 16.9219 3.47898 14.0299C0.63493 11.1374 0.63493 6.43062 3.47898 3.5381C6.32304 0.646035 10.9505 0.645579 13.7945 3.5381C16.6386 6.43062 16.6386 11.1374 13.7945 14.0299ZM14.7466 2.56982C11.3773 -0.856834 5.89571 -0.856378 2.52693 2.56982C-0.842309 5.99647 -0.842309 11.5715 2.52693 14.9982C4.21154 16.7115 6.42403 17.5679 8.63653 17.5679C10.8495 17.5679 13.062 16.711 14.7466 14.9982C18.1158 11.5715 18.1158 5.99647 14.7466 2.56982Z" fill="#1C4098"/>
</svg>
