<svg width="18" height="18" viewBox="0 0 18 18" fill="none" xmlns="http://www.w3.org/2000/svg">
<path fill-rule="evenodd" clip-rule="evenodd" d="M11.7079 8.09938H9.3141V5.66475C9.3141 5.28629 9.01245 4.97997 8.64079 4.97997C8.26867 4.97997 7.96748 5.28629 7.96748 5.66475V8.09938H5.57365C5.20153 8.09938 4.90034 8.40571 4.90034 8.78416C4.90034 9.16262 5.20153 9.46895 5.57365 9.46895H7.96748V11.9036C7.96748 12.282 8.26867 12.5884 8.64079 12.5884C9.01245 12.5884 9.3141 12.282 9.3141 11.9036V9.46895H11.7079C12.0796 9.46895 12.3812 9.16262 12.3812 8.78416C12.3812 8.40571 12.0796 8.09938 11.7079 8.09938ZM13.7983 14.0296C12.4207 15.4311 10.5893 16.2026 8.64079 16.2026C6.69223 16.2026 4.86084 15.4311 3.4828 14.0296C2.10521 12.6285 1.34662 10.7655 1.34662 8.78416C1.34662 6.8024 2.10521 4.93979 3.4828 3.53827C4.90483 2.09201 6.77303 1.36888 8.64079 1.36888C10.5085 1.36888 12.3763 2.09201 13.7983 3.53827C16.6424 6.43079 16.6424 11.1371 13.7983 14.0296ZM14.7508 2.56999C11.3816 -0.856663 5.89998 -0.856663 2.53074 2.56999C0.898642 4.2299 0 6.43673 0 8.78416C0 11.1316 0.898642 13.3384 2.53074 14.9979C4.16284 16.6582 6.33269 17.5722 8.64079 17.5722C10.9489 17.5722 13.1187 16.6582 14.7508 14.9979C18.1196 11.5717 18.1196 5.99664 14.7508 2.56999Z" fill="#1C4098"/>
</svg>
