<svg width="14" height="9" viewBox="0 0 14 9" fill="none" xmlns="http://www.w3.org/2000/svg">
<path fill-rule="evenodd" clip-rule="evenodd" d="M13.1996 7.44177C13.1996 7.58318 13.148 7.72495 13.045 7.8336C12.8366 8.05315 12.4958 8.05575 12.2838 7.83956L6.89939 2.34127L1.51499 7.83956C1.30335 8.05575 0.962562 8.05315 0.754145 7.8336C0.545728 7.61369 0.548598 7.26018 0.759885 7.04436L6.52202 1.16019C6.73151 0.946602 7.06728 0.946602 7.27677 1.16019L13.0389 7.04436C13.1458 7.15339 13.1996 7.29777 13.1996 7.44177Z" fill="#1C4098"/>
<path d="M13.1996 7.44177C13.1996 7.58318 13.148 7.72495 13.045 7.8336C12.8366 8.05315 12.4958 8.05575 12.2838 7.83956L6.89939 2.34127L1.51499 7.83956C1.30335 8.05575 0.962562 8.05315 0.754145 7.8336C0.545728 7.61369 0.548598 7.26018 0.759885 7.04436L6.52202 1.16019C6.73151 0.946603 7.06728 0.946603 7.27677 1.16019L13.0389 7.04436C13.1458 7.15339 13.1996 7.29777 13.1996 7.44177" stroke="#1C4098" stroke-width="0.5"/>
</svg>
