<svg width="26" height="40" viewBox="0 0 26 40" fill="none" xmlns="http://www.w3.org/2000/svg">
<path d="M25.61 38.9156C25.8795 38.8558 26.0496 38.5888 25.9897 38.3192L25.0147 33.9261C24.9549 33.6565 24.6878 33.4865 24.4182 33.5463C24.1486 33.6061 23.9786 33.8732 24.0384 34.1428L24.9052 38.0477L21.0002 38.9145C20.7306 38.9743 20.5606 39.2413 20.6204 39.5109C20.6802 39.7805 20.9473 39.9505 21.2169 39.8907L25.61 38.9156ZM25.7702 38.0058C12.9633 29.8513 3.79199 16.4973 1.22774 0.918792L0.241014 1.08121C2.85281 16.9485 12.1934 30.5466 25.2331 38.8493L25.7702 38.0058Z" fill="white"/>
</svg>
