<svg width="21" height="17" viewBox="0 0 21 17" fill="none" xmlns="http://www.w3.org/2000/svg">
<path fill-rule="evenodd" clip-rule="evenodd" d="M0.933914 7.53046H17.8004L11.5643 1.56114C11.1964 1.20832 11.1908 0.632039 11.5519 0.272544C11.9143 -0.0863439 12.5051 -0.091202 12.8731 0.260399L20.7204 7.77215C20.8985 7.94279 20.9994 8.17537 21 8.41827C21.0012 8.66117 20.9029 8.89496 20.7267 9.06682L12.8662 16.7334C12.6838 16.9113 12.4447 17 12.2056 17C11.9672 17 11.7281 16.9113 11.5457 16.7334C11.1808 16.3776 11.1808 15.8007 11.5457 15.4454L17.7929 9.35223H0.933914C0.418394 9.35223 0 8.94415 0 8.44134C0 7.93793 0.418394 7.53046 0.933914 7.53046Z" fill="#1C4098"/>
</svg>
