<svg width="105" height="141" viewBox="0 0 105 141" fill="none" xmlns="http://www.w3.org/2000/svg">
<g style="mix-blend-mode:overlay">
<mask id="path-1-outside-1_3406_8775" maskUnits="userSpaceOnUse" x="-1" y="0.433594" width="106" height="141" fill="black">
<rect fill="white" x="-1" y="0.433594" width="106" height="141"/>
<path fill-rule="evenodd" clip-rule="evenodd" d="M96.5635 139.003C100.401 139.003 103.084 135.205 101.801 131.589L57.2997 6.13276C55.5501 1.20053 48.5749 1.20054 46.8254 6.13277L2.32437 131.589C1.04141 135.205 3.72384 139.003 7.56152 139.003H9.62451C10.9738 139.003 12.2769 138.512 13.2908 137.622L45.6153 109.241C49.3896 105.927 55.0365 105.927 58.8109 109.241L91.1353 137.622C92.1492 138.512 93.4524 139.003 94.8016 139.003H96.5635Z"/>
</mask>
<path d="M45.6153 109.241L44.2957 107.738L45.6153 109.241ZM58.8109 109.241L57.4913 110.744L58.8109 109.241ZM13.2908 137.622L11.9713 136.119L13.2908 137.622ZM2.32437 131.589L0.439443 130.92L2.32437 131.589ZM91.1353 137.622L89.8158 139.125L91.1353 137.622ZM57.2997 6.13276L55.4147 6.80137L57.2997 6.13276ZM55.4147 6.80137L99.9158 132.257L103.686 130.92L59.1846 5.46415L55.4147 6.80137ZM4.2093 132.257L48.7103 6.80138L44.9404 5.46416L0.439443 130.92L4.2093 132.257ZM9.62451 137.003H7.56152L7.56152 141.003H9.62451L9.62451 137.003ZM14.6104 139.125L46.9348 110.744L44.2957 107.738L11.9713 136.119L14.6104 139.125ZM46.9348 110.744C49.9543 108.093 54.4718 108.093 57.4913 110.744L60.1304 107.738C55.6012 103.762 48.8249 103.762 44.2957 107.738L46.9348 110.744ZM57.4913 110.744L89.8158 139.125L92.4549 136.119L60.1304 107.738L57.4913 110.744ZM96.5635 137.003H94.8016L94.8016 141.003H96.5635L96.5635 137.003ZM9.62451 141.003C11.4594 141.003 13.2316 140.336 14.6104 139.125L11.9713 136.119C11.3223 136.689 10.4881 137.003 9.62451 137.003L9.62451 141.003ZM0.439443 130.92C-1.30528 135.839 2.3426 141.003 7.56152 141.003L7.56152 137.003C5.10508 137.003 3.3881 134.572 4.2093 132.257L0.439443 130.92ZM89.8158 139.125C91.1946 140.336 92.9668 141.003 94.8016 141.003L94.8016 137.003C93.938 137.003 93.1039 136.689 92.4549 136.119L89.8158 139.125ZM99.9158 132.257C100.737 134.572 99.02 137.003 96.5635 137.003L96.5635 141.003C101.782 141.003 105.43 135.839 103.686 130.92L99.9158 132.257ZM59.1846 5.46415C56.8054 -1.24327 47.3197 -1.24325 44.9404 5.46416L48.7103 6.80138C49.8302 3.64433 54.2949 3.64434 55.4147 6.80137L59.1846 5.46415Z" fill="#63F6E5" mask="url(#path-1-outside-1_3406_8775)"/>
</g>
</svg>
