<svg width="16" height="13" viewBox="0 0 16 13" fill="none" xmlns="http://www.w3.org/2000/svg">
<path fill-rule="evenodd" clip-rule="evenodd" d="M0.673856 6.88971L12.838 6.88971L8.34052 11.2332C8.07514 11.4899 8.0711 11.9092 8.33154 12.1708C8.59287 12.432 9.019 12.4355 9.28437 12.1797L14.9439 6.71385C15.0723 6.58969 15.145 6.42046 15.1455 6.24371C15.1464 6.06697 15.0755 5.89685 14.9484 5.7718L9.27943 0.193317C9.14786 0.0638519 8.97544 -0.000659403 8.80301 -0.000659388C8.63104 -0.000659373 8.45861 0.0638519 8.32705 0.193317C8.06392 0.452247 8.06392 0.872015 8.32705 1.1305L12.8326 5.56413L0.673856 5.56413C0.302063 5.56413 0.000317958 5.86106 0.00031799 6.22692C0.000318022 6.59322 0.302063 6.88971 0.673856 6.88971Z" fill="white"/>
</svg>
