<svg width="13" height="16" viewBox="0 0 13 16" fill="none" xmlns="http://www.w3.org/2000/svg">
<path fill-rule="evenodd" clip-rule="evenodd" d="M5.47943 14.4717L5.47943 2.30755L1.13594 6.80499C0.87922 7.07036 0.459894 7.0744 0.198313 6.81397C-0.0628266 6.55264 -0.0663615 6.12651 0.189476 5.86114L5.65529 0.201621C5.77945 0.0731993 5.94869 0.000457189 6.12543 8.15532e-06C6.30217 -0.000889903 6.47229 0.0700561 6.59734 0.19713L12.1758 5.86608C12.3053 5.99764 12.3698 6.17007 12.3698 6.34249C12.3698 6.51447 12.3053 6.6869 12.1758 6.81846C11.9169 7.08159 11.4971 7.08159 11.2386 6.81846L6.80501 2.31294L6.80501 14.4717C6.80501 14.8434 6.50808 15.1452 6.14222 15.1452C5.77592 15.1452 5.47943 14.8434 5.47943 14.4717Z" fill="white"/>
</svg>
