<svg width="13" height="13" viewBox="0 0 13 13" fill="none" xmlns="http://www.w3.org/2000/svg">
<path fill-rule="evenodd" clip-rule="evenodd" d="M7.15455 6.1032L12.207 1.13138C12.4701 0.872895 12.4701 0.452686 12.207 0.194198C11.9439 -0.0647326 11.5177 -0.0647326 11.2546 0.194198L6.20216 5.16601L1.14973 0.194198C0.886601 -0.0647326 0.460476 -0.0647326 0.197347 0.194198C-0.0657822 0.452686 -0.0657822 0.872895 0.197347 1.13138L5.24978 6.1032L0.197347 11.075C-0.0657822 11.3335 -0.0657822 11.7537 0.197347 12.0122C0.328911 12.1417 0.501337 12.2062 0.673763 12.2062C0.846189 12.2062 1.01817 12.1417 1.14973 12.0122L6.20216 7.04038L11.2546 12.0122C11.3862 12.1417 11.5586 12.2062 11.731 12.2062C11.9034 12.2062 12.0754 12.1417 12.207 12.0122C12.4701 11.7537 12.4701 11.3335 12.207 11.075L7.15455 6.1032Z" fill="#224293"/>
</svg>
