<svg width="426" height="426" viewBox="0 0 426 426" fill="none" xmlns="http://www.w3.org/2000/svg">
<g style="mix-blend-mode:soft-light">
<path d="M207.266 425.992C206.634 425.992 206.03 425.964 205.427 425.935L206.002 409.872C206.576 409.872 207.151 409.901 207.697 409.93L207.266 425.992ZM218.356 425.992L217.954 409.93C218.529 409.93 219.103 409.901 219.649 409.872L220.195 425.935C219.592 425.935 218.96 425.964 218.356 425.992ZM194.394 425.215C193.791 425.158 193.158 425.1 192.555 425.042L194.107 409.037C194.681 409.095 195.227 409.152 195.802 409.181L194.394 425.186L194.394 425.215ZM231.314 425.244L229.964 409.21C230.538 409.152 231.113 409.124 231.659 409.066L233.153 425.071C232.55 425.129 231.918 425.186 231.314 425.244ZM181.551 423.689C180.948 423.603 180.315 423.517 179.712 423.402L182.24 407.512C182.786 407.598 183.361 407.684 183.907 407.771L181.551 423.661L181.551 423.689ZM244.186 423.747L241.859 407.828C242.433 407.742 242.979 407.655 243.554 407.569L246.025 423.459C245.421 423.546 244.818 423.661 244.186 423.747ZM168.823 421.387C168.219 421.271 167.616 421.128 167.013 420.984L170.489 405.295C171.035 405.41 171.581 405.525 172.156 405.669L168.823 421.387ZM256.943 421.473L253.639 405.756C254.185 405.64 254.759 405.525 255.305 405.41L258.753 421.099C258.15 421.243 257.546 421.358 256.943 421.473ZM156.238 418.306C155.635 418.134 155.06 417.961 154.457 417.817L158.853 402.359C159.399 402.532 159.945 402.675 160.519 402.819L156.238 418.306ZM269.527 418.422L265.275 402.934C265.821 402.791 266.367 402.618 266.913 402.474L271.309 417.932C270.705 418.105 270.131 418.278 269.527 418.422ZM143.855 414.478C143.28 414.276 142.677 414.075 142.102 413.873L147.475 398.732C148.021 398.933 148.538 399.106 149.084 399.307L143.855 414.507L143.855 414.478ZM281.882 414.622L276.682 399.423C277.227 399.25 277.773 399.048 278.291 398.847L283.606 414.017C283.031 414.219 282.457 414.42 281.853 414.622L281.882 414.622ZM131.673 409.872C131.098 409.642 130.523 409.383 129.977 409.152L136.27 394.356C136.787 394.586 137.333 394.817 137.85 395.018L131.701 409.872L131.673 409.872ZM293.978 410.045L287.858 395.191C288.375 394.961 288.893 394.759 289.438 394.529L295.702 409.325C295.127 409.555 294.581 409.814 294.007 410.045L293.978 410.045ZM119.835 404.518C119.289 404.23 118.715 403.971 118.169 403.683L125.352 389.29C125.869 389.549 126.386 389.808 126.903 390.067L119.835 404.518ZM305.729 404.748L298.719 390.269C299.236 390.038 299.724 389.779 300.242 389.52L307.396 403.913C306.85 404.201 306.275 404.46 305.729 404.748ZM108.371 398.415C107.825 398.098 107.308 397.81 106.762 397.494L114.807 383.59C115.296 383.878 115.784 384.166 116.301 384.454L108.371 398.444L108.371 398.415ZM317.165 398.703L309.292 384.684C309.78 384.396 310.269 384.108 310.786 383.849L318.802 397.782C318.256 398.098 317.739 398.386 317.193 398.703L317.165 398.703ZM97.2807 391.65C96.7636 391.305 96.2464 390.988 95.7292 390.643L104.607 377.257C105.096 377.574 105.555 377.89 106.044 378.207L97.2807 391.679L97.2807 391.65ZM328.226 391.996L319.492 378.495C319.98 378.178 320.44 377.862 320.928 377.545L329.749 390.959C329.232 391.305 328.715 391.622 328.226 391.967L328.226 391.996ZM86.65 384.223C86.1616 383.849 85.6731 383.475 85.1559 383.101L94.8385 370.291C95.2982 370.636 95.7579 370.982 96.2176 371.327L86.65 384.223ZM338.857 384.626L329.347 371.673C329.806 371.327 330.266 371.01 330.697 370.665L340.322 383.533C339.834 383.907 339.345 384.281 338.828 384.655L338.857 384.626ZM76.5364 376.192C76.0767 375.789 75.5883 375.386 75.1286 374.983L85.5582 362.778C85.9891 363.152 86.4201 363.526 86.8511 363.871L76.5364 376.192ZM349.057 376.653L338.771 364.303C339.202 363.929 339.633 363.584 340.064 363.209L350.465 375.472C350.005 375.875 349.516 376.278 349.057 376.653ZM66.8538 367.556C66.4228 367.124 65.9631 366.721 65.5322 366.289L76.6801 354.717C77.0823 355.12 77.5133 355.523 77.9155 355.898L66.8538 367.556ZM358.711 368.045L347.706 356.358C348.109 355.955 348.54 355.581 348.942 355.178L360.061 366.779C359.63 367.211 359.17 367.642 358.739 368.045L358.711 368.045ZM57.7459 358.316C57.3149 357.855 56.9126 357.423 56.5104 356.963L68.3479 346.11C68.7214 346.542 69.1236 346.945 69.4971 347.377L57.7459 358.344L57.7459 358.316ZM367.847 358.863L356.153 347.837C356.527 347.434 356.929 347.003 357.303 346.6L369.111 357.51C368.68 357.97 368.278 358.431 367.847 358.863ZM49.2125 348.586C48.8103 348.097 48.4368 347.636 48.0345 347.147L60.5041 337.043C60.8489 337.474 61.2224 337.935 61.5959 338.367L49.2125 348.586ZM376.409 349.133L364.083 338.856C364.457 338.424 364.802 337.993 365.175 337.532L377.616 347.694C377.214 348.183 376.84 348.643 376.438 349.133L376.409 349.133ZM41.2826 338.338C40.9091 337.849 40.5643 337.33 40.1908 336.841L53.2637 327.486C53.5797 327.946 53.9245 328.407 54.2693 328.867L41.2826 338.338ZM384.368 338.885L371.41 329.385C371.755 328.925 372.071 328.464 372.416 328.004L385.431 337.388C385.058 337.877 384.713 338.396 384.339 338.885L384.368 338.885ZM33.9847 327.629C33.6399 327.111 33.3239 326.593 33.0078 326.075L46.5979 317.554C46.8853 318.044 47.2013 318.533 47.5174 318.994L33.9847 327.629ZM391.695 328.176L378.191 319.512C378.507 319.022 378.794 318.533 379.11 318.044L392.671 326.622C392.355 327.14 392.011 327.658 391.695 328.176ZM27.3764 316.518C27.0891 315.971 26.7731 315.424 26.4857 314.906L40.593 307.22C40.8516 307.709 41.1389 308.227 41.4262 308.717L27.4052 316.518L27.3764 316.518ZM398.389 317.036L384.397 309.177C384.684 308.688 384.943 308.17 385.23 307.681L399.308 315.395C399.021 315.942 398.705 316.489 398.418 317.007L398.389 317.036ZM21.4577 305.032C21.1991 304.485 20.9405 303.909 20.6819 303.363L35.2202 296.54C35.45 297.058 35.7086 297.576 35.9385 298.095L21.4577 305.032ZM404.365 305.522L389.913 298.555C390.172 298.037 390.402 297.519 390.66 297.001L405.17 303.852C404.911 304.399 404.653 304.975 404.365 305.522ZM16.2285 293.23C15.9986 292.654 15.7688 292.078 15.5389 291.503L30.4507 285.601C30.6518 286.12 30.8817 286.666 31.0828 287.185L16.1998 293.23L16.2285 293.23ZM409.623 293.633L394.769 287.559C394.999 287.041 395.2 286.494 395.401 285.976L410.313 291.906C410.083 292.481 409.853 293.057 409.623 293.633ZM11.7176 281.082C11.5165 280.506 11.3154 279.902 11.143 279.326L26.3995 274.346C26.5719 274.893 26.7443 275.44 26.9454 275.987L11.7463 281.111L11.7176 281.082ZM414.163 281.456L398.964 276.303C399.136 275.757 399.337 275.21 399.51 274.691L414.766 279.7C414.565 280.305 414.364 280.88 414.163 281.485L414.163 281.456ZM7.98248 268.646C7.81009 268.042 7.66644 267.466 7.52278 266.861L23.0666 262.831C23.2103 263.378 23.3539 263.925 23.4976 264.501L8.01122 268.675L7.98248 268.646ZM417.927 269.02L402.44 264.818C402.584 264.271 402.728 263.724 402.871 263.177L418.386 267.236C418.243 267.84 418.07 268.445 417.898 269.02L417.927 269.02ZM5.02311 255.98C4.90818 255.376 4.79325 254.771 4.67832 254.167L20.4233 251.087C20.5382 251.633 20.6532 252.209 20.7681 252.756L5.05185 255.951L5.02311 255.98ZM420.943 256.383L405.227 253.13C405.342 252.583 405.457 252.008 405.572 251.461L421.317 254.541C421.202 255.145 421.087 255.779 420.943 256.383ZM2.83948 243.199C2.75329 242.595 2.6671 241.99 2.58091 241.357L18.4983 239.255C18.5845 239.831 18.6419 240.378 18.7281 240.954L2.83948 243.199ZM423.156 243.573L407.267 241.299C407.353 240.723 407.411 240.177 407.497 239.601L423.414 241.731C423.328 242.336 423.242 242.969 423.156 243.573ZM1.43163 230.303C1.37416 229.698 1.34542 229.065 1.28796 228.46L17.2915 227.338C17.3203 227.914 17.3777 228.489 17.4065 229.036L1.40289 230.303L1.43163 230.303ZM424.621 230.677L408.617 229.382C408.675 228.806 408.704 228.259 408.761 227.683L424.765 228.835C424.707 229.439 424.678 230.073 424.621 230.677ZM0.828257 217.349C0.828256 216.744 0.828256 216.111 0.828255 215.507L16.8606 215.363C16.8606 215.938 16.8606 216.485 16.8606 217.061L0.828257 217.349ZM425.282 217.723L409.25 217.378C409.25 216.802 409.25 216.226 409.25 215.679L409.25 215.392L425.311 215.593L425.311 215.881C425.311 216.485 425.311 217.119 425.282 217.723ZM17.0042 205.028L0.971894 204.366C0.971894 203.762 1.02938 203.129 1.05811 202.524L17.0904 203.33C17.0617 203.906 17.0329 204.481 17.0042 205.057L17.0042 205.028ZM409.106 205.086C409.106 204.51 409.048 203.963 409.02 203.388L425.052 202.582C425.081 203.215 425.109 203.819 425.138 204.453L409.106 205.086ZM17.8374 193.082L1.86258 191.441C1.92005 190.837 1.97751 190.203 2.0637 189.599L18.0098 191.355C17.9523 191.931 17.8949 192.506 17.8374 193.053L17.8374 193.082ZM408.244 193.14C408.186 192.564 408.129 192.017 408.072 191.441L424.018 189.685C424.075 190.29 424.161 190.923 424.219 191.528L408.244 193.14ZM19.4177 181.193L3.58648 178.574C3.7014 177.969 3.7876 177.365 3.90252 176.76L19.705 179.495C19.6188 180.071 19.5039 180.618 19.4177 181.193ZM406.664 181.251C406.577 180.675 406.491 180.128 406.376 179.553L422.179 176.818C422.294 177.422 422.38 178.027 422.495 178.66L406.664 181.251ZM21.6875 169.42L6.0574 165.85C6.20105 165.246 6.34472 164.641 6.48838 164.037L22.0897 167.75C21.946 168.297 21.8311 168.873 21.7162 169.42L21.6875 169.42ZM404.365 169.506C404.25 168.959 404.107 168.383 403.963 167.836L419.593 164.123C419.737 164.728 419.88 165.332 419.995 165.908L404.365 169.477L404.365 169.506ZM24.7043 157.819L9.30406 153.299C9.47645 152.695 9.64885 152.119 9.82124 151.515L25.164 156.178C24.9916 156.725 24.8479 157.272 24.6755 157.819L24.7043 157.819ZM401.348 157.905C401.176 157.358 401.032 156.811 400.86 156.264L416.231 151.601C416.404 152.177 416.576 152.781 416.749 153.357L401.348 157.905ZM28.4394 146.419L13.3552 140.95C13.5564 140.374 13.7862 139.799 13.9873 139.194L29.0428 144.779C28.8416 145.326 28.6405 145.844 28.4394 146.391L28.4394 146.419ZM397.642 146.506C397.441 145.959 397.268 145.441 397.067 144.894L412.123 139.28C412.353 139.856 412.554 140.432 412.755 141.036L397.671 146.477L397.642 146.506ZM32.8641 135.222L18.1247 128.831C18.3833 128.255 18.6131 127.679 18.8717 127.133L33.5536 133.638C33.3238 134.156 33.0939 134.703 32.8641 135.222ZM393.246 135.365C393.016 134.847 392.786 134.329 392.556 133.811L407.238 127.305C407.497 127.881 407.727 128.428 407.985 129.004L393.246 135.365ZM37.9783 124.34L23.6699 117.057C23.9572 116.51 24.2445 115.935 24.5319 115.388L38.7541 122.815C38.4955 123.333 38.2369 123.822 37.9783 124.34ZM388.189 124.542C387.931 124.024 387.672 123.534 387.413 123.016L401.664 115.618C401.952 116.165 402.239 116.712 402.498 117.259L388.189 124.513L388.189 124.542ZM43.7246 113.804L29.9047 105.658C30.2207 105.14 30.5368 104.593 30.8528 104.075L44.6153 112.336C44.328 112.826 44.0407 113.315 43.7534 113.804L43.7246 113.804ZM382.472 114.064C382.184 113.574 381.897 113.085 381.61 112.595L395.372 104.334C395.688 104.852 396.004 105.399 396.32 105.917L382.472 114.035L382.472 114.064ZM50.1318 103.643L36.829 94.6616C37.1738 94.1434 37.5186 93.6253 37.8634 93.1071L51.0799 102.204C50.7639 102.664 50.4478 103.154 50.1318 103.614L50.1318 103.643ZM376.122 103.931C375.806 103.441 375.49 102.981 375.174 102.52L388.419 93.4526C388.764 93.9707 389.109 94.4601 389.453 94.9782L376.122 103.931ZM57.1136 93.9131L44.3854 84.1546C44.759 83.6652 45.1325 83.1758 45.506 82.6865L58.1767 92.5602C57.8319 93.0208 57.4871 93.4525 57.1136 93.9131ZM369.169 94.201C368.824 93.7404 368.479 93.3086 368.134 92.8481L380.805 82.9743C381.179 83.4637 381.552 83.9531 381.926 84.4424L369.14 94.1722L369.169 94.201ZM64.67 84.6439L52.5453 74.1081C52.9475 73.6475 53.3497 73.187 53.752 72.7264L65.7906 83.3485C65.4171 83.7803 65.0436 84.2121 64.67 84.6439ZM361.612 84.9318C361.239 84.5 360.865 84.0682 360.492 83.6364L372.53 73.0143C372.933 73.4749 373.335 73.9354 373.737 74.4248L361.584 84.9318L361.612 84.9318ZM72.7724 75.8353L61.3084 64.5799C61.7394 64.1481 62.1704 63.6875 62.6013 63.2557L73.9791 74.5975C73.5769 75.0005 73.1746 75.4035 72.7724 75.8065L72.7724 75.8353ZM353.539 76.0944C353.136 75.6914 352.734 75.2884 352.332 74.8854L363.71 63.5723C364.141 64.0041 364.572 64.4647 365.003 64.8965L353.51 76.1232L353.539 76.0944ZM81.3919 67.5161L70.6175 55.5985C71.0772 55.1955 71.5369 54.7637 71.9966 54.3607L82.6561 66.3646C82.2251 66.7388 81.7941 67.1131 81.3919 67.5161ZM344.919 67.7752C344.488 67.4009 344.086 66.9979 343.655 66.6237L354.343 54.6198C354.803 55.0228 355.263 55.4546 355.722 55.8576L344.919 67.7464L344.919 67.7752ZM90.5286 59.7438L80.5012 47.1929C80.9896 46.8187 81.4493 46.4157 81.9378 46.0414L91.8502 58.6786C91.3905 59.0241 90.9595 59.3983 90.4998 59.7438L90.5286 59.7438ZM335.84 59.974C335.38 59.6286 334.949 59.2544 334.49 58.909L344.431 46.3005C344.919 46.6748 345.408 47.0778 345.867 47.452L335.811 59.974L335.84 59.974ZM100.096 52.5759L90.8446 39.4206C91.3331 39.0751 91.8502 38.7009 92.3674 38.3555L101.504 51.5684C101.044 51.8851 100.556 52.2305 100.096 52.5472L100.096 52.5759ZM326.301 52.7775C325.841 52.4608 325.353 52.1154 324.893 51.7987L334.059 38.5858C334.576 38.9313 335.064 39.3055 335.581 39.6509L326.33 52.7775L326.301 52.7775ZM110.095 45.9839L101.648 32.3104C102.165 31.9937 102.711 31.6483 103.228 31.3316L111.531 45.0915C111.043 45.3794 110.555 45.696 110.066 45.9839L110.095 45.9839ZM316.331 46.1278C315.843 45.84 315.354 45.5233 314.866 45.2355L323.198 31.5044C323.715 31.821 324.261 32.1665 324.778 32.4831L316.302 46.1278L316.331 46.1278ZM120.467 39.9963L112.882 25.8334C113.428 25.5456 113.974 25.2577 114.52 24.9698L121.99 39.1903C121.473 39.4494 120.984 39.7085 120.496 39.9963L120.467 39.9963ZM305.988 40.1115C305.499 39.8524 304.982 39.5645 304.465 39.3055L311.935 25.085C312.481 25.3729 313.027 25.6607 313.573 25.9486L305.959 40.1115L305.988 40.1115ZM131.155 34.6421L124.432 20.0474C124.978 19.7883 125.553 19.5292 126.098 19.2701L132.678 33.9224C132.161 34.1527 131.644 34.383 131.126 34.6421L131.155 34.6421ZM295.242 34.7284C294.725 34.4981 294.208 34.2391 293.691 34.0088L300.27 19.3565C300.845 19.6156 301.391 19.8747 301.965 20.1338L295.242 34.7284ZM142.131 29.9787L136.327 14.981C136.902 14.7507 137.476 14.5492 138.051 14.3189L143.74 29.3454C143.194 29.5469 142.677 29.7484 142.131 29.9499L142.131 29.9787ZM284.209 30.0075C283.663 29.806 283.146 29.6045 282.6 29.403L288.289 14.3765C288.864 14.6068 289.438 14.8083 290.013 15.0386L284.209 30.0363L284.209 30.0075ZM153.422 25.9486L148.538 10.6342C149.113 10.4327 149.716 10.26 150.291 10.0873L155.031 25.4304C154.485 25.6031 153.939 25.7759 153.394 25.9486L153.422 25.9486ZM272.889 25.9486C272.343 25.7759 271.797 25.6031 271.251 25.4304L275.992 10.0873C276.595 10.26 277.17 10.4615 277.773 10.6343L272.889 25.9486ZM164.915 22.6094L160.979 7.00718C161.582 6.86325 162.185 6.71931 162.789 6.57538L166.581 22.2064C166.035 22.3503 165.49 22.4654 164.915 22.6094ZM261.396 22.6094C260.85 22.4654 260.304 22.3215 259.73 22.2064L263.551 6.57539C264.154 6.71932 264.729 6.86324 265.332 7.03596L261.396 22.6094ZM176.609 19.9898L173.649 4.18611C174.253 4.07096 174.856 3.95581 175.46 3.84067L178.275 19.6732C177.701 19.7595 177.155 19.8747 176.58 19.9898L176.609 19.9898ZM249.702 19.9898C249.156 19.8747 248.582 19.7883 248.007 19.6732L250.852 3.84067C251.455 3.95582 252.058 4.07097 252.662 4.18612L249.674 19.9898L249.702 19.9898ZM188.418 18.0899L186.406 2.14228C187.01 2.05592 187.613 1.99835 188.245 1.91199L190.113 17.8884C189.538 17.946 188.992 18.0323 188.418 18.0899ZM237.894 18.0899C237.319 18.0323 236.773 17.946 236.198 17.8884L238.066 1.91199C238.669 1.96956 239.301 2.05593 239.905 2.14229L237.922 18.0899L237.894 18.0899ZM200.341 16.9385L199.307 0.904471C199.91 0.875685 200.542 0.818109 201.146 0.789323L202.036 16.8521C201.462 16.8809 200.887 16.9097 200.341 16.9673L200.341 16.9385ZM225.97 16.9385C225.395 16.9097 224.821 16.8809 224.246 16.8233L225.137 0.760532C225.74 0.789319 226.372 0.818108 226.975 0.875681L225.97 16.9097L225.97 16.9385ZM212.294 16.5355L212.236 0.472672C212.839 0.472672 213.472 0.472672 214.075 0.472673L213.989 16.5355L212.294 16.5355Z" fill="white"/>
</g>
</svg>
