<svg width="14" height="14" viewBox="0 0 14 14" fill="none" xmlns="http://www.w3.org/2000/svg">
<path fill-rule="evenodd" clip-rule="evenodd" d="M12.3354 12.1946C12.3318 12.794 11.9316 12.8932 11.6979 12.8989C11.6979 12.8989 2.14964 12.9006 1.73527 12.901C1.54756 12.901 1.39881 12.8491 1.29257 12.7464C1.14027 12.596 1.06236 12.3152 1.06236 11.9373C1.06236 11.5938 1.06236 8.056 1.06236 5.58112H12.3389C12.3389 7.95855 12.3425 11.354 12.3354 12.1946ZM1.06236 3.17073C1.06236 2.62072 1.27486 2.38515 1.77423 2.38234C1.82027 2.38234 2.20277 2.38234 2.79422 2.38234V3.15496C2.79422 3.44521 3.03151 3.68078 3.32546 3.68078C3.61588 3.68078 3.85671 3.44521 3.85671 3.15496V2.38199C4.08337 2.38199 4.32421 2.38199 4.57566 2.38199C6.13044 2.38199 8.0323 2.38199 9.46312 2.38199V3.15496C9.46312 3.44521 9.70041 3.68078 9.99437 3.68078C10.2883 3.68078 10.5256 3.44521 10.5256 3.15496V2.38199C11.1666 2.38199 11.5775 2.38234 11.5916 2.38234C11.8502 2.39076 12.0343 2.45596 12.1512 2.58286C12.3177 2.75954 12.3425 3.04629 12.3389 3.13638C12.3389 3.14795 12.3389 3.15986 12.3389 3.17178C12.3389 3.19176 12.3389 3.72811 12.3389 4.52946H1.06236C1.06236 3.71479 1.06236 3.17108 1.06236 3.17108V3.17073ZM13.4016 3.18405C13.4051 3.03892 13.4051 2.38585 12.9447 1.8814C12.7251 1.64268 12.3214 1.35383 11.6095 1.33069C11.5351 1.33069 11.1278 1.33069 10.5258 1.33069V0.525826C10.5258 0.235219 10.2885 0 9.99451 0C9.70055 0 9.46326 0.235219 9.46326 0.525826V1.33069C7.79515 1.33069 5.50726 1.33069 3.85685 1.33069V0.525826C3.85685 0.235219 3.61602 0 3.32561 0C3.03165 0 2.79436 0.235219 2.79436 0.525826V1.33069C2.19937 1.33069 1.81333 1.33069 1.77083 1.33069C0.913753 1.3356 -0.00353141 1.82181 1.02232e-05 3.17178C1.02232e-05 3.25872 0.00355186 11.4027 1.02232e-05 11.9348C1.02232e-05 12.61 0.180634 13.1334 0.541881 13.4902C0.850003 13.7928 1.26083 13.9526 1.73187 13.9526C1.73541 13.9526 1.73541 13.9526 1.73541 13.9526C2.15333 13.9523 11.698 13.9505 11.6945 13.9505C11.698 13.9505 11.698 13.9505 11.698 13.9505C12.378 13.9505 13.3909 13.485 13.398 12.2013C13.4086 10.9039 13.4016 3.54617 13.4016 3.18405Z" fill="white"/>
</svg>
