<svg width="10" height="13" viewBox="0 0 10 13" fill="none" xmlns="http://www.w3.org/2000/svg">
<path fill-rule="evenodd" clip-rule="evenodd" d="M9.51613 11.9868H0.483871C0.216452 11.9868 0 12.2001 0 12.463C0 12.7261 0.216452 12.9391 0.483871 12.9391H9.51613C9.78355 12.9391 10 12.7261 10 12.463C10 12.2001 9.78355 11.9868 9.51613 11.9868Z" fill="white"/>
<path fill-rule="evenodd" clip-rule="evenodd" d="M4.58434 10.5642C4.67498 10.6546 4.79853 10.7061 4.92756 10.7067C5.0566 10.7073 5.18079 10.6572 5.27208 10.5674L9.34466 6.55976C9.43918 6.46675 9.48627 6.34486 9.48627 6.22296C9.48627 6.10107 9.43918 5.97917 9.34466 5.88617C9.15563 5.70047 8.84918 5.70047 8.66047 5.88617L5.42369 9.07129V0.47615C5.42369 0.212998 5.20692 0 4.93982 0C4.6724 0 4.45595 0.212998 4.45595 0.47615V9.07542L1.28498 5.89601C1.09756 5.70809 0.791435 5.70555 0.600467 5.88966C0.409822 6.07409 0.407241 6.37565 0.594015 6.56293L4.58434 10.5642Z" fill="white"/>
</svg>
