<svg width="220" height="30" viewBox="0 0 220 30" fill="none" xmlns="http://www.w3.org/2000/svg">
<path d="M0.1875 22.7395H10.5084V19.6839H3.67005V16.4045H10.5084V13.3474H3.67005V10.1821H10.5084V7.125H0.1875V22.7395Z" fill="white"/>
<path d="M37.458 7.12254V16.0684C37.458 18.545 36.161 19.8157 34.0211 19.8157C31.8812 19.8157 30.5843 18.5002 30.5843 15.9558V7.12109H27.0781V16.0439C27.0781 20.6403 29.697 22.9811 33.9769 22.9811C38.2568 22.9811 40.967 20.662 40.967 15.9327V7.12109H37.458V7.12254Z" fill="white"/>
<path fill-rule="evenodd" clip-rule="evenodd" d="M24.54 11.2049C24.54 12.9666 23.585 13.9486 22.4458 14.5724C24.2895 15.2655 25.4287 16.3125 25.4287 18.4078V18.4526C25.4287 21.1659 23.2888 22.5869 19.9904 22.7226C19.818 22.7298 19.6426 22.7356 19.4643 22.7356H13.0312V7.12109H19.2816C19.5262 7.12109 19.7605 7.1312 19.9904 7.14853C21.476 7.26117 22.6595 7.73193 23.4479 8.50449C24.176 9.2193 24.54 10.0872 24.54 11.1587V11.2049ZM16.4473 10.1367H18.7611C19.2474 10.1367 19.6557 10.206 19.9932 10.3259C20.6829 10.5728 21.0602 11.0537 21.0602 11.7425V11.7887C21.0602 12.5194 20.6696 12.9844 19.9932 13.227C19.5967 13.3714 19.1045 13.4393 18.5327 13.4393H16.4473V10.1367ZM21.9474 18.0345C21.9474 19.0554 21.2223 19.5912 19.9932 19.7038C19.8266 19.7197 19.6513 19.7284 19.467 19.7284H16.4473V16.293H19.3521C19.582 16.293 19.7957 16.3045 19.9932 16.3247C21.3417 16.4663 21.9474 17.0742 21.9474 17.9868V18.0345Z" fill="white"/>
<path d="M60.146 22.44H58.562V6.886H60.146V22.44Z" fill="white"/>
<path d="M82.136 22H79.562V7.326H86.008C89.088 7.326 90.804 9.438 90.804 11.924C90.804 14.41 89.066 16.522 86.008 16.522H82.136V22ZM85.656 14.256C87.108 14.256 88.164 13.332 88.164 11.924C88.164 10.516 87.108 9.592 85.656 9.592H82.136V14.256H85.656ZM97.9628 22.264C95.2568 22.264 93.2988 21.318 92.0008 19.932L93.4308 17.952C94.4428 19.03 96.0268 19.976 98.0728 19.976C100.185 19.976 101.021 18.942 101.021 17.974C101.021 14.894 92.4628 16.808 92.4628 11.396C92.4628 8.976 94.5968 7.106 97.8088 7.106C100.097 7.106 101.945 7.832 103.309 9.152L101.835 11.066C100.691 9.922 99.1288 9.394 97.5888 9.394C96.0708 9.394 95.1028 10.12 95.1028 11.22C95.1028 13.948 103.639 12.254 103.639 17.732C103.639 20.174 101.923 22.264 97.9628 22.264ZM121.255 22H118.681V11.11L114.171 22H113.071L108.583 11.11V22H106.009V7.326H109.639L113.621 16.984L117.625 7.326H121.255V22ZM137.069 22.264C132.735 22.264 129.369 19.184 129.369 14.674C129.369 10.164 132.735 7.084 137.069 7.084C140.039 7.084 141.865 8.624 142.965 10.384L140.765 11.506C140.061 10.296 138.653 9.372 137.069 9.372C134.165 9.372 132.009 11.594 132.009 14.674C132.009 17.754 134.165 19.976 137.069 19.976C138.653 19.976 140.061 19.074 140.765 17.842L142.965 18.964C141.843 20.724 140.039 22.264 137.069 22.264ZM149.755 22.264C146.389 22.264 144.299 19.734 144.299 16.676C144.299 13.64 146.389 11.11 149.755 11.11C153.165 11.11 155.233 13.64 155.233 16.676C155.233 19.734 153.165 22.264 149.755 22.264ZM149.755 20.218C151.735 20.218 152.835 18.568 152.835 16.676C152.835 14.806 151.735 13.156 149.755 13.156C147.797 13.156 146.697 14.806 146.697 16.676C146.697 18.568 147.797 20.218 149.755 20.218ZM172.904 22H170.594V15.07C170.594 13.926 170.088 13.156 168.856 13.156C167.822 13.156 166.854 13.882 166.392 14.564V22H164.082V15.07C164.082 13.926 163.576 13.156 162.322 13.156C161.31 13.156 160.364 13.882 159.88 14.586V22H157.57V11.374H159.88V12.826C160.32 12.166 161.728 11.11 163.334 11.11C164.918 11.11 165.886 11.902 166.238 13.068C166.854 12.1 168.262 11.11 169.846 11.11C171.804 11.11 172.904 12.166 172.904 14.322V22ZM181.616 22.264C180.274 22.264 179.064 21.67 178.206 20.526V26.048H175.896V11.374H178.206V12.826C178.998 11.77 180.23 11.11 181.616 11.11C184.366 11.11 186.324 13.178 186.324 16.676C186.324 20.174 184.366 22.264 181.616 22.264ZM180.934 20.218C182.76 20.218 183.926 18.744 183.926 16.676C183.926 14.63 182.76 13.156 180.934 13.156C179.856 13.156 178.712 13.794 178.206 14.586V18.788C178.712 19.558 179.856 20.218 180.934 20.218ZM197.415 22H195.105V20.856C194.313 21.758 193.081 22.264 191.673 22.264C189.935 22.264 187.977 21.098 187.977 18.744C187.977 16.302 189.935 15.29 191.673 15.29C193.103 15.29 194.335 15.752 195.105 16.654V15.07C195.105 13.838 194.093 13.09 192.619 13.09C191.431 13.09 190.397 13.53 189.473 14.432L188.527 12.826C189.759 11.66 191.299 11.11 192.993 11.11C195.347 11.11 197.415 12.1 197.415 14.96V22ZM192.575 20.68C193.587 20.68 194.577 20.306 195.105 19.58V17.974C194.577 17.248 193.587 16.874 192.575 16.874C191.277 16.874 190.309 17.622 190.309 18.788C190.309 19.932 191.277 20.68 192.575 20.68ZM204.04 22.264C202.236 22.264 200.586 21.692 199.486 20.614L200.542 18.942C201.29 19.712 202.764 20.438 204.15 20.438C205.536 20.438 206.24 19.844 206.24 19.008C206.24 16.918 199.816 18.414 199.816 14.344C199.816 12.606 201.312 11.11 203.996 11.11C205.8 11.11 207.164 11.748 208.132 12.606L207.164 14.234C206.526 13.508 205.338 12.958 204.018 12.958C202.808 12.958 202.038 13.508 202.038 14.256C202.038 16.148 208.462 14.74 208.462 18.964C208.462 20.834 206.9 22.264 204.04 22.264ZM214.417 22.264C212.613 22.264 210.963 21.692 209.863 20.614L210.919 18.942C211.667 19.712 213.141 20.438 214.527 20.438C215.913 20.438 216.617 19.844 216.617 19.008C216.617 16.918 210.193 18.414 210.193 14.344C210.193 12.606 211.689 11.11 214.373 11.11C216.177 11.11 217.541 11.748 218.509 12.606L217.541 14.234C216.903 13.508 215.715 12.958 214.395 12.958C213.185 12.958 212.415 13.508 212.415 14.256C212.415 16.148 218.839 14.74 218.839 18.964C218.839 20.834 217.277 22.264 214.417 22.264Z" fill="white"/>
</svg>
