<svg fill="none" xmlns="http://www.w3.org/2000/svg" viewBox="0 0 181 105">
  <path d="M151.32 2.89v26.95a40.54 40.54 0 0 1 6.35 21.96v.22c0 8.06-2.3 15.56-6.35 21.9v26.69h.71c17.46-9.57 28.15-27.79 28.15-48.57v-.32c0-21.16-10.94-39.5-28.86-48.83Z" fill="#1B4098"/>
  <path fill-rule="evenodd" clip-rule="evenodd" d="M88.93.18c19.38 0 37.17 10.92 46.6 27V77c-9.43 16.13-27.5 27.1-47.15 27.1h-.47c-28.64 0-52.68-23.32-52.68-51.96C35.23 23.49 60.6.18 88.93.18Zm-31.2 51.97c0 18.6 14.35 30.35 29.86 30.52 15.53-.17 30.6-11.92 30.6-30.52 0-18.74-15.69-31.4-29.85-31.4-14.16 0-30.6 12.66-30.6 31.4Z" fill="#1B4098"/>
  <path d="M22.27 10.77A48.9 48.9 0 0 0 .18 52.15c0 17.4 7.93 32.79 22.09 42.23V10.77Z" fill="#1B4098"/>
</svg>
