<svg width="251" height="276" viewBox="0 0 251 276" fill="none" xmlns="http://www.w3.org/2000/svg">
<g opacity="0.06">
<path fill-rule="evenodd" clip-rule="evenodd" d="M131.091 71.6968C106.042 29.0118 58.8401 0 7.41599 0C-67.7284 0 -135.094 61.9085 -135.094 138.005C-135.094 214.078 -71.2976 276 4.72305 276H5.96436C58.0883 275.975 106.042 246.862 131.091 204.026V71.6968ZM3.87225 219.053C-37.2939 218.602 -75.355 187.396 -75.355 138.006C-75.355 88.2525 -31.7207 54.6035 5.85085 54.6035C43.4236 54.6035 85.0648 88.2525 85.0648 138.006C85.0648 187.396 45.0626 218.602 3.87225 219.053ZM173.117 7V78.7148C183.928 95.5673 190.063 115.559 190.063 137.131V137.722C190.063 159.158 183.914 179.123 173.117 196.014V267H175.019C221.623 241.533 250.171 193.063 250.171 137.759V136.918C250.171 80.6235 220.954 31.8377 173.117 7ZM-228.16 137.866C-228.16 93.0074 -206.966 53.2111 -169.119 28V250C-206.966 224.939 -228.16 184.065 -228.16 137.866Z" fill="white"/>
</g>
</svg>
