<svg width="31" height="31" viewBox="0 0 31 31" fill="none" xmlns="http://www.w3.org/2000/svg">
<path d="M10.5303 3.53731H6.1755L8.71663 0.99478L7.72185 0L3.48242 4.24083L7.72747 8.48729L8.72225 7.49251L6.1755 4.94435H10.5303V3.53731Z" fill="black"/>
<path d="M24.6464 0L23.6516 0.99478L26.1941 3.53731H21.8027V4.94435H26.1941L23.646 7.49251L24.6407 8.48729L28.8872 4.24083L24.6464 0Z" fill="black"/>
<path d="M27.1404 17.4036C27.0841 17.3473 27.0236 17.298 26.9589 17.26C26.0471 16.686 25.0073 16.3961 23.9675 16.3961C22.5281 16.3961 21.0901 16.9449 19.9926 18.0424L18.9978 19.0385V5.65051C18.9978 4.10277 17.7315 2.83643 16.1837 2.83643C14.636 2.83643 13.3696 4.10277 13.3696 5.65051V11.8415C12.8561 11.2112 12.0822 10.8003 11.2056 10.8003C10.5964 10.8003 10.0349 11.0001 9.57484 11.3308L3.5147 14.8385C2.67751 15.3254 2.11328 16.2273 2.11328 17.2629V21.8906C2.11328 26.9222 6.1909 30.9998 11.2225 30.9998C13.6595 30.9998 15.8671 30.0374 17.5007 28.4784L17.5021 28.4911L17.6583 28.3349C17.6611 28.3321 17.6639 28.3293 17.6653 28.3278L27.1404 18.8514C27.5414 18.4518 27.5414 17.8032 27.1404 17.4036ZM16.5299 27.4597C15.0876 28.8344 13.2022 29.5914 11.2225 29.5914C6.97462 29.5914 3.52033 26.1371 3.52033 21.8892V17.2614C3.52033 16.7662 3.78344 16.3173 4.22526 16.0598L10.3937 12.4733C10.5626 12.3523 10.8412 12.2059 11.2042 12.2059C11.767 12.2059 12.1188 12.5338 12.2792 12.7294L13.5286 14.2602C13.7172 14.491 14.0295 14.5782 14.3095 14.4783C14.5895 14.3784 14.7767 14.1139 14.7767 13.8156V5.65051C14.7767 4.87523 15.4084 4.24347 16.1837 4.24347C16.959 4.24347 17.5908 4.87523 17.5908 5.65051V19.7167C17.5908 20.3147 17.9665 20.817 18.4941 21.0183C18.7206 21.1041 18.9767 21.0492 19.1484 20.8775L20.9874 19.0385C21.7838 18.2422 22.8419 17.8046 23.9675 17.8046C24.6021 17.8046 25.2226 17.9453 25.7882 18.2154L16.5299 27.4597Z" fill="black"/>
</svg>
