<svg width="26" height="26" viewBox="0 0 26 26" fill="none" xmlns="http://www.w3.org/2000/svg">
<path d="M13.0003 0.234375C5.96075 0.234375 0.234375 5.9613 0.234375 13.0003C0.234375 20.0394 5.96075 25.7663 13.0003 25.7663C20.0399 25.7663 25.7663 20.0394 25.7663 13.0003C25.7663 5.9613 20.0399 0.234375 13.0003 0.234375ZM18.0753 13.4476L10.6286 18.2348C10.5413 18.2914 10.4405 18.3195 10.3408 18.3195C10.2535 18.3195 10.1652 18.2977 10.0863 18.2546C9.91481 18.1611 9.80884 17.9823 9.80884 17.7876V8.2131C9.80884 8.01832 9.91481 7.83959 10.0863 7.74609C10.2546 7.65364 10.4654 7.65933 10.6286 7.76584L18.0753 12.5531C18.227 12.6507 18.3195 12.8196 18.3195 13.0003C18.3195 13.1811 18.227 13.3499 18.0753 13.4476Z" fill="white"/>
</svg>
