<svg width="23" height="23" viewBox="0 0 23 23" fill="none" xmlns="http://www.w3.org/2000/svg">
<circle cx="11.5" cy="11.5" r="11" stroke="#122A64"/>
<path d="M14.2475 8.91524L14.2475 8.91478C14.2449 8.35971 13.7941 7.9083 13.2405 7.9083H7.90694C7.35125 7.9083 6.9 8.35955 6.9 8.91524V16.5679C6.9 17.1236 7.35125 17.5748 7.90694 17.5748H13.2405C13.7962 17.5748 14.2475 17.1236 14.2475 16.5679L14.2475 8.91524ZM13.4107 16.5655C13.4107 16.6607 13.3333 16.7381 13.2382 16.7381H7.90459C7.80945 16.7381 7.73205 16.6607 7.73205 16.5655V8.91524C7.73205 8.8201 7.80945 8.7427 7.90459 8.7427H13.2382C13.3333 8.7427 13.4107 8.8201 13.4107 8.91524V16.5655Z" fill="#122A64" stroke="#122A64" stroke-width="0.200008"/>
<path d="M15.2796 5.9H9.94601C9.39031 5.9 8.93906 6.35125 8.93906 6.90694C8.93906 7.13839 9.12481 7.32414 9.35626 7.32414C9.58771 7.32414 9.77346 7.13839 9.77346 6.90694C9.77346 6.8118 9.85086 6.73439 9.94601 6.73439H15.2796C15.3747 6.73439 15.4521 6.8118 15.4521 6.90694V14.5596C15.4521 14.6547 15.3747 14.7321 15.2796 14.7321C15.0481 14.7321 14.8624 14.9179 14.8624 15.1493C14.8624 15.3808 15.0481 15.5665 15.2796 15.5665C15.8353 15.5665 16.2865 15.1153 16.2865 14.5596V6.90694C16.2865 6.35125 15.8353 5.9 15.2796 5.9Z" fill="#122A64" stroke="#122A64" stroke-width="0.200008"/>
</svg>
