<svg width="15" height="16" viewBox="0 0 15 16" fill="none" xmlns="http://www.w3.org/2000/svg">
<path fill-rule="evenodd" clip-rule="evenodd" d="M13.367 13.3841C13.3633 14.0174 12.9405 14.1222 12.6935 14.1282C12.6935 14.1282 2.60538 14.13 2.16758 14.1304C1.96926 14.1304 1.81211 14.0756 1.69985 13.967C1.53895 13.8082 1.45663 13.5115 1.45663 13.1122C1.45663 12.7493 1.45663 9.01149 1.45663 6.39668H13.3708C13.3708 8.90853 13.3745 12.4959 13.367 13.3841ZM1.45663 3.85C1.45663 3.26889 1.68114 3.02 2.20874 3.01703C2.25739 3.01703 2.66151 3.01703 3.28641 3.01703V3.83333C3.28641 4.14 3.53711 4.38889 3.84769 4.38889C4.15452 4.38889 4.40897 4.14 4.40897 3.83333V3.01666C4.64845 3.01666 4.9029 3.01666 5.16857 3.01666C6.81126 3.01666 8.82064 3.01666 10.3324 3.01666V3.83333C10.3324 4.14 10.5831 4.38889 10.8936 4.38889C11.2042 4.38889 11.4549 4.14 11.4549 3.83333V3.01666C12.1322 3.01666 12.5663 3.01703 12.5812 3.01703C12.8544 3.02592 13.049 3.09481 13.1724 3.22889C13.3483 3.41555 13.3745 3.71851 13.3708 3.8137C13.3708 3.82592 13.3708 3.83852 13.3708 3.85111C13.3708 3.87222 13.3708 4.43889 13.3708 5.28555H1.45663C1.45663 4.42481 1.45663 3.85037 1.45663 3.85037V3.85ZM14.4933 3.86407C14.497 3.71074 14.497 3.02074 14.0106 2.48778C13.7786 2.23556 13.352 1.93037 12.5999 1.90593C12.5213 1.90593 12.091 1.90593 11.4549 1.90593V1.05556C11.4549 0.748519 11.2042 0.5 10.8936 0.5C10.583 0.5 10.3323 0.748519 10.3323 1.05556V1.90593C8.56987 1.90593 6.15262 1.90593 4.4089 1.90593V1.05556C4.4089 0.748519 4.15445 0.5 3.84762 0.5C3.53704 0.5 3.28634 0.748519 3.28634 1.05556V1.90593C2.6577 1.90593 2.24984 1.90593 2.20493 1.90593C1.2994 1.91111 0.330253 2.42481 0.333995 3.85111C0.333995 3.94296 0.337737 12.5474 0.333995 13.1096C0.333995 13.823 0.524831 14.3759 0.906503 14.753C1.23205 15.0726 1.6661 15.2415 2.16377 15.2415C2.16752 15.2415 2.16752 15.2415 2.16752 15.2415C2.60906 15.2411 12.6934 15.2393 12.6897 15.2393C12.6934 15.2393 12.6934 15.2393 12.6934 15.2393C13.4119 15.2393 14.482 14.7474 14.4895 13.3911C14.5007 12.0204 14.4933 4.24667 14.4933 3.86407Z" fill="#1C4098"/>
</svg>
