<svg width="17" height="17" viewBox="0 0 17 17" fill="none" xmlns="http://www.w3.org/2000/svg">
<path fill-rule="evenodd" clip-rule="evenodd" d="M6.85565 12.3068C8.35308 12.3068 9.71138 11.7083 10.7042 10.7364C10.7056 10.7364 10.7061 10.7319 10.7074 10.7319C10.7097 10.7319 10.7128 10.7274 10.7151 10.7274C11.7269 9.73293 12.3562 8.35151 12.3562 6.8306C12.3562 3.80678 9.88845 1.34992 6.85565 1.34992C3.82285 1.34992 1.35514 3.80678 1.35514 6.8306C1.35514 9.84992 3.82285 12.3068 6.85565 12.3068ZM6.85565 0C10.6356 0 13.7113 3.06432 13.7113 6.8306C13.7113 8.4865 13.1146 10.0074 12.1258 11.1908L16.8015 15.8481C17.0662 16.1136 17.0662 16.5365 16.8015 16.802C16.6691 16.9325 16.4957 17 16.3222 17C16.1487 17 15.9757 16.9325 15.8434 16.802L11.1596 12.1358C9.98196 13.0852 8.48498 13.6567 6.85565 13.6567C3.07526 13.6567 0 10.5924 0 6.8306C0 3.06432 3.07526 0 6.85565 0Z" fill="#1C4098"/>
</svg>
