<svg width="18" height="16" viewBox="0 0 18 16" fill="none" xmlns="http://www.w3.org/2000/svg">
<path d="M1.5 9.95117C1.63261 9.95117 1.75979 10.0039 1.85355 10.0976C1.94732 10.1914 2 10.3186 2 10.4512V12.9512C2 13.2164 2.10536 13.4707 2.29289 13.6583C2.48043 13.8458 2.73478 13.9512 3 13.9512H15C15.2652 13.9512 15.5196 13.8458 15.7071 13.6583C15.8946 13.4707 16 13.2164 16 12.9512V10.4512C16 10.3186 16.0527 10.1914 16.1464 10.0976C16.2402 10.0039 16.3674 9.95117 16.5 9.95117C16.6326 9.95117 16.7598 10.0039 16.8536 10.0976C16.9473 10.1914 17 10.3186 17 10.4512V12.9512C17 13.4816 16.7893 13.9903 16.4142 14.3654C16.0391 14.7405 15.5304 14.9512 15 14.9512H3C2.46957 14.9512 1.96086 14.7405 1.58579 14.3654C1.21071 13.9903 1 13.4816 1 12.9512V10.4512C1 10.3186 1.05268 10.1914 1.14645 10.0976C1.24021 10.0039 1.36739 9.95117 1.5 9.95117Z" fill="#0BBBEF" stroke="#0BBBEF" stroke-width="0.4"/>
<path d="M8.64614 11.9033C8.69259 11.9499 8.74776 11.9868 8.80851 12.012C8.86926 12.0372 8.93438 12.0502 9.00014 12.0502C9.06591 12.0502 9.13103 12.0372 9.19178 12.012C9.25252 11.9868 9.3077 11.9499 9.35414 11.9033L12.3541 8.90332C12.448 8.80943 12.5008 8.68209 12.5008 8.54932C12.5008 8.41654 12.448 8.2892 12.3541 8.19532C12.2603 8.10143 12.1329 8.04868 12.0001 8.04868C11.8674 8.04868 11.74 8.10143 11.6461 8.19532L9.50014 10.3423V1.54932C9.50014 1.41671 9.44747 1.28953 9.3537 1.19576C9.25993 1.10199 9.13275 1.04932 9.00014 1.04932C8.86754 1.04932 8.74036 1.10199 8.64659 1.19576C8.55282 1.28953 8.50014 1.41671 8.50014 1.54932V10.3423L6.35414 8.19532C6.26026 8.10143 6.13292 8.04868 6.00014 8.04868C5.86737 8.04868 5.74003 8.10143 5.64614 8.19532C5.55226 8.2892 5.49951 8.41654 5.49951 8.54932C5.49951 8.68209 5.55226 8.80943 5.64614 8.90332L8.64614 11.9033Z" fill="#0BBBEF" stroke="#0BBBEF" stroke-width="0.4"/>
</svg>
