<svg width="16" height="16" viewBox="0 0 16 16" fill="none" xmlns="http://www.w3.org/2000/svg">
<path fill-rule="evenodd" clip-rule="evenodd" d="M10.7263 8.62338H7.86595C7.53088 8.62338 7.25302 8.3441 7.25302 8V3.52042C7.25302 3.17631 7.53088 2.89704 7.86595 2.89704C8.20511 2.89704 8.47888 3.17631 8.47888 3.52042V7.37662H10.7263C11.0655 7.37662 11.3392 7.65548 11.3392 8C11.3392 8.3441 11.0655 8.62338 10.7263 8.62338ZM7.86595 1.24675C4.20471 1.24675 1.22586 4.27595 1.22586 8C1.22586 11.7236 4.20471 14.7532 7.86595 14.7532C11.5272 14.7532 14.506 11.7236 14.506 8C14.506 4.27595 11.5272 1.24675 7.86595 1.24675ZM7.86595 16C3.53048 16 0 12.411 0 8C0 3.58857 3.53048 0 7.86595 0C12.2055 0 15.7319 3.58857 15.7319 8C15.7319 12.411 12.2055 16 7.86595 16Z" fill="black" fill-opacity="0.85"/>
</svg>
