<svg width="25" height="25" viewBox="0 0 25 25" fill="none" xmlns="http://www.w3.org/2000/svg">
<path fill-rule="evenodd" clip-rule="evenodd" d="M3.8694 0.417969H7.09389C9.2309 0.417969 10.9633 2.15036 10.9633 4.28737V7.51186C10.9633 9.64887 9.2309 11.3813 7.09389 11.3813H3.8694C1.73239 11.3813 0 9.64887 0 7.51186V4.28737C0 2.15036 1.73239 0.417969 3.8694 0.417969ZM7.09396 9.44635C8.16247 9.44635 9.02866 8.58016 9.02866 7.51165V4.28716C9.02866 3.21865 8.16247 2.35246 7.09396 2.35246H3.86946C2.80096 2.35246 1.93477 3.21865 1.93477 4.28716V7.51165C1.93477 8.58016 2.80096 9.44635 3.86946 9.44635H7.09396Z" fill="#1C4098"/>
<path fill-rule="evenodd" clip-rule="evenodd" d="M17.4124 0.417969H20.6369C22.7739 0.417969 24.5063 2.15036 24.5063 4.28737V7.51186C24.5063 9.64887 22.7739 11.3813 20.6369 11.3813H17.4124C15.2754 11.3813 13.543 9.64887 13.543 7.51186V4.28737C13.543 2.15036 15.2754 0.417969 17.4124 0.417969ZM20.637 9.4466C21.7055 9.4466 22.5717 8.5804 22.5717 7.5119V4.2874C22.5717 3.2189 21.7055 2.3527 20.637 2.3527H17.4125C16.344 2.3527 15.4778 3.2189 15.4778 4.2874V7.5119C15.4778 8.5804 16.344 9.4466 17.4125 9.4466H20.637Z" fill="#1C4098"/>
<path fill-rule="evenodd" clip-rule="evenodd" d="M3.8694 13.9609H7.09389C9.2309 13.9609 10.9633 15.6933 10.9633 17.8303V21.0548C10.9633 23.1918 9.2309 24.9242 7.09389 24.9242H3.8694C1.73239 24.9242 0 23.1918 0 21.0548V17.8303C0 15.6933 1.73239 13.9609 3.8694 13.9609ZM7.09396 22.9896C8.16247 22.9896 9.02866 22.1234 9.02866 21.0549V17.8304C9.02866 16.7619 8.16247 15.8957 7.09396 15.8957H3.86946C2.80096 15.8957 1.93477 16.7619 1.93477 17.8304V21.0549C1.93477 22.1234 2.80096 22.9896 3.86946 22.9896H7.09396Z" fill="#1C4098"/>
<path fill-rule="evenodd" clip-rule="evenodd" d="M17.4124 13.9609H20.6369C22.7739 13.9609 24.5063 15.6933 24.5063 17.8303V21.0548C24.5063 23.1918 22.7739 24.9242 20.6369 24.9242H17.4124C15.2754 24.9242 13.543 23.1918 13.543 21.0548V17.8303C13.543 15.6933 15.2754 13.9609 17.4124 13.9609ZM20.637 22.9896C21.7055 22.9896 22.5717 22.1234 22.5717 21.0549V17.8304C22.5717 16.7619 21.7055 15.8957 20.637 15.8957H17.4125C16.344 15.8957 15.4778 16.7619 15.4778 17.8304V21.0549C15.4778 22.1234 16.344 22.9896 17.4125 22.9896H20.637Z" fill="#1C4098"/>
</svg>
