<svg width="25" height="26" viewBox="0 0 25 26" fill="none" xmlns="http://www.w3.org/2000/svg">
<path fill-rule="evenodd" clip-rule="evenodd" d="M21.5469 23.5995C21.9673 23.5893 22.6871 23.4071 22.6935 22.3104C22.7031 21.1525 22.7019 17.3417 22.7007 13.6732C22.7003 12.4713 22.6999 11.2846 22.6999 10.2115H2.41711V21.8403C2.41711 22.5317 2.55725 23.0454 2.83117 23.3205C3.02228 23.5084 3.28983 23.6034 3.62745 23.6034C4.37277 23.6027 21.5469 23.5995 21.5469 23.5995ZM3.69752 4.35935C2.79932 4.36448 2.41711 4.79546 2.41711 5.80109V5.80237V8.28756H22.6999V5.80365V5.73888C22.7063 5.57405 22.6617 5.04879 22.3623 4.72556C22.1521 4.49403 21.8208 4.37474 21.3558 4.35871C21.3303 4.35807 20.5913 4.35807 19.4383 4.35807V5.77223C19.4383 6.30326 19.0115 6.73424 18.4828 6.73424C17.9541 6.73424 17.5273 6.30326 17.5273 5.77223V4.35807H8.73637H7.44321V5.77223C7.44321 6.30326 7.01004 6.73424 6.48768 6.73424C5.95895 6.73424 5.53215 6.30326 5.53215 5.77223V4.35807L4.58638 4.35855C4.07044 4.35879 3.75218 4.35893 3.69752 4.35935ZM23.789 3.44207C24.6172 4.3656 24.6172 5.55978 24.6108 5.82529L24.6113 6.69075V6.69451C24.6136 9.83249 24.621 20.2613 24.6044 22.3231C24.5917 24.6717 22.7698 25.5234 21.5467 25.5234H21.5403L21.4326 25.5234C19.9813 25.5237 4.34392 25.5267 3.62729 25.5273H3.62092C2.77368 25.5273 2.03473 25.2348 1.48052 24.6813C0.830759 24.0285 0.505878 23.0709 0.505878 21.8357C0.511695 20.9467 0.506887 8.44323 0.506009 6.15908L0.505878 5.80349C0.499508 3.33369 2.14939 2.44415 3.69099 2.43517C3.76743 2.43453 4.46178 2.43453 5.53198 2.43453V0.962011C5.53198 0.430981 5.95879 0 6.48751 0C7.00987 0 7.44305 0.430981 7.44305 0.962011V2.43389L12.4589 2.43421L17.5271 2.43453V0.962011C17.5271 0.430981 17.9539 0 18.4826 0C19.0114 0 19.4382 0.430981 19.4382 0.962011V2.43453C20.5211 2.43517 21.2537 2.43517 21.3875 2.43517C22.6679 2.4775 23.3941 3.00596 23.789 3.44207ZM11.3607 19.3799C11.3607 18.7321 11.8831 18.2075 12.5265 18.2075C13.1699 18.2075 13.6922 18.7321 13.6922 19.3799C13.6922 20.0276 13.1699 20.5522 12.5265 20.5522C11.8831 20.5522 11.3607 20.0276 11.3607 19.3799ZM6.56396 18.2075C5.92057 18.2075 5.39821 18.7321 5.39821 19.3799C5.39821 20.0276 5.92057 20.5522 6.56396 20.5522C7.20735 20.5522 7.72971 20.0276 7.72971 19.3799C7.72971 18.7321 7.20735 18.2075 6.56396 18.2075ZM17.3233 19.3799C17.3233 18.7321 17.8456 18.2075 18.489 18.2075C19.1324 18.2075 19.6548 18.7321 19.6548 19.3799C19.6548 20.0276 19.1324 20.5522 18.489 20.5522C17.8456 20.5522 17.3233 20.0276 17.3233 19.3799ZM12.5265 12.9167C11.8831 12.9167 11.3607 13.4413 11.3607 14.089C11.3607 14.7368 11.8831 15.2614 12.5265 15.2614C13.1699 15.2614 13.6922 14.7368 13.6922 14.089C13.6922 13.4413 13.1699 12.9167 12.5265 12.9167ZM17.3233 14.089C17.3233 13.4413 17.8456 12.9167 18.489 12.9167C19.1324 12.9167 19.6548 13.4413 19.6548 14.089C19.6548 14.7368 19.1324 15.2614 18.489 15.2614C17.8456 15.2614 17.3233 14.7368 17.3233 14.089Z" fill="#1C4098"/>
</svg>
