<?xml version="1.0" encoding="UTF-8"?>
<svg width="24px" height="24px" viewBox="0 0 24 24" version="1.1" xmlns="http://www.w3.org/2000/svg" xmlns:xlink="http://www.w3.org/1999/xlink">
    <title>Artboard Copy</title>
    <defs>
        <path d="M10.735627,0.444444444 L10.735627,0.44796842 L12.9747776,0.448357995 C15.8565339,0.450976188 16.3491637,0.467809135 17.6960656,0.529019852 C19.070416,0.591864078 19.8163241,0.821509803 20.3132046,1.01444745 C20.9710133,1.26993566 21.4399957,1.57534686 21.9330586,2.0687034 C22.4264151,2.56205994 22.7318263,3.03192332 22.9879019,3.68973205 C23.1808395,4.18602524 23.4107789,4.93193334 23.4733295,6.30628372 C23.5387616,7.74579092 23.5545862,8.2096835 23.5555114,11.6573481 L23.5555556,12.0004405 C23.5555556,15.7622841 23.5408723,16.2086544 23.4733295,17.6945973 C23.4104852,19.0689477 23.1808395,19.8148558 22.9879019,20.3111489 C22.7324137,20.9689577 22.4264151,21.4373527 21.9330586,21.9304156 C21.439702,22.4237722 20.971307,22.7291833 20.3132046,22.9846716 C19.8169114,23.1784902 19.070416,23.4075486 17.6960656,23.4703928 C16.2565584,23.535825 15.7926658,23.5516496 12.3433994,23.5525747 L12.0001468,23.5526189 C8.23624753,23.5526189 7.79017099,23.5379357 6.30422806,23.4703928 C4.92987769,23.4069613 4.18396958,23.1773155 3.6867954,22.9843779 C3.02898667,22.7288897 2.5591233,22.4234785 2.06576675,21.9301219 C1.57241021,21.4367654 1.26699902,20.9680767 1.01092348,20.3099743 C0.817985828,19.8136811 0.588046439,19.067773 0.525495877,17.6934226 C0.466395874,16.3932226 0.448665873,15.8889454 0.445156811,13.2614765 L0.445112036,10.7666943 C0.448513142,8.10977382 0.46614003,7.60858837 0.525495877,6.30275974 C0.588340103,4.92840937 0.817985828,4.18250126 1.01092348,3.68562074 C1.26641169,3.02781202 1.57241021,2.55794864 2.06576675,2.0645921 C2.5591233,1.57123555 3.02898667,1.26582436 3.6867954,1.00974882 C4.18367592,0.815930176 4.92987769,0.58687178 6.30422806,0.523733889 C7.60457496,0.465000967 8.10850343,0.447381091 10.735627,0.444444444 Z M11.9998532,4.76483818 C8.0024905,4.76483818 4.76131421,8.00601448 4.76131421,12.0036708 C4.76131421,16.0013271 8.0024905,19.2410351 12.0001468,19.2410351 C15.9978032,19.2410351 19.2378048,16.0013271 19.2378048,12.0036708 C19.2378048,8.00601448 15.9975095,4.76483818 11.9998532,4.76483818 Z M12.0001468,7.30503705 C14.5949673,7.30503705 16.6987806,9.40855665 16.6987806,12.0036708 C16.6987806,14.5984913 14.5949673,16.7023046 12.0001468,16.7023046 C9.40503268,16.7023046 7.30151308,14.5984913 7.30151308,12.0036708 C7.30151308,9.40855665 9.40503268,7.30503705 12.0001468,7.30503705 Z M19.5244215,2.78788803 L19.5244215,2.78847536 C18.590568,2.78847536 17.8329133,3.54524906 17.8329133,4.47939618 C17.8329133,5.41324964 18.590568,6.17090433 19.5244215,6.17090433 C20.4582749,6.17090433 21.2159296,5.41324964 21.2159296,4.47939618 C21.2159296,3.54554272 20.4582749,2.78788803 19.5244215,2.78788803 Z" id="path-1"></path>
    </defs>
    <g id="Artboard-Copy" stroke="none" stroke-width="1" fill="none" fill-rule="evenodd">
        <mask id="mask-2" fill="white">
            <use xlink:href="#path-1"></use>
        </mask>
        <use id="Mask" fill="#FFFFFF" xlink:href="#path-1"></use>
    </g>
</svg>