<svg width="426" height="269" viewBox="0 0 426 269" fill="none" xmlns="http://www.w3.org/2000/svg">
<g opacity="0.15">
<path d="M53.1527 15.5943C19.8641 40.7737 0 83.2958 0 129.361V130.35C0 176.552 19.8641 219.074 53.1527 244.083L55.8784 246.127V13.5159L53.1527 15.5943Z" fill="#1C4098"/>
<path d="M99.8148 15.5943C66.5262 40.7737 46.6621 83.2958 46.6621 129.361V130.35C46.6621 176.552 66.5262 219.074 99.8148 244.083L102.541 246.127V13.5159L99.8148 15.5943Z" fill="#1C4098"/>
<path d="M344.967 9.12074L342.65 8.23486V63.3297L343.161 63.8407C360.742 81.0472 370.453 104.319 370.453 129.362V129.907C370.453 154.78 360.776 178.085 343.161 195.462L342.65 195.973V251.34L344.967 250.42C394.849 230.795 425.854 184.627 425.854 129.941V129.191C425.854 74.4031 394.849 28.4397 344.967 9.18889V9.12074Z" fill="#1C4098"/>
<path d="M299.047 0.980238L296.448 0V60.9633L297.022 61.5288C316.742 80.568 327.634 106.318 327.634 134.029V134.632C327.634 162.154 316.78 187.942 297.022 207.17L296.448 207.735V269L299.047 267.982C354.997 246.266 389.775 195.181 389.775 134.67V133.84C389.775 73.2163 354.997 22.357 299.047 1.05564V0.980238Z" fill="#1C4098"/>
<path d="M314.486 69.3946C300.721 45.4758 279.732 27.6561 253.769 17.8433C238.675 11.9828 222.661 9.01855 206.17 9.01855C180.105 9.01855 155.505 16.2419 134.993 29.9389C101.739 51.8133 81.9087 89.0883 81.9087 129.702V130.35C81.9087 171.611 101.262 208 135.027 230.25C156.084 243.708 179.866 250.523 205.693 250.523C222.661 250.523 239.288 247.354 253.803 241.425C279.732 231.272 300.721 213.248 314.486 189.295L314.724 188.886V69.8034L314.486 69.3946ZM205.693 59.0025C223.445 59.0025 239.902 65.6125 251.997 77.64C265.763 90.7919 273.633 109.77 273.633 129.634V130.282C273.633 150.827 265.967 169.362 251.997 182.48C240.072 193.997 223.82 200.368 206.204 200.368C167.464 200.368 138.23 169.976 138.23 129.634V129.055C138.23 89.1224 167.226 59.0025 205.693 59.0025Z" fill="#1C4098"/>
</g>
</svg>
