<svg width="16" height="16" viewBox="0 0 16 16" fill="none" xmlns="http://www.w3.org/2000/svg">
<path d="M8 15.5C6.96778 15.5 5.99556 15.3028 5.08334 14.9083C4.17112 14.5133 3.37667 13.9772 2.7 13.3C2.02334 12.6228 1.48723 11.8283 1.09167 10.9167C0.696116 10.005 0.498894 9.03278 0.500005 8C0.500005 6.96444 0.697227 5.99139 1.09167 5.08083C1.48667 4.16972 2.02278 3.37611 2.7 2.7C3.37723 2.02389 4.17167 1.48778 5.08334 1.09167C5.99556 0.697222 6.96778 0.5 8 0.5C9.03556 0.5 10.0086 0.697222 10.9192 1.09167C11.8303 1.48667 12.6242 2.02278 13.3008 2.7C13.9775 3.37722 14.5133 4.17083 14.9083 5.08083C15.3028 5.99194 15.5 6.965 15.5 8C15.5 9.03222 15.3028 10.0044 14.9083 10.9167C14.5133 11.8289 13.9772 12.6233 13.3 13.3C12.6228 13.9767 11.8292 14.5128 10.9192 14.9083C10.0092 15.3039 9.03612 15.5011 8 15.5ZM8 14.6733C8.48889 14.045 8.89223 13.4281 9.21 12.8225C9.52723 12.2169 9.78528 11.5392 9.98417 10.7892H6.01584C6.23639 11.5814 6.49973 12.2803 6.80584 12.8858C7.1125 13.4914 7.51056 14.0872 8 14.6733ZM6.93917 14.5483C6.55028 14.09 6.19528 13.5233 5.87417 12.8483C5.55306 12.1739 5.31417 11.4872 5.1575 10.7883H1.96167C2.43945 11.8244 3.11639 12.6744 3.9925 13.3383C4.86917 14.0017 5.85139 14.405 6.93917 14.5483ZM9.06084 14.5483C10.1486 14.405 11.1308 14.0017 12.0075 13.3383C12.8836 12.6744 13.5606 11.8244 14.0383 10.7883H10.8433C10.6322 11.4978 10.3664 12.1897 10.0458 12.8642C9.72473 13.5392 9.39639 14.1011 9.06084 14.5483ZM1.62167 9.95583H4.98417C4.92084 9.61361 4.87639 9.28028 4.85084 8.95583C4.82417 8.63194 4.81084 8.31333 4.81084 8C4.81084 7.68667 4.82389 7.36806 4.85 7.04417C4.87612 6.72028 4.92056 6.38694 4.98334 6.04417H1.6225C1.53195 6.33306 1.46112 6.64778 1.41 6.98833C1.35889 7.32833 1.33334 7.66556 1.33334 8C1.33334 8.33444 1.35862 8.67194 1.40917 9.0125C1.45973 9.35306 1.53056 9.66722 1.62167 9.955M5.8175 9.955H10.1825C10.2458 9.61333 10.2903 9.28556 10.3158 8.97167C10.3425 8.65833 10.3558 8.33444 10.3558 8C10.3558 7.66556 10.3428 7.34167 10.3167 7.02833C10.2906 6.715 10.2461 6.38722 10.1833 6.045H5.81667C5.75389 6.38667 5.70945 6.71444 5.68334 7.02833C5.65723 7.34167 5.64417 7.66556 5.64417 8C5.64417 8.33444 5.65723 8.65833 5.68334 8.97167C5.70945 9.285 5.75473 9.61278 5.8175 9.955ZM11.0167 9.955H14.3783C14.4689 9.66667 14.5397 9.3525 14.5908 9.0125C14.6414 8.67194 14.6667 8.33444 14.6667 8C14.6667 7.66556 14.6414 7.32806 14.5908 6.9875C14.5403 6.64694 14.4694 6.33278 14.3783 6.045H11.0158C11.0792 6.38667 11.1236 6.71972 11.1492 7.04417C11.1758 7.36861 11.1892 7.68722 11.1892 8C11.1892 8.31278 11.1761 8.63139 11.15 8.95583C11.1239 9.28028 11.0794 9.61361 11.0167 9.95583M10.8433 5.21167H14.0383C13.55 4.15389 12.8811 3.30389 12.0317 2.66167C11.1822 2.01944 10.1919 1.61083 9.06084 1.43583C9.44973 1.9475 9.79945 2.53278 10.11 3.19167C10.4206 3.85 10.665 4.52333 10.8433 5.21167ZM6.01584 5.21167H9.98417C9.76417 4.42944 9.49278 3.72222 9.17 3.09C8.84723 2.45778 8.45723 1.87 8 1.32667C7.54278 1.86944 7.15278 2.45722 6.83 3.09C6.50723 3.72278 6.23528 4.43 6.01584 5.21167ZM1.9625 5.21167H5.1575C5.33584 4.52389 5.58028 3.85056 5.89084 3.19167C6.20139 2.53278 6.55112 1.9475 6.94 1.43583C5.79889 1.61139 4.80612 2.0225 3.96167 2.66917C3.11723 3.31694 2.45056 4.16417 1.96167 5.21083" fill="white"/>
</svg>
