<?xml version="1.0" encoding="UTF-8"?>
<svg width="24px" height="23px" viewBox="0 0 24 23" version="1.1" xmlns="http://www.w3.org/2000/svg" xmlns:xlink="http://www.w3.org/1999/xlink">
    <title>Artboard Copy 3</title>
    <defs>
        <path d="M5.69096671,7.6193434 L5.69096671,22.5028654 L0.737363317,22.5028654 L0.737363317,7.6193434 L5.69096671,7.6193434 Z M17.8520957,7.26984947 C21.111795,7.26984947 23.5555556,9.39753453 23.5555556,13.9691087 L23.5555556,13.9691087 L23.5553577,22.5028654 L18.6019522,22.5028654 L18.6019522,14.5401727 C18.6019522,12.5401152 17.8851368,11.1753305 16.0919114,11.1753305 C14.7233739,11.1753305 13.9082265,12.0953945 13.5502145,12.9840456 C13.419237,13.3025217 13.3870861,13.7462545 13.3870861,14.1910739 L13.3870861,14.1910739 L13.3870861,22.5032605 L8.43288917,22.5032605 C8.43288917,22.5032605 8.4981801,9.01633128 8.43288917,7.61973853 L8.43288917,7.61973853 L13.3870861,7.61973853 L13.3870861,9.72786457 C14.044546,8.71445072 15.2220581,7.26984947 17.8520957,7.26984947 Z M3.24690941,0.444444444 C4.94150592,0.444444444 5.98507269,1.55594972 6.01722353,3.01526962 C6.01722353,4.44436195 4.94150592,5.5878729 3.21426394,5.5878729 L3.21426394,5.5878729 L3.18260773,5.5878729 C1.51956849,5.5878729 0.444444444,4.44436195 0.444444444,3.01526962 C0.444444444,1.55594972 1.55231289,0.444444444 3.24690941,0.444444444 Z" id="path-1"></path>
    </defs>
    <g id="Artboard-Copy-3" stroke="none" stroke-width="1" fill="none" fill-rule="evenodd">
        <mask id="mask-2" fill="white">
            <use xlink:href="#path-1"></use>
        </mask>
        <use id="Mask" fill="#FFFFFF" xlink:href="#path-1"></use>
    </g>
</svg>