<svg width="12" height="17" viewBox="0 0 12 17" fill="none" xmlns="http://www.w3.org/2000/svg">
<path fill-rule="evenodd" clip-rule="evenodd" d="M5.56853 7.70026C4.73295 7.70026 4.05333 7.01848 4.05333 6.18175C4.05333 5.34847 4.73295 4.66669 5.56853 4.66669C6.40411 4.66669 7.08408 5.34847 7.08408 6.18175C7.08408 7.01848 6.40411 7.70026 5.56853 7.70026ZM5.56857 3.63369C4.16354 3.63369 3.02051 4.77687 3.02051 6.18175C3.02051 7.59007 4.16354 8.73326 5.56857 8.73326C6.97395 8.73326 8.11698 7.59007 8.11698 6.18175C8.11698 4.77687 6.97395 3.63369 5.56857 3.63369ZM9.97639 7.54186C9.86243 7.99294 9.45549 8.88132 9.13013 9.38404C8.9697 9.65262 6.58449 13.7157 5.56402 15.4546L1.76448 8.76769L1.74004 8.72292C1.64364 8.55076 1.44361 8.19609 1.30073 7.74502C1.12067 7.17343 1.03288 6.63627 1.03288 6.10255C1.03288 3.59925 3.0676 1.56425 5.5685 1.56425C8.18473 1.56425 9.96709 3.66123 10.1785 5.68591C10.2322 6.19896 10.1682 6.79122 9.97639 7.54186ZM11.2058 5.57917C10.9056 2.70399 8.48217 0.53125 5.56848 0.53125C2.49814 0.53125 0 3.0311 0 6.10255C0 6.74301 0.10363 7.38347 0.316054 8.05492C0.490952 8.60929 0.735395 9.04315 0.839713 9.22909L0.863469 9.27041C0.864158 9.27386 0.865191 9.27385 0.865879 9.2773L5.10748 16.739C5.19872 16.9008 5.36845 17.0007 5.55299 17.0007C5.55436 17.0007 5.5554 17.0007 5.55677 17.0007C5.73959 17.0007 5.90898 16.9043 6.00194 16.7459C6.04015 16.6804 9.818 10.2483 10.0074 9.93153C10.3485 9.40126 10.8202 8.41647 10.9776 7.80011C11.2 6.92206 11.2726 6.21962 11.2058 5.57917Z" fill="black" fill-opacity="0.85"/>
</svg>
