<svg width="12" height="17" viewBox="0 0 12 17" fill="none" xmlns="http://www.w3.org/2000/svg">
<path fill-rule="evenodd" clip-rule="evenodd" d="M5.94939 7.69977C5.11381 7.69977 4.43419 7.01799 4.43419 6.18126C4.43419 5.34798 5.11381 4.6662 5.94939 4.6662C6.78497 4.6662 7.46494 5.34798 7.46494 6.18126C7.46494 7.01799 6.78497 7.69977 5.94939 7.69977ZM5.94943 3.6332C4.5444 3.6332 3.40137 4.77639 3.40137 6.18126C3.40137 7.58958 4.5444 8.73277 5.94943 8.73277C7.35481 8.73277 8.49784 7.58958 8.49784 6.18126C8.49784 4.77639 7.35481 3.6332 5.94943 3.6332ZM10.3572 7.54137C10.2433 7.99245 9.83634 8.88083 9.51099 9.38355C9.35056 9.65213 6.96534 13.7153 5.94488 15.4541L2.14534 8.7672L2.1209 8.72243C2.0245 8.55027 1.82447 8.19561 1.68159 7.74453C1.50153 7.17294 1.41373 6.63578 1.41373 6.10206C1.41373 3.59876 3.44846 1.56376 5.94936 1.56376C8.56559 1.56376 10.348 3.66074 10.5593 5.68542C10.6131 6.19848 10.549 6.79073 10.3572 7.54137ZM11.5867 5.57868C11.2865 2.7035 8.86303 0.530762 5.94934 0.530762C2.879 0.530762 0.380859 3.03062 0.380859 6.10206C0.380859 6.74252 0.484489 7.38298 0.696914 8.05443C0.871811 8.6088 1.11625 9.04266 1.22057 9.2286L1.24433 9.26992C1.24502 9.27337 1.24605 9.27337 1.24674 9.27681L5.48834 16.7385C5.57958 16.9003 5.74931 17.0002 5.93385 17.0002C5.93522 17.0002 5.93626 17.0002 5.93763 17.0002C6.12045 17.0002 6.28984 16.9038 6.3828 16.7454C6.42101 16.68 10.1989 10.2478 10.3882 9.93104C10.7294 9.40077 11.2011 8.41598 11.3584 7.79962C11.5808 6.92158 11.6535 6.21914 11.5867 5.57868Z" fill="white"/>
</svg>
