<svg width="16" height="19" viewBox="0 0 16 19" fill="none" xmlns="http://www.w3.org/2000/svg">
<path fill-rule="evenodd" clip-rule="evenodd" d="M7.99956 1.40417C9.52528 1.40417 10.7667 2.65362 10.7667 4.18385C10.7667 5.71876 9.52528 6.96353 7.99956 6.96353C6.47384 6.96353 5.23286 5.71876 5.23286 4.18385C5.23286 2.65362 6.47384 1.40417 7.99956 1.40417ZM7.99918 8.36718C10.2957 8.36718 12.1644 6.49066 12.1644 4.18362C12.1644 1.87658 10.2957 6.10352e-05 7.99918 6.10352e-05C5.70268 6.10352e-05 3.83444 1.87658 3.83444 4.18362C3.83444 6.49066 5.70268 8.36718 7.99918 8.36718ZM14.6024 16.6457H1.39842V13.3887C1.39842 12.5651 1.7195 11.7602 2.25727 11.2314C2.53222 10.96 2.98518 10.6324 3.63154 10.6511C3.98803 10.6605 5.09248 10.6464 6.43552 10.6417C8.44216 10.6324 10.9731 10.6183 12.2826 10.6183C13.8763 10.6183 14.6024 11.924 14.6024 13.136V16.6457ZM12.2822 9.21424C10.9713 9.21424 8.43758 9.22828 6.42861 9.23764C5.09536 9.24231 3.99417 9.24699 3.65026 9.24699C3.64886 9.24699 3.647 9.24699 3.64513 9.24699C2.77929 9.23296 1.93674 9.57925 1.2778 10.2297C0.477661 11.0159 0 12.1951 0 13.3884V17.3474C0 17.7311 0.312693 18.0493 0.699016 18.0493H15.301C15.6868 18.0493 16 17.7311 16 17.3474V13.1357C16 11.2358 14.697 9.21424 12.2822 9.21424Z" fill="white"/>
</svg>
