<svg width="40" height="41" viewBox="0 0 40 41" fill="none" xmlns="http://www.w3.org/2000/svg">
<path d="M20 0.130859C8.97133 0.130859 0 9.10305 0 20.1309C0 31.1587 8.97133 40.1309 20 40.1309C31.0287 40.1309 40 31.1587 40 20.1309C40 9.10305 31.0287 0.130859 20 0.130859ZM27.9509 20.8316L16.2842 28.3316C16.1475 28.4202 15.9896 28.4642 15.8334 28.4642C15.6966 28.4642 15.5583 28.43 15.4346 28.3625C15.166 28.216 15 27.936 15 27.6309V12.6309C15 12.3257 15.166 12.0457 15.4346 11.8992C15.6983 11.7544 16.0287 11.7633 16.2842 11.9302L27.9509 19.4302C28.1885 19.5831 28.3334 19.8477 28.3334 20.1309C28.3334 20.4141 28.1885 20.6785 27.9509 20.8316Z" fill="white"/>
</svg>
