<svg width="57" height="57" viewBox="0 0 57 57" fill="none" xmlns="http://www.w3.org/2000/svg">
<circle cx="28.5" cy="28.541" r="28" fill="#122A64"/>
<path d="M32.5982 30.6526C33.8125 31.0723 34.9062 31.6571 35.8795 32.4071C36.8527 33.1571 37.683 34.0321 38.3705 35.0321C39.058 36.0321 39.5848 37.1169 39.9509 38.2866C40.317 39.4562 40.5 40.6839 40.5 41.9696H38.7857C38.7857 40.5053 38.5268 39.1482 38.0089 37.8982C37.4911 36.6482 36.7679 35.5589 35.8393 34.6303C34.9107 33.7017 33.8259 32.983 32.5848 32.4741C31.3438 31.9651 29.9821 31.7017 28.5 31.6839C27.5446 31.6839 26.625 31.8044 25.7411 32.0455C24.8571 32.2866 24.0357 32.6258 23.2768 33.0633C22.5179 33.5008 21.8259 34.0321 21.2009 34.6571C20.5759 35.2821 20.0446 35.9741 19.6071 36.733C19.1696 37.4919 18.8259 38.3178 18.5759 39.2107C18.3259 40.1035 18.2054 41.0232 18.2143 41.9696H16.5C16.5 40.6839 16.6875 39.4562 17.0625 38.2866C17.4375 37.1169 17.9688 36.0366 18.6562 35.0455C19.3438 34.0544 20.1741 33.1883 21.1473 32.4473C22.1205 31.7062 23.2143 31.1124 24.4286 30.666C23.7321 30.291 23.1071 29.8357 22.5536 29.2999C22 28.7642 21.5312 28.1705 21.1473 27.5187C20.7634 26.8669 20.4643 26.166 20.25 25.416C20.0357 24.666 19.9286 23.8982 19.9286 23.1124C19.9286 21.9249 20.1518 20.8133 20.5982 19.7776C21.0446 18.7419 21.6562 17.8312 22.433 17.0455C23.2098 16.2598 24.1161 15.6482 25.1518 15.2107C26.1875 14.7732 27.3036 14.5499 28.5 14.541C29.6875 14.541 30.7991 14.7642 31.8348 15.2107C32.8705 15.6571 33.7812 16.2687 34.567 17.0455C35.3527 17.8223 35.9643 18.7285 36.4018 19.7642C36.8393 20.7999 37.0625 21.916 37.0714 23.1124C37.0714 23.8982 36.9688 24.6616 36.7634 25.4026C36.558 26.1437 36.2589 26.8401 35.8661 27.4919C35.4732 28.1437 35.0045 28.7374 34.4598 29.2732C33.9152 29.8089 33.2946 30.2687 32.5982 30.6526ZM21.6429 23.1124C21.6429 24.0589 21.8214 24.9473 22.1786 25.7776C22.5357 26.608 23.0268 27.3312 23.6518 27.9473C24.2768 28.5633 25.0045 29.0544 25.8348 29.4205C26.6652 29.7866 27.5536 29.9696 28.5 29.9696C29.4464 29.9696 30.3348 29.791 31.1652 29.4339C31.9955 29.0767 32.7188 28.5857 33.3348 27.9607C33.9509 27.3357 34.442 26.608 34.808 25.7776C35.1741 24.9473 35.3571 24.0589 35.3571 23.1124C35.3571 22.166 35.1786 21.2776 34.8214 20.4473C34.4643 19.6169 33.9732 18.8937 33.3482 18.2776C32.7232 17.6616 31.9955 17.1705 31.1652 16.8044C30.3348 16.4383 29.4464 16.2553 28.5 16.2553C27.5536 16.2553 26.6652 16.4339 25.8348 16.791C25.0045 17.1482 24.2812 17.6392 23.6652 18.2642C23.0491 18.8892 22.558 19.6169 22.192 20.4473C21.8259 21.2776 21.6429 22.166 21.6429 23.1124Z" fill="white"/>
</svg>
