<svg fill="none" xmlns="http://www.w3.org/2000/svg" viewBox="0 0 76 61"><path d="M.748 39.453c0 13.29 8.197 20.852 17.533 20.852 8.652 0 15.483-7.103 15.483-15.581s-5.92-14.436-13.434-14.436c-1.594 0-3.415.23-3.87.458 1.365-7.79 9.107-17.185 16.393-21.539L21.923.5C9.402 9.436.749 23.643.749 39.453Zm42.124 0c0 13.29 8.197 20.852 17.532 20.852 8.653 0 15.484-7.103 15.484-15.581s-5.92-14.436-13.434-14.436c-1.594 0-3.416.23-3.871.458 1.366-7.79 9.108-17.185 16.394-21.539L64.047.5C51.525 9.436 42.873 23.643 42.873 39.453Z" fill="#0BBBEF"/></svg>