<svg width="17" height="20" viewBox="0 0 17 20" fill="none" xmlns="http://www.w3.org/2000/svg">
<path fill-rule="evenodd" clip-rule="evenodd" d="M13.2993 0C11.4687 0 9.97449 1.49802 9.97449 3.33333C9.97449 3.67993 10.0241 4.01564 10.1229 4.33036L5.50675 7.49255C4.92191 6.98059 4.15872 6.66667 3.32483 6.66667C1.4942 6.66667 0 8.16469 0 10C0 11.8353 1.4942 13.3333 3.32483 13.3333C4.15817 13.3333 4.92205 13.0188 5.50675 12.5074L10.1303 15.6622C10.0297 15.9796 9.97449 16.3167 9.97449 16.6667C9.97449 18.502 11.4687 20 13.2993 20C15.1299 20 16.6241 18.502 16.6241 16.6667C16.6241 14.8314 15.1299 13.3333 13.2993 13.3333C12.1552 13.3333 11.1446 13.9196 10.5459 14.8065L6.13015 11.7857C6.45922 11.2688 6.64966 10.6561 6.64966 10C6.64966 9.34245 6.45307 8.73186 6.12272 8.21428L10.5459 5.19345C11.1446 6.0804 12.1552 6.66667 13.2993 6.66667C15.1299 6.66667 16.6241 5.16864 16.6241 3.33333C16.6241 1.49802 15.1299 0 13.2993 0ZM13.2993 0.952381C14.6165 0.952381 15.6742 2.01274 15.6742 3.33333C15.6742 4.65393 14.6165 5.71428 13.2993 5.71428C11.9821 5.71428 10.9244 4.65393 10.9244 3.33333C10.9244 2.01274 11.9821 0.952381 13.2993 0.952381ZM3.32483 7.61905C4.64206 7.61905 5.69971 8.6794 5.69971 10C5.69971 11.3206 4.64206 12.381 3.32483 12.381C2.0076 12.381 0.949951 11.3206 0.949951 10C0.949951 8.6794 2.0076 7.61905 3.32483 7.61905ZM13.2993 14.2857C14.6165 14.2857 15.6742 15.346 15.6742 16.6667C15.6742 17.9873 14.6165 19.0476 13.2993 19.0476C11.9821 19.0476 10.9244 17.9873 10.9244 16.6667C10.9244 15.346 11.9821 14.2857 13.2993 14.2857Z" fill="white"/>
</svg>
