<svg width="13" height="17" viewBox="0 0 13 17" fill="none" xmlns="http://www.w3.org/2000/svg">
<path fill-rule="evenodd" clip-rule="evenodd" d="M6.67979 8.68277H8.87952C9.17353 8.68277 9.41086 8.44445 9.41086 8.14922C9.41086 7.85398 9.17353 7.61566 8.87952 7.61566H7.21113V4.82337C7.21113 4.52813 6.9738 4.28981 6.67979 4.28981C6.38579 4.28981 6.14846 4.52813 6.14846 4.82337V8.14922C6.14846 8.44445 6.38579 8.68277 6.67979 8.68277ZM9.37883 14.7618C9.37883 14.8578 9.3009 14.9396 9.20172 14.9396H4.15403C4.05839 14.9396 3.97692 14.8578 3.97692 14.7618V13.3496C4.81289 13.7943 5.76221 14.0504 6.7682 14.0504C7.70689 14.0504 8.58891 13.8263 9.37883 13.435V14.7618ZM1.85135 8.04606C1.85135 5.32492 4.05817 3.11243 6.76798 3.11243C9.47779 3.11243 11.6811 5.32492 11.6811 8.04606C11.6811 10.7672 9.47779 12.9833 6.76798 12.9833C4.05817 12.9833 1.85135 10.7672 1.85135 8.04606ZM3.97692 1.24497C3.97692 1.14537 4.05839 1.06712 4.15403 1.06712H9.20172C9.3009 1.06712 9.37883 1.14537 9.37883 1.24497V2.65712C8.58891 2.2694 7.70689 2.04531 6.7682 2.04531C5.76221 2.04531 4.81289 2.29786 3.97692 2.74249V1.24497ZM12.7441 8.04606C12.7441 6.12525 11.8373 4.41431 10.4346 3.31518C10.4381 3.28672 10.4417 3.25826 10.4417 3.22625V1.24497C10.4417 0.558458 9.88553 0 9.20188 0H4.15419C3.47054 0 2.91441 0.558458 2.91441 1.24497V3.35786C2.91441 3.38987 2.92149 3.42189 2.92503 3.4539C1.62149 4.55659 0.789062 6.20351 0.789062 8.04606C0.789062 9.8815 1.61795 11.5284 2.91441 12.6275V14.7618C2.91441 15.4483 3.47054 16.0068 4.15419 16.0068H9.20188C9.88553 16.0068 10.4417 15.4483 10.4417 14.7618V12.7698C11.8408 11.6707 12.7441 9.96331 12.7441 8.04606Z" fill="white"/>
</svg>
