<svg width="12" height="17" viewBox="0 0 12 17" fill="none" xmlns="http://www.w3.org/2000/svg">
<path fill-rule="evenodd" clip-rule="evenodd" d="M5.89073 8.68277H8.09046C8.38447 8.68277 8.6218 8.44445 8.6218 8.14922C8.6218 7.85398 8.38447 7.61566 8.09046 7.61566H6.42207V4.82337C6.42207 4.52813 6.18474 4.28981 5.89073 4.28981C5.59672 4.28981 5.35939 4.52813 5.35939 4.82337V8.14922C5.35939 8.44445 5.59672 8.68277 5.89073 8.68277ZM8.58977 14.7618C8.58977 14.8578 8.51184 14.9396 8.41266 14.9396H3.36497C3.26933 14.9396 3.18785 14.8578 3.18785 14.7618V13.3496C4.02382 13.7943 4.97314 14.0504 5.97914 14.0504C6.91783 14.0504 7.79985 13.8263 8.58977 13.435V14.7618ZM1.06229 8.04606C1.06229 5.32492 3.2691 3.11243 5.97892 3.11243C8.68873 3.11243 10.892 5.32492 10.892 8.04606C10.892 10.7672 8.68873 12.9833 5.97892 12.9833C3.2691 12.9833 1.06229 10.7672 1.06229 8.04606ZM3.18785 1.24497C3.18785 1.14537 3.26933 1.06712 3.36497 1.06712H8.41266C8.51184 1.06712 8.58977 1.14537 8.58977 1.24497V2.65712C7.79985 2.2694 6.91783 2.04531 5.97914 2.04531C4.97314 2.04531 4.02382 2.29786 3.18785 2.74249V1.24497ZM11.9551 8.04606C11.9551 6.12525 11.0482 4.41431 9.64552 3.31518C9.64906 3.28672 9.6526 3.25826 9.6526 3.22625V1.24497C9.6526 0.558458 9.09647 0 8.41282 0H3.36513C2.68147 0 2.12534 0.558458 2.12534 1.24497V3.35786C2.12534 3.38987 2.13243 3.42189 2.13597 3.4539C0.832426 4.55659 0 6.20351 0 8.04606C0 9.8815 0.828884 11.5284 2.12534 12.6275V14.7618C2.12534 15.4483 2.68147 16.0068 3.36513 16.0068H8.41282C9.09647 16.0068 9.6526 15.4483 9.6526 14.7618V12.7698C11.0518 11.6707 11.9551 9.96331 11.9551 8.04606Z" fill="black" fill-opacity="0.85"/>
</svg>
