<?xml version="1.0" encoding="UTF-8"?>
<svg width="24px" height="20px" viewBox="0 0 24 20" version="1.1" xmlns="http://www.w3.org/2000/svg" xmlns:xlink="http://www.w3.org/1999/xlink">
    <title>Artboard Copy 2</title>
    <defs>
        <path d="M11.6662076,5.96947865 L11.7163048,6.79555723 L10.8813522,6.69440475 C7.84212465,6.30665358 5.18697532,4.99167136 2.93260325,2.78317559 L1.83046579,1.68735707 L1.5465819,2.4965769 C0.945416016,4.30046276 1.32949422,6.2055011 2.58192315,7.48676583 C3.24988525,8.19483318 3.09959377,8.29598566 1.94735916,7.874517 C1.5465819,7.73964703 1.1959018,7.63849455 1.1625037,7.68907079 C1.04561033,7.80708201 1.44638759,9.34122793 1.76366958,9.9481428 C2.19784495,10.7910801 3.08289472,11.6171587 4.05143976,12.1060623 L4.86969333,12.4938135 L3.90114829,12.5106723 C2.96600135,12.5106723 2.93260325,12.527531 3.03279756,12.8815647 C3.36677861,13.9773832 4.68600375,15.1406367 6.15552036,15.6463991 L7.19086161,16.0004328 L6.28911278,16.5399126 C4.95318859,17.315415 3.38347766,17.7537424 1.81376674,17.7874599 C1.06230938,17.8043186 0.444444444,17.8717536 0.444444444,17.9223298 C0.444444444,18.0909173 2.48172884,19.0350071 3.66736156,19.4058995 C7.22425971,20.501718 11.44912,20.0296731 14.6219399,18.1583523 C16.876312,16.8265113 19.1306841,14.1796881 20.1827244,11.6171587 C20.7504921,10.2516002 21.3182599,7.75650577 21.3182599,6.55953478 C21.3182599,5.78403244 21.3683571,5.68287997 22.303504,4.75564891 C22.8545727,4.21616903 23.3722434,3.62611291 23.4724377,3.45752544 C23.6394282,3.13720926 23.6227292,3.13720926 22.7710775,3.42380795 C21.351658,3.92957034 21.1512694,3.86213536 21.8526296,3.10349177 C22.3703002,2.56401188 22.9881652,1.58620459 22.9881652,1.2996059 C22.9881652,1.24902966 22.7376794,1.3333234 22.4537955,1.48505211 C22.1532125,1.65363958 21.4852505,1.90652077 20.9842789,2.05824949 L20.0825301,2.34484818 L19.2642765,1.78850955 C18.8134021,1.48505211 18.1788381,1.14787719 17.844857,1.04672471 C16.9932054,0.810702259 15.6906793,0.844419752 14.9225229,1.11415969 C12.8351413,1.87280328 11.5159162,3.82841786 11.6662076,5.96947865 Z" id="path-1"></path>
    </defs>
    <g id="Artboard-Copy-2" stroke="none" stroke-width="1" fill="none" fill-rule="evenodd">
        <mask id="mask-2" fill="white">
            <use xlink:href="#path-1"></use>
        </mask>
        <use id="Mask" fill="#FFFFFF" xlink:href="#path-1"></use>
    </g>
</svg>