<?xml version="1.0" encoding="UTF-8"?>
<svg width="24px" height="17px" viewBox="0 0 24 17" version="1.1" xmlns="http://www.w3.org/2000/svg" xmlns:xlink="http://www.w3.org/1999/xlink">
    <title>Artboard Copy 4</title>
    <defs>
        <path d="M12.2708395,0.333982976 C13.3273855,0.337989105 17.3074935,0.366699697 20.0903333,0.572458939 C20.5417222,0.627074046 21.5268333,0.631502298 22.4057778,1.57250584 C23.0983889,2.28914461 23.3244444,3.9165272 23.3244444,3.9165272 C23.3244444,3.9165272 23.5555556,5.82805596 23.5555556,7.73884668 L23.5555556,7.73884668 L23.5555556,9.53081264 C23.5555556,11.4423414 23.3244444,13.3531321 23.3244444,13.3531321 C23.3244444,13.3531321 23.0983889,14.9805147 22.4057778,15.6971535 C21.5268333,16.638157 20.5417222,16.6425853 20.0903333,16.6979384 C17.006646,16.9259419 12.4482324,16.9432566 12.030865,16.944374 L11.9899181,16.9443481 C11.7162207,16.9417023 5.94708995,16.8840304 4.14222222,16.7067949 C3.628,16.6086353 2.47316667,16.638157 1.5935,15.6971535 C0.900888889,14.9805147 0.675555556,13.3531321 0.675555556,13.3531321 C0.675555556,13.3531321 0.444444444,11.4423414 0.444444444,9.53081264 L0.445372036,7.52663072 C0.461246761,5.68908336 0.675555556,3.9165272 0.675555556,3.9165272 C0.675555556,3.9165272 0.900888889,2.28914461 1.5935,1.57250584 C2.47316667,0.631502298 3.45755556,0.627074046 3.90966667,0.572458939 C6.69250646,0.366699697 10.6726145,0.337989105 11.7291605,0.333982976 Z M9.61305556,5.06639663 L9.61377778,11.7021322 L15.8573889,8.39570405 L9.61305556,5.06639663 Z" id="path-1"></path>
    </defs>
    <g id="Artboard-Copy-4" stroke="none" stroke-width="1" fill="none" fill-rule="evenodd">
        <mask id="mask-2" fill="white">
            <use xlink:href="#path-1"></use>
        </mask>
        <use id="Mask" fill="#FFFFFF" xlink:href="#path-1"></use>
    </g>
</svg>