<svg width="10" height="12" viewBox="0 0 10 12" fill="none" xmlns="http://www.w3.org/2000/svg">
<path fill-rule="evenodd" clip-rule="evenodd" d="M8.72765 10.4258C8.90204 10.4216 9.20062 10.3473 9.20326 9.90009C9.20724 9.428 9.20672 7.87449 9.20623 6.37879V6.37797V6.3763V6.37451V6.37258V6.37051C9.20606 5.88293 9.2059 5.40171 9.2059 4.96635H0.79299V9.70839C0.79299 9.99032 0.85112 10.1998 0.964736 10.312C1.044 10.3886 1.15498 10.4273 1.29502 10.4273C1.60416 10.4271 8.72765 10.4258 8.72765 10.4258ZM1.32408 2.58007C0.951525 2.58216 0.79299 2.75791 0.79299 3.16799V3.16851V4.18193H9.2059V3.16903V3.14262C9.20854 3.0754 9.19005 2.86121 9.06586 2.7294C8.97867 2.63499 8.84127 2.58635 8.64839 2.57981C8.63782 2.57955 8.33132 2.57955 7.85307 2.57955V3.15622C7.85307 3.37276 7.67604 3.54851 7.45674 3.54851C7.23743 3.54851 7.0604 3.37276 7.0604 3.15622V2.57955H3.4141H2.87772V3.15622C2.87772 3.37276 2.69805 3.54851 2.48139 3.54851C2.26208 3.54851 2.08505 3.37276 2.08505 3.15622V2.57955L1.69276 2.57974L1.69235 2.57974C1.47859 2.57984 1.34674 2.5799 1.32408 2.58007ZM9.65742 2.20587C10.0009 2.58247 10.0009 3.06944 9.99827 3.17771L9.9985 3.53067V3.53155C9.99943 4.81043 10.0025 9.06435 9.99562 9.90528C9.99034 10.863 9.23466 11.2103 8.72735 11.2103H8.7247L8.68007 11.2103L8.6504 11.2103C7.89261 11.2105 1.58768 11.2116 1.29471 11.2119H1.29207C0.940647 11.2119 0.634147 11.0926 0.404271 10.8669C0.134762 10.6007 7.62708e-06 10.2102 7.62708e-06 9.70652C0.00242057 9.34397 0.000426439 4.24527 6.21466e-05 3.31383L7.62708e-06 3.16882C-0.00263462 2.16167 0.681707 1.79893 1.32113 1.79527C1.35284 1.79501 1.64084 1.79501 2.08474 1.79501V1.19454C2.08474 0.977994 2.26177 0.802246 2.48108 0.802246C2.69774 0.802246 2.87741 0.977994 2.87741 1.19454V1.79475L7.06009 1.79501V1.19454C7.06009 0.977994 7.23712 0.802246 7.45643 0.802246C7.67573 0.802246 7.85276 0.977994 7.85276 1.19454V1.79501C8.30194 1.79527 8.6058 1.79527 8.66129 1.79527C9.19238 1.81253 9.4936 2.02803 9.65742 2.20587ZM4.50293 8.70534C4.50293 8.44119 4.7196 8.22726 4.98646 8.22726C5.25333 8.22726 5.47 8.44119 5.47 8.70534C5.47 8.96948 5.25333 9.18341 4.98646 9.18341C4.7196 9.18341 4.50293 8.96948 4.50293 8.70534ZM2.51283 8.22705C2.24596 8.22705 2.0293 8.44098 2.0293 8.70513C2.0293 8.96927 2.24596 9.1832 2.51283 9.1832C2.77969 9.1832 2.99636 8.96927 2.99636 8.70513C2.99636 8.44098 2.77969 8.22705 2.51283 8.22705ZM6.97656 8.70513C6.97656 8.44098 7.19323 8.22705 7.46009 8.22705C7.72696 8.22705 7.94362 8.44098 7.94362 8.70513C7.94362 8.96927 7.72696 9.1832 7.46009 9.1832C7.19323 9.1832 6.97656 8.96927 6.97656 8.70513ZM4.98646 6.06967C4.7196 6.06967 4.50293 6.2836 4.50293 6.54775C4.50293 6.81189 4.7196 7.02582 4.98646 7.02582C5.25333 7.02582 5.47 6.81189 5.47 6.54775C5.47 6.2836 5.25333 6.06967 4.98646 6.06967ZM6.97656 6.5479C6.97656 6.28375 7.19323 6.06982 7.46009 6.06982C7.72696 6.06982 7.94362 6.28375 7.94362 6.5479C7.94362 6.81204 7.72696 7.02597 7.46009 7.02597C7.19323 7.02597 6.97656 6.81204 6.97656 6.5479Z" fill="#1C4098"/>
</svg>
