<svg width="10" height="8" viewBox="0 0 10 8" fill="none" xmlns="http://www.w3.org/2000/svg">
<path fill-rule="evenodd" clip-rule="evenodd" d="M9.18876 6.81679H0.812253C0.7494 6.81679 0.696289 6.76445 0.696289 6.70201V1.80823L4.80998 4.4732C4.86796 4.51062 4.93406 4.52967 5.00039 4.52967C5.06788 4.52967 5.13514 4.51039 5.19359 4.47182L9.30473 1.75635V6.70201C9.30473 6.76445 9.25162 6.81679 9.18876 6.81679ZM8.45216 1.49105L4.9983 3.77265L1.47672 1.49105H8.45216ZM9.74465 1.02377C9.7022 0.969366 9.64654 0.930341 9.58462 0.908992C9.4668 0.843108 9.33298 0.802246 9.18826 0.802246H0.811745C0.364357 0.802246 0 1.16266 0 1.60571V6.70196C0 7.14501 0.364357 7.50542 0.811745 7.50542H9.18826C9.63564 7.50542 10 7.14501 10 6.70196V1.60571C10 1.37638 9.90097 1.17046 9.74465 1.02377Z" fill="#1C4098"/>
</svg>
