<svg width="12" height="11" viewBox="0 0 12 11" fill="none" xmlns="http://www.w3.org/2000/svg">
<path fill-rule="evenodd" clip-rule="evenodd" d="M8.87832 6.76548C7.99242 7.74756 6.69161 9.12828 6.11764 9.73284C5.52992 9.12828 4.18948 7.74756 3.27716 6.76284C1.96691 5.35044 1.51372 4.81188 1.51372 3.85884C1.51372 2.97444 2.26212 1.69668 3.61523 1.69668C5.40779 1.69932 5.71001 3.21204 5.72295 3.28332C5.72376 3.28596 5.72564 3.29124 5.72645 3.29388C5.72942 3.30708 5.73373 3.32028 5.73805 3.33348C5.74182 3.34668 5.74533 3.35724 5.75045 3.37044C5.75557 3.381 5.76204 3.39156 5.76851 3.40476C5.77471 3.41532 5.78037 3.42588 5.78738 3.43644C5.79574 3.447 5.80518 3.45756 5.81461 3.47076C5.82162 3.47868 5.82782 3.4866 5.8351 3.49188C5.8475 3.50508 5.86098 3.51564 5.87473 3.5262C5.88093 3.53148 5.88659 3.53676 5.89306 3.5394C5.90843 3.54996 5.92488 3.55788 5.94213 3.56844C5.94833 3.57108 5.95426 3.57372 5.961 3.57636C5.97718 3.58428 5.99443 3.58956 6.01196 3.59484C6.02058 3.59748 6.02921 3.59748 6.03784 3.60012C6.04404 3.60276 6.0497 3.6054 6.0559 3.6054C6.06669 3.60804 6.0772 3.6054 6.08798 3.60804C6.0985 3.60804 6.10847 3.60804 6.11899 3.60804C6.13543 3.60804 6.15134 3.60804 6.16751 3.6054C6.17452 3.6054 6.1818 3.6054 6.18881 3.6054C6.19313 3.6054 6.1969 3.60276 6.20095 3.60276C6.21631 3.60012 6.2306 3.59484 6.24516 3.58956C6.25621 3.58692 6.26754 3.58428 6.27832 3.579C6.29126 3.57372 6.30339 3.5658 6.31579 3.56052C6.32658 3.55524 6.33736 3.54996 6.34734 3.54204C6.35866 3.53412 6.3689 3.5262 6.37942 3.51828C6.38885 3.51036 6.39829 3.50244 6.40719 3.49452C6.41689 3.48396 6.42525 3.4734 6.43415 3.46284C6.4417 3.45492 6.44951 3.44436 6.45625 3.43644C6.4638 3.42588 6.46973 3.41268 6.4762 3.40212C6.4824 3.38892 6.48861 3.37836 6.49373 3.3678C6.49831 3.35724 6.50182 3.34404 6.50559 3.33348C6.5099 3.32028 6.51422 3.30444 6.51718 3.29124C6.51799 3.28596 6.51988 3.28332 6.52042 3.27804C6.53147 3.21468 6.80565 1.69932 8.56073 1.69668C9.87125 1.69668 10.5959 2.97444 10.5959 3.85884C10.5959 4.81452 10.1543 5.35308 8.87832 6.76548ZM8.56113 0.904785C7.2951 0.907425 6.53294 1.52783 6.11722 2.17463C5.6918 1.52783 4.91158 0.907425 3.6159 0.904785C1.90072 0.904785 0.705322 2.46239 0.705322 3.85895C0.705322 5.16575 1.40628 5.92343 2.67905 7.29359C3.87741 8.58719 5.81042 10.5645 5.82983 10.5857C5.83361 10.5883 5.83792 10.5909 5.8417 10.5936C5.84358 10.5962 5.84412 10.5989 5.84628 10.6015C5.84951 10.6041 5.85383 10.6041 5.85733 10.6068C5.89265 10.6385 5.9312 10.6622 5.97299 10.6781C5.97676 10.6807 5.98108 10.6807 5.98485 10.6807C6.02907 10.6965 6.07517 10.7071 6.12181 10.7071C6.16953 10.7071 6.21698 10.6965 6.262 10.6807C6.26577 10.6807 6.26955 10.6781 6.27332 10.6781C6.31592 10.6596 6.35555 10.6358 6.39141 10.6041C6.39464 10.6015 6.39868 10.5989 6.40165 10.5962C6.40165 10.5962 6.40408 10.5936 6.40596 10.5909C6.40947 10.5883 6.41405 10.5857 6.41783 10.5804C6.43643 10.5619 8.31849 8.58455 9.48477 7.29095C10.723 5.91815 11.4051 5.16311 11.4051 3.85895C11.4051 2.46239 10.2372 0.904785 8.56113 0.904785Z" fill="#1C4098"/>
</svg>
