<svg width="9" height="12" viewBox="0 0 9 12" fill="none" xmlns="http://www.w3.org/2000/svg">
<path fill-rule="evenodd" clip-rule="evenodd" d="M4.02095 8.53239V8.99714C4.02095 9.21385 4.19542 9.38879 4.41096 9.38879C4.62625 9.38879 4.80098 9.21385 4.80098 8.99714V8.52978C5.03993 8.3914 5.20321 8.13552 5.20321 7.84049C5.20321 7.40184 4.84778 7.04414 4.41096 7.04414C3.97389 7.04414 3.61846 7.40184 3.61846 7.84049C3.61846 8.1303 3.77446 8.3914 4.02095 8.53239ZM8.03625 10.2322C8.03625 10.3262 8.01441 11.1643 7.25674 11.1956C6.12596 11.24 1.63067 11.2008 1.57476 11.1982C1.50534 11.1982 0.8964 11.1643 0.780176 10.0703V5.53242H8.03625V10.2322ZM4.39696 0.783398C6.58754 0.783398 6.71312 2.60846 6.72014 2.80429V4.74946H2.07404L2.07378 2.91134C2.07612 2.82256 2.15152 0.783398 4.39696 0.783398ZM8.42611 4.74935H7.4997L7.49944 2.79373C7.475 1.82768 6.79482 0 4.39649 0C1.99791 0 1.31799 1.89034 1.29354 2.90078V4.74935H0.390014C0.174726 4.74935 0 4.92428 0 5.14099V10.0914C0 10.1044 0.000780027 10.1175 0.00208007 10.1305C0.152625 11.6371 1.11336 12.0104 1.57773 11.9817C1.69604 11.9843 3.50934 12 5.10944 12C6.02441 12 6.86996 11.9948 7.28831 11.9791C8.49657 11.9295 8.81612 10.8146 8.81612 10.2324V5.14099C8.81612 4.92428 8.6414 4.74935 8.42611 4.74935Z" fill="#1C4098"/>
</svg>
