<svg width="13" height="14" viewBox="0 0 13 14" fill="none" xmlns="http://www.w3.org/2000/svg">
<path fill-rule="evenodd" clip-rule="evenodd" d="M6.16748 1.08228C7.34377 1.08228 8.30089 2.04557 8.30089 3.22533C8.30089 4.40871 7.34377 5.36839 6.16748 5.36839C4.99119 5.36839 4.03442 4.40871 4.03442 3.22533C4.03442 2.04557 4.99119 1.08228 6.16748 1.08228ZM6.1672 6.45087C7.93774 6.45087 9.37845 5.00413 9.37845 3.22546C9.37845 1.44679 7.93774 4.88281e-05 6.1672 4.88281e-05C4.39666 4.88281e-05 2.9563 1.44679 2.9563 3.22546C2.9563 5.00413 4.39666 6.45087 6.1672 6.45087V6.45087ZM11.2581 12.8331H1.07817V10.322C1.07817 9.68704 1.32572 9.0665 1.74033 8.65881C1.95231 8.44955 2.30153 8.19701 2.79985 8.21144C3.0747 8.21865 3.9262 8.20783 4.96165 8.20422C6.50871 8.19701 8.45997 8.18618 9.46955 8.18618C10.6983 8.18618 11.2581 9.19277 11.2581 10.1272V12.8331ZM9.46927 7.10396C8.45861 7.10396 6.5052 7.11478 4.95634 7.12199C3.92843 7.1256 3.07945 7.12921 2.8143 7.12921C2.81322 7.12921 2.81179 7.12921 2.81035 7.12921C2.1428 7.11839 1.49322 7.38537 0.985199 7.88686C0.368312 8.49297 4.88281e-05 9.40215 4.88281e-05 10.3222V13.3744C4.88281e-05 13.6702 0.241127 13.9156 0.538971 13.9156H11.7967C12.0942 13.9156 12.3356 13.6702 12.3356 13.3744V10.1273C12.3356 8.66254 11.3311 7.10396 9.46927 7.10396V7.10396Z" fill="#77889D"/>
</svg>
