<svg width="14" height="15" viewBox="0 0 14 15" fill="none" xmlns="http://www.w3.org/2000/svg">
<path fill-rule="evenodd" clip-rule="evenodd" d="M12.1093 13.1252C12.3464 13.1196 12.7523 13.0186 12.7559 12.4106C12.7613 11.7688 12.7606 9.65671 12.7599 7.62325V7.62268V7.62216L12.7599 7.61309V7.61302V7.61294V7.61285C12.7597 6.94969 12.7595 6.29517 12.7595 5.70303H1.32189V12.15C1.32189 12.5332 1.40092 12.818 1.55538 12.9706C1.66315 13.0748 1.81402 13.1274 2.00441 13.1274C2.42469 13.127 12.1093 13.1252 12.1093 13.1252ZM2.04392 2.45862C1.53742 2.46147 1.32189 2.7004 1.32189 3.25791V3.25862V4.6364H12.7595V3.25933V3.22342C12.7631 3.13204 12.7379 2.84084 12.5691 2.66164C12.4505 2.53329 12.2637 2.46715 12.0015 2.45827C11.9871 2.45791 11.5704 2.45791 10.9203 2.45791V3.24191C10.9203 3.53631 10.6796 3.77524 10.3814 3.77524C10.0833 3.77524 9.84259 3.53631 9.84259 3.24191V2.45791H4.88535H4.15614V3.24191C4.15614 3.53631 3.91187 3.77524 3.6173 3.77524C3.31915 3.77524 3.07847 3.53631 3.07847 3.24191V2.45791L2.54532 2.45818C2.25428 2.45831 2.07475 2.45839 2.04392 2.45862ZM13.3733 1.95026C13.8403 2.46226 13.8403 3.1243 13.8367 3.2715L13.837 3.75131C13.8383 5.48845 13.8425 11.2743 13.8331 12.4178C13.8259 13.7199 12.7985 14.192 12.1088 14.192H12.1052L12.0444 14.192L12.0288 14.1921C11.12 14.1922 2.40564 14.1938 2.00396 14.1942H2.00037C1.52261 14.1942 1.10591 14.032 0.793392 13.7252C0.426987 13.3632 0.243785 12.8324 0.243785 12.1476C0.247065 11.6547 0.244354 4.72287 0.243859 3.45655L0.243785 3.25941C0.240193 1.89017 1.17057 1.39701 2.03989 1.39204C2.08299 1.39168 2.47454 1.39168 3.07803 1.39168V0.575326C3.07803 0.280926 3.31871 0.0419922 3.61686 0.0419922C3.91143 0.0419922 4.15569 0.280926 4.15569 0.575326V1.39133L6.98418 1.3915L9.84215 1.39168V0.575326C9.84215 0.280926 10.0828 0.0419922 10.381 0.0419922C10.6791 0.0419922 10.9198 0.280926 10.9198 0.575326V1.39168C11.5305 1.39204 11.9436 1.39204 12.019 1.39204C12.7411 1.4155 13.1506 1.70848 13.3733 1.95026ZM6.36565 10.7862C6.36565 10.4271 6.66021 10.1362 7.02302 10.1362C7.38584 10.1362 7.6804 10.4271 7.6804 10.7862C7.6804 11.1453 7.38584 11.4361 7.02302 11.4361C6.66021 11.4361 6.36565 11.1453 6.36565 10.7862ZM3.66052 10.1362C3.29771 10.1362 3.00315 10.4271 3.00315 10.7862C3.00315 11.1453 3.29771 11.4361 3.66052 11.4361C4.02334 11.4361 4.3179 11.1453 4.3179 10.7862C4.3179 10.4271 4.02334 10.1362 3.66052 10.1362ZM9.72815 10.7862C9.72815 10.4271 10.0227 10.1362 10.3855 10.1362C10.7483 10.1362 11.0429 10.4271 11.0429 10.7862C11.0429 11.1453 10.7483 11.4361 10.3855 11.4361C10.0227 11.4361 9.72815 11.1453 9.72815 10.7862ZM7.02302 7.20283C6.66021 7.20283 6.36565 7.49368 6.36565 7.85279C6.36565 8.2119 6.66021 8.50274 7.02302 8.50274C7.38584 8.50274 7.6804 8.2119 7.6804 7.85279C7.6804 7.49368 7.38584 7.20283 7.02302 7.20283ZM9.72815 7.85279C9.72815 7.49368 10.0227 7.20283 10.3855 7.20283C10.7483 7.20283 11.0429 7.49368 11.0429 7.85279C11.0429 8.2119 10.7483 8.50274 10.3855 8.50274C10.0227 8.50274 9.72815 8.2119 9.72815 7.85279Z" fill="#77889D"/>
</svg>
