<svg width="12" height="10" viewBox="0 0 12 10" fill="none" xmlns="http://www.w3.org/2000/svg">
<path fill-rule="evenodd" clip-rule="evenodd" d="M4.19551 0.736438C4.99565 0.736438 5.64647 1.38925 5.64647 2.19176C5.64647 2.99672 4.99565 3.64953 4.19551 3.64953C3.39536 3.64953 2.74429 2.99672 2.74429 2.19176C2.74429 1.38925 3.39536 0.736438 4.19551 0.736438ZM4.19526 4.38559C5.39963 4.38559 6.37941 3.40147 6.37941 2.19157C6.37941 0.98412 5.39963 0 4.19526 0C2.99089 0 2.01086 0.98412 2.01086 2.19157C2.01086 3.40147 2.99089 4.38559 4.19526 4.38559ZM8.65816 0.857532C9.23517 0.857532 9.70441 1.32873 9.70441 1.90791C9.70441 2.4871 9.23517 2.9583 8.65816 2.9583C8.08139 2.9583 7.61215 2.4871 7.61215 1.90791C7.61215 1.32873 8.08139 0.857532 8.65816 0.857532ZM8.658 3.69338C9.63925 3.69338 10.4374 2.89332 10.4374 1.90675C10.4374 0.922629 9.63925 0.120117 8.658 0.120117C7.67701 0.120117 6.87881 0.922629 6.87881 1.90675C6.87881 2.89332 7.67701 3.69338 8.658 3.69338ZM11.266 6.90352H8.38999V6.88879C8.38999 5.88995 7.70691 4.8322 6.44021 4.8322C6.42237 4.8322 6.40233 4.8322 6.38351 4.8322C6.5106 4.71195 6.67483 4.62605 6.87646 4.62605C7.01552 4.62605 7.44419 4.6236 7.9689 4.62114C8.79422 4.61624 9.85758 4.61133 10.4023 4.61133C11.0857 4.61133 11.266 5.22978 11.266 5.55618V6.90352ZM7.65776 8.72711H0.733337V7.01901C0.733337 6.58954 0.901725 6.16497 1.18376 5.88764C1.32795 5.7453 1.57259 5.5686 1.90447 5.58578C2.08826 5.58087 2.66992 5.58333 3.37426 5.57842C4.42662 5.57351 5.75442 5.5686 6.44116 5.5686C7.27724 5.5686 7.65776 6.25332 7.65776 6.88894V8.72711ZM10.4031 3.87524C9.85764 3.87524 8.79257 3.88015 7.96603 3.88506C7.44303 3.88752 7.01582 3.88997 6.88434 3.88997C6.8753 3.88997 6.86626 3.88997 6.85746 3.88997C6.28215 3.88997 5.76941 4.25319 5.50107 4.83237C4.83925 4.83482 4.04815 4.83973 3.37044 4.84219C2.67147 4.84709 2.09397 4.84955 1.9141 4.84955C1.91336 4.84955 1.91263 4.84955 1.9119 4.84955C1.45366 4.83482 1.01595 5.02134 0.670373 5.36247C0.250504 5.77477 0 6.39567 0 7.01903V9.09525C0 9.29895 0.163989 9.46338 0.366591 9.46338H8.0242C8.2268 9.46338 8.39079 9.29895 8.39079 9.09525V7.63993H11.6334C11.836 7.63993 12 7.4755 12 7.27181V5.55635C12 4.74156 11.4403 3.87524 10.4031 3.87524Z" fill="#77889D"/>
</svg>
