<svg width="14" height="9" viewBox="0 0 14 9" fill="none" xmlns="http://www.w3.org/2000/svg">
<path fill-rule="evenodd" clip-rule="evenodd" d="M12.3618 7.69826H1.63986C1.55941 7.69826 1.49143 7.63127 1.49143 7.55134V1.28731L6.75696 4.69847C6.83117 4.74637 6.91578 4.77075 7.00068 4.77075C7.08707 4.77075 7.17316 4.74607 7.24797 4.69671L12.5102 1.2209V7.55134C12.5102 7.63127 12.4422 7.69826 12.3618 7.69826ZM11.4186 0.881836L6.99769 3.80229L2.49006 0.881836H11.4186ZM13.0731 0.283554C13.0188 0.213914 12.9476 0.163962 12.8683 0.136635C12.7175 0.0523032 12.5462 0 12.3609 0H1.63901C1.06635 0 0.599976 0.461326 0.599976 1.02843V7.55164C0.599976 8.11874 1.06635 8.58007 1.63901 8.58007H12.3609C12.9336 8.58007 13.4 8.11874 13.4 7.55164V1.02843C13.4 0.734889 13.2732 0.471316 13.0731 0.283554Z" fill="#77889D"/>
</svg>
