<svg width="100" height="100" viewBox="0 0 100 100" fill="none" xmlns="http://www.w3.org/2000/svg">
<path d="M70.3791 33.9033V42.8881C71.7288 44.9999 72.4955 47.5034 72.4955 50.2058V50.2802C72.4955 52.966 71.7273 55.4664 70.3791 57.5828V66.4765H70.616C76.4352 63.2867 80 57.2139 80 50.2863V50.1816C80.0015 43.1264 76.3533 37.0141 70.3791 33.9033Z" fill="white"/>
<path fill-rule="evenodd" clip-rule="evenodd" d="M49.5819 33C56.0404 33 61.9705 36.6422 65.1162 41.9999V58.6091C61.9705 63.9866 55.9478 67.641 49.3997 67.644H49.2434C39.6938 67.644 31.6807 59.8723 31.6807 50.3228C31.6807 40.7717 40.1432 33 49.5819 33ZM39.1856 50.3243C39.1856 56.5246 43.9664 60.4416 49.1374 60.4978C54.3115 60.4401 59.3352 56.5231 59.3367 50.3243C59.3367 44.0784 54.1065 39.8547 49.3864 39.8547C44.6663 39.8547 39.1856 44.0784 39.1856 50.3243Z" fill="white"/>
<path d="M27.3618 36.5298C22.6417 39.6953 20 44.6917 20 50.3228C20 56.1223 22.6432 61.2539 27.3618 64.4011V36.5298Z" fill="white"/>
</svg>
