<svg width="16" height="16" viewBox="0 0 16 16" fill="none" xmlns="http://www.w3.org/2000/svg">
<rect width="16" height="16" fill="#1B4098"/>
<path d="M11.0607 5.14453V6.58209C11.2766 6.91999 11.3993 7.32055 11.3993 7.75294V7.76484C11.3993 8.19455 11.2764 8.59463 11.0607 8.93325V10.3562H11.0986C12.0296 9.84588 12.6 8.87422 12.6 7.76581V7.74905C12.6002 6.62023 12.0165 5.64226 11.0607 5.14453Z" fill="white"/>
<path fill-rule="evenodd" clip-rule="evenodd" d="M7.73311 5C8.76646 5 9.71528 5.58275 10.2186 6.43999V9.09746C9.71528 9.95786 8.75164 10.5426 7.70396 10.543H7.67894C6.15101 10.543 4.86892 9.29957 4.86892 7.77164C4.86892 6.24347 6.22292 5 7.73311 5ZM6.06969 7.77189C6.06969 8.76394 6.83462 9.39066 7.66199 9.39965C8.48984 9.39042 9.29364 8.7637 9.29388 7.77189C9.29388 6.77254 8.45704 6.09676 7.70182 6.09676C6.94661 6.09676 6.06969 6.77254 6.06969 7.77189Z" fill="white"/>
<path d="M4.17789 5.56477C3.42267 6.07125 3 6.87068 3 7.77164C3 8.69957 3.42291 9.52062 4.17789 10.0242V5.56477Z" fill="white"/>
</svg>
