<svg width="500" height="250" viewBox="0 0 500 250" fill="none" xmlns="http://www.w3.org/2000/svg">
<mask id="mask0_272_820" style="mask-type:alpha" maskUnits="userSpaceOnUse" x="0" y="0" width="500" height="500">
<circle cx="250" cy="250" r="250" transform="rotate(-90 250 250)" fill="#ED0C6E"/>
</mask>
<g mask="url(#mask0_272_820)">
<circle cx="250" cy="250" r="250" transform="rotate(-90 250 250)" fill="#488936" fill-opacity="0.1"/>
<path d="M247.829 49.9135C247.343 50.8857 245.338 56.6729 245.429 58.6172C245.52 60.5766 247.586 57.8273 247.586 57.8273C247.586 57.8273 252.279 47.5439 252.674 46.8148C253.069 46.0857 247.829 49.8983 247.829 49.8983V49.9135Z" fill="#8ECA7E" stroke="#488936" stroke-width="0.37974" stroke-miterlimit="10"/>
<path d="M250.325 63.5688C249.368 70.4193 250.522 77.5584 247.803 76.0243C245.434 74.6876 244.264 69.3864 245.221 62.5359C246.178 55.6854 248.213 53.5437 250.765 52.6019C256.78 50.3994 251.251 56.7183 250.31 63.5536L250.325 63.5688Z" fill="white" stroke="#488936" stroke-width="0.37974" stroke-linecap="round" stroke-linejoin="round"/>
<path d="M248.167 74.5357C244.901 72.6674 240.663 68.9003 241.665 62.9764C242.668 57.0676 247.939 54.3487 251.478 54.0145" fill="#8ECA7E"/>
<path d="M248.167 74.5357C244.901 72.6674 240.663 68.9003 241.665 62.9764C242.668 57.0676 247.939 54.3487 251.478 54.0145" stroke="#488936" stroke-width="0.37974" stroke-miterlimit="10"/>
<path d="M228.934 177.476C229.481 175.03 231.653 168.483 231.653 168.483C231.851 165.992 232.094 163.121 232.261 161.77C232.565 159.127 234.661 140.352 235.268 135.066C235.876 129.78 235.587 123.036 235.891 119.223C235.891 119.223 245.293 116.899 245.582 118.069C245.871 119.239 245.537 132.454 245.233 137.451C244.959 141.856 239.597 162.316 238.352 166.995C238.352 166.995 239.005 172.615 237.638 175.881C236.271 179.131 236.848 181.805 236.848 181.805C236.848 181.805 239.795 187.06 238.443 187.334C238.094 187.41 235.937 183.187 235.618 182.822C236.104 183.886 237.987 188.367 237.638 188.473C236.818 188.746 234.387 184.387 234.387 184.387C234.387 184.387 235.238 186.741 236.316 188.093C237.41 189.46 236.453 189.87 235.496 189.187C234.706 188.61 232.458 185.481 231.79 184.569C232.398 185.769 234.813 189.475 234.813 189.475C234.813 189.475 233.461 189.612 230.803 185.951C229.238 183.795 228.403 181.243 228.403 181.243C228.403 181.243 228.372 179.936 228.919 177.476H228.934Z" fill="white" stroke="#488936" stroke-width="0.37974" stroke-linecap="round" stroke-linejoin="round"/>
<path d="M236.358 168.104L236.692 172.266C236.282 174.225 234.308 176.792 233.335 178.493C232.348 180.21 231.695 183.445 230.996 182.898C229.781 181.911 230.632 179.587 230.89 177.871C231.148 176.154 231.224 171.111 231.953 170.139" fill="white"/>
<path d="M236.358 168.104L236.692 172.266C236.282 174.225 234.308 176.792 233.335 178.493C232.348 180.21 231.695 183.445 230.996 182.898C229.781 181.911 230.632 179.587 230.89 177.871C231.148 176.154 231.224 171.111 231.953 170.139" stroke="#488936" stroke-width="0.37974" stroke-linecap="round" stroke-linejoin="round"/>
<path d="M239.479 94.8594C236.836 96.029 234.482 99.2492 234.467 105.112C234.452 110.991 233.236 124.479 232.355 125.072C236.472 125.375 242.624 128.626 242.624 128.626C242.624 128.626 242.411 102.211 241.53 99.8568C240.664 97.5024 239.495 94.8594 239.495 94.8594H239.479Z" fill="#8ECA7E"/>
<path d="M238.547 153.901H265.493C269.807 150.848 280.258 148.479 280.258 148.479C285.437 160.463 288.445 169.881 288.247 188.397C288.156 197.055 290.237 216.331 291.969 223.212C297.969 247.242 299.548 288.633 299.548 288.633L293.913 289.028C293.867 289.226 293.822 289.423 293.776 289.605L280.531 290.107C280.531 290.107 269.731 234.695 268.683 230.351C268.243 228.513 267.255 224.579 266.268 220.675C266.936 224.321 267.544 228.801 267.817 234.042C268.379 244.705 270.384 288.086 270.384 288.086L256.881 288.178C256.881 288.178 256.881 288.284 256.881 288.33L252.218 288.36C252.218 288.36 249.164 256.234 245.306 229.409C244.805 225.931 244.319 221.632 243.848 216.862C241.159 191.86 238.547 153.901 238.547 153.901Z" fill="white" stroke="#488936" stroke-width="0.37974" stroke-linecap="round" stroke-linejoin="round"/>
<path d="M249.047 89.6951L252.465 87.2952L251.978 71.5436L255.168 71.5891L255.123 71.1638L258.647 71.6347L267.457 71.741C267.457 71.741 267.791 73.7309 268.262 76.5561C268.945 79.4422 270.039 83.3459 271.376 85.9281C272.545 89.6496 276.51 88.1458 276.54 89.4977C276.631 92.7331 259.452 107.376 259.452 107.376C254.834 102.515 249.077 89.6951 249.077 89.6951H249.047Z" fill="white" stroke="#488936" stroke-width="0.37974" stroke-linecap="round" stroke-linejoin="round"/>
<path d="M254.624 96.3027C249.733 93.6901 251.298 87.8877 251.298 87.8877C251.298 87.8877 250.827 88.4801 241.44 92.9458C236.716 95.1787 237.187 95.5736 238.007 99.128C239.435 105.295 239.587 109.989 239.435 114.545C239.283 118.631 235.941 151.244 237.703 170.291C237.825 171.598 246.392 172.403 260.017 172.646C260.062 157.821 259.819 106.404 259.044 98.3685C258.984 97.7761 256.523 97.3204 254.64 96.3179L254.624 96.3027Z" fill="#8ECA7E"/>
<path d="M272.32 86.1711C272.32 86.1711 280.704 91.6698 289.757 93.4622C293.57 94.2064 286.719 103.928 285.55 112.738C285.064 116.338 283.773 124.662 283.788 127.411C283.803 131.512 287.98 163.107 288.481 170.276C288.755 174.286 262.401 172.904 249.444 172.327C247.394 152.367 253.302 98.2925 254.533 98.3532C270.968 99.1279 272.335 86.1711 272.335 86.1711H272.32Z" fill="#8ECA7E" stroke="#488936" stroke-width="0.37974" stroke-miterlimit="10"/>
<path d="M271.937 66.6068C273.972 59.893 274.428 53.8627 264.858 50.84C252.904 47.0882 251.613 54.7285 248.879 62.8246C246.145 70.9207 248.347 81.3255 254.393 83.361C258.995 84.9255 264.509 81.1736 268.063 75.7206C269.537 75.4472 271.04 74.0649 271.815 72.0751C272.818 69.4776 273.623 67.3663 271.937 66.6068Z" fill="white" stroke="#488936" stroke-width="0.37974" stroke-linecap="round" stroke-linejoin="round"/>
<path d="M260.547 48.8653L260.957 48.2881C260.957 48.2881 263.084 44.8249 262.567 44.7034C262.279 44.6274 260.198 44.0502 257.889 45.3109L257.646 44.4603C257.646 44.4603 256.188 45.2654 254.988 45.8274C253.773 46.3894 252.861 46.8299 252.861 46.8299C252.861 46.8299 252.785 47.9236 253.347 46.4957C251.859 46.5869 250.127 49.7767 249.504 52.2678C249.185 52.9817 248.882 53.7867 248.593 54.6829C247.378 58.3436 247.894 59.5132 247.894 59.5132L248.502 60.1664C248.502 60.1664 252.679 52.3134 255.367 53.1336C258.314 54.045 262.309 54.4247 262.309 54.4247L260.532 48.8501L260.547 48.8653Z" fill="white" stroke="#488936" stroke-width="0.37974" stroke-miterlimit="10"/>
<path d="M276.356 56.2778C276.356 53.7715 276.28 52.2526 272.938 50.4754C272.588 48.5311 268.913 46.2071 268.578 46.4198C268.381 46.5565 270.553 48.8197 270.143 49.8526C269.702 47.9235 266.892 44.2021 266.467 44.2628C266.467 44.2628 266.862 46.8147 266.589 48.197L267.044 48.6223C267.394 46.3742 264.827 42.5312 264.629 43.2907C264.462 43.9287 265.951 46.1464 265.024 47.6501C264.887 47.5742 265.176 47.7109 265.024 47.6501C265.632 46.0856 264.173 42.592 262.381 41.5895C262.335 43.8679 262.138 45.4628 257.247 47.8476C257.217 47.878 253.267 52.2374 257.019 53.726C258.736 54.4095 263.338 55.412 265.768 56.1563C267.758 57.5993 269.414 60.0145 269.718 61.2448C270.128 62.9157 269.353 66.6523 269.353 66.6523L272.087 66.7131L273.135 67.7308C273.135 67.7308 276.371 61.8372 276.386 56.293L276.356 56.2778Z" fill="white"/>
<path d="M265.024 47.6501C265.951 46.1464 264.462 43.9287 264.629 43.2907C264.827 42.5312 267.394 46.3742 267.044 48.6223L266.589 48.197C266.862 46.8147 266.467 44.2628 266.467 44.2628C266.892 44.2021 269.702 47.9235 270.143 49.8526C270.553 48.8197 268.381 46.5565 268.578 46.4198C268.913 46.2071 272.588 48.5311 272.938 50.4754C276.28 52.2526 276.356 53.7715 276.356 56.2778L276.386 56.293C276.371 61.8372 273.135 67.7308 273.135 67.7308L272.087 66.7131L269.353 66.6523C269.353 66.6523 270.128 62.9157 269.718 61.2448C269.414 60.0145 267.758 57.5993 265.768 56.1563C263.338 55.412 258.736 54.4095 257.019 53.726C253.267 52.2374 257.217 47.878 257.247 47.8476C262.138 45.4628 262.335 43.8679 262.381 41.5895C264.173 42.592 265.632 46.0856 265.024 47.6501ZM265.024 47.6501C264.887 47.5742 265.176 47.7109 265.024 47.6501Z" stroke="#488936" stroke-width="0.37974" stroke-miterlimit="10"/>
<path d="M251.78 86.6116L249.729 88.1761C249.729 88.1761 246.494 95.3152 254.712 98.9455C254.909 98.5202 256.261 95.7861 255.304 95.4215C250.322 93.5684 252.175 87.69 252.175 87.69L251.78 86.6116Z" fill="#AFD8A1" stroke="#488936" stroke-width="0.37974" stroke-miterlimit="10"/>
<path d="M254.578 95.3456C255.52 95.2089 264.315 97.1835 269.403 90.3178C271.256 87.8267 270.968 85.0774 270.968 85.0774L274.492 86.7938C274.492 86.7938 272.988 93.9026 267.93 96.5759C259.803 100.875 254.031 98.6265 254.031 98.6265L254.563 95.3304L254.578 95.3456Z" fill="#AFD8A1" stroke="#488936" stroke-width="0.37974" stroke-miterlimit="10"/>
<path d="M223.405 123.978C221.172 120.667 215.157 111.447 212.21 112.419C209.263 113.391 210.57 114.5 210.57 114.5L220.565 126.91L223.405 123.978Z" fill="white" stroke="#488936" stroke-width="0.37974" stroke-linecap="round" stroke-linejoin="round"/>
<path d="M232.352 147.674C233.172 148.615 235.375 149.071 236.058 148.6L237.091 148.023C237.775 147.567 238.808 145.365 237.82 143.983L223.755 122.216C223.375 121.639 222.524 121.532 221.841 122.003L218.757 124.115C218.074 124.586 217.831 125.421 218.21 126.013L232.337 147.689L232.352 147.674Z" fill="white" stroke="#488936" stroke-width="0.37974" stroke-linecap="round" stroke-linejoin="round"/>
<path d="M209.652 184.858C209.652 185.587 210.336 186.164 211.171 186.164H217.262C218.098 186.164 218.781 185.572 218.781 184.858L218.781 105.432C218.781 104.703 218.098 104.11 217.262 104.11H211.171C210.336 104.11 209.652 104.703 209.652 105.432L209.652 184.858Z" fill="white" stroke="#488936" stroke-width="0.37974" stroke-linecap="round" stroke-linejoin="round"/>
<path d="M208.531 278.912C208.531 279.733 209.26 280.401 210.157 280.401H218.283C219.179 280.401 219.908 279.733 219.908 278.912L219.908 175.122C219.908 174.301 219.179 173.633 218.283 173.633H210.157C209.26 173.633 208.531 174.301 208.531 175.122L208.531 278.912Z" fill="white" stroke="#488936" stroke-width="0.37974" stroke-linecap="round" stroke-linejoin="round"/>
<path d="M259.674 284.183C260.008 285.049 260.935 285.489 261.74 285.185C262.545 284.882 262.94 283.925 262.606 283.059L223.462 177.446C223.128 176.58 222.202 176.124 221.396 176.443C220.591 176.762 220.212 177.704 220.531 178.57L259.674 284.183Z" fill="white" stroke="#488936" stroke-width="0.37974" stroke-linecap="round" stroke-linejoin="round"/>
<path d="M165.71 285.732C165.376 286.583 164.434 287.039 163.629 286.72C162.808 286.401 162.414 285.459 162.748 284.593L204.352 177.43C204.686 176.58 205.628 176.124 206.433 176.443C207.253 176.762 207.648 177.704 207.314 178.569L165.71 285.732Z" fill="white" stroke="#488936" stroke-width="0.37974" stroke-linecap="round" stroke-linejoin="round"/>
<path d="M199.23 177.916C199.23 179.375 205.929 180.559 214.207 180.559C222.471 180.559 229.184 179.375 229.184 177.916C229.184 176.458 222.486 175.273 214.207 175.273C205.929 175.273 199.23 176.458 199.23 177.916Z" fill="white" stroke="#488936" stroke-width="0.37974" stroke-linecap="round" stroke-linejoin="round"/>
<path d="M236.365 105.735C236.365 109.806 235.56 119.542 232.704 122.398C229.864 125.238 224.183 123.613 222.558 131.74C220.932 139.866 217.56 151.243 212.138 151.243C206.715 151.243 216.862 111.431 216.862 111.431L236.365 105.75V105.735Z" fill="white" stroke="#488936" stroke-width="0.37974" stroke-linecap="round" stroke-linejoin="round"/>
<path d="M161.742 111.765L173.195 149.618L212.141 151.243L220.344 113.056L161.742 111.765Z" fill="white" stroke="#488936" stroke-width="0.37974" stroke-linecap="round" stroke-linejoin="round"/>
<g opacity="0.82">
<path d="M183.254 137.557L195.071 137.33L195.102 134.094H191.806L191.912 119.527L188.753 119.224C187.385 119.877 186.034 120.849 183.877 121.046L183.877 123.78L187.568 123.492L187.522 134.109H183.269L183.269 137.588L183.254 137.557Z" fill="#8ECA7E" stroke="#488936" stroke-width="0.37974" stroke-miterlimit="10"/>
</g>
<path d="M226.62 37.5035H209.957L209.957 59.0272H226.62L226.62 37.5035Z" fill="white" stroke="#488936" stroke-width="0.37974" stroke-linecap="round" stroke-linejoin="round"/>
<path d="M201.938 42.1819C201.802 43.1996 204.627 45.311 205.493 45.4325L235.553 45.235C236.419 45.3565 237.224 44.6123 237.345 43.5794L239.563 28.5113C239.7 27.4936 235.462 24.1367 234.596 24.0151L207.209 26.324C206.359 26.2024 205.554 26.9467 205.417 27.9796L201.938 42.1819Z" fill="white" stroke="#488936" stroke-width="0.37974" stroke-linecap="round" stroke-linejoin="round"/>
<path d="M201.606 40.9211C201.469 41.9388 202.061 42.8654 202.912 42.9869L231.894 42.7894C232.744 42.9109 233.565 42.1667 233.686 41.1338L235.904 26.0657C236.04 25.048 235.448 24.1214 234.597 23.9999L205.616 24.729C204.765 24.6227 203.96 25.3518 203.823 26.3846L201.606 40.9363V40.9211Z" fill="white" stroke="#488936" stroke-width="0.37974" stroke-linecap="round" stroke-linejoin="round"/>
<path d="M227.625 49.3816L244.789 67.8674L240.521 99.1428L227.625 49.3816Z" fill="white" stroke="#488936" stroke-width="0.37974" stroke-linecap="round" stroke-linejoin="round"/>
<path d="M184.641 101.178C184.641 102.317 185.294 103.244 186.114 103.244H234.539C235.359 103.244 236.012 102.317 236.012 101.178L236.012 100.495C236.012 99.3554 235.359 98.4288 234.539 98.4288H186.114C185.294 98.4288 184.641 99.3554 184.641 100.495L184.641 101.178Z" fill="white" stroke="#488936" stroke-width="0.37974" stroke-linecap="round" stroke-linejoin="round"/>
<path d="M179.235 97.9581C179.508 98.8543 180.45 99.5834 181.346 99.5834L239.431 99.5834C240.327 99.5834 240.905 98.8543 240.707 97.9581L228.905 50.688C228.692 49.6855 227.735 48.8652 226.778 48.8652L163.833 50.5817C162.876 50.5817 160.142 53.6196 160.445 54.6373L179.204 97.9733L179.235 97.9581Z" fill="white" stroke="#488936" stroke-width="0.37974" stroke-linecap="round" stroke-linejoin="round"/>
<path d="M178.979 98.0492C179.238 98.8998 180.134 99.5833 180.984 99.5833L235.88 99.5833C236.73 99.5833 237.277 98.8998 237.095 98.0492L225.946 53.3765C225.748 52.4196 224.837 51.6449 223.941 51.6449L161.663 53.2702C160.767 53.2702 160.266 54.0449 160.554 55.0018L179.01 98.0492H178.979Z" fill="white" stroke="#488936" stroke-width="0.37974" stroke-linecap="round" stroke-linejoin="round"/>
<path d="M183.347 97.9429L183.347 64.6321C183.347 63.7359 184.274 63.0068 185.413 63.0068L228.308 63.0068L237.058 98.0341C237.24 98.8847 236.693 99.5682 235.843 99.5682H185.398C184.259 99.5682 183.332 98.8391 183.332 97.9429H183.347Z" fill="white" stroke="#488936" stroke-width="0.37974" stroke-linecap="round" stroke-linejoin="round"/>
<path d="M189.656 71.1788H230.273L229.332 67.4117H189.656L189.656 71.1788Z" fill="white" stroke="#488936" stroke-width="0.37974" stroke-linecap="round" stroke-linejoin="round"/>
<path d="M192.082 77.9687H231.894L230.937 74.2017H192.082L192.082 77.9687Z" fill="white" stroke="#488936" stroke-width="0.37974" stroke-linecap="round" stroke-linejoin="round"/>
<path d="M195.609 85.3355H233.796L232.839 81.5685H195.609L195.609 85.3355Z" fill="white" stroke="#488936" stroke-width="0.37974" stroke-linecap="round" stroke-linejoin="round"/>
<path d="M189.656 92.8694H235.954L234.876 89.1024H189.656L189.656 92.8694Z" fill="white" stroke="#488936" stroke-width="0.37974" stroke-linecap="round" stroke-linejoin="round"/>
<path d="M161.307 109.396C161.307 109.396 161.14 112.829 161.732 112.844L219.514 114.12C220.455 114.165 221.868 113.771 222.673 113.224L239.594 105.781C240.43 105.234 240.506 101.877 239.488 101.877L181.312 104.915C180.674 104.915 179.656 105.264 179.033 105.705L161.307 109.396Z" fill="white" stroke="#488936" stroke-width="0.37974" stroke-linecap="round" stroke-linejoin="round"/>
<path d="M239.609 105.796L222.688 113.239C222.156 113.588 221.397 113.862 220.652 114.014L220.652 108.454L232.926 102.226L239.518 101.877C240.536 101.877 240.444 105.234 239.624 105.781L239.609 105.796Z" fill="white" stroke="#488936" stroke-width="0.37974" stroke-linecap="round" stroke-linejoin="round"/>
<path d="M161.809 108.788C161.186 109.214 161.156 109.578 161.733 109.609L219.514 110.884C220.456 110.93 221.869 110.535 222.674 109.988L239.322 102.667C240.157 102.12 239.99 101.68 238.972 101.68L181.313 101.68C180.675 101.68 179.657 102.029 179.034 102.454L161.794 108.773L161.809 108.788Z" fill="white" stroke="#488936" stroke-width="0.37974" stroke-linecap="round" stroke-linejoin="round"/>
<path d="M246.463 123.188C243.562 119.755 235.74 110.201 232.58 111.644C229.421 113.087 231 114.165 231 114.165L243.653 126.788L246.463 123.173V123.188Z" fill="white" stroke="#488936" stroke-width="0.37974" stroke-linecap="round" stroke-linejoin="round"/>
<path d="M259.329 148.539C260.362 149.496 262.868 149.724 263.582 149.116L264.676 148.342C265.374 147.734 266.255 145.152 264.994 143.739L246.645 121.168C246.159 120.56 245.187 120.56 244.489 121.168L241.314 123.902C240.615 124.509 240.448 125.481 240.934 126.089L259.329 148.539Z" fill="#8ECA7E" stroke="#488936" stroke-width="0.37974" stroke-miterlimit="10"/>
<path d="M268.644 67.8372C267.049 74.5662 268.355 81.4926 271.439 81.0521C274.127 80.6724 277.287 77.6041 278.882 70.8751C280.477 64.1461 279.201 59.9537 277.165 58.1614C272.365 53.9235 270.254 61.1233 268.659 67.8523L268.644 67.8372Z" fill="#8ECA7E" stroke="#488936" stroke-width="0.37974" stroke-miterlimit="10"/>
<path d="M271.288 68.2776C270.073 74.156 269.329 78.8495 271.288 79.2445C274.782 79.9432 279.536 76.8445 280.752 70.9661C281.967 65.0878 278.822 60.5157 275.633 58.9208C274.023 58.1157 272.488 62.4144 271.288 68.2928V68.2776Z" fill="#8ECA7E" stroke="#488936" stroke-width="0.37974" stroke-miterlimit="10"/>
<path d="M274.002 63.8119C274.002 60.6828 273.865 57.0069 271.906 53.8779C269.946 50.7488 252.159 44.7793 247.754 50.6425C246.843 51.8728 247.466 48.3033 252.448 45.721C260.954 41.3161 274.838 46.7539 277.481 52.769C279.06 56.369 278.999 63.7055 279.197 64.2828C279.896 66.3789 274.017 63.7967 274.017 63.7967L274.002 63.8119Z" fill="#8ECA7E" stroke="#488936" stroke-width="0.37974" stroke-miterlimit="10"/>
<path d="M278.41 71.741C278.41 72.8194 279.367 73.7004 280.567 73.7004C281.767 73.7004 282.724 72.8194 282.724 71.741C282.724 70.6625 281.767 69.7815 280.567 69.7815C279.367 69.7815 278.41 70.6625 278.41 71.741Z" fill="#8ECA7E" stroke="#488936" stroke-width="0.37974" stroke-miterlimit="10"/>
<path d="M280.899 67.6244C283.633 67.6244 284.028 66.8497 284.028 65.2852C284.028 63.7207 282.069 60.1967 282.069 59.0271C282.069 57.8575 281.294 48.4551 278.545 46.8906C275.81 45.326 271.497 40.6324 270.327 40.6324C269.157 40.6324 267.973 42.9868 269.932 44.1564C271.891 45.326 277.375 47.6804 277.755 48.85C278.15 50.0196 279.319 58.6321 278.529 61.3815C277.755 64.1156 280.884 67.6396 280.884 67.6396L280.899 67.6244Z" fill="#8ECA7E" stroke="#488936" stroke-width="0.37974" stroke-miterlimit="10"/>
<path d="M247.724 178.904C256.002 161.572 267.713 121.669 272.027 107.968C274.457 100.252 274.928 93.6139 274.928 87.9937C274.928 84.5609 274.761 81.523 274.761 78.8344C274.761 78.0142 274.761 77.2243 274.807 76.48L273.379 76.4041C273.333 77.1939 273.333 77.999 273.333 78.8344C273.333 81.5837 273.5 84.6216 273.5 87.9937C273.5 93.5379 273.045 99.9935 270.675 107.543C266.361 121.244 254.62 161.177 246.448 178.296C243.729 183.931 238.99 185.724 233.871 185.754C226.215 185.815 217.8 181.288 216.737 179.739L215.598 180.59C217.36 182.792 225.623 187.106 233.871 187.167H233.977C239.369 187.167 244.807 185.055 247.724 178.904Z" fill="#488936"/>
<path d="M224.773 175.091H224.758C223.239 175.091 221.811 174.286 220.687 172.752C215.021 164.99 209.249 138.879 209.219 138.818L210.601 138.514C210.601 138.514 216.54 164.792 221.826 171.916C222.798 173.207 223.74 173.663 224.773 173.678C229.345 173.921 236.803 162.605 241.74 150.924C245.309 142.676 246.449 130.358 246.449 119.983C246.449 112.495 245.856 105.993 245.218 102.804C244.55 99.4011 244.307 94.6012 244.307 89.695C244.307 82.9964 244.762 76.1003 245.218 72.4396L246.631 72.6219C246.19 76.1914 245.735 83.0571 245.735 89.695C245.735 94.5557 245.978 99.31 246.631 102.53C247.299 105.902 247.876 112.419 247.891 119.983C247.891 130.464 246.767 142.889 243.061 151.486C237.866 163.258 231.077 174.863 224.788 175.106L224.773 175.091Z" fill="#488936"/>
<path d="M278.584 132.347C279.769 126.484 282.321 113.482 282.564 109.836C282.564 109.836 295.748 109.912 295.308 117.431C294.867 124.95 288.989 143.269 286.027 145.137C285.905 145.213 285.784 145.259 285.647 145.289C285.571 145.365 285.51 145.441 285.434 145.517C280.224 150.94 260.113 137.375 259.916 135.993C259.718 134.626 255.48 127.699 255.48 127.699C262.696 132.317 275.227 132.044 278.569 132.332L278.584 132.347Z" fill="white" stroke="#488936" stroke-width="0.37974" stroke-linecap="round" stroke-linejoin="round"/>
<path d="M262.346 138.286C261.465 138.727 257.896 137.542 258.017 137.254C255.01 138.211 253.779 139.957 252.655 139.608C250.817 139.016 256.665 134.565 256.665 134.565C256.665 134.565 250.62 139.107 249.648 138.135C248.676 137.162 254.129 131.436 254.129 131.436C254.129 131.436 251.197 133.244 250.605 134.033C250.012 134.808 248.843 137.117 247.871 136.145C246.898 135.173 252.367 128.899 252.367 128.899C252.367 128.899 250.088 129.811 249.511 130.585C248.919 131.375 248.782 133.274 247.962 132.909C247.369 132.636 247.081 130.585 248.25 128.231C248.888 126.97 250.681 125.907 252.503 126.241C254.782 126.393 257.486 128.383 261.01 130.206" fill="white"/>
<path d="M262.346 138.286C261.465 138.727 257.896 137.542 258.017 137.254C255.01 138.211 253.779 139.957 252.655 139.608C250.817 139.016 256.665 134.565 256.665 134.565C256.665 134.565 250.62 139.107 249.648 138.135C248.676 137.162 254.129 131.436 254.129 131.436C254.129 131.436 251.197 133.244 250.605 134.033C250.012 134.808 248.843 137.117 247.871 136.145C246.898 135.173 252.367 128.899 252.367 128.899C252.367 128.899 250.088 129.811 249.511 130.585C248.919 131.375 248.782 133.274 247.962 132.909C247.369 132.636 247.081 130.585 248.25 128.231C248.888 126.97 250.681 125.907 252.503 126.241C254.782 126.393 257.486 128.383 261.01 130.206" stroke="#488936" stroke-width="0.37974" stroke-linecap="round" stroke-linejoin="round"/>
<path d="M288.9 93.4465C291.771 94.2668 294.839 95.2389 296.024 99.8414C298.333 108.818 294.824 131.162 294.824 131.162C294.824 131.162 279.801 126.15 277.857 126.393C275.913 126.636 279.984 107.193 281.29 101.892C282.596 96.5908 288.9 93.4465 288.9 93.4465Z" fill="#8ECA7E" stroke="#488936" stroke-width="0.37974" stroke-miterlimit="10"/>
<g clip-path="url(#clip0_272_820)">
<path d="M43.6369 184.119C46.4763 182.127 50.0424 180.337 53.6623 178.763C58.0627 176.852 62.5573 175.237 66.0291 173.918C68.9762 176.206 76.1891 181.279 82.0832 181.279C87.9773 181.279 95.1902 176.206 98.1373 173.918C104.462 176.327 114.259 179.718 120.53 184.119C128.738 189.528 133.475 205.798 134.969 211.732C129.223 217.034 118.538 218.447 115.402 218.757C114.891 217.209 114.407 215.702 113.949 214.248L112.321 242.858L112.038 247.945L52.1282 247.945L51.9263 244.473L51.859 243.907C52.0205 243.894 52.182 243.867 52.3435 243.854L51.8321 233.182C51.6437 233.182 51.4688 233.182 51.2804 233.169V233.142L50.1366 213.051C49.8136 214.962 49.4234 216.886 49.0062 218.783C46.2206 218.528 35.0918 217.182 29.1842 211.732C30.6779 205.798 35.4147 189.528 43.6234 184.119H43.6369Z" fill="white" stroke="#488936" stroke-width="0.336422" stroke-linecap="round" stroke-linejoin="round"/>
<path d="M43.633 184.119C46.4724 182.127 50.0385 180.337 53.6584 178.763C58.0588 176.852 62.5534 175.237 66.0252 173.918C68.9723 176.206 76.1852 181.279 82.0793 181.279C87.9734 181.279 95.1863 176.206 98.1334 173.918C104.458 176.327 114.255 179.718 120.526 184.119C128.734 189.528 133.471 205.798 134.965 211.732C129.219 217.034 118.534 218.447 115.399 218.757C114.887 217.209 114.403 215.702 113.945 214.248L112.317 242.858L112.034 247.945L52.1243 247.945L51.9224 244.473L51.8551 243.907C52.0166 243.894 52.1781 243.867 52.3396 243.854L51.8282 233.182C51.6398 233.182 51.4649 233.182 51.2765 233.169V233.142L50.1327 213.051C49.8097 214.962 49.4194 216.886 49.0023 218.783C46.2167 218.528 35.0879 217.182 29.1803 211.732C30.674 205.798 35.4108 189.528 43.6195 184.119H43.633Z" fill="#8ECA7E"/>
<g style="mix-blend-mode:multiply">
<path d="M54.832 246.276H52.033L51.8984 243.907C52.7731 243.8 53.6478 243.692 54.536 243.584L54.832 246.289V246.276ZM51.2929 233.155L50.149 213.037L50.0145 202.07" fill="white"/>
<path d="M51.2929 233.155L50.149 213.037L50.0145 202.07M54.832 246.276H52.033L51.8984 243.907C52.7731 243.8 53.6478 243.692 54.536 243.584L54.832 246.289V246.276Z" stroke="#488936" stroke-width="0.336422" stroke-linecap="round" stroke-linejoin="round"/>
</g>
<g style="mix-blend-mode:multiply">
<path d="M109.329 246.289H112.128L112.652 237.139" fill="white"/>
<path d="M109.329 246.289H112.128L112.652 237.139" stroke="#488936" stroke-width="0.336422" stroke-linecap="round" stroke-linejoin="round"/>
</g>
<g style="mix-blend-mode:multiply">
<path d="M114.145 202.07L114.01 213.051L113.485 222.282" fill="white"/>
<path d="M114.145 202.07L114.01 213.051L113.485 222.282" stroke="#488936" stroke-width="0.336422" stroke-linecap="round" stroke-linejoin="round"/>
</g>
<path d="M49.0156 218.784C46.2301 218.528 35.1012 217.182 29.1936 211.732C28.8438 213.105 28.6688 213.926 28.6688 213.926C29.382 214.585 30.1625 215.191 30.9834 215.756C35.5184 218.81 41.574 220.291 48.585 220.708C48.733 220.075 48.8811 219.429 49.0156 218.784Z" fill="white" stroke="#488936" stroke-width="0.336422" stroke-linecap="round" stroke-linejoin="round"/>
<path d="M82.0848 179.436C76.9981 179.436 70.8214 175.143 68.1435 173.097C67.4976 173.353 66.7978 173.636 66.0442 173.918C68.9913 176.206 76.2042 181.279 82.0983 181.279C87.9924 181.279 95.2053 176.206 98.1523 173.918C97.3988 173.636 96.699 173.353 96.0531 173.097C93.3752 175.156 87.185 179.436 82.0983 179.436H82.0848Z" fill="white" stroke="#488936" stroke-width="0.336422" stroke-linecap="round" stroke-linejoin="round"/>
<path d="M134.965 211.732C129.219 217.034 118.534 218.447 115.399 218.757C115.601 219.389 115.816 220.035 116.018 220.681C122.827 220.223 128.721 218.757 133.162 215.756C133.983 215.204 134.763 214.598 135.477 213.926C135.477 213.926 135.302 213.105 134.952 211.732H134.965Z" fill="white" stroke="#488936" stroke-width="0.336422" stroke-linecap="round" stroke-linejoin="round"/>
<path d="M138.696 164.579C139.194 164.498 139.733 164.606 140.257 164.539C143.622 164.027 146.03 161.417 148.816 159.708C152.638 157.38 159.46 156.626 162.704 160.461C164.399 162.466 164.278 165.36 163.78 167.768C163.43 169.491 162.865 171.173 162.569 172.909C161.856 177.054 163.107 181.239 165.287 184.764C167.4 188.169 170.764 190.524 172.285 194.305C173.657 197.75 173.98 202.151 171.989 205.407C171.114 206.82 169.97 208.045 168.867 209.296C165.018 213.697 162.582 218.555 163.08 224.529C163.269 226.71 163.915 228.822 164.52 230.922C165.126 233.021 165.718 235.16 165.772 237.354C165.826 239.547 165.314 241.822 163.928 243.504" stroke="#488936" stroke-width="0.672844" stroke-linecap="round" stroke-linejoin="round"/>
<path d="M158.482 244.23L170.93 203.739L161.819 161.188L133.654 152.495" stroke="#488936" stroke-width="4.03706" stroke-linecap="round" stroke-linejoin="round"/>
<path d="M157.453 237.139L163.832 237.139L163.832 243.907L157.453 243.907L157.453 237.139Z" fill="white" stroke="#488936" stroke-width="0.336422" stroke-linecap="round" stroke-linejoin="round"/>
<path d="M160.647 240.328C158.885 240.328 157.457 238.9 157.457 237.139C157.457 235.377 158.885 233.949 160.647 233.949C162.408 233.949 163.836 235.377 163.836 237.139C163.836 238.9 162.408 240.328 160.647 240.328Z" fill="white" stroke="#488936" stroke-width="0.336422" stroke-linecap="round" stroke-linejoin="round"/>
<path d="M158.922 237.139C158.922 238.081 159.689 238.861 160.645 238.861C161.6 238.861 162.367 238.094 162.367 237.139C162.367 236.183 161.6 235.416 160.645 235.416C159.689 235.416 158.922 236.183 158.922 237.139Z" fill="white" stroke="#488936" stroke-width="0.336422" stroke-linecap="round" stroke-linejoin="round"/>
<path d="M172.958 241.418L148.332 241.418C145.869 241.418 143.864 243.423 143.864 245.886V246.397L177.426 246.397V245.886C177.426 243.423 175.421 241.418 172.958 241.418Z" fill="white" stroke="#488936" stroke-width="0.336422" stroke-linecap="round" stroke-linejoin="round"/>
<path d="M137.295 163.059H139.165C139.544 163.059 139.852 163.366 139.852 163.745V164.835C139.852 165.214 139.544 165.521 139.165 165.521H137.295C136.916 165.521 136.608 165.214 136.608 164.835V163.745C136.608 163.366 136.916 163.059 137.295 163.059Z" fill="white" stroke="#488936" stroke-width="0.336422" stroke-linecap="round" stroke-linejoin="round"/>
<path d="M136.607 161.982H138.652L138.652 166.584H136.607L136.607 161.982Z" fill="white" stroke="#488936" stroke-width="0.336422" stroke-linecap="round" stroke-linejoin="round"/>
<path d="M108.671 157.232L114.969 157.259L114.915 171.335L108.617 171.308C106.128 171.308 104.123 169.276 104.136 166.8L104.163 161.713C104.163 159.223 106.195 157.218 108.671 157.232Z" fill="white" stroke="#488936" stroke-width="0.336422" stroke-linecap="round" stroke-linejoin="round"/>
<path d="M104.809 169.181V169.047H104.728C104.661 168.926 104.593 168.805 104.54 168.67H104.809V167.526H104.19C104.176 167.405 104.149 167.271 104.149 167.149H104.809V166.006H104.136V165.629H104.809V164.485H104.136V164.108H104.809L104.809 162.964H104.149V162.588H104.809V161.444H104.163C104.163 161.323 104.19 161.188 104.203 161.067H104.809V159.923H104.54C104.593 159.789 104.661 159.667 104.728 159.546H104.809L104.809 159.425C104.93 159.237 105.051 159.062 105.186 158.887L105.186 159.546H106.356L106.356 158.402H105.67C105.818 158.268 105.98 158.133 106.154 158.026H106.356V157.905C106.477 157.837 106.599 157.77 106.733 157.703V158.026H107.904V157.339C108.025 157.312 108.16 157.299 108.281 157.286V158.026H109.451V157.272H109.828V158.026L110.999 158.026V157.286H111.376V158.026H112.547V157.286H112.923V158.026H114.969V158.402H112.923L112.923 159.546H114.955V159.923H112.923V161.067H114.955V161.444H112.923V162.588H114.955V162.964H112.923L112.923 164.108H114.942V164.485H112.923V165.629H114.942V166.006H112.923V167.149H114.928L114.928 167.526H112.923V168.67H114.928V169.047H112.923V170.191H114.915V170.567H112.923L112.923 171.321H112.547L112.547 170.567H111.376L111.376 171.308H110.999L110.999 170.567L109.828 170.567L109.828 171.308H109.451L109.451 170.567H108.281L108.281 171.281C108.16 171.281 108.025 171.254 107.904 171.24L107.904 170.567H106.733V170.877C106.599 170.823 106.477 170.756 106.356 170.675V170.567H106.181C106.006 170.446 105.845 170.325 105.683 170.191H106.37V169.047H105.199V169.706C105.064 169.545 104.93 169.37 104.822 169.181H104.809ZM111.376 170.204H112.547V169.06H111.376V170.204ZM111.376 168.684H112.547V167.54H111.376V168.684ZM111.376 167.163H112.547V166.019H111.376V167.163ZM111.376 165.642H112.547V164.498H111.376V165.642ZM111.376 164.122H112.547L112.547 162.978H111.376L111.376 164.122ZM111.376 162.601H112.547V161.457H111.376V162.601ZM111.376 161.08H112.547V159.937H111.376V161.08ZM111.376 159.56H112.547L112.547 158.416H111.376L111.376 159.56ZM109.828 170.245L110.999 170.245V169.101L109.828 169.101V170.245ZM109.828 168.724L110.999 168.724V167.58L109.828 167.58V168.724ZM109.828 167.203L110.999 167.203V166.059L109.828 166.059V167.203ZM109.828 165.683L110.999 165.683V164.539L109.828 164.539V165.683ZM109.828 164.162L110.999 164.162L110.999 163.018L109.828 163.018L109.828 164.162ZM109.828 162.641L110.999 162.641V161.498L109.828 161.498V162.641ZM109.828 161.121L110.999 161.121V159.977L109.828 159.977V161.121ZM109.828 159.6L110.999 159.6L110.999 158.456L109.828 158.456L109.828 159.6ZM108.281 170.285H109.451V169.141H108.281V170.285ZM108.281 168.764H109.451V167.62H108.281V168.764ZM108.281 167.244H109.451V166.1H108.281V167.244ZM108.281 165.723H109.451V164.579H108.281V165.723ZM108.281 164.202H109.451L109.451 163.059H108.281L108.281 164.202ZM108.281 162.682H109.451V161.538H108.281V162.682ZM108.281 161.161H109.451V160.017H108.281V161.161ZM108.281 159.641H109.451L109.451 158.497H108.281L108.281 159.641ZM106.733 170.325H107.904V169.181H106.733V170.325ZM106.733 168.805H107.904V167.661H106.733V168.805ZM106.733 167.284H107.904V166.14H106.733V167.284ZM106.733 165.763H107.904V164.62H106.733V165.763ZM106.733 164.243H107.904L107.904 163.099H106.733V164.243ZM106.733 162.722H107.904V161.578H106.733V162.722ZM106.733 161.202H107.904V160.058H106.733V161.202ZM106.733 159.681H107.904L107.904 158.537H106.733L106.733 159.681ZM106.356 160.058H105.186V161.202H106.356V160.058ZM106.356 161.578H105.186V162.722H106.356V161.578ZM106.356 163.099H105.186V164.243H106.356V163.099ZM106.356 164.62H105.186V165.763H106.356V164.62ZM106.356 166.14H105.186V167.284H106.356V166.14ZM106.356 168.818V167.674H105.186V168.818H106.356Z" fill="white" stroke="#488936" stroke-width="0.336422" stroke-linecap="round" stroke-linejoin="round"/>
<path d="M114.971 157.245L114.917 171.321L116.29 171.187L117.797 171.038L118.793 170.944L120.3 170.796L121.296 170.702L122.789 170.554L123.785 170.46L125.279 170.312L136.489 169.208C137.242 169.128 137.821 168.495 137.821 167.742L137.848 161.04C137.848 160.273 137.282 159.641 136.529 159.56L125.333 158.362L123.839 158.201L122.843 158.093L121.35 157.931L120.354 157.824L118.847 157.662L117.851 157.555L116.344 157.393L114.971 157.245Z" fill="#488936"/>
<path d="M131.279 164.35C131.279 165.629 132.315 166.678 133.594 166.678C134.872 166.678 135.922 165.642 135.922 164.364C135.922 163.085 134.886 162.036 133.607 162.036C132.329 162.036 131.279 163.072 131.279 164.35Z" fill="white" stroke="#488936" stroke-width="0.336422" stroke-linecap="round" stroke-linejoin="round"/>
<path d="M132.292 164.35C132.292 165.077 132.87 165.656 133.597 165.656C134.324 165.656 134.902 165.077 134.902 164.35C134.902 163.624 134.324 163.045 133.597 163.045C132.87 163.045 132.292 163.624 132.292 164.35Z" fill="white" stroke="#488936" stroke-width="0.336422" stroke-linecap="round" stroke-linejoin="round"/>
<path d="M114.052 156.653H116.771C117.083 156.653 117.336 156.906 117.336 157.218L117.336 171.348C117.336 171.66 117.083 171.913 116.771 171.913H114.052C113.74 171.913 113.487 171.66 113.487 171.348L113.487 157.218C113.487 156.906 113.74 156.653 114.052 156.653Z" fill="white" stroke="#488936" stroke-width="0.336422" stroke-linecap="round" stroke-linejoin="round"/>
<path d="M123.72 158.174L123.841 158.187L124.891 158.295L124.891 161.107H123.72L123.72 158.174Z" fill="white" stroke="#488936" stroke-width="0.336422" stroke-linecap="round" stroke-linejoin="round"/>
<path d="M119.818 157.757L120.342 157.824L120.988 157.891L120.988 161.107H119.818L119.818 157.757Z" fill="white" stroke="#488936" stroke-width="0.336422" stroke-linecap="round" stroke-linejoin="round"/>
<path d="M120.289 170.796L119.818 170.837L119.818 167.459H120.988L120.988 170.729L120.289 170.796Z" fill="white" stroke="#488936" stroke-width="0.336422" stroke-linecap="round" stroke-linejoin="round"/>
<path d="M127.609 170.07L127.609 167.459H128.793V169.962L127.609 170.07Z" fill="white" stroke="#488936" stroke-width="0.336422" stroke-linecap="round" stroke-linejoin="round"/>
<path d="M123.787 170.446L123.72 170.46L123.72 167.459H124.891L124.891 170.339L123.787 170.446Z" fill="white" stroke="#488936" stroke-width="0.336422" stroke-linecap="round" stroke-linejoin="round"/>
<path d="M127.609 158.591L128.793 158.712V161.107H127.609L127.609 158.591Z" fill="white" stroke="#488936" stroke-width="0.336422" stroke-linecap="round" stroke-linejoin="round"/>
<path d="M113.49 171.348L113.49 157.232C113.49 156.922 113.745 156.667 114.055 156.667L114.055 171.927C113.745 171.927 113.49 171.671 113.49 171.361V171.348Z" fill="white" stroke="#488936" stroke-width="0.336422" stroke-linecap="round" stroke-linejoin="round"/>
<path d="M130.461 152.495C130.461 154.258 131.888 155.684 133.651 155.684C135.413 155.684 136.84 154.258 136.84 152.495C136.84 150.732 135.413 149.306 133.651 149.306C131.888 149.306 130.461 150.732 130.461 152.495Z" fill="white" stroke="#488936" stroke-width="0.336422" stroke-linecap="round" stroke-linejoin="round"/>
<path d="M131.926 152.495C131.926 153.437 132.693 154.217 133.649 154.217C134.604 154.217 135.371 153.45 135.371 152.495C135.371 151.553 134.604 150.772 133.649 150.772C132.693 150.772 131.926 151.539 131.926 152.495Z" fill="white" stroke="#488936" stroke-width="0.336422" stroke-linecap="round" stroke-linejoin="round"/>
<path d="M158.625 161.188C158.625 162.951 160.052 164.377 161.815 164.377C163.577 164.377 165.004 162.951 165.004 161.188C165.004 159.425 163.577 157.999 161.815 157.999C160.052 157.999 158.625 159.425 158.625 161.188Z" fill="white" stroke="#488936" stroke-width="0.336422" stroke-linecap="round" stroke-linejoin="round"/>
<path d="M160.09 161.188C160.09 162.13 160.857 162.91 161.813 162.91C162.768 162.91 163.535 162.143 163.535 161.188C163.535 160.233 162.768 159.466 161.813 159.466C160.857 159.466 160.09 160.233 160.09 161.188Z" fill="white" stroke="#488936" stroke-width="0.336422" stroke-linecap="round" stroke-linejoin="round"/>
<path d="M170.924 206.928C169.163 206.928 167.735 205.5 167.735 203.739C167.735 201.977 169.163 200.549 170.924 200.549C172.685 200.549 174.113 201.977 174.113 203.739C174.113 205.5 172.685 206.928 170.924 206.928Z" fill="white" stroke="#488936" stroke-width="0.336422" stroke-linecap="round" stroke-linejoin="round"/>
<path d="M170.922 205.461C169.971 205.461 169.2 204.69 169.2 203.739C169.2 202.787 169.971 202.016 170.922 202.016C171.873 202.016 172.645 202.787 172.645 203.739C172.645 204.69 171.873 205.461 170.922 205.461Z" fill="white" stroke="#488936" stroke-width="0.336422" stroke-linecap="round" stroke-linejoin="round"/>
<path d="M87.5234 223.359C86.891 223.601 86.2316 223.776 85.5587 223.884C86.2047 223.668 86.8641 223.507 87.5234 223.359Z" fill="white" stroke="#488936" stroke-width="0.336422" stroke-linecap="round" stroke-linejoin="round"/>
<path d="M89.4032 211.894C89.4032 211.894 89.2821 212.001 89.2283 212.055C88.8111 212.486 88.5285 213.037 88.3267 213.603C86.8061 217.909 90.574 220.64 93.4538 223.117C98.6481 227.571 105.888 232.859 112.643 237.125C120.623 242.172 127.917 245.791 130.366 244.957C135.264 243.288 136.274 234.447 133.165 215.742C128.724 218.743 122.83 220.21 116.021 220.667C116.209 221.246 116.398 221.811 116.6 222.39C116.801 222.982 117.003 223.588 117.205 224.193C116.007 223.574 114.756 222.928 113.491 222.282C109.441 220.183 105.39 218.084 101.339 215.971C99.792 215.164 98.2444 214.343 96.6969 213.522C95.4454 212.849 94.167 211.772 92.8347 211.328C92.5522 211.234 92.2561 211.167 91.96 211.14C91.045 211.046 90.0895 211.301 89.3898 211.907L89.4032 211.894Z" fill="white" stroke="#488936" stroke-width="0.336422" stroke-linecap="round" stroke-linejoin="round"/>
<path d="M116.604 222.403C116.805 222.995 117.007 223.601 117.209 224.207L126.266 228.432L116.604 222.417V222.403Z" fill="white" stroke="#488936" stroke-width="0.336422" stroke-linecap="round" stroke-linejoin="round"/>
<path d="M93.7109 211.988C93.5495 210.588 93.6706 209.162 93.5495 207.749C93.4822 206.968 93.3476 206.201 93.213 205.421C93.0112 204.25 92.8093 203.079 92.6075 201.895C92.4864 201.195 92.3652 200.509 92.2441 199.809C92.2172 199.634 92.1769 199.459 92.0692 199.311C91.8943 199.083 91.5444 199.056 91.2887 199.163C91.0196 199.271 90.8312 199.5 90.6697 199.742C90.3736 200.186 90.1718 200.697 90.0776 201.222C89.8353 202.635 90.3602 204.29 89.4182 205.367C89.2163 205.596 86.3097 201.464 86.1213 201.168C85.7579 200.63 85.3946 200.092 84.937 199.634C84.5199 199.231 84.0354 198.908 83.551 198.585C82.1246 197.643 80.6443 196.755 79.0295 196.203C78.7603 196.781 79.164 197.441 79.5678 197.925C81.0884 199.742 83.0665 201.195 84.318 203.2C82.3264 201.572 80.2137 200.078 78.0202 198.733C77.6972 198.531 77.3339 198.329 76.9571 198.41C76.6207 199.648 77.4954 200.859 78.3163 201.855C77.9933 201.464 77.5627 201.182 77.0917 201.034C76.9033 200.98 76.6745 200.953 76.5265 201.074C76.4323 201.141 76.3785 201.263 76.3381 201.384C76.0017 202.433 76.7284 202.837 77.4685 203.658C79.0564 205.38 81.1557 206.888 82.4475 208.839C80.725 207.735 78.8007 207.291 76.9975 206.349C76.8225 206.255 76.6207 206.161 76.4188 206.188C76.1497 206.228 75.9478 206.484 75.9075 206.753C75.8671 207.022 75.9075 207.318 76.0555 207.547C76.7149 208.57 78.9891 209.821 80.6308 211.153C82.0034 212.27 82.932 214.37 83.8605 215.85C84.5064 216.873 85.112 217.963 86.0674 218.703C87.2785 219.658 88.9337 219.941 90.4275 219.577" fill="white"/>
<path d="M93.7109 211.988C93.5495 210.588 93.6706 209.162 93.5495 207.749C93.4822 206.968 93.3476 206.201 93.213 205.421C93.0112 204.25 92.8093 203.079 92.6075 201.895C92.4864 201.195 92.3652 200.509 92.2441 199.809C92.2172 199.634 92.1769 199.459 92.0692 199.311C91.8943 199.083 91.5444 199.056 91.2887 199.163C91.0196 199.271 90.8312 199.5 90.6697 199.742C90.3736 200.186 90.1718 200.697 90.0776 201.222C89.8353 202.635 90.3602 204.29 89.4182 205.367C89.2163 205.596 86.3097 201.464 86.1213 201.168C85.7579 200.63 85.3946 200.092 84.937 199.634C84.5199 199.231 84.0354 198.908 83.551 198.585C82.1246 197.643 80.6443 196.755 79.0295 196.203C78.7603 196.781 79.164 197.441 79.5678 197.925C81.0884 199.742 83.0665 201.195 84.318 203.2C82.3264 201.572 80.2137 200.078 78.0202 198.733C77.6972 198.531 77.3339 198.329 76.9571 198.41C76.6207 199.648 77.4954 200.859 78.3163 201.855C77.9933 201.464 77.5627 201.182 77.0917 201.034C76.9033 200.98 76.6745 200.953 76.5265 201.074C76.4323 201.141 76.3785 201.263 76.3381 201.384C76.0017 202.433 76.7284 202.837 77.4685 203.658C79.0564 205.38 81.1557 206.888 82.4475 208.839C80.725 207.735 78.8007 207.291 76.9975 206.349C76.8225 206.255 76.6207 206.161 76.4188 206.188C76.1497 206.228 75.9479 206.484 75.9075 206.753C75.8671 207.022 75.9075 207.318 76.0555 207.547C76.7149 208.57 78.9891 209.821 80.6308 211.153C82.0034 212.27 82.932 214.37 83.8605 215.85C84.5064 216.873 85.112 217.963 86.0674 218.703C87.2785 219.658 88.9337 219.941 90.4275 219.577" stroke="#488936" stroke-width="0.336422" stroke-linecap="round" stroke-linejoin="round"/>
<path d="M84.625 206.242C84.625 206.242 82.122 203.86 81.1262 203.093C80.1304 202.326 77.0622 201.034 77.0622 201.034" fill="white"/>
<path d="M84.625 206.242C84.625 206.242 84.5443 206.121 84.3828 205.919C84.2213 205.73 84.006 205.421 83.7099 205.098C83.4139 204.775 83.0775 204.385 82.6872 203.994C82.297 203.604 81.8798 203.2 81.4492 202.81C80.9378 202.42 80.413 202.164 79.9016 201.935C79.4037 201.707 78.9058 201.559 78.4887 201.397C78.0715 201.249 77.7082 201.182 77.4659 201.101C77.2103 201.047 77.0622 201.02 77.0622 201.02C77.0622 201.02 77.1833 201.101 77.3987 201.249C77.614 201.384 77.91 201.599 78.2868 201.814C78.6501 202.03 79.175 202.339 79.5518 202.581C80.0093 202.864 80.5206 203.133 80.9109 203.456C81.3415 203.833 81.7721 204.21 82.1893 204.546C82.6065 204.883 83.0236 205.165 83.3735 205.434C83.7234 205.69 84.0464 205.878 84.2482 206.026C84.477 206.161 84.5981 206.228 84.5981 206.228L84.625 206.242Z" fill="#488936"/>
<path d="M86.1484 204.479C86.1484 204.479 80.8599 200.213 78.0205 198.719L86.1484 204.479Z" fill="white"/>
<path d="M86.1506 204.479C86.1506 204.479 86.0429 204.358 85.868 204.142C85.6796 203.941 85.4239 203.644 85.074 203.321C84.7242 202.999 84.3339 202.622 83.8898 202.245C83.4458 201.868 82.9479 201.478 82.4365 201.115C81.9251 200.751 81.4138 200.401 80.9024 200.092C80.4045 199.782 79.9066 199.54 79.4894 199.311C79.0723 199.096 78.6955 198.961 78.4398 198.854C78.1707 198.773 78.0226 198.719 78.0226 198.719C78.0226 198.719 78.1438 198.813 78.3591 199.002C78.5878 199.163 78.8704 199.432 79.2472 199.715C79.6106 199.998 80.1085 200.401 80.4987 200.697C81.0235 201.088 81.4676 201.424 81.9521 201.787C82.45 202.137 82.9209 202.46 83.4458 202.837C83.9302 203.173 84.4012 203.443 84.7915 203.698C85.1817 203.954 85.545 204.129 85.7738 204.277C86.016 204.411 86.1641 204.479 86.1641 204.479H86.1506Z" fill="#488936"/>
<path d="M85.9191 227.759C86.4574 227.598 86.9014 227.463 87.2109 227.382C86.6592 227.517 86.1075 227.652 85.5557 227.84C85.6768 227.826 85.798 227.786 85.9191 227.759Z" fill="white" stroke="#488936" stroke-width="0.336422" stroke-linecap="round" stroke-linejoin="round"/>
<path d="M30.999 215.756C35.534 218.81 41.5896 220.291 48.6006 220.708C47.6182 224.92 46.4609 229.051 45.2095 233.048C47.2145 233.061 49.26 233.101 51.292 233.169C52.8395 233.209 54.387 233.263 55.948 233.33C60.3215 233.505 64.6816 233.734 69.0416 234.017C70.4007 234.097 71.7733 234.191 73.1325 234.299C74.5724 234.407 76.3083 234.555 77.1696 235.914C77.6675 236.694 77.6675 237.704 77.5194 238.619C77.4522 239.09 77.331 239.574 76.9946 239.924C76.6178 240.314 76.0661 240.435 75.5413 240.543C75.3663 240.584 75.1914 240.61 75.0165 240.651C71.9348 241.256 68.7859 241.647 65.6774 242.091C61.0886 242.75 56.4863 243.383 51.8841 243.934C43.5139 244.944 35.7089 245.643 33.8115 244.997C28.9132 243.329 27.9174 234.488 31.0125 215.782L30.999 215.756Z" fill="white" stroke="#488936" stroke-width="0.336422" stroke-linecap="round" stroke-linejoin="round"/>
<path d="M74.3179 234.662C74.3717 234.582 74.439 234.514 74.4929 234.434C75.704 232.738 76.4037 230.625 77.2112 228.715C77.4399 228.176 78.503 225.485 79.0682 225.108C79.7141 224.677 83.334 223.453 84.3433 223.076C85.3391 222.699 86.4426 222.524 87.4922 222.74C87.7344 222.794 88.017 222.942 87.9632 223.184C87.8152 223.251 87.6671 223.305 87.5326 223.359C86.8732 223.507 86.2138 223.682 85.5679 223.884C86.2407 223.776 86.9001 223.601 87.5326 223.359C87.8959 223.278 88.2593 223.197 88.636 223.13C89.6049 222.955 90.6277 222.861 91.5427 223.211C91.7042 223.265 91.8792 223.359 91.933 223.52C92.0406 223.776 91.8253 224.045 91.61 224.206C91.2736 224.462 90.8968 224.651 90.4931 224.758C91.0852 224.677 91.6773 224.637 92.2694 224.651C92.3905 224.651 92.5116 224.651 92.6058 224.718C92.8346 224.839 92.875 225.162 92.7673 225.391C92.6597 225.619 92.4443 225.781 92.2425 225.929C91.0448 226.763 89.7395 227.436 88.3669 227.948C89.1474 227.853 89.9414 227.625 90.7219 227.517C91.2467 227.45 92.2694 227.261 92.5116 227.638C92.7 227.934 91.7446 228.593 91.4216 228.741C90.2374 229.32 86.4291 231.258 85.9716 231.581C85.0296 232.294 84.2491 235.456 83.8319 236.331C83.4148 237.206 82.2575 239.52 81.0464 240.139C79.6738 240.839 77.4803 241.095 75.8116 240.503" fill="white"/>
<path d="M74.3179 234.662C74.3717 234.582 74.439 234.514 74.4929 234.434C75.704 232.738 76.4037 230.625 77.2112 228.715C77.4399 228.176 78.503 225.485 79.0682 225.108C79.7141 224.677 83.334 223.453 84.3433 223.076C85.3391 222.699 86.4426 222.524 87.4922 222.74C87.7344 222.794 88.017 222.942 87.9632 223.184C87.8152 223.251 87.6671 223.305 87.5326 223.359M87.5326 223.359C86.8732 223.507 86.2138 223.682 85.5679 223.884C86.2407 223.776 86.9001 223.601 87.5326 223.359ZM87.5326 223.359C87.8959 223.278 88.2593 223.197 88.636 223.13C89.6049 222.955 90.6277 222.861 91.5427 223.211C91.7042 223.265 91.8792 223.359 91.933 223.52C92.0406 223.776 91.8253 224.045 91.61 224.206C91.2736 224.462 90.8968 224.651 90.4931 224.758C91.0852 224.677 91.6773 224.637 92.2694 224.651C92.3905 224.651 92.5116 224.651 92.6058 224.718C92.8346 224.839 92.875 225.162 92.7673 225.391C92.6597 225.619 92.4443 225.781 92.2425 225.929C91.0448 226.763 89.7395 227.436 88.3669 227.948C89.1474 227.853 89.9414 227.625 90.7219 227.517C91.2467 227.45 92.2694 227.261 92.5116 227.638C92.7 227.934 91.7446 228.593 91.4216 228.741C90.2374 229.32 86.4291 231.258 85.9716 231.581C85.0296 232.294 84.2491 235.456 83.8319 236.331C83.4148 237.206 82.2575 239.52 81.0464 240.139C79.6738 240.839 77.4803 241.095 75.8116 240.503" stroke="#488936" stroke-width="0.336422" stroke-linecap="round" stroke-linejoin="round"/>
<path d="M90.3086 227.571C87.6576 227.894 84.1319 228.822 84.1319 228.822L90.3086 227.571Z" fill="white"/>
<path d="M90.3086 227.571C90.3086 227.571 90.2009 227.557 90.026 227.53C89.8511 227.53 89.5954 227.477 89.2993 227.477C89.0033 227.477 88.6399 227.477 88.2766 227.517C87.8998 227.544 87.5096 227.625 87.1193 227.692C86.7291 227.786 86.3523 227.867 85.9889 227.988C85.639 228.096 85.3161 228.244 85.0335 228.351C84.7509 228.459 84.5356 228.593 84.3741 228.674C84.2261 228.768 84.1319 228.822 84.1319 228.822C84.1319 228.822 84.2395 228.822 84.4145 228.822C84.5894 228.822 84.8451 228.822 85.1411 228.795C85.4372 228.768 85.7871 228.755 86.1504 228.701C86.5137 228.661 86.904 228.58 87.2808 228.499C87.6576 228.405 88.0478 228.324 88.3977 228.23C88.7476 228.136 89.084 228.015 89.3666 227.921C89.6492 227.84 89.878 227.719 90.0529 227.665C90.2144 227.598 90.3086 227.544 90.3086 227.544V227.571Z" fill="#488936"/>
<path d="M90.4648 224.745C87.1948 224.879 82.781 226.548 82.781 226.548L90.4648 224.745Z" fill="white"/>
<path d="M90.4648 224.745C90.4648 224.745 90.3437 224.718 90.115 224.691C89.8997 224.664 89.5767 224.624 89.1999 224.624C88.8231 224.637 88.379 224.637 87.908 224.704C87.437 224.758 86.9526 224.866 86.4547 224.974C85.9703 225.108 85.4858 225.243 85.0552 225.404C84.6111 225.552 84.2208 225.754 83.871 225.916C83.5345 226.064 83.2654 226.252 83.0636 226.346C82.8752 226.467 82.7675 226.535 82.7675 226.535C82.7675 226.535 82.8886 226.521 83.1174 226.494C83.3327 226.454 83.6557 226.427 84.0055 226.346C84.3554 226.279 84.8937 226.171 85.2436 226.104C85.7684 225.983 86.1856 225.875 86.6431 225.768C87.1006 225.646 87.5043 225.539 88.0292 225.404C88.379 225.31 88.8904 225.162 89.2403 225.068C89.6036 224.987 89.8997 224.866 90.1015 224.826C90.3168 224.758 90.4379 224.718 90.4379 224.718L90.4648 224.745Z" fill="#488936"/>
<path d="M87.5977 223.332C87.5977 223.332 83.1569 224.476 81.3133 225.646L87.5977 223.332Z" fill="white"/>
<path d="M87.5977 223.332C87.5977 223.332 87.49 223.332 87.3016 223.332C87.1132 223.345 86.8441 223.332 86.5211 223.386C86.2116 223.439 85.8348 223.48 85.4446 223.574C85.0543 223.655 84.6506 223.789 84.2469 223.91C83.8432 224.058 83.4529 224.206 83.0896 224.395C82.7263 224.57 82.4033 224.785 82.1342 224.947C81.865 225.122 81.6632 225.31 81.5151 225.431C81.3806 225.566 81.2998 225.646 81.2998 225.646C81.2998 225.646 81.4075 225.619 81.5959 225.566C81.7708 225.498 82.04 225.458 82.336 225.364C82.6321 225.283 83.0761 225.148 83.3587 225.068C83.8163 224.92 84.1392 224.812 84.516 224.691C84.9063 224.543 85.2965 224.408 85.6599 224.26C86.0232 224.112 86.3596 223.951 86.6422 223.83C86.9383 223.709 87.167 223.561 87.3285 223.48C87.49 223.386 87.5842 223.332 87.5842 223.332H87.5977Z" fill="#488936"/>
<path d="M45.5625 231.931L37.2058 233.048L45.2126 233.048L45.5625 231.931Z" fill="white" stroke="#488936" stroke-width="0.336422" stroke-linecap="round" stroke-linejoin="round"/>
<path d="M45.3169 243.679L78.4074 243.679C79.054 243.679 79.5781 244.203 79.5781 244.849V245.105C79.5781 245.752 79.054 246.276 78.4074 246.276L45.3169 246.276C44.6703 246.276 44.1462 245.752 44.1462 245.105V244.849C44.1462 244.203 44.6703 243.679 45.3169 243.679Z" fill="white" stroke="#488936" stroke-width="0.336422" stroke-linecap="round" stroke-linejoin="round"/>
<path d="M-10.41 209.391L32.652 209.391C34.1053 209.391 35.3837 210.333 35.8144 211.719L46.5664 246.289L-0.182812 246.289L-11.2847 210.575C-11.4731 209.983 -11.029 209.391 -10.41 209.391Z" fill="white" stroke="#488936" stroke-width="0.336422" stroke-linecap="round" stroke-linejoin="round"/>
<path d="M-12.1288 209.391L30.9332 209.391C32.3866 209.391 33.665 210.333 34.0956 211.719L44.8477 246.289L-1.90155 246.289L-13.0035 210.575C-13.1919 209.983 -12.7478 209.391 -12.1288 209.391Z" fill="white" stroke="#488936" stroke-width="0.336422" stroke-linecap="round" stroke-linejoin="round"/>
<path d="M17.6474 216.254L30.5391 216.254L30.0681 214.679L17.1764 214.679L17.6474 216.254Z" fill="white" stroke="#488936" stroke-width="0.336422" stroke-linecap="round" stroke-linejoin="round"/>
<path d="M93.3998 171.927C92.5789 171.496 92.081 171.119 92.0003 170.81C91.4889 168.71 91.7311 165.467 92.1617 162.574C90.6142 164.835 75.1792 162.103 71.3574 158.698C72.0033 161.901 72.9722 167.661 72.1917 170.81C72.0437 171.388 70.5096 172.142 68.1547 173.097C70.8326 175.156 77.0227 179.435 82.096 179.435C87.1827 179.435 93.3729 175.143 96.0508 173.097C94.9877 172.667 94.0861 172.276 93.4132 171.927H93.3998Z" fill="white" stroke="#488936" stroke-width="0.336422" stroke-linecap="round" stroke-linejoin="round"/>
<path d="M70.5206 134.153C73.8579 130.668 78.6621 128.972 83.4258 128.232C87.732 127.573 92.1459 127.613 96.4386 128.367C97.9054 128.622 99.4395 128.999 100.529 130.008C101.297 130.722 101.781 131.69 102.158 132.673C102.629 133.911 102.898 135.122 103.046 136.36C103.046 136.36 103.046 136.36 103.046 136.373C103.288 138.432 103.194 140.505 103.221 142.671C103.261 146.197 103.1 149.763 102.319 153.208C101.66 156.128 100.691 158.981 99.5606 161.188C98.9954 162.291 98.4033 163.422 97.5286 164.337C96.6674 165.225 95.389 165.561 94.1644 165.642C92.9667 165.723 91.7691 165.575 90.5849 165.467C86.319 165.09 82.0532 165.588 77.747 165.238C76.0111 165.09 74.1405 164.821 72.9294 163.556C72.0547 162.628 71.6914 161.349 71.355 160.111C70.8167 158.16 70.2246 156.195 69.2826 154.406C68.8924 153.666 68.4617 152.966 68.0984 152.212C67.439 150.813 67.1026 149.292 66.7527 147.798C66.4567 146.506 65.9991 145.215 66.1337 143.882C66.2548 142.658 66.5105 141.46 66.9007 140.289C67.6409 138.002 68.8654 135.876 70.5341 134.14L70.5206 134.153Z" fill="white" stroke="#488936" stroke-width="0.336422" stroke-linecap="round" stroke-linejoin="round"/>
<path d="M70.7635 155.415C70.3598 153.854 70.0368 152.266 69.7946 150.678C69.6062 149.467 69.5389 148.242 69.364 147.031C69.2294 146.076 69.0006 145.39 69.2294 144.394C69.3909 143.721 69.7004 143.062 70.2656 142.671C71.3018 141.958 72.8089 142.496 73.6164 143.465C74.7064 144.784 74.9351 146.52 75.3523 148.135C75.4196 148.377 75.5003 148.66 75.7425 148.754C75.9713 148.848 76.2404 148.713 76.375 148.525C76.523 148.323 76.5634 148.081 76.6172 147.839C76.994 145.887 77.4246 143.963 77.9091 142.039C78.0167 141.581 78.1513 141.124 78.4205 140.747C78.8914 140.101 79.7258 139.818 80.3179 139.28C81.1118 138.58 81.4348 137.504 81.7309 136.481C82 135.539 82.2691 134.611 82.5383 133.669C82.6863 133.144 82.8612 132.592 83.2918 132.242C83.8301 131.825 84.5837 131.879 85.27 131.946C88.7688 132.309 92.281 132.484 95.7933 132.484C97.4889 132.484 99.2383 132.283 100.92 132.404C101.835 132.471 101.862 132.888 102.118 133.736C102.36 134.53 102.549 135.337 102.697 136.158C102.818 136.871 102.912 137.598 103.006 138.311C103.087 138.957 103.168 139.603 103.248 140.236C103.464 139.495 103.719 138.769 104.069 138.082C105.388 135.458 105.563 132.148 105.227 129.268C104.742 125.137 102.818 121.154 99.7227 118.382C98.3097 117.13 96.5872 116.094 94.7033 116C92.8193 115.906 90.7873 116.982 90.2491 118.799C89.011 117.426 87.1001 116.699 85.27 116.901C83.4399 117.09 81.7174 118.207 80.8023 119.808C77.6265 119.377 74.3699 119.606 71.2748 120.454C69.9292 120.817 68.57 121.342 67.5877 122.338C66.6053 123.334 66.094 124.908 66.6861 126.173C64.0889 126.146 61.9492 130.775 61.4513 132.861C60.3479 137.477 62.3664 141.474 64.1427 145.578C66.1343 150.167 68.1394 154.756 70.2387 159.291C70.5616 159.99 70.9115 160.677 71.2614 161.363C71.3287 161.484 71.3825 161.605 71.5036 161.686C71.6113 161.767 71.7862 161.767 71.867 161.659C71.867 160.394 71.7055 159.116 71.369 157.891C71.1403 157.07 70.9923 156.236 70.777 155.401L70.7635 155.415Z" fill="#488936"/>
<path d="M69.3212 146.722C69.6172 149.265 71.232 154.365 75.2287 153.477C75.2287 153.477 75.9689 157.649 73.9773 157.797C71.9856 157.931 70.8956 153.665 70.2631 151.539C69.6307 149.413 69.3212 146.722 69.3212 146.722Z" fill="white" stroke="#488936" stroke-width="0.336422" stroke-linecap="round" stroke-linejoin="round"/>
<path d="M72.8625 145.363C72.6741 145.107 72.4723 144.851 72.1897 144.717C71.8533 144.542 71.463 144.555 71.0997 144.623C70.844 144.676 70.5614 144.771 70.4268 144.999C70.3326 145.161 70.3326 145.363 70.3326 145.551C70.3865 147.152 70.9382 148.74 71.8667 150.059C72.0013 150.234 72.1359 150.409 72.3108 150.544C72.4858 150.665 72.7011 150.732 72.9029 150.772C73.3066 150.84 73.7372 150.772 74.0468 150.517C74.3563 150.261 74.4774 149.763 74.2486 149.44C74.0468 149.157 73.67 149.063 73.4277 148.821C73.199 148.606 73.1048 148.256 73.1855 147.946C73.2528 147.677 73.4546 147.448 73.5758 147.193C73.8987 146.506 73.2259 145.887 72.8356 145.39L72.8625 145.363Z" fill="white" stroke="#488936" stroke-width="0.336422" stroke-linecap="round" stroke-linejoin="round"/>
<path d="M80.8164 119.795C75.178 122.674 71.1544 128.676 73.6304 141.662L70.32 141.904C70.32 141.904 68.2477 132.686 69.7548 127.68C71.262 122.674 73.4824 120.467 74.6128 119.781C75.7432 119.095 77.9097 119.122 78.8382 119.216C79.7668 119.31 80.8029 119.808 80.8029 119.808L80.8164 119.795Z" fill="white" stroke="#488936" stroke-width="0.336422" stroke-linecap="round" stroke-linejoin="round"/>
<path d="M66.218 148.162C66.7698 152.078 69.2324 154.984 71.695 154.634C72.0852 154.581 72.4486 154.446 72.7985 154.244C74.6151 153.181 75.6379 150.194 75.1803 146.897C74.7093 143.586 72.8926 141.016 70.8607 140.505C70.4704 140.41 70.0802 140.384 69.6899 140.437C67.2138 140.787 65.6663 144.246 66.218 148.175V148.162Z" fill="white" stroke="#488936" stroke-width="0.336422" stroke-linecap="round" stroke-linejoin="round"/>
<path d="M72.7981 154.231C72.4617 154.433 72.0849 154.567 71.6946 154.621L73.9554 154.298C76.4315 153.948 77.9925 150.476 77.4273 146.56C76.8755 142.631 74.4129 139.738 71.9369 140.088L69.6761 140.41C70.0664 140.357 70.4566 140.384 70.8469 140.478C72.8788 141.003 74.6955 143.573 75.1665 146.87C75.6375 150.167 74.6013 153.154 72.7846 154.217L72.7981 154.231Z" fill="white" stroke="#488936" stroke-width="0.336422" stroke-linecap="round" stroke-linejoin="round"/>
<path d="M69.1636 143.263C69.2713 143.25 69.3789 143.25 69.4731 143.25C70.8996 143.304 72.2318 145.013 72.5548 147.273C72.8777 149.534 72.0568 151.539 70.7112 151.983C70.617 152.01 70.5093 152.037 70.4017 152.051C68.8676 152.266 67.3469 150.476 67.0105 148.054C66.6606 145.632 67.6295 143.479 69.1636 143.263Z" fill="white" stroke="#488936" stroke-width="0.336422" stroke-linecap="round" stroke-linejoin="round"/>
<path d="M72.5558 147.26C72.2328 144.999 70.9006 143.29 69.4742 143.236C69.3665 143.236 69.2723 143.236 69.1647 143.25L69.7837 143.156C71.3178 142.94 72.8384 144.73 73.1748 147.166C73.5112 149.588 72.5558 151.728 71.0217 151.943L70.4027 152.037C70.5104 152.024 70.6045 151.997 70.7122 151.97C72.0579 151.526 72.8788 149.521 72.5558 147.26Z" fill="white" stroke="#488936" stroke-width="0.336422" stroke-linecap="round" stroke-linejoin="round"/>
<path d="M214.239 252.856L-18 252.856L-18 246.276L214.239 246.276L214.239 252.856Z" fill="#488936"/>
<path d="M180.156 258.495L16.0625 258.495L16.0625 248.994L180.156 248.994L180.156 258.495Z" fill="#488936"/>
</g>
<g clip-path="url(#clip1_272_820)">
<path d="M341.388 294.98L340.096 267.495C340.096 267.495 340.2 262.431 343.955 256.861C348.146 251.674 354.222 243.904 357.051 237.705L369.816 189.928L335.468 175.243L323.297 185.493C323.297 185.493 318.495 189.178 319.298 196.843C319.106 201.418 318.111 206.936 316.103 213.38C315.771 214.585 313.78 231.89 313.78 231.89C313.78 231.89 313.361 236.238 312.872 238.036C312.383 239.835 300.404 283.63 300.404 283.63L296.301 301.948" fill="#AFD8A1"/>
<path d="M341.388 294.98L340.096 267.495C340.096 267.495 340.2 262.431 343.955 256.861C348.146 251.674 354.222 243.904 357.051 237.705L369.816 189.928L335.468 175.243L323.297 185.493C323.297 185.493 318.495 189.178 319.298 196.843C319.106 201.418 318.111 206.936 316.103 213.38C315.771 214.585 313.78 231.89 313.78 231.89C313.78 231.89 313.361 236.238 312.872 238.036C312.383 239.835 300.404 283.63 300.404 283.63L296.301 301.948" stroke="#488936" stroke-width="0.611173" stroke-miterlimit="10"/>
<path d="M411.172 81.4214L331.941 93.6445C326.88 94.4253 323.41 99.1611 324.191 104.222L343.659 230.412C344.439 235.473 349.175 238.943 354.236 238.162L433.467 225.939C438.529 225.158 441.998 220.423 441.218 215.361L421.75 89.1716C420.969 84.1105 416.233 80.6406 411.172 81.4214Z" fill="white" stroke="#488936" stroke-width="0.611173" stroke-linecap="round" stroke-linejoin="round"/>
<path d="M406.903 164.242L395.937 165.935L390.227 128.933L416.734 124.847L422.444 161.849L417.939 162.53" fill="#8ECA7E"/>
<path d="M350.377 194.8L348.578 183.153L375.33 179.032L380.289 211.215L353.555 215.336L352.944 211.372" fill="#8ECA7E"/>
<path d="M325.898 226.965C325.898 226.965 328.692 217.641 330.212 216.453C331.731 215.266 336.673 210.9 338.524 208.491C340.374 206.081 341.929 200.336 348.494 196.878C350.677 194.521 355.462 188.933 356.754 189.3C355.566 190.365 352.057 194.242 353.419 194.696C354.781 195.15 357.173 197.489 357.173 197.489C357.173 197.489 360.875 196.512 361.766 191.168C362.15 192.251 363.913 196.302 358.395 205.051C355.549 208.875 351.48 212.821 351.48 212.821C351.48 212.821 348.686 216.628 347.848 221.343C347.848 224.468 348.075 248.618 334.856 252.425" fill="#AFD8A1"/>
<path d="M325.898 226.965C325.898 226.965 328.692 217.641 330.212 216.453C331.731 215.266 336.673 210.9 338.524 208.491C340.374 206.081 341.929 200.336 348.494 196.878C350.677 194.521 355.462 188.933 356.754 189.3C355.566 190.365 352.057 194.242 353.419 194.696C354.781 195.15 357.173 197.489 357.173 197.489C357.173 197.489 360.875 196.512 361.766 191.168C362.15 192.251 363.913 196.302 358.395 205.051C355.549 208.875 351.48 212.821 351.48 212.821C351.48 212.821 348.686 216.628 347.848 221.343C347.848 224.468 348.075 248.618 334.856 252.425" stroke="#488936" stroke-width="0.611173" stroke-miterlimit="10"/>
<path d="M394.348 217.291L348.859 224.311L348.23 220.243" stroke="#8ECA7E" stroke-width="0.611173" stroke-linecap="round" stroke-linejoin="round"/>
<path d="M420.236 213.31L409.043 215.039" stroke="#8ECA7E" stroke-width="0.611173" stroke-linecap="round" stroke-linejoin="round"/>
<path d="M344.995 199.271L329.891 101.326L415.874 88.0721L428.604 170.633" stroke="#488936" stroke-width="0.611173" stroke-linecap="round" stroke-linejoin="round"/>
<path d="M412.551 97.7387L336.012 109.547L338.94 128.53L415.479 116.722L412.551 97.7387Z" stroke="#8ECA7E" stroke-width="0.611173" stroke-linecap="round" stroke-linejoin="round"/>
<path d="M356.75 189.3C356.75 189.3 358.444 187.711 360.434 188.689C362.425 189.666 361.779 191.186 361.779 191.186" stroke="#8ECA7E" stroke-width="0.611173" stroke-linecap="round" stroke-linejoin="round"/>
<path d="M343.962 112.763L346.058 112.432L350.056 118.299L350.86 111.698L353.112 111.349L351.855 121.739L349.917 122.036L345.761 115.994L344.94 122.804L342.688 123.153L343.945 112.763H343.962Z" stroke="#8ECA7E" stroke-width="0.611173" stroke-linecap="round" stroke-linejoin="round"/>
<path d="M355.508 111L363.261 109.812L363.016 111.838L357.533 112.676L357.289 114.807L362.108 114.056L361.864 116.064L357.044 116.815L356.782 119.015L362.353 118.159L362.108 120.202L354.285 121.407L355.542 111.017L355.508 111Z" stroke="#8ECA7E" stroke-width="0.611173" stroke-linecap="round" stroke-linejoin="round"/>
<path d="M364.215 109.655L366.59 109.289L367.899 115.994L371.043 108.573L372.998 108.276L374.517 114.981L377.503 107.612L380.088 107.211L375.286 118.229L373.173 118.561L371.689 112.257L368.615 119.277L366.52 119.591L364.232 109.673L364.215 109.655Z" stroke="#8ECA7E" stroke-width="0.611173" stroke-linecap="round" stroke-linejoin="round"/>
<path d="M379.726 115.715L381.228 114.056C382.171 114.789 383.149 115.103 384.336 114.911C385.262 114.772 385.856 114.248 385.768 113.637C385.698 113.148 385.279 112.921 383.795 112.606C382.363 112.292 381.053 111.768 380.826 110.301C380.512 108.258 382.223 106.722 384.441 106.372C386.222 106.093 387.532 106.495 388.545 107.245L387.2 108.992C386.31 108.415 385.559 108.154 384.546 108.311C383.533 108.468 383.114 109.062 383.184 109.55C383.271 110.074 383.708 110.249 385.209 110.581C386.711 110.913 387.899 111.436 388.108 112.886C388.422 114.981 386.676 116.5 384.493 116.832C382.485 117.146 380.861 116.745 379.691 115.697L379.726 115.715Z" stroke="#8ECA7E" stroke-width="0.611173" stroke-linecap="round" stroke-linejoin="round"/>
<path d="M400.346 115.645C403.904 115.645 406.789 112.76 406.789 109.201C406.789 105.642 403.904 102.758 400.346 102.758C396.787 102.758 393.902 105.642 393.902 109.201C393.902 112.76 396.787 115.645 400.346 115.645Z" stroke="#8ECA7E" stroke-width="0.611173" stroke-linecap="round" stroke-linejoin="round"/>
<path d="M401.338 115.569C402.395 115.406 402.813 112.422 402.271 108.905C401.728 105.388 400.431 102.669 399.373 102.833C398.315 102.996 397.897 105.979 398.439 109.496C398.982 113.013 400.28 115.732 401.338 115.569Z" stroke="#8ECA7E" stroke-width="0.611173" stroke-linecap="round" stroke-linejoin="round"/>
<path d="M401.342 115.704C403.725 115.337 405.216 112.187 404.674 108.67C404.131 105.153 401.76 102.6 399.377 102.968C396.994 103.335 395.502 106.485 396.045 110.002C396.588 113.519 398.959 116.072 401.342 115.704Z" stroke="#8ECA7E" stroke-width="0.611173" stroke-linecap="round" stroke-linejoin="round"/>
<path d="M393.973 110.197L406.703 108.223" stroke="#8ECA7E" stroke-width="0.611173" stroke-linecap="round" stroke-linejoin="round"/>
<path d="M394.215 107.193L405.565 105.447" stroke="#8ECA7E" stroke-width="0.611173" stroke-linecap="round" stroke-linejoin="round"/>
<path d="M395.109 112.973L406.46 111.227" stroke="#8ECA7E" stroke-width="0.611173" stroke-linecap="round" stroke-linejoin="round"/>
<path d="M356.82 189.212C355.633 190.278 352.123 194.154 353.485 194.608C354.847 195.062 357.239 197.402 357.239 197.402C357.239 197.402 360.941 196.424 361.832 191.081" fill="white"/>
<path d="M356.82 189.212C355.633 190.278 352.123 194.154 353.485 194.608C354.847 195.062 357.239 197.402 357.239 197.402C357.239 197.402 360.941 196.424 361.832 191.081" stroke="#8ECA7E" stroke-width="0.611173" stroke-miterlimit="10"/>
<path d="M356.75 189.3C356.75 189.3 358.444 187.711 360.434 188.689C362.425 189.666 361.779 191.186 361.779 191.186" fill="white"/>
<path d="M356.75 189.3C356.75 189.3 358.444 187.711 360.434 188.689C362.425 189.666 361.779 191.186 361.779 191.186" stroke="#8ECA7E" stroke-width="0.611173" stroke-linecap="round" stroke-linejoin="round"/>
<path d="M383.603 130.006L340.199 136.702L340.732 140.154L384.135 133.458L383.603 130.006Z" fill="#AFD8A1"/>
<path d="M384.638 136.703L341.234 143.399L341.767 146.851L385.171 140.155L384.638 136.703Z" fill="#AFD8A1"/>
<path d="M385.677 143.401L342.273 150.097L342.806 153.548L386.21 146.852L385.677 143.401Z" fill="#AFD8A1"/>
<path d="M386.697 150.098L343.293 156.794L343.825 160.245L387.229 153.549L386.697 150.098Z" fill="#AFD8A1"/>
<path d="M387.728 156.812L344.324 163.508L344.857 166.96L388.26 160.264L387.728 156.812Z" fill="#AFD8A1"/>
<path d="M388.771 163.489L345.367 170.185L345.9 173.637L389.303 166.941L388.771 163.489Z" fill="#AFD8A1"/>
<path d="M419.616 172.211L381.148 178.145L381.681 181.597L420.149 175.662L419.616 172.211Z" fill="#AFD8A1"/>
<path d="M425.572 178.139L382.168 184.835L382.7 188.286L426.104 181.59L425.572 178.139Z" fill="#AFD8A1"/>
<path d="M426.611 184.833L383.207 191.529L383.74 194.981L427.143 188.285L426.611 184.833Z" fill="#AFD8A1"/>
<path d="M427.661 191.53L384.258 198.226L384.79 201.678L428.194 194.982L427.661 191.53Z" fill="#AFD8A1"/>
<path d="M428.685 198.227L385.281 204.923L385.814 208.375L429.217 201.679L428.685 198.227Z" fill="#AFD8A1"/>
<path d="M455.392 278.164C455.392 278.164 453.401 273.519 449.629 266.657C445.473 260.109 439.694 256.337 438.646 255.778C437.598 255.219 421.76 245.859 417.464 242.769C413.186 239.678 411.23 236.412 410.811 235.697C408.017 230.929 405.8 229.026 404.053 227.612C398.605 223.246 391.428 213.59 391.428 213.59L385.369 208.84C384.391 200.947 392.197 204.038 396.807 205.749C401.417 207.46 406.236 212.332 413.692 219.527C421.69 227.489 420.642 220.278 420.538 218.462C420.642 210.883 417.045 194.992 415.439 188.951C413.832 182.909 409.484 170.755 406.55 163.473C403.617 156.192 404.874 152.612 404.874 152.612L411.283 150.045C413.483 150.918 423.611 175.592 427.365 184.393C424.973 168.852 431.521 168.363 432.499 168.031C438.331 166.267 439.973 173.584 439.973 173.584C439.973 173.584 441.44 171.384 446.521 169.83C451.62 168.276 453.017 174.597 454.432 179.277C462.953 172.624 464.594 178.823 465.014 180.481C465.433 182.14 466.061 186.192 469.885 194.224C473.71 202.257 475.578 223.071 475.578 223.071C475.578 223.071 473.605 228.485 477.866 237.862C482.126 247.222 485.898 248.776 485.898 248.776" fill="#AFD8A1"/>
<path d="M455.392 278.164C455.392 278.164 453.401 273.519 449.629 266.657C445.473 260.109 439.694 256.337 438.646 255.778C437.598 255.219 421.76 245.859 417.464 242.769C413.186 239.678 411.23 236.413 410.811 235.697C408.017 230.929 405.8 229.026 404.053 227.612C398.605 223.246 391.428 213.59 391.428 213.59L385.369 208.84C384.391 200.947 392.197 204.038 396.807 205.749C401.417 207.46 406.236 212.332 413.692 219.527C421.69 227.489 420.642 220.278 420.538 218.462C420.642 210.883 417.045 194.992 415.439 188.951C413.832 182.909 409.484 170.755 406.55 163.473C403.617 156.192 404.874 152.612 404.874 152.612L411.283 150.045C413.483 150.918 423.611 175.592 427.365 184.393C424.973 168.852 431.521 168.363 432.499 168.031C438.331 166.267 439.973 173.584 439.973 173.584C439.973 173.584 441.44 171.384 446.521 169.83C451.62 168.276 453.017 174.597 454.432 179.277C462.953 172.624 464.594 178.823 465.014 180.481C465.433 182.14 466.061 186.192 469.885 194.224C473.71 202.257 475.578 223.071 475.578 223.071C475.578 223.071 473.605 228.485 477.866 237.862C482.126 247.222 485.898 248.776 485.898 248.776" stroke="#488936" stroke-width="0.611173" stroke-miterlimit="10"/>
<path d="M410.758 156.471C410.758 156.471 406.882 158.759 404.926 151.477C405.677 149.905 407.074 147.74 410.287 148.945C411.404 150.482 414.512 153.922 410.758 156.489V156.471Z" fill="white" stroke="#488936" stroke-width="0.611173" stroke-linecap="round" stroke-linejoin="round"/>
<path d="M385.385 208.822L387.253 206.238C387.253 206.238 389.401 204.387 392.055 209.399C392.073 210.132 392.841 210.272 391.427 213.59L385.367 208.84L385.385 208.822Z" fill="white" stroke="#488936" stroke-width="0.611173" stroke-linecap="round" stroke-linejoin="round"/>
</g>
</g>
<defs>
<clipPath id="clip0_272_820">
<rect width="232.239" height="142.495" fill="white" transform="matrix(-1 0 0 1 214.238 116)"/>
</clipPath>
<clipPath id="clip1_272_820">
<rect width="190.057" height="221" fill="white" transform="translate(296 81)"/>
</clipPath>
</defs>
</svg>
