<svg width="467" height="424" viewBox="0 0 467 424" fill="none" xmlns="http://www.w3.org/2000/svg">
<g clip-path="url(#clip0_383_227)">
<path opacity="0.1" d="M423.15 159.222C423.15 159.222 397.649 99.175 321.131 82.5749C244.613 65.9749 200.408 111.014 199.559 141.047C198.709 171.079 106.884 216.119 77.1188 235.073C47.3539 254.044 20.1549 326.727 72.8718 380.474C125.589 434.202 240.366 386.013 277.776 399.445C315.185 412.877 384.908 431.849 424.866 418.416C464.824 404.984 479.282 344.141 455.48 302.251C431.679 260.38 404.462 246.151 404.462 225.604C404.462 205.058 435.077 198.74 423.167 159.222H423.15Z" fill="white"/>
<g clip-path="url(#clip1_383_227)">
<path d="M268.665 15.2496L277.923 0.458801H359.516V15.2496V20.5668V266.532H23.6992V15.2496H268.665Z" fill="white" fill-opacity="0.5" stroke="white" stroke-width="0.944669" stroke-miterlimit="10"/>
<path d="M25.9342 261.188L357.027 261.188L357.027 22.0514L25.9342 22.0514L25.9342 261.188Z" fill="#1C4098"/>
<mask id="mask0_383_227" style="mask-type:luminance" maskUnits="userSpaceOnUse" x="25" y="22" width="333" height="240">
<path d="M25.9381 261.188L357.031 261.188L357.031 22.0515L25.9381 22.0515L25.9381 261.188Z" fill="white"/>
</mask>
<g mask="url(#mask0_383_227)">
<path opacity="0.17" d="M24.2921 262.996H31.9844L31.9844 20.0003H24.2921L24.2921 262.996Z" fill="white" fill-opacity="0.4"/>
<path opacity="0.17" d="M24.2921 260.999H31.9844L31.9844 166.91H24.2921L24.2921 260.999Z" fill="white" fill-opacity="0.5"/>
<path d="M25.4807 31.7952L358.328 31.7952V18.7858L25.4807 18.7858V31.7952Z" fill="white" fill-opacity="0.4" stroke="white" stroke-width="0.944669" stroke-miterlimit="10"/>
</g>
<path d="M25.9342 261.188L357.027 261.188L357.027 22.0514L25.9342 22.0514L25.9342 261.188Z" stroke="white" stroke-width="0.944669" stroke-linecap="round" stroke-linejoin="round"/>
<g opacity="0.17">
<path d="M184.501 44.3454H207.658C208.792 44.3454 209.71 43.4277 209.71 42.2941C209.71 41.1605 208.792 40.2429 207.658 40.2429H184.501C183.367 40.2429 182.449 41.1605 182.449 42.2941C182.449 43.4277 183.367 44.3454 184.501 44.3454Z" fill="white"/>
<path d="M138.184 44.3454H161.342C162.476 44.3454 163.393 43.4277 163.393 42.2941C163.393 41.1605 162.476 40.2429 161.342 40.2429H138.184C137.05 40.2429 136.133 41.1605 136.133 42.2941C136.133 43.4277 137.05 44.3454 138.184 44.3454Z" fill="white"/>
<path d="M91.8482 44.3454H115.006C116.14 44.3454 117.057 43.4277 117.057 42.2941C117.057 41.1605 116.14 40.2429 115.006 40.2429H91.8482C90.7145 40.2429 89.7969 41.1605 89.7969 42.2941C89.7969 43.4277 90.7145 44.3454 91.8482 44.3454Z" fill="white"/>
<path d="M45.5318 44.3454H68.6896C69.8232 44.3454 70.7409 43.4277 70.7409 42.2941C70.7409 41.1605 69.8232 40.2429 68.6896 40.2429H45.5318C44.3981 40.2429 43.4805 41.1605 43.4805 42.2941C43.4805 43.4277 44.3981 44.3454 45.5318 44.3454Z" fill="white"/>
</g>
<path d="M150.605 170.553L347.852 170.553V54.7367L150.605 54.7367V170.553Z" stroke="white" stroke-width="0.944669" stroke-miterlimit="10"/>
<path d="M346.861 182.483H290.289" stroke="white" stroke-width="0.944669" stroke-miterlimit="10"/>
<path d="M346.861 194.413H290.289" stroke="white" stroke-width="0.944669" stroke-miterlimit="10"/>
<path d="M346.861 206.343H290.289" stroke="white" stroke-width="0.944669" stroke-miterlimit="10"/>
<path d="M346.861 218.273H290.289" stroke="white" stroke-width="0.944669" stroke-miterlimit="10"/>
<path d="M337.629 58.7043C334.013 58.7043 331.098 61.6193 331.098 65.236C331.098 68.8527 334.013 71.7677 337.629 71.7677C341.246 71.7677 344.161 68.8527 344.161 65.236C344.161 61.6193 341.246 58.7043 337.629 58.7043ZM338.52 66.7745L335.713 68.3939V61.8892L338.52 63.5086L341.327 65.128L338.52 66.7475V66.7745Z" fill="#1C4098" stroke="white" stroke-width="0.944669" stroke-miterlimit="10"/>
<path d="M52.3162 124.912L140.062 124.912V54.7098L52.3162 54.7098L52.3162 124.912Z" stroke="white" stroke-width="0.944669" stroke-miterlimit="10"/>
<path d="M52.3398 104.21L65.6732 90.5263L82.5153 98.9473L114.094 72.2806L140.059 100.54V124.939H52.3398V104.21Z" stroke="white" stroke-width="0.944669" stroke-miterlimit="10"/>
<path d="M81.4608 78.5964C85.9178 78.5964 89.531 74.9833 89.531 70.5262C89.531 66.0692 85.9178 62.4561 81.4608 62.4561C77.0038 62.4561 73.3906 66.0692 73.3906 70.5262C73.3906 74.9833 77.0038 78.5964 81.4608 78.5964Z" stroke="white" stroke-width="0.944669" stroke-miterlimit="10"/>
<path d="M52.3162 209.852H140.062V139.649H52.3162L52.3162 209.852Z" stroke="white" stroke-width="0.944669" stroke-miterlimit="10"/>
<path d="M52.3398 189.123L65.6732 175.466L82.5153 183.887L114.094 157.22L140.059 185.452V209.852H52.3398V189.123Z" stroke="white" stroke-width="0.944669" stroke-miterlimit="10"/>
<path d="M82.7524 163.449C87.1516 162.733 90.1377 158.587 89.4221 154.188C88.7064 149.788 84.56 146.802 80.1608 147.518C75.7616 148.234 72.7755 152.38 73.4911 156.779C74.2068 161.178 78.3532 164.164 82.7524 163.449Z" stroke="white" stroke-width="0.944669" stroke-miterlimit="10"/>
<path d="M102.945 297L91.2852 326.906H115.739L125.887 297H102.945Z" fill="white" fill-opacity="0.5" stroke="white" stroke-width="0.944669" stroke-miterlimit="10"/>
<path d="M167 297L176.555 326.906H201.035L189.942 297H167Z" fill="white" fill-opacity="0.5" stroke="white" stroke-width="0.944669" stroke-miterlimit="10"/>
<path d="M102.869 363H191.047V296.522H102.869L102.869 363Z" fill="#8D9FCC" stroke="white" stroke-miterlimit="10"/>
<path d="M116.788 350.121H157.031V308.853H116.788V350.121Z" fill="#1C4098" stroke="white" stroke-width="0.944669" stroke-miterlimit="10"/>
<path d="M116.789 339.19L124.319 331.336L130.932 335.169L142.538 324.049L156.897 335.52L157.032 335.79V350.122H116.789V339.19Z" fill="white" stroke="white" stroke-width="0.944669" stroke-miterlimit="10"/>
<path d="M126.285 320.027C126.285 322.672 128.444 324.831 131.089 324.831C133.735 324.831 135.894 322.672 135.894 320.027C135.894 317.382 133.735 315.223 131.089 315.223C128.444 315.223 126.285 317.382 126.285 320.027Z" fill="white" stroke="white" stroke-width="0.944669" stroke-miterlimit="10"/>
<path d="M0.493736 362.807H88.6719L88.6719 296.329H0.493736L0.493736 362.807Z" fill="#778CC1" stroke="white" stroke-width="0.944669" stroke-miterlimit="10"/>
<path d="M0.490402 362.807H65.7266L65.7266 296.329H0.490402L0.490402 362.807Z" fill="#778CC1" stroke="white" stroke-width="0.944669" stroke-miterlimit="10"/>
<path d="M0.493736 296.356H88.6719L88.6719 229.878H0.493736L0.493736 296.356Z" fill="#778CC1" stroke="white" stroke-width="0.944669" stroke-miterlimit="10"/>
<path d="M0.490402 296.356H65.7266L65.7266 229.878H0.490402L0.490402 296.356Z" fill="#778CC1" stroke="white" stroke-width="0.944669" stroke-miterlimit="10"/>
<path d="M14.3782 283.671H54.6211L54.6211 242.402H14.3782L14.3782 283.671Z" fill="#1C4098" stroke="white" stroke-width="0.944669" stroke-miterlimit="10"/>
<path d="M14.3789 272.74L21.9093 264.885L28.522 268.718L40.1279 257.598L54.5139 269.069L54.6218 269.339V283.671H14.3789V272.74Z" fill="white" stroke="white" stroke-width="0.944669" stroke-miterlimit="10"/>
<path d="M23.875 253.576C23.875 256.221 26.0342 258.381 28.6793 258.381C31.3244 258.381 33.4836 256.221 33.4836 253.576C33.4836 250.931 31.3244 248.772 28.6793 248.772C26.0342 248.772 23.875 250.931 23.875 253.576Z" fill="white" stroke="white" stroke-width="0.944669" stroke-miterlimit="10"/>
<path d="M160.233 109.717L137.129 146.073L168.033 145.803C168.033 145.803 167.25 115.682 166.468 112.308C165.685 108.934 161.016 108.664 160.233 109.717Z" fill="#1C4098" stroke="white" stroke-width="0.944669" stroke-miterlimit="10"/>
<path d="M116.529 247.452L302.395 235.302L295.71 133.038L109.845 145.187L116.529 247.452Z" fill="#0BBBEF" stroke="white" stroke-width="0.944669" stroke-miterlimit="10"/>
<path d="M116.537 247.437L302.402 235.287L301.279 218.104L115.414 230.254L116.537 247.437Z" fill="#1C4098" stroke="white" stroke-width="0.944669" stroke-miterlimit="10"/>
<path d="M120.827 240.746L297.238 229.214L296.958 224.932L120.547 236.464L120.827 240.746Z" fill="white"/>
<path d="M292.544 227.422C292.463 226.316 293.327 225.344 294.434 225.263C295.54 225.182 296.512 226.046 296.593 227.153C296.674 228.259 295.81 229.231 294.704 229.312C293.597 229.393 292.625 228.529 292.544 227.422Z" fill="#1C4098" stroke="white" stroke-width="0.944669" stroke-miterlimit="10"/>
<path d="M271.489 149.231C271.84 154.737 276.618 158.92 282.124 158.57C287.63 158.219 291.813 153.441 291.462 147.935C291.111 142.429 286.334 138.246 280.828 138.597C275.322 138.947 271.138 143.725 271.489 149.231Z" fill="#1C4098" stroke="white" stroke-width="0.944669" stroke-linecap="round" stroke-linejoin="round"/>
<path d="M277.477 143.293L288.3 148.097L278.691 155.061L277.477 143.293Z" fill="white" stroke="white" stroke-width="0.944669" stroke-miterlimit="10"/>
<path d="M223.776 66.4507C223.776 66.4507 227.635 77.22 227.365 79.2712C227.123 81.3225 226.07 82.1053 227.365 83.3738C228.661 84.6424 232.764 87.7463 232.251 89.5277C231.738 91.336 229.174 93.3873 229.174 93.3873C229.174 93.3873 226.34 104.669 223.533 105.965C220.699 107.26 216.353 106.208 216.353 106.208L213.276 114.413L191.738 109.015L193.033 95.9244C193.033 95.9244 186.61 83.6167 188.148 76.1673C189.687 68.7179 203.02 61.5385 211.738 61.5385C220.456 61.5385 223.02 64.3725 223.803 66.4237L223.776 66.4507Z" fill="#1C4098" stroke="white" stroke-width="0.944669" stroke-miterlimit="10"/>
<path d="M218.651 70.5534C218.651 70.5534 227.126 71.0662 227.639 63.104C228.152 55.1417 216.6 50.7963 212.254 50.7963C207.909 50.7963 210.959 55.1687 210.959 55.1687C210.959 55.1687 200.189 52.0918 197.355 54.8988C194.521 57.7328 196.843 60.027 196.843 60.027C196.843 60.027 182.727 65.938 182.727 76.1944C182.727 86.4508 190.176 96.4643 191.445 98.5156C192.74 100.567 195.817 102.375 201.458 102.618C207.099 102.888 210.446 100.054 211.714 96.1944L213.01 92.3347C213.01 92.3347 208.637 87.7193 210.689 83.8597C212.74 80 214.036 82.3212 214.548 83.8597C215.061 85.3982 214.036 86.9366 215.061 86.9366C216.087 86.9366 215.331 85.6411 218.138 82.8341C220.972 80 223.266 78.7315 222.241 75.8975C221.215 73.0635 218.651 70.4994 218.651 70.4994V70.5534Z" fill="white" stroke="white" stroke-width="0.944669" stroke-miterlimit="10"/>
<path d="M219.437 113.171L222.486 119.919L183.539 111.066L188.046 105.425L219.437 113.171Z" fill="#1C4098" stroke="white" stroke-width="0.944669" stroke-miterlimit="10"/>
<path d="M249.68 188.016C249.68 188.016 257.534 199.811 260.611 205.938C263.661 212.065 272.406 224.076 274.43 225.236C276.455 226.397 282.878 225.83 283.472 226.262C284.066 226.694 289.005 232.227 290.328 233.846C291.65 235.439 290.031 236.033 288.87 236.167C287.71 236.302 286.387 235.574 284.93 234.278C283.472 232.956 282.015 232.956 281.421 232.821C280.827 232.686 285.362 238.948 285.2 239.946C285.065 240.972 283.31 242.267 282.285 242.132C281.259 241.997 278.641 240.081 278.641 240.081C278.641 240.081 271.353 241.107 269.167 239.352C266.981 237.598 263.931 227.692 263.337 226.397C262.743 225.074 246.306 210.014 240.044 205.074C233.783 200.108 230.004 195.601 230.004 191.822C230.004 188.043 249.68 188.043 249.68 188.043V188.016Z" fill="#1C4098" stroke="white" stroke-width="0.944669" stroke-miterlimit="10"/>
<path d="M203.772 344.292C203.772 344.292 215.378 347.072 222.126 347.072C228.874 347.072 231.816 346.721 231.816 348.988C231.816 351.228 221.073 355.385 214.839 357.814C208.604 360.243 196.485 363.698 195.459 363.347C194.434 362.996 192.355 350.364 192.355 350.364L203.772 344.319V344.292Z" fill="#1C4098" stroke="white" stroke-width="0.944669" stroke-miterlimit="10"/>
<path d="M231.147 347.638C231.606 347.935 231.849 348.34 231.849 348.961C231.849 351.201 221.107 355.358 214.872 357.787C208.637 360.216 196.519 363.671 195.493 363.32C195.25 363.239 194.953 362.51 194.656 361.457C206.775 359.055 226.154 350.013 231.147 347.638Z" fill="white" stroke="white" stroke-width="0.944669" stroke-miterlimit="10"/>
<path d="M224.562 196.275C224.562 196.275 224.724 209.771 223.537 221.376C222.322 232.982 216.789 283.86 216.276 291.822C215.763 299.784 203.807 344.264 203.807 344.264L192.39 350.31C192.39 350.31 186.668 300.81 186.668 292.497C186.668 284.183 186.668 278.65 186.668 278.65C186.668 278.65 176.627 239.352 173.523 230.013C170.419 220.675 168.854 202.132 169.205 191.768C169.205 191.768 181.674 197.139 197.761 197.814C213.847 198.515 224.589 196.248 224.589 196.248L224.562 196.275Z" fill="#778CC1" stroke="white" stroke-width="0.944669" stroke-miterlimit="10"/>
<path d="M161.281 124.507L165.95 161.889C165.95 161.889 167.759 190.202 168.298 192.794C168.811 195.385 171.159 196.68 181.794 200.324C192.428 203.968 221.254 201.35 223.602 199.028C225.95 196.707 226.463 173.846 226.463 173.846C226.463 173.846 229.567 187.099 231.915 188.907C234.263 190.715 243.089 189.933 247.246 186.046C251.402 182.159 246.463 137.49 246.733 133.333C247.003 129.177 221.281 119.055 221.281 119.055C221.281 119.055 185.545 110.85 183.548 111.066C181.551 111.282 161.821 107.126 160.255 109.717C158.69 112.308 157.664 113.873 157.664 113.873" fill="#1C4098"/>
<path d="M161.281 124.507L165.95 161.889C165.95 161.889 167.759 190.202 168.298 192.794C168.811 195.385 171.159 196.68 181.794 200.324C192.428 203.968 221.254 201.35 223.602 199.028C225.95 196.707 226.463 173.846 226.463 173.846C226.463 173.846 229.567 187.099 231.915 188.907C234.263 190.715 243.089 189.933 247.246 186.046C251.402 182.159 246.463 137.49 246.733 133.333C247.003 129.177 221.281 119.055 221.281 119.055C221.281 119.055 185.545 110.85 183.548 111.066C181.551 111.282 161.821 107.126 160.255 109.717C158.69 112.308 157.664 113.873 157.664 113.873" stroke="white" stroke-width="0.944669" stroke-miterlimit="10"/>
<path d="M226.457 173.846L233.448 139.838" stroke="white" stroke-width="0.944669" stroke-miterlimit="10"/>
<path d="M188.512 127.126L204.652 175.547" stroke="white" stroke-width="0.944669" stroke-miterlimit="10"/>
<path d="M192.91 158.678L204.651 188.016" stroke="white" stroke-width="0.944669" stroke-miterlimit="10"/>
<path d="M249.088 175.196C249.088 175.196 249.682 175.925 249.682 177.085C249.682 178.246 252.003 187.584 251.004 189.474C249.978 191.363 245.768 193.846 238.912 194.143C232.057 194.44 229.439 193.414 228.872 191.66C228.278 189.906 226.686 181.323 226.821 180.297C226.956 179.271 227.846 179.865 227.846 179.865C227.846 179.865 234.405 181.458 241.261 179.136C248.116 176.815 249.115 175.196 249.115 175.196H249.088Z" fill="#1C4098" stroke="white" stroke-width="0.944669" stroke-miterlimit="10"/>
<path d="M223.696 206.154C223.696 206.154 223.345 235.223 222.67 252.362C221.995 269.501 219.215 284.399 218.162 287.854C217.137 291.309 193.574 321.43 188.203 327.854C182.832 334.251 172.44 343.941 172.44 343.941L160.727 337.544C160.727 337.544 175.922 315.897 180.754 305.857C185.612 295.816 194.087 279.19 194.087 279.19L188.716 231.228L179.89 226.37" fill="#778CC1"/>
<path d="M223.696 206.154C223.696 206.154 223.345 235.223 222.67 252.362C221.995 269.501 219.215 284.399 218.162 287.854C217.137 291.309 193.574 321.43 188.203 327.854C182.832 334.251 172.44 343.941 172.44 343.941L160.727 337.544C160.727 337.544 175.922 315.897 180.754 305.857C185.612 295.816 194.087 279.19 194.087 279.19L188.716 231.228L179.89 226.37" stroke="white" stroke-width="0.944669" stroke-miterlimit="10"/>
<path d="M172.256 343.482C172.256 343.482 177.843 351.741 179.948 353.657C182.054 355.574 190.34 360.567 191.473 361.728C192.607 362.888 186.291 363.833 181.676 363.833C177.06 363.833 171.284 362.861 168.423 361.134C165.535 359.406 154.766 351.714 153.444 350.365C152.094 349.015 160.758 337.49 160.758 337.49L172.283 343.455L172.256 343.482Z" fill="#1C4098" stroke="white" stroke-width="0.944669" stroke-miterlimit="10"/>
<path d="M153.443 350.419C152.984 349.96 153.686 348.313 154.82 346.343C159.03 350.769 168.342 360.189 172.282 361.35C176.628 362.645 187.667 361.782 191.176 361.458C191.311 361.566 191.419 361.674 191.5 361.728C192.66 362.888 186.318 363.833 181.702 363.833C177.087 363.833 171.311 362.861 168.45 361.134C165.562 359.406 154.793 351.714 153.47 350.365L153.443 350.419Z" fill="white" stroke="white" stroke-width="0.944669" stroke-miterlimit="10"/>
</g>
</g>
<defs>
<clipPath id="clip0_383_227">
<rect width="467.003" height="423.013" fill="white"/>
</clipPath>
<clipPath id="clip1_383_227">
<rect width="360" height="364.345" fill="white"/>
</clipPath>
</defs>
</svg>
