<svg width="500" height="270" viewBox="0 0 500 270" fill="none" xmlns="http://www.w3.org/2000/svg">
<mask id="mask0_272_1140" style="mask-type:alpha" maskUnits="userSpaceOnUse" x="0" y="0" width="500" height="500">
<circle cx="250" cy="250" r="250" transform="rotate(-90 250 250)" fill="#983795"/>
</mask>
<g mask="url(#mask0_272_1140)">
<circle cx="250" cy="250" r="250" transform="rotate(-90 250 250)" fill="#983795" fill-opacity="0.1"/>
<path d="M164.339 117.41C164.339 117.41 155.949 120.862 154.626 122.185C153.303 123.508 146.688 120.862 141.073 122.185C135.459 123.508 123.52 142.934 123.52 142.934L125.262 155.131C125.262 155.131 135.039 154.002 141.138 158.906C147.237 163.811 152.206 214.666 152.206 214.666C152.206 214.666 144.171 238.286 143.945 242.771C143.719 247.256 141.945 276.588 141.945 276.588C141.945 276.588 151.915 281.783 181.57 278.976C211.192 276.168 229.391 274.458 229.391 274.458L227.164 265.423C227.164 265.423 232.134 261.196 230.649 257.195C229.165 253.226 222.679 240.996 225.164 226.798C227.648 212.6 232.876 194.175 233.618 189.69C234.36 185.205 235.36 176.944 235.36 176.944L245.073 183.462C245.073 183.462 243.815 153.066 241.33 145.87C238.845 138.642 237.361 116.087 225.131 114.667C212.934 113.247 208.707 115.086 206.706 114.667C204.706 114.248 201.027 111.311 195.542 113.021L164.339 117.41Z" fill="white" stroke="#983795" stroke-width="0.8067" stroke-linecap="round" stroke-linejoin="round"/>
<path d="M151.465 86.4969C151.465 86.4969 148.012 85.3676 149.69 90.6918C151.368 96.016 152.078 101.05 156.596 101.179L151.465 86.4647L151.465 86.4969Z" fill="#D9C0DD" stroke="#983795" stroke-width="0.8067" stroke-linecap="round" stroke-linejoin="round"/>
<path d="M193.218 77.8168C193.218 77.8168 194.122 75.8807 194.961 77.8168C195.799 79.7529 195.445 89.9495 195.445 89.9495C195.445 89.9495 192.96 81.3017 193.218 77.8168Z" fill="#D9C0DD" stroke="#983795" stroke-width="0.8067" stroke-linecap="round" stroke-linejoin="round"/>
<path d="M163.536 113.376C163.536 113.376 164.924 118.023 164.182 119.443C164.182 119.443 168.57 126.283 181.832 123.831C195.094 121.379 196.385 118.604 196.482 116.28C196.579 113.957 195.546 113.021 195.546 113.021C195.546 113.021 194.417 113.667 193.868 113.021C193.32 112.376 192.545 106.406 192.545 106.406L163.504 113.408L163.536 113.376Z" fill="#D5B9D9" stroke="#983795" stroke-width="0.8067" stroke-linecap="round" stroke-linejoin="round"/>
<path d="M178.051 266.907C164.273 266.907 146.171 265.552 145.945 265.52C145.751 265.52 145.59 265.326 145.59 265.133C145.59 264.939 145.783 264.778 145.977 264.778C146.3 264.778 179.31 267.262 189.958 265.52C200.704 263.745 224.55 264.745 224.776 264.778C224.969 264.778 225.13 264.971 225.13 265.165C225.13 265.358 224.937 265.52 224.743 265.52C224.517 265.52 200.736 264.519 190.087 266.262C187.28 266.714 182.924 266.907 178.051 266.907Z" fill="#983795"/>
<path d="M178.15 129.607C166.824 129.607 161.274 121.863 161.209 121.766C161.08 121.605 161.145 121.379 161.306 121.25C161.467 121.121 161.693 121.185 161.822 121.347C161.822 121.347 163.662 123.96 167.308 126.058C170.664 127.994 176.343 129.962 184.184 128.155C198.285 124.896 199.027 120.637 199.447 118.346C199.447 118.152 199.511 117.991 199.544 117.829C199.576 117.636 199.802 117.507 199.995 117.539C200.189 117.571 200.318 117.765 200.286 117.991C200.286 118.152 200.221 118.313 200.189 118.475C199.77 120.927 198.963 125.509 184.378 128.865C182.151 129.381 180.054 129.607 178.15 129.607Z" fill="white" stroke="#983795" stroke-width="0.8067" stroke-linecap="round" stroke-linejoin="round"/>
<path d="M187.115 65.3291C184.727 60.2308 180.758 59.6177 178.047 59.6822C175.337 59.7468 171.174 63.8448 169.883 63.8771C168.593 63.9094 163.623 63.4253 160.784 63.3285C157.944 63.2317 155.169 65.2001 153.556 69.9435C151.942 74.6869 154.201 81.5599 154.298 83.9155C154.395 86.2388 154.008 89.4656 154.008 89.4656C154.008 89.4656 153.588 93.8863 156.331 98.1134C159.074 102.308 165.108 106.761 165.947 107.697C166.786 108.633 173.142 115.925 180.177 113.957C187.244 111.989 188.922 108.31 190.729 103.728C192.536 99.146 194.472 95.9192 194.73 92.7569L195.278 89.2075C194.601 84.9481 193.471 81.205 193.245 78.7526C192.406 76.3971 191.309 73.1703 190.954 71.3633C190.341 68.2655 189.47 70.4275 187.082 65.3291H187.115Z" fill="#D5B9D9" stroke="#983795" stroke-width="0.8067" stroke-linecap="round" stroke-linejoin="round"/>
<path d="M195.505 90.4659L195.699 89.272C195.699 89.272 195.699 89.2075 195.699 89.1429C195.376 87.0455 194.924 85.0771 194.537 83.3669C194.118 81.5277 193.763 79.9788 193.666 78.7204C193.666 78.7204 193.666 78.6558 193.666 78.6235C193.504 78.2041 193.343 77.7523 193.182 77.3006C192.666 70.8147 190.31 50.9699 166.109 53.6158C166.109 53.6158 159.3 53.4222 152.944 62.2959C146.587 71.1696 149.201 79.7529 151.459 86.4969C151.459 86.4969 157.622 105.535 160.236 109.472C162.85 113.408 172.046 120.443 180.726 118.668C189.406 116.893 193.956 107.503 195.441 99.3719C195.989 96.3387 195.892 93.3055 195.537 90.4659H195.505ZM193.795 83.5283C194.182 85.2385 194.602 87.1746 194.924 89.2075L194.376 92.7247C194.182 94.8866 193.214 97.0486 192.02 99.7914C191.504 100.985 190.955 102.211 190.407 103.599C188.761 107.729 187.212 111.634 180.113 113.602C174.079 115.28 168.432 109.891 166.303 107.503L166.238 107.439C166.012 107.181 165.431 106.697 164.657 106.051C162.559 104.277 158.655 100.985 156.654 97.9198C154.008 93.8863 154.363 89.5624 154.363 89.5301C154.363 89.4011 154.751 86.2388 154.654 83.9155C154.654 83.2379 154.428 82.3021 154.202 81.0759C153.621 78.0427 152.718 73.4607 153.879 70.1048C155.299 65.9745 157.655 63.7157 160.559 63.7157C160.623 63.7157 160.688 63.7157 160.752 63.7157C162.108 63.748 163.979 63.9093 165.657 64.0384C167.561 64.1675 169.174 64.2966 169.884 64.2966C170.497 64.2966 171.336 63.7157 172.788 62.7154C174.466 61.5538 176.531 60.134 178.048 60.1017C182.178 60.0372 185.018 61.8119 186.76 65.5227C188.051 68.2655 188.922 68.9754 189.568 69.4917C190.084 69.9112 190.375 70.1371 190.633 71.4601C190.988 73.2671 192.085 76.4616 192.924 78.8494C193.053 80.1401 193.408 81.7213 193.827 83.5283H193.795Z" fill="#983795"/>
<path d="M165.79 102.34C165.79 102.34 165.694 102.34 165.661 102.34C165.468 102.276 165.371 102.05 165.468 101.856L166.113 100.243C166.178 100.049 166.403 99.9526 166.597 100.049C166.791 100.114 166.887 100.34 166.791 100.533L166.145 102.147C166.145 102.147 165.952 102.373 165.79 102.373L165.79 102.34Z" fill="#983795"/>
<path d="M167.048 101.534C167.048 101.534 166.951 101.534 166.919 101.534C166.725 101.469 166.629 101.243 166.725 101.05L167.371 99.4364C167.435 99.2428 167.661 99.146 167.855 99.2428C168.048 99.3073 168.145 99.5332 168.048 99.7268L167.403 101.34C167.403 101.34 167.209 101.566 167.048 101.566L167.048 101.534Z" fill="#983795"/>
<path d="M168.689 100.34C168.689 100.34 168.592 100.34 168.56 100.34C168.366 100.275 168.269 100.05 168.366 99.856L169.011 98.2426C169.076 98.049 169.302 97.9522 169.495 98.049C169.689 98.1135 169.786 98.3394 169.689 98.533L169.044 100.146C169.044 100.146 168.85 100.372 168.689 100.372L168.689 100.34Z" fill="#983795"/>
<path d="M169.931 99.5333C169.931 99.5333 169.834 99.5333 169.802 99.5333C169.608 99.4688 169.511 99.2429 169.608 99.0493L170.254 97.4359C170.318 97.2423 170.544 97.1455 170.738 97.2423C170.931 97.3069 171.028 97.5327 170.931 97.7263L170.286 99.3397C170.286 99.3397 170.092 99.5656 169.931 99.5656L169.931 99.5333Z" fill="#983795"/>
<path d="M171.333 99.0492C171.333 99.0492 171.237 99.0492 171.204 99.0492C171.011 98.9847 170.914 98.7588 171.011 98.5652L171.656 96.9518C171.721 96.7582 171.946 96.6614 172.14 96.7582C172.334 96.8227 172.43 97.0486 172.334 97.2422L171.688 98.8556C171.688 98.8556 171.495 99.0815 171.333 99.0815L171.333 99.0492Z" fill="#983795"/>
<path d="M172.7 99.0492C172.7 99.0492 172.604 99.0492 172.571 99.0492C172.378 98.9847 172.281 98.7588 172.378 98.5652L173.023 96.9518C173.088 96.7582 173.314 96.6614 173.507 96.7582C173.701 96.8227 173.798 97.0486 173.701 97.2422L173.055 98.8556C173.055 98.8556 172.862 99.0815 172.7 99.0815L172.7 99.0492Z" fill="#983795"/>
<path d="M174.15 98.7265C174.15 98.7265 174.053 98.7265 174.021 98.7265C173.827 98.6619 173.73 98.4361 173.827 98.2424L174.472 96.629C174.537 96.4354 174.763 96.3386 174.956 96.4354C175.15 96.5 175.247 96.7258 175.15 96.9195L174.505 98.5329C174.505 98.5329 174.311 98.7587 174.15 98.7587L174.15 98.7265Z" fill="#983795"/>
<path d="M190.757 99.856C190.757 99.856 190.499 99.7914 190.434 99.6624L189.66 98.1135C189.563 97.9199 189.66 97.694 189.821 97.5972C190.015 97.5004 190.241 97.5972 190.337 97.7586L191.112 99.3074C191.209 99.501 191.112 99.7269 190.95 99.8237C190.886 99.8237 190.854 99.856 190.789 99.856H190.757Z" fill="#983795"/>
<path d="M189.437 99.1785C189.437 99.1785 189.178 99.1139 189.114 98.9849L188.339 97.436C188.243 97.2424 188.339 97.0165 188.501 96.9197C188.694 96.8229 188.92 96.9197 189.017 97.0811L189.791 98.6299C189.888 98.8235 189.791 99.0494 189.63 99.1462C189.566 99.1462 189.533 99.1785 189.469 99.1785H189.437Z" fill="#983795"/>
<path d="M187.722 98.1135C187.722 98.1135 187.464 98.049 187.399 97.9199L186.625 96.3711C186.528 96.1775 186.625 95.9516 186.786 95.8548C186.98 95.758 187.205 95.8548 187.302 96.0161L188.077 97.565C188.173 97.7586 188.077 97.9845 187.915 98.0813C187.851 98.0813 187.818 98.1135 187.754 98.1135H187.722Z" fill="#983795"/>
<path d="M186.444 97.4038C186.444 97.4038 186.186 97.3393 186.122 97.2102L185.347 95.6614C185.25 95.4677 185.347 95.2419 185.509 95.1451C185.702 95.0483 185.928 95.1451 186.025 95.3064L186.799 96.8553C186.896 97.0489 186.799 97.2748 186.638 97.3716C186.573 97.3716 186.541 97.4038 186.477 97.4038H186.444Z" fill="#983795"/>
<path d="M184.987 97.0164C184.987 97.0164 184.729 96.9518 184.665 96.8228L183.89 95.2739C183.793 95.0803 183.89 94.8544 184.052 94.7576C184.245 94.6608 184.471 94.7576 184.568 94.919L185.342 96.4678C185.439 96.6614 185.342 96.8873 185.181 96.9841C185.116 96.9841 185.084 97.0164 185.02 97.0164H184.987Z" fill="#983795"/>
<path d="M183.628 97.1455C183.628 97.1455 183.37 97.081 183.305 96.9519L182.531 95.4031C182.434 95.2094 182.531 94.9836 182.692 94.8868C182.886 94.79 183.112 94.8868 183.208 95.0481L183.983 96.597C184.08 96.7906 183.983 97.0165 183.822 97.1133C183.757 97.1133 183.725 97.1455 183.66 97.1455H183.628Z" fill="#983795"/>
<path d="M182.179 96.9197C182.179 96.9197 181.921 96.8552 181.856 96.7261L181.082 95.1772C180.985 94.9836 181.082 94.7577 181.243 94.6609C181.437 94.5641 181.662 94.6609 181.759 94.8223L182.534 96.3711C182.63 96.5648 182.534 96.7906 182.372 96.8874C182.308 96.8874 182.276 96.9197 182.211 96.9197H182.179Z" fill="#983795"/>
<path d="M175.63 109.988C175.63 109.988 175.565 109.988 175.533 109.988C175.339 109.924 175.21 109.73 175.275 109.536L175.5 108.794C175.565 108.601 175.759 108.472 175.952 108.536C176.146 108.601 176.275 108.794 176.21 108.988L175.984 109.73C175.984 109.73 175.791 109.988 175.63 109.988Z" fill="#983795"/>
<path d="M176.637 110.601C176.637 110.601 176.605 110.601 176.573 110.601C176.379 110.569 176.218 110.375 176.25 110.182L176.476 108.826C176.508 108.633 176.702 108.471 176.896 108.504C177.089 108.536 177.251 108.73 177.218 108.923L176.992 110.278C176.992 110.472 176.799 110.601 176.637 110.601Z" fill="#983795"/>
<path d="M177.727 110.311C177.727 110.311 177.663 110.311 177.63 110.311C177.437 110.246 177.308 110.053 177.372 109.859L177.695 108.633C177.759 108.439 177.953 108.31 178.147 108.375C178.34 108.439 178.469 108.633 178.405 108.826L178.082 110.053C178.05 110.214 177.889 110.343 177.727 110.343V110.311Z" fill="#983795"/>
<path d="M178.768 110.085C178.768 110.085 178.671 110.085 178.607 110.085C178.413 109.988 178.316 109.795 178.413 109.601L178.994 108.246C179.091 108.052 179.284 107.955 179.478 108.052C179.671 108.149 179.768 108.343 179.671 108.536L179.091 109.891C179.091 109.891 178.897 110.117 178.736 110.117L178.768 110.085Z" fill="#983795"/>
<path d="M179.802 110.311C179.802 110.311 179.738 110.311 179.706 110.311C179.512 110.279 179.383 110.053 179.415 109.859L179.835 107.987C179.867 107.794 180.093 107.665 180.286 107.697C180.48 107.729 180.609 107.955 180.577 108.149L180.157 110.02C180.125 110.182 179.964 110.311 179.802 110.311Z" fill="#983795"/>
<path d="M181.019 109.407C181.019 109.407 180.955 109.407 180.89 109.407C180.697 109.343 180.6 109.117 180.664 108.923L181.052 107.762C181.116 107.568 181.342 107.471 181.536 107.536C181.729 107.6 181.826 107.826 181.762 108.02L181.374 109.181C181.374 109.181 181.181 109.44 181.019 109.44V109.407Z" fill="#983795"/>
<path d="M235.356 177.332C235.162 177.332 235.001 177.17 234.968 176.977C234.968 176.718 233.613 152.356 230.289 142.579C230.225 142.385 230.322 142.159 230.515 142.095C230.709 142.03 230.935 142.127 230.999 142.321C234.355 152.195 235.71 176.654 235.71 176.912C235.71 177.106 235.549 177.299 235.356 177.299V177.332Z" fill="white" stroke="#983795" stroke-width="0.8067" stroke-linecap="round" stroke-linejoin="round"/>
<path d="M306.898 91.5955C306.898 91.5955 306.318 99.5656 310.771 100.953C310.771 100.953 311.416 112.86 290.506 114.57C269.597 116.28 273.404 101.566 273.404 101.566L306.898 91.5955Z" fill="#D5B9D9" stroke="#983795" stroke-width="0.8067" stroke-linecap="round" stroke-linejoin="round"/>
<path d="M232.71 266.52C232.71 266.52 228.644 326.151 230.87 346.093C233.097 366.002 233.42 381.556 230.193 395.398C226.998 409.241 229.289 463.936 231.451 466.517C233.613 469.099 236.679 473.068 237.098 476.198C237.937 482.78 242.067 480.78 245.068 481.296C248.069 481.812 257.653 481.393 259.621 484.103C261.622 486.814 260.88 480.037 262.364 477.746C263.848 475.455 263.622 470.97 263.106 469.099C262.622 467.227 256.878 455.643 259.137 449.673C261.364 443.704 262.364 440.961 262.622 437.541C262.88 434.12 263.977 393.398 264.494 381.943C264.978 370.488 270.237 340.091 270.721 338.865C271.205 337.607 279.821 319.052 279.821 319.052C279.821 319.052 282.564 339.478 282.564 346.932C282.564 354.386 281.951 387.041 281.822 392.398C281.692 397.754 279.079 413.565 279.821 421.277C280.563 428.99 283.79 453.9 283.79 453.9C283.79 453.9 277.691 464.968 277.691 468.453C277.691 471.938 277.949 485.878 277.949 485.878C277.949 485.878 279.563 489.621 285.79 488.75C292.018 487.879 299.375 484.91 302.86 484.845C306.345 484.781 307.604 484.845 307.604 484.845C307.604 484.845 305.99 480.651 306.474 478.779C306.958 476.907 311.089 474.036 311.089 470.551C311.089 467.066 313.089 456.74 312.347 452.481C311.605 448.253 308.12 437.928 309.12 434.669C310.121 431.442 315.735 414.114 316.477 407.886C317.22 401.659 318.607 396.431 316.477 392.817C314.348 389.203 314.477 387.59 314.477 384.847C314.477 382.104 320.575 356.096 320.575 356.096C320.575 356.096 330.288 299.433 330.417 291.592C330.546 283.751 329.288 268.811 329.288 268.811L232.774 266.456L232.71 266.52Z" fill="white" stroke="#983795" stroke-width="0.8067" stroke-linecap="round" stroke-linejoin="round"/>
<path d="M262.59 74.7192C262.59 74.7192 260.363 71.557 259.976 70.1372C259.589 68.7174 259.589 63.8772 259.137 62.4897C258.686 61.1021 258.298 55.9393 258.589 52.4866C258.879 49.0339 259.557 47.9045 259.557 47.9045C259.557 47.9045 264.107 35.7718 272.658 33.7066C281.209 31.6414 291.018 29.7699 294.18 32.0287C297.343 34.2874 297.343 34.7392 297.343 34.7392C297.343 34.7392 305.829 37.2561 307.894 40.4506C309.959 43.6451 307.797 44.9036 307.894 45.8716C307.991 46.8074 307.894 50.4537 308.088 51.1959C308.281 51.938 308.475 54.8421 308.798 55.8747C309.12 56.9073 309.766 59.4242 309.217 59.9728C308.669 60.5213 306.41 65.7487 306.7 67.0717C306.991 68.3947 308.927 73.6867 308.669 77.2361C308.378 80.7856 307.991 89.3689 306.313 93.5637C304.635 97.7586 300.763 110.795 288.211 110.859C275.659 110.892 274.206 103.76 271.206 99.9205C268.205 96.0806 263.268 93.7251 262.622 74.687L262.59 74.7192Z" fill="#983795"/>
<path d="M271.267 102.083L269.589 101.792C269.589 101.792 247.97 107.02 245.066 113.086C242.129 119.152 239.871 140.03 239.871 140.03C239.871 140.03 244.324 152.066 245.066 183.462C245.808 214.827 236.095 210.729 234.611 240.19C233.127 269.65 232.707 266.52 232.707 266.52C232.707 266.52 255.262 276.297 286.143 275.2C317.023 274.103 329.221 268.876 329.221 268.876C329.221 268.876 332.964 256.388 331.705 250.935C330.447 245.481 328.478 241.383 328.962 237.834C329.447 234.284 324.735 212.729 327.22 203.34C329.705 193.95 343.16 154.131 343.16 154.131L350.13 144.87L338.417 104.987C338.417 104.987 327.93 107.665 324.477 107.278C321.025 106.89 314.216 101.082 312.248 100.985C310.279 100.889 310.763 100.985 310.763 100.985C310.763 100.985 311.635 112.247 290.499 114.602C270.686 116.797 273.591 102.76 273.591 102.76L271.267 102.115V102.083Z" fill="#983795" stroke="#983795" stroke-width="0.8067" stroke-linecap="round" stroke-linejoin="round"/>
<path d="M288.304 117.765C284.141 117.765 280.204 117.151 277.3 116.087C271.008 113.763 272.396 106.858 272.396 106.793C272.428 106.6 272.621 106.471 272.847 106.503C273.041 106.535 273.17 106.729 273.138 106.955C273.073 107.213 271.879 113.312 277.558 115.409C283.722 117.668 294.693 117.861 302.405 114.28C310.375 110.569 313.408 105.761 313.505 103.438C313.505 103.244 313.699 103.05 313.892 103.083C314.086 103.083 314.247 103.276 314.247 103.47C314.15 106.471 310.504 111.343 302.727 114.957C298.468 116.958 293.208 117.797 288.304 117.797V117.765Z" fill="white" stroke="#983795" stroke-width="0.8067" stroke-linecap="round" stroke-linejoin="round"/>
<path d="M272.108 50.9699C269.978 49.0338 266.59 49.776 265.364 52.3574C264.202 54.8421 262.46 58.9078 262.589 61.2634C262.782 64.8129 264.815 66.394 263.912 69.0077C262.976 71.6214 263.621 76.6552 263.815 78.2686C264.009 79.882 265.332 82.4635 265.267 84.819C265.203 87.1746 266.235 93.4023 269.591 94.3381C272.947 95.2739 276.98 96.5001 277.981 98.6297C279.013 100.792 283.111 104.406 287.693 103.405C292.275 102.405 294.05 101.179 295.534 97.5326C297.019 93.8863 304.505 91.7566 305.247 88.0136C305.989 84.2705 306.635 74.461 305.989 69.6208C305.344 64.7806 304.021 61.3925 302.149 61.2957C300.278 61.1989 302.537 54.6807 301.859 53.0673C301.181 51.4539 297.664 46.0652 295.696 45.8716C293.727 45.6779 291.598 48.098 290.372 49.2274C289.145 50.3568 285.531 52.8737 282.337 53.0673C279.142 53.2609 274.689 53.7127 272.592 51.4862C272.431 51.2926 272.269 51.1312 272.076 51.0022L272.108 50.9699Z" fill="#D5B9D9"/>
<path d="M259.975 70.137C259.975 70.137 257.619 70.7824 258.49 73.7833C259.329 76.7842 260.394 77.6232 260.943 79.1075C261.491 80.5918 263.169 82.3666 263.169 82.3666L262.588 74.6868C262.588 74.6868 260.136 71.0082 259.975 70.1047V70.137Z" fill="#D9C0DD" stroke="#983795" stroke-width="0.8067" stroke-linecap="round" stroke-linejoin="round"/>
<path d="M308.407 61.3601C308.407 61.3601 310.569 59.4886 311.343 61.3601C312.118 63.2317 312.473 65.1032 311.343 68.0073C310.214 70.9114 309.794 79.0752 308.471 79.4625C308.471 79.4625 309.214 73.8156 307.084 68.5881C307.084 68.5881 306.245 67.007 307.084 64.716C307.923 62.425 308.407 61.3601 308.407 61.3601Z" fill="#D9C0DD" stroke="#983795" stroke-width="0.8067" stroke-linecap="round" stroke-linejoin="round"/>
<path d="M251.396 107.019C251.396 107.019 250.138 105.535 248.911 106.277C247.653 107.019 245.91 108.149 246.782 109.762C247.653 111.375 248.589 110.827 249.202 110.633C249.815 110.44 250.073 109.084 250.073 109.084L252.074 109.375L251.364 107.019H251.396Z" fill="white" stroke="#983795" stroke-width="0.8067" stroke-linecap="round" stroke-linejoin="round"/>
<path d="M256.34 104.47C256.34 104.47 253.759 103.889 252.629 104.986C251.5 106.083 251.565 107.084 252.113 108.858C252.662 110.633 253.856 114.312 255.856 114.57C257.857 114.828 258.147 112.698 257.825 111.956C257.502 111.214 255.114 106.955 256.34 104.502L256.34 104.47Z" fill="white" stroke="#983795" stroke-width="0.8067" stroke-linecap="round" stroke-linejoin="round"/>
<path d="M257.948 112.473C257.948 112.473 258.819 113.505 258.916 115.215C259.012 116.926 261.562 116.99 262.013 116.571C262.465 116.151 263.401 114.602 262.949 113.118C262.497 111.634 260.787 105.632 260.884 104.89C260.981 104.148 261.723 102.179 261.723 102.179C261.723 102.179 260.884 101.114 259.238 101.792C257.593 102.47 253.688 104.47 257.948 112.473Z" fill="white" stroke="#983795" stroke-width="0.8067" stroke-linecap="round" stroke-linejoin="round"/>
<path d="M261.687 102.179C261.687 102.179 263.171 99.0168 264.72 99.275C266.269 99.5331 269.56 101.792 269.56 101.792C269.56 101.792 265.591 102.179 266.236 104.309C266.882 106.438 268.527 113.699 266.333 114.764C264.139 115.828 263.913 114.893 263.526 112.666C263.139 110.44 261.267 107.31 261.267 107.245C261.267 107.181 260.202 105.019 261.654 102.179H261.687Z" fill="white" stroke="#983795" stroke-width="0.8067" stroke-linecap="round" stroke-linejoin="round"/>
<path d="M350.425 147.387C350.425 147.387 345.521 149.71 341.681 158.551C337.809 167.393 326.483 206.114 326.483 206.114C326.483 206.114 325.224 217.441 332.226 233.639C339.196 249.838 340.067 259.163 339.938 263.777C339.809 268.392 334.582 286.43 334.453 292.173C334.324 297.917 371.432 303.241 386.243 302.273C401.054 301.273 435.548 297.175 437.033 295.174C438.517 293.174 436.775 285.849 430.934 276.233C425.094 266.649 413.8 236.737 412.799 232.381C411.799 228.024 406.894 209.729 406.894 209.729C406.894 209.729 412.444 215.472 416.93 212.471C421.415 209.47 421.028 207.244 424.771 208.18C428.514 209.115 432.193 206.792 432.547 204.372C432.902 201.952 431.128 196.789 431.128 196.789C431.128 196.789 423.835 168.78 418.414 162.972C412.993 157.164 385.533 144.87 384.049 143.74C382.564 142.611 378.692 142.417 378.692 142.417L350.393 147.419L350.425 147.387Z" fill="white" stroke="#983795" stroke-width="0.8067" stroke-linecap="round" stroke-linejoin="round"/>
<path d="M349.258 141.805C349.258 141.805 352.259 157.067 353.517 157.68C354.776 158.293 357.26 155.325 359.616 156.196C361.971 157.067 364.456 159.423 366.231 158.681C367.973 157.939 370.103 153.937 372.2 153.84C374.33 153.711 378.299 156.067 380.3 155.454C382.3 154.841 382.171 151.098 385.14 150.84C388.109 150.581 391.238 149.839 388.883 148.355C386.527 146.871 381.3 145.257 379.557 143.741C377.815 142.256 377.073 133.77 377.073 133.77L349.29 141.805H349.258Z" fill="white" stroke="#983795" stroke-width="0.8067" stroke-linecap="round" stroke-linejoin="round"/>
<path d="M344.324 135.706C345.421 136.964 346.421 138.287 347.357 139.642C349.003 142.062 352.778 145.741 360.49 145.483C371.816 145.096 374.107 140.643 375.011 139.029C375.914 137.448 382.788 125.186 382.271 115.215C381.787 105.245 372.171 91.5631 354.876 92.1761C338.419 92.757 332.643 122.282 344.324 135.673V135.706Z" fill="white" stroke="#983795" stroke-width="0.8067" stroke-linecap="round" stroke-linejoin="round"/>
<path d="M343.557 87.9491C343.557 87.9491 337.458 93.0475 335.974 98.404C334.49 103.76 331.005 121.185 331.489 127.155C331.973 133.124 335.458 137.61 326.52 137.61C326.52 137.61 328.746 141.482 333.489 137.61C333.489 137.61 334.103 143.45 337.103 142.095C340.104 140.74 343.073 139.094 344.461 139.094C345.848 139.094 346.332 137.61 346.332 137.61C346.332 137.61 342.589 130.511 342.589 127.026C342.589 127.026 339.717 128.026 339.491 125.412C339.265 122.799 338.136 117.216 341.169 114.086C344.202 110.956 343.718 103.373 345.332 102.502C346.945 101.631 347.203 99.6301 348.429 98.1458C349.656 96.6615 352.786 92.9184 354.528 92.9184C356.271 92.9184 363.111 97.6618 366.241 97.5327C369.339 97.4037 372.953 97.3391 374.599 100.921C376.212 104.503 378.955 106.987 378.955 106.987C378.955 106.987 381.569 112.473 380.697 122.444C379.826 132.414 374.954 138.771 374.47 140.126C373.986 141.482 374.341 145.096 377.697 145.483C377.697 145.483 374.954 140.74 379.826 136.771C384.666 132.802 383.311 131.93 383.311 131.93C383.311 131.93 389.281 136.158 392.637 131.672C392.637 131.672 388.894 134.48 384.408 130.801C384.408 130.801 390.378 129.801 391.378 128.187L392.378 126.574C392.378 126.574 395.993 128.929 398.477 124.218C398.477 124.218 395.25 126.348 395.863 123.218C396.477 120.088 395.863 117.087 395.379 114.732C395.379 114.732 397.606 114.732 397.606 117.991C397.606 117.991 397.477 110.892 394.863 108.665L392.249 106.439C392.249 106.439 395.25 106.826 395.476 105.697C395.476 105.697 392.249 104.503 391.862 100.985C391.475 97.4682 387.635 81.1728 367.597 76.9457C347.558 72.7186 341.072 85.045 343.557 88.0137V87.9491Z" fill="#CFAED2"/>
<path d="M411.901 158.229C411.901 158.229 419.645 159.326 421.42 160.262C423.194 161.197 433.553 162.23 435.973 166.876C438.393 171.555 437.554 188.173 437.554 188.173C437.554 188.173 438.328 190.045 435.069 192.852C431.81 195.66 430.035 199.661 427.68 199.661C425.324 199.661 421.129 197.499 420.871 197.144C420.613 196.789 419.484 194.337 417.773 194.337C416.063 194.337 413.837 193.594 413.288 193.11C412.74 192.626 412.449 191.981 412.449 191.981C412.449 191.981 408.803 191.529 408.513 190.852C408.222 190.174 407.867 188.786 409.997 187.754C412.127 186.721 416.063 185.14 416.709 184.108C417.354 183.075 420.258 178.88 420.258 178.88L416.063 177.944C416.063 177.944 414.192 184.495 411.384 185.043C408.577 185.592 406.802 186.528 407.286 181.203C407.738 175.879 412.223 169.071 412.901 168.393C413.579 167.715 416.999 167.07 416.999 167.07C416.999 167.07 417.935 166.005 419.161 165.844C420.387 165.683 421.129 165.844 421.129 165.844C421.129 165.844 415.547 160.229 411.868 158.1L411.901 158.229Z" fill="white" stroke="#983795" stroke-width="0.8067" stroke-linecap="round" stroke-linejoin="round"/>
<path d="M406.919 209.728C406.919 209.728 416.567 245.707 417.116 251.322C417.664 256.937 420.472 283.687 420.117 287.785C419.729 291.851 418.245 313.728 418.245 313.728C418.245 313.728 415.728 316.987 415.535 319.149C415.341 321.311 414.502 326.797 414.212 327.733C413.921 328.668 413.921 330.056 414.018 331.185C414.115 332.315 414.663 335.864 414.308 336.8C413.953 337.736 415.147 339.22 415.341 340.156C415.535 341.091 415.244 345.383 417.116 344.996H417.761C417.761 344.996 417.761 349.481 415.986 351.708C414.212 353.934 416.825 354.031 418.794 352.74C420.762 351.449 421.956 350.578 421.956 350.578L424.473 350.481C424.473 350.481 428.119 347.965 429.055 347.384L429.991 346.835C429.991 346.835 433.443 345.254 434.185 344.318C434.928 343.382 434.928 341.995 434.928 341.995C434.928 341.995 437.929 340.123 438.284 338.897C438.638 337.671 438.284 335.057 438.284 335.057C438.284 335.057 435.121 318.988 435.186 315.922C435.25 312.857 435.379 307.049 435.379 305.661C435.379 304.274 435.283 300.982 435.283 300.982C435.283 300.982 437.961 267.746 437.509 257.356C437.057 246.998 437.445 247.192 436.799 244.836C436.154 242.48 434.831 234.188 434.831 234.188L432.766 205.243C432.766 205.243 432.217 202.791 430.862 205.921C429.507 209.051 425.312 206.728 422.666 207.373C420.504 207.921 418.729 210.632 415.664 213.02C412.598 215.408 406.887 209.664 406.887 209.664L406.919 209.728Z" fill="white" stroke="#983795" stroke-width="0.8067" stroke-linecap="round" stroke-linejoin="round"/>
<path d="M412.473 192.401C412.312 192.401 412.151 192.304 412.118 192.11C412.054 191.916 412.183 191.691 412.376 191.658C412.441 191.658 420.121 189.561 421.573 188.754C422.734 188.077 426.929 182.656 428.446 180.623C428.575 180.461 428.801 180.429 428.962 180.558C429.124 180.687 429.156 180.913 429.027 181.074C428.446 181.849 423.444 188.496 421.928 189.4C420.411 190.271 412.893 192.304 412.57 192.401C412.538 192.401 412.506 192.401 412.473 192.401Z" fill="#983795"/>
<path d="M419.829 195.95C419.829 195.95 419.571 195.886 419.506 195.789C419.409 195.627 419.441 195.369 419.635 195.273C420.797 194.53 421.732 194.079 422.442 193.691C423.314 193.24 423.927 192.917 424.508 192.433C425.605 191.465 434.382 183.075 434.446 182.978C434.607 182.849 434.833 182.849 434.962 182.978C435.091 183.14 435.091 183.366 434.962 183.495C434.607 183.85 426.089 191.981 424.992 192.981C424.346 193.562 423.669 193.917 422.765 194.369C422.055 194.724 421.152 195.208 420.022 195.918C419.958 195.95 419.893 195.982 419.829 195.982V195.95Z" fill="#983795"/>
<path d="M423.092 198.757C423.092 198.757 422.834 198.693 422.769 198.564C422.672 198.37 422.769 198.144 422.93 198.047C426.674 196.208 436.322 186.27 436.418 186.173C436.548 186.011 436.806 186.011 436.935 186.173C437.096 186.302 437.096 186.56 436.935 186.689C436.548 187.109 427.093 196.789 423.221 198.693C423.156 198.693 423.124 198.725 423.06 198.725L423.092 198.757Z" fill="white" stroke="#983795" stroke-width="0.8067" stroke-linecap="round" stroke-linejoin="round"/>
<path d="M416.129 178.396C416.129 178.396 416 178.396 415.968 178.364C415.774 178.267 415.709 178.041 415.806 177.848L418.839 171.846C418.936 171.652 419.162 171.588 419.356 171.685C419.549 171.781 419.614 172.007 419.517 172.201L416.484 178.203C416.484 178.203 416.29 178.396 416.161 178.396H416.129Z" fill="#983795"/>
<path d="M341.678 130.607L341.678 127.026H340.936L340.936 130.607C340.064 130.769 339.387 131.543 339.387 132.479C339.387 133.511 340.226 134.383 341.291 134.383C342.355 134.383 343.194 133.544 343.194 132.479C343.194 131.575 342.549 130.801 341.678 130.607Z" fill="white" stroke="#983795" stroke-width="0.8067" stroke-linecap="round" stroke-linejoin="round"/>
<path d="M263.075 183.433C263.075 183.433 259.816 187.467 258.59 188.112C257.363 188.757 235.712 193.888 229 196.373C222.288 198.857 216.577 202.407 216.577 202.407C216.577 202.407 207.058 234.449 219.061 243.581C231.065 252.745 239.874 288.369 239.874 288.369C239.874 288.369 243.811 307.084 227.935 328.93C227.935 328.93 228.709 342.644 242.714 348.774C256.718 354.905 266.624 355.744 266.624 355.744L271.464 342.45L271.464 356.551C271.464 356.551 286.953 356.841 294.052 354.647C301.151 352.453 314.607 345.225 317.769 340.256C320.931 335.286 321.319 334.351 321.319 334.351C321.319 334.351 319.996 305.019 317.963 302.212C315.898 299.404 311.057 282.399 312.929 262.038C314.8 241.677 325.804 241.677 327.127 231.222C328.45 220.767 317.608 196.34 317.608 196.34L291.567 189.145L263.043 183.401L263.075 183.433Z" fill="white" stroke="#983795" stroke-width="0.8067" stroke-linecap="round" stroke-linejoin="round"/>
<path d="M304.28 160.813C304.28 160.813 305.958 159.168 306.797 160.2C307.636 161.233 303.893 175.431 301.021 175.431C298.149 175.431 299.633 172.333 299.633 172.333L304.312 160.813H304.28Z" fill="white" stroke="#983795" stroke-width="0.8067" stroke-linecap="round" stroke-linejoin="round"/>
<path d="M263.778 175.979L262.52 189.177C262.52 189.177 264.101 197.405 277.266 199.987C288.302 202.149 291.98 191.565 291.561 189.177L263.746 175.979H263.778Z" fill="white" stroke="#983795" stroke-width="0.8067" stroke-linecap="round" stroke-linejoin="round"/>
<path d="M271.459 342.837C271.265 342.837 271.104 342.676 271.072 342.482C271.072 342.256 269.168 319.572 269.716 310.537C269.813 308.988 269.975 306.407 270.136 303.244C271.039 287.433 272.75 258.005 273.395 255.197C274.169 251.777 275.492 243.355 275.137 239.515C274.879 236.901 274.428 230.351 275.202 225.607L275.363 224.575C275.976 220.896 276.493 217.992 275.234 215.508C273.75 212.539 276.557 203.891 276.686 203.504C276.751 203.31 276.977 203.213 277.17 203.278C277.364 203.343 277.461 203.568 277.396 203.762C277.396 203.859 274.557 212.474 275.912 215.185C277.267 217.928 276.751 221.058 276.106 224.736L275.944 225.769C275.17 230.448 275.654 236.934 275.88 239.483C276.267 243.484 274.912 251.841 274.137 255.423C273.524 258.166 271.749 288.691 270.91 303.341C270.717 306.536 270.588 309.085 270.491 310.634C269.942 319.604 271.846 342.224 271.846 342.45C271.846 342.644 271.717 342.837 271.491 342.837H271.459Z" fill="#983795"/>
<path d="M279.491 204.472C278.62 204.472 277.91 203.762 277.91 202.891C277.91 202.02 278.62 201.31 279.491 201.31C280.363 201.31 281.072 202.02 281.072 202.891C281.072 203.762 280.363 204.472 279.491 204.472ZM279.491 202.052C279.04 202.052 278.652 202.439 278.652 202.891C278.652 203.343 279.04 203.73 279.491 203.73C279.943 203.73 280.33 203.343 280.33 202.891C280.33 202.439 279.943 202.052 279.491 202.052Z" fill="white" stroke="#983795" stroke-width="0.8067" stroke-linecap="round" stroke-linejoin="round"/>
<path d="M277.816 234.965C276.944 234.965 276.234 234.255 276.234 233.384C276.234 232.513 276.944 231.803 277.816 231.803C278.687 231.803 279.397 232.513 279.397 233.384C279.397 234.255 278.687 234.965 277.816 234.965ZM277.816 232.545C277.364 232.545 276.977 232.932 276.977 233.384C276.977 233.836 277.364 234.223 277.816 234.223C278.267 234.223 278.654 233.836 278.654 233.384C278.654 232.932 278.267 232.545 277.816 232.545Z" fill="white" stroke="#983795" stroke-width="0.8067" stroke-linecap="round" stroke-linejoin="round"/>
<path d="M277.816 255.584C276.944 255.584 276.234 254.875 276.234 254.003C276.234 253.132 276.944 252.422 277.816 252.422C278.687 252.422 279.397 253.132 279.397 254.003C279.397 254.875 278.687 255.584 277.816 255.584ZM277.816 253.164C277.364 253.164 276.977 253.552 276.977 254.003C276.977 254.455 277.364 254.842 277.816 254.842C278.267 254.842 278.654 254.455 278.654 254.003C278.654 253.552 278.267 253.164 277.816 253.164Z" fill="white" stroke="#983795" stroke-width="0.8067" stroke-linecap="round" stroke-linejoin="round"/>
<path d="M278.308 214.927C277.436 214.927 276.727 214.217 276.727 213.346C276.727 212.474 277.436 211.764 278.308 211.764C279.179 211.764 279.889 212.474 279.889 213.346C279.889 214.217 279.179 214.927 278.308 214.927ZM278.308 212.507C277.856 212.507 277.469 212.894 277.469 213.346C277.469 213.797 277.856 214.185 278.308 214.185C278.759 214.185 279.147 213.797 279.147 213.346C279.147 212.894 278.759 212.507 278.308 212.507Z" fill="white" stroke="#983795" stroke-width="0.8067" stroke-linecap="round" stroke-linejoin="round"/>
<path d="M300.796 264.006C300.796 264.006 300.699 264.006 300.634 263.974C299.828 263.587 292.793 260.296 291.922 259.134C290.986 257.94 291.374 254.649 292.342 249.389C293.181 244.742 292.342 228.705 292.342 228.544C292.342 228.447 292.374 228.318 292.438 228.253C292.503 228.189 292.632 228.124 292.729 228.157L316.543 229.835C316.543 229.835 316.736 229.899 316.801 229.964C316.865 230.028 316.898 230.157 316.865 230.254C316.414 233.223 312.445 259.327 311.573 260.844C310.67 262.425 302.474 263.748 300.86 264.006C300.86 264.006 300.828 264.006 300.796 264.006ZM293.084 228.931C293.213 231.577 293.858 245.162 293.084 249.518C292.567 252.325 291.599 257.52 292.503 258.682C293.084 259.457 297.795 261.812 300.86 263.264C304.765 262.651 310.412 261.393 310.928 260.489C311.541 259.457 314.316 242.193 316.059 230.577L293.084 228.963V228.931Z" fill="#983795"/>
<path d="M274.272 204.472C274.272 204.472 274.176 204.472 274.143 204.472C257.977 198.922 258.784 191.984 258.816 191.694C258.816 191.5 259.042 191.339 259.235 191.371C259.429 191.371 259.59 191.597 259.558 191.791C259.558 191.887 258.913 198.438 274.369 203.762C274.563 203.827 274.66 204.052 274.595 204.246C274.531 204.407 274.401 204.504 274.24 204.504L274.272 204.472Z" fill="#983795"/>
<path d="M283.847 204.472C283.654 204.472 283.492 204.343 283.492 204.149C283.492 203.956 283.621 203.762 283.815 203.73C290.043 202.955 293.334 200.245 295.012 198.083C296.819 195.76 297.174 193.565 297.174 193.565C297.174 193.372 297.4 193.21 297.593 193.243C297.787 193.243 297.948 193.469 297.916 193.662C297.916 193.759 297.529 196.018 295.625 198.502C293.85 200.761 290.398 203.665 283.912 204.472C283.912 204.472 283.912 204.472 283.879 204.472H283.847Z" fill="#983795"/>
<path d="M228.225 231.125C228.063 231.125 227.902 231.028 227.87 230.867C223.288 214.991 230.193 199.47 230.258 199.309C230.354 199.115 230.548 199.051 230.742 199.115C230.935 199.212 231 199.406 230.935 199.599C230.871 199.761 224.062 215.023 228.58 230.641C228.644 230.835 228.515 231.061 228.322 231.093C228.289 231.093 228.257 231.093 228.225 231.093V231.125Z" fill="#983795"/>
<path d="M263.395 149.713L263.717 150.196C263.717 150.196 263.588 150.003 263.395 149.713Z" fill="white" stroke="#983795" stroke-width="0.8067" stroke-linecap="round" stroke-linejoin="round"/>
<path d="M304.28 152.553C303.893 150.746 304.603 145.518 304.28 142.776C303.958 140.033 298.73 139.097 297.504 138.677C296.246 138.226 280.499 133.321 278.337 132.708C276.175 132.095 273.723 138.323 273.529 139.871C273.335 141.42 266.721 154.489 266.721 154.489L263.72 150.197L263.397 149.713C262.816 148.939 261.493 147.583 260.009 148.132C257.944 148.874 257.589 154.941 257.847 157.845C258.137 160.749 258.299 164.75 262.138 164.847C262.138 164.847 264.01 167.009 263.72 174.108C263.429 181.207 268.495 193.436 279.789 194.469C291.083 195.501 298.182 179.626 298.569 178.335C298.827 177.431 301.538 169.397 303.506 163.233C303.958 159.361 304.539 153.747 304.28 152.585V152.553Z" fill="white" stroke="#983795" stroke-width="0.8067" stroke-linecap="round" stroke-linejoin="round"/>
<path d="M292.671 129.191C275.569 122.834 262.888 141.227 263.727 150.197L266.728 154.489C266.728 154.489 273.343 141.42 273.536 139.871C273.73 138.322 276.182 132.095 278.344 132.708C280.506 133.321 296.253 138.258 297.511 138.677C298.77 139.129 303.997 140.033 304.288 142.775C304.61 145.518 303.9 150.746 304.288 152.553C304.514 153.714 303.965 159.329 303.513 163.201C304.449 160.297 305.223 157.845 305.482 156.715C306.321 153.263 309.773 135.515 292.671 129.158V129.191Z" fill="#CFAED2"/>
<path d="M374.583 231.19L379.488 232.158C379.488 232.158 374.874 243.742 378.746 254.003C382.618 264.265 385.361 265.62 385.361 265.62C385.361 265.62 387.587 297.113 387.845 304.212C388.104 311.311 388.104 316.926 389.975 325.993C391.847 335.093 391.459 346.29 391.459 346.29C391.459 346.29 369.679 357.584 347.123 356.551C324.6 355.518 319.986 349.162 319.986 349.162C319.986 349.162 323.084 327.381 323.342 321.637C323.6 315.893 321.986 296.726 319.986 292.112C317.985 287.497 312.758 264.458 312.758 264.458C312.758 264.458 313.242 255.165 314.791 244.71C314.791 244.71 316.501 233.449 323.471 233.32C330.441 233.19 374.616 231.125 374.616 231.125L374.583 231.19Z" fill="#DAC2DE" stroke="#983795" stroke-width="0.8067" stroke-linecap="round" stroke-linejoin="round"/>
<path d="M326.773 220.186C326.773 220.186 330.323 237.837 330.194 239.354C330.065 240.838 330.097 242.451 331.452 243.452C333.84 245.226 334.453 242.322 336.938 249.808C339.422 257.295 343.166 270.008 343.166 270.008C343.166 270.008 345.392 269.492 347.522 263.651C349.651 257.811 355.234 219.541 355.234 219.541L326.806 220.219L326.773 220.186Z" fill="white" stroke="#983795" stroke-width="0.8067" stroke-linecap="round" stroke-linejoin="round"/>
<path d="M331.446 172.978C331.446 172.978 327.51 173.107 322.282 177.948C318.539 181.4 315.958 185.918 314.732 190.855C314.28 192.726 313.796 194.985 313.376 197.631C312.021 206.408 299.243 205.279 296.371 198.825C296.371 198.825 300.792 210.667 312.795 202.826C312.795 202.826 310.504 213.668 301.018 212.087C301.018 212.087 303.244 214.927 307.794 213.668C307.794 213.668 299.953 224.123 314.828 235.223C314.828 235.223 304.115 222.574 311.731 213.313C311.731 213.313 309.44 222.445 313.893 229.996C318.346 237.547 322.831 236.611 322.831 236.611C322.831 236.611 316.184 233.545 315.312 226.027C315.312 226.027 320.766 233.804 329.865 236.611L327.252 222.284C327.252 222.284 317.313 182.626 335.803 177.56L331.446 172.978Z" fill="#983795"/>
<path d="M331.453 172.978C331.453 172.978 335.422 169.3 338.552 169.655C341.682 170.01 355.977 171.752 362.205 190.532C368.432 209.344 370.852 206.311 374.047 227.156C377.241 248.001 375.434 252.003 376.37 258.166C377.306 264.329 375.628 271.88 365.173 273.203C365.173 273.203 361.817 275.526 369.368 279.076C369.368 279.076 361.979 284.109 355.267 274.3C355.267 274.3 348.91 279.237 343.037 275.978C343.037 275.978 347.878 274.848 348.555 271.202C348.555 271.202 342.586 274.752 338.1 273.719C333.615 272.687 333.421 271.009 333.421 271.009C333.421 271.009 344.812 272.235 345.006 265.039C345.199 257.843 346.135 244.678 347.813 240.58C349.491 236.482 355.299 219.283 355.202 216.024C355.106 212.765 349.781 180.142 335.39 177.528L331.453 172.946L331.453 172.978Z" fill="#983795"/>
<path d="M335.797 177.56C335.797 177.56 330.827 178.819 329.182 181.626C327.568 184.434 321.954 196.534 321.47 197.889C320.986 199.245 319.534 223.93 339.023 227.769C353.06 230.512 356.416 218.25 357.223 211.635C357.481 209.377 357.287 207.086 356.642 204.891C355.416 200.729 353.221 192.985 353.221 190.919C353.221 188.048 351.931 176.851 335.797 177.56Z" fill="white" stroke="#983795" stroke-width="0.8067" stroke-linecap="round" stroke-linejoin="round"/>
<path d="M322.41 216.508H320.442C320.248 216.508 320.055 216.346 320.055 216.121L320.055 212.958C320.055 212.765 320.216 212.571 320.442 212.571C320.668 212.571 320.829 212.732 320.829 212.958L320.829 215.766H322.055L322.055 214.314C322.055 214.12 322.217 213.926 322.443 213.926C322.668 213.926 322.83 214.088 322.83 214.314L322.83 216.121C322.83 216.314 322.668 216.508 322.443 216.508H322.41Z" fill="white" stroke="#983795" stroke-width="0.8067" stroke-linecap="round" stroke-linejoin="round"/>
<path d="M379.49 232.158C379.49 232.158 391.01 232.287 394.366 244.775C397.722 257.23 400.077 291.692 400.077 291.692C400.077 291.692 389.622 281.044 387.267 274.687C384.943 268.33 382.362 261.909 382.362 261.909C382.362 261.909 372.068 245 379.49 232.158Z" fill="white" stroke="#983795" stroke-width="0.8067" stroke-linecap="round" stroke-linejoin="round"/>
<path d="M319.285 200.374C319.285 200.374 318.22 199.632 318.22 201.116C318.22 202.6 318.349 205.698 317.897 206.827L317.445 207.957C317.445 207.957 320.059 216.734 323.157 213.313C323.157 213.313 321.737 204.569 319.252 200.342L319.285 200.374Z" fill="white" stroke="#983795" stroke-width="0.8067" stroke-linecap="round" stroke-linejoin="round"/>
<path d="M334.932 177.431C334.932 177.431 334.674 177.367 334.61 177.27C334.545 177.141 332.641 174.172 334.352 171.881C334.481 171.72 334.707 171.688 334.868 171.817C335.029 171.946 335.062 172.172 334.932 172.333C333.545 174.205 335.223 176.851 335.223 176.883C335.32 177.044 335.287 177.302 335.094 177.399C335.029 177.431 334.965 177.464 334.9 177.464L334.932 177.431Z" fill="#983795"/>
<path d="M336.094 177.238C336.094 177.238 335.804 177.141 335.74 177.012C335.707 176.915 334.739 174.398 335.772 172.785C335.869 172.623 336.127 172.559 336.288 172.688C336.449 172.785 336.514 173.043 336.385 173.204C335.578 174.463 336.385 176.721 336.417 176.754C336.482 176.947 336.417 177.173 336.191 177.238C336.159 177.238 336.094 177.238 336.062 177.238H336.094Z" fill="#983795"/>
<path d="M337.349 176.431C337.349 176.431 337.155 176.399 337.091 176.334C336.704 175.979 336.187 174.947 337.059 173.785C337.188 173.624 337.414 173.591 337.575 173.688C337.736 173.817 337.768 174.043 337.672 174.205C336.994 175.108 337.575 175.721 337.639 175.786C337.801 175.915 337.801 176.173 337.639 176.302C337.575 176.367 337.478 176.431 337.381 176.431H337.349Z" fill="#983795"/>
<path d="M339.292 176.431C339.099 176.431 338.938 176.237 338.938 176.044C338.938 175.979 339.067 174.205 340.39 173.269C341.293 172.623 342.519 172.494 344.036 172.914C344.229 172.978 344.359 173.172 344.294 173.366C344.229 173.559 344.036 173.688 343.842 173.624C342.584 173.269 341.551 173.366 340.841 173.85C339.809 174.592 339.68 176.076 339.68 176.076C339.68 176.27 339.518 176.431 339.292 176.431Z" fill="#983795"/>
<path d="M341.582 176.431C341.582 176.431 341.485 176.431 341.453 176.431C341.259 176.366 341.162 176.141 341.227 175.947C341.227 175.882 341.872 174.269 344.776 175.043C344.97 175.108 345.099 175.302 345.035 175.495C344.97 175.689 344.776 175.818 344.583 175.753C342.389 175.172 341.937 176.141 341.937 176.173C341.872 176.302 341.743 176.399 341.582 176.399V176.431Z" fill="#983795"/>
<path d="M330.255 177.657C330.255 177.657 330.029 177.593 329.964 177.496C329.835 177.334 329.867 177.109 330.061 176.979C331.545 175.915 333.191 176.237 333.288 176.27C333.481 176.302 333.61 176.495 333.578 176.721C333.546 176.915 333.352 177.044 333.126 177.012C333.126 177.012 331.707 176.721 330.513 177.593C330.448 177.625 330.384 177.657 330.287 177.657H330.255Z" fill="#983795"/>
<path d="M332.281 175.786C332.281 175.786 332.023 175.721 331.958 175.592C331.958 175.56 331.442 174.818 329.958 174.947C329.732 174.947 329.57 174.818 329.57 174.592C329.57 174.398 329.699 174.205 329.925 174.205C331.926 174.043 332.571 175.173 332.603 175.205C332.7 175.398 332.636 175.624 332.474 175.721C332.41 175.753 332.345 175.786 332.281 175.786Z" fill="#983795"/>
<path d="M350.584 180.077C350.584 180.077 350.358 180.045 350.294 179.948C348.777 178.077 345.744 178.754 345.712 178.754C345.518 178.819 345.324 178.69 345.26 178.464C345.228 178.27 345.325 178.077 345.55 178.012C345.679 177.98 349.068 177.173 350.875 179.464C351.004 179.625 350.971 179.851 350.81 179.98C350.746 180.045 350.649 180.077 350.584 180.077Z" fill="#983795"/>
<path d="M155.538 220.444C155.538 220.444 148.471 223.542 148.73 232.739C148.988 241.967 150.343 289.53 150.343 289.53L155.538 294.015C155.538 294.015 162.605 234.416 155.538 220.444Z" fill="white" stroke="#983795" stroke-width="0.8067" stroke-linecap="round" stroke-linejoin="round"/>
<path d="M228.336 287.272L235.403 315.183C235.403 315.183 240.759 309.085 240.501 295.5C240.243 281.915 233.951 270.137 233.951 270.137L228.336 287.239V287.272Z" fill="white" stroke="#983795" stroke-width="0.8067" stroke-linecap="round" stroke-linejoin="round"/>
<path d="M177.022 200.696C177.022 200.696 176.635 205.762 178.636 207.473C180.636 209.183 183.282 209.635 183.282 209.635L177.022 200.696Z" fill="#D9C0DD" stroke="#983795" stroke-width="0.8067" stroke-linecap="round" stroke-linejoin="round"/>
<path d="M216.81 196.373C216.81 196.373 218.585 192.791 218.714 192.049C218.843 191.306 219.327 188.693 218.714 187.692C218.101 186.692 217.1 182.755 216.358 182.046C215.616 181.336 215.035 189.209 215.035 189.209L216.842 196.373H216.81Z" fill="#D9C0DD" stroke="#983795" stroke-width="0.8067" stroke-linecap="round" stroke-linejoin="round"/>
<path d="M177 203.601C177 203.601 173.225 201.277 173.192 200.697C173.16 200.116 173.902 203.117 173.902 203.117C173.902 203.117 171.289 199.89 170.417 197.502C169.546 195.146 166.19 187.531 166.19 187.531C166.19 187.531 164.319 186.047 164.448 180.561C164.577 175.076 169.804 164.75 176.29 161.588C176.29 161.588 179.775 155.812 185.39 155.683C191.004 155.554 192.231 156.812 192.231 156.812C192.231 156.812 189.488 155.07 187.261 154.682C187.261 154.682 194.844 153.295 199.846 158.458C199.846 158.458 209.074 159.974 214.302 171.397C214.302 171.397 211.946 169.138 211.075 169.364C211.075 169.364 217.529 174.366 217.109 182.013L215.109 189.177L177.065 203.601H177Z" fill="#983795"/>
<path d="M236.362 348.516C236.233 348.226 224.423 318.313 224.552 313.699C224.745 306.761 226.036 292.467 232.748 274.977C240.073 255.907 233.684 237.676 233.619 237.482C233.619 237.385 233.522 237.321 233.458 237.288L222.583 231.319L188.089 217.347C188.089 217.347 188.024 217.347 187.992 217.347C187.121 217.282 166.986 215.733 163.63 216.217C160.242 216.701 156.337 218.412 156.176 218.476C156.111 218.476 156.079 218.541 156.047 218.573C155.821 218.863 150.658 225.607 157.693 252.583C157.563 254.326 155.014 291.111 152.594 299.888C150.11 308.923 149.98 344.289 149.98 345.806C149.98 345.999 150.11 346.128 150.271 346.161C150.368 346.161 160.726 348.29 163.759 349.871C166.082 351.065 174.536 351.323 181.958 351.549C184.733 351.646 187.347 351.711 189.315 351.84C190.154 351.904 191.219 351.904 192.477 351.904C201.545 351.904 219.421 350.678 219.647 350.646L236.072 349C236.072 349 236.297 348.936 236.362 348.839C236.426 348.742 236.426 348.613 236.362 348.516Z" fill="white" stroke="#983795" stroke-width="0.8067" stroke-linecap="round" stroke-linejoin="round"/>
<path d="M188.191 215.992C188.191 215.992 186.352 223.026 193.064 229.641C199.776 236.256 208.811 239.741 215.006 237.869C221.202 235.998 223.299 232.255 223.299 232.255C223.299 232.255 217.426 228.641 217.007 224.284C216.587 219.928 216.2 206.86 216.2 206.86L188.159 215.992H188.191Z" fill="#D5B9D9" stroke="#983795" stroke-width="0.8067" stroke-linecap="round" stroke-linejoin="round"/>
<path d="M182.739 171.397C182.739 171.397 177.383 171.849 177.124 178.464C176.866 185.079 177.124 191.178 177.124 191.178C177.124 191.178 174.898 186.95 173.639 187.209C172.381 187.467 173.898 194.437 175.64 198.277C177.383 202.149 183.352 208.86 184.094 211.345C184.836 213.83 192.807 221.316 203.132 222.187C213.458 223.058 218.202 206.376 217.943 202.891C217.685 199.406 214.942 188.08 213.845 185.821C212.716 183.595 202.874 170.623 199.389 169.138C195.904 167.654 191.677 166.331 182.707 171.397H182.739Z" fill="#D5B9D9" stroke="#983795" stroke-width="0.8067" stroke-linecap="round" stroke-linejoin="round"/>
<path d="M218.045 196.276C217.432 196.276 216.884 195.889 216.819 195.856C216.658 195.727 216.626 195.501 216.722 195.34C216.851 195.179 217.077 195.146 217.239 195.243C217.4 195.34 217.884 195.63 218.239 195.501C218.433 195.437 218.562 195.243 218.659 194.888C218.788 194.469 218.755 194.146 218.594 193.888C218.368 193.501 217.884 193.372 217.884 193.372C217.69 193.339 217.561 193.114 217.594 192.92C217.626 192.726 217.852 192.597 218.045 192.63C218.045 192.63 218.852 192.823 219.239 193.501C219.497 193.952 219.53 194.469 219.368 195.082C219.207 195.663 218.884 196.018 218.465 196.179C218.304 196.244 218.174 196.244 218.013 196.244L218.045 196.276Z" fill="white" stroke="#983795" stroke-width="0.8067" stroke-linecap="round" stroke-linejoin="round"/>
<path d="M182.878 170.945C182.878 170.945 182.652 170.913 182.588 170.816C182.588 170.816 181.62 169.655 180.394 169.59C179.781 169.558 179.232 169.784 178.683 170.3C178.522 170.429 178.296 170.429 178.167 170.3C178.038 170.139 178.038 169.913 178.167 169.784C178.877 169.138 179.619 168.816 180.458 168.88C182.007 168.977 183.104 170.332 183.169 170.397C183.298 170.558 183.265 170.784 183.104 170.913C183.04 170.978 182.943 171.01 182.878 171.01V170.945Z" fill="#D3B5D7"/>
<path d="M184.426 169.881C184.426 169.881 184.135 169.784 184.071 169.622C184.071 169.622 183.425 167.815 182.231 167.364C181.78 167.202 181.328 167.235 180.844 167.46C180.65 167.557 180.424 167.461 180.328 167.299C180.231 167.106 180.328 166.88 180.489 166.783C181.167 166.428 181.877 166.396 182.522 166.654C184.006 167.235 184.748 169.268 184.781 169.364C184.845 169.558 184.781 169.784 184.555 169.848C184.523 169.848 184.458 169.848 184.426 169.848V169.881Z" fill="#D3B5D7"/>
<path d="M186.972 168.041C186.779 168.041 186.617 167.912 186.617 167.719C186.617 167.719 186.392 166.46 185.165 165.686C183.875 164.879 181.939 164.814 179.422 165.557C179.228 165.621 179.002 165.492 178.97 165.298C178.905 165.105 179.034 164.879 179.228 164.847C181.971 164.04 184.101 164.104 185.585 165.073C187.101 166.041 187.36 167.557 187.36 167.622C187.36 167.815 187.263 168.009 187.037 168.041C187.037 168.041 187.005 168.041 186.972 168.041Z" fill="#D3B5D7"/>
<path d="M190.74 168.041C190.74 168.041 190.579 168.041 190.514 167.945C190.353 167.815 190.321 167.59 190.45 167.428C191.934 165.589 192.547 163.782 192.289 162.104C191.902 159.684 189.772 158.264 189.74 158.232C189.578 158.135 189.514 157.877 189.643 157.716C189.772 157.554 189.998 157.49 190.159 157.619C190.256 157.683 192.579 159.232 193.031 161.975C193.321 163.879 192.676 165.879 191.03 167.912C190.966 168.009 190.837 168.041 190.74 168.041Z" fill="#D3B5D7"/>
<path d="M195.583 164.653C195.583 164.653 195.389 164.621 195.292 164.524C195.163 164.363 195.163 164.137 195.325 164.008C196.034 163.395 196.389 162.781 196.389 162.233C196.389 161.588 195.873 161.168 195.873 161.168C195.712 161.039 195.68 160.813 195.809 160.652C195.938 160.49 196.164 160.458 196.325 160.587C196.325 160.587 197.099 161.233 197.099 162.233C197.099 163.04 196.68 163.814 195.776 164.589C195.712 164.653 195.615 164.685 195.518 164.685L195.583 164.653Z" fill="#D3B5D7"/>
<path d="M203.585 166.976C203.585 166.976 203.359 166.944 203.295 166.847C201.746 164.911 199.197 165.266 199.197 165.266C199.003 165.298 198.81 165.169 198.777 164.943C198.777 164.75 198.874 164.556 199.1 164.524C199.229 164.524 202.069 164.105 203.908 166.363C204.037 166.525 204.005 166.75 203.843 166.88C203.779 166.944 203.682 166.976 203.618 166.976H203.585Z" fill="#D3B5D7"/>
<path d="M102.363 172.752C102.363 172.752 102.105 172.688 101.976 172.752C101.911 172.785 100.653 173.527 99.6526 172.043C99.5558 171.881 99.33 171.817 99.1686 171.913C99.0073 172.01 98.9105 172.204 99.0073 172.397L101.008 177.367C100.556 178.98 100.104 181.336 100.266 184.046C99.7494 184.917 99.1041 185.595 98.2329 185.789C98.0392 185.821 97.9102 186.015 97.9424 186.24C97.9747 186.402 98.136 186.531 98.2974 186.531H98.3619C99.1686 186.37 99.814 185.853 100.33 185.208C100.427 186.176 100.621 187.176 100.911 188.209C100.943 188.37 101.105 188.467 101.266 188.467C101.298 188.467 101.331 188.467 101.363 188.467C101.556 188.402 101.686 188.209 101.621 188.015C101.234 186.692 101.04 185.434 100.976 184.208C101.782 182.723 102.137 180.852 102.331 179.529C102.428 179.464 102.492 179.335 102.492 179.206L102.492 173.043C102.492 173.043 102.428 172.785 102.299 172.72L102.363 172.752ZM101.492 178.561L101.686 179.045C101.589 179.916 101.363 181.142 100.976 182.336C101.04 180.916 101.234 179.626 101.46 178.561H101.492Z" fill="white" stroke="#983795" stroke-width="0.8067" stroke-linecap="round" stroke-linejoin="round"/>
<path d="M144.378 145.518C141.635 136.999 133.213 133.643 133.084 133.611C124.178 130.191 116.595 130.255 110.561 133.837C105.043 137.128 101.881 142.808 100.235 147.002C98.4284 151.52 97.9443 155.328 97.9121 155.392C97.2345 163.524 132.148 166.686 133.568 166.815C133.633 166.815 134.214 167.009 135.117 167.009C136.182 167.009 137.699 166.783 139.247 165.782C142.184 163.879 144.12 159.974 144.959 154.198C145.217 152.359 145.249 150.681 145.088 149.132C145.733 151.714 145.895 155.747 143.249 161.007C143.152 161.2 143.249 161.426 143.41 161.523C143.474 161.523 143.507 161.555 143.571 161.555C143.7 161.555 143.829 161.491 143.894 161.362C148.766 151.617 144.539 145.873 144.313 145.55L144.378 145.518Z" fill="#983795"/>
<path d="M60.8671 250.776L34.6333 277.591C34.6333 277.591 40.2479 298.888 52.9292 316.442C65.6428 333.996 72.7418 335.674 76.2912 342.03L79.8407 348.387C79.8407 348.387 78.7113 351.743 74.8069 349.323C70.8702 346.903 67.9016 340.288 67.9016 340.288C67.9016 340.288 65.4815 347.645 67.9016 353.066C67.9016 353.066 56.1237 358.842 49.6056 347.096L46.0561 333.286C46.0561 333.286 13.53 295.5 11.8521 284.109C10.1741 272.719 12.7878 263.555 25.8564 246.388C38.9249 229.189 39.9897 227.156 39.9897 227.156C39.9897 227.156 59.1247 231.319 60.8671 250.776Z" fill="white" stroke="#983795" stroke-width="0.8067" stroke-linecap="round" stroke-linejoin="round"/>
<path d="M88.4193 199.148C88.4193 199.148 68.3486 201.019 59.3781 204.762C50.4076 208.505 38.7266 226.253 38.7266 226.253C38.7266 226.253 61.056 242.677 60.8624 250.809C60.6688 258.94 66.5738 294.435 63.5729 299.824C60.572 305.245 52.9245 316.442 52.9245 316.442C52.9245 316.442 67.1224 341.288 84.1276 341.482C101.133 341.675 109.716 336.448 112.523 336.996C115.331 337.545 130.626 343.902 136.047 343.547C141.468 343.192 144.275 341.127 144.275 341.127C144.275 341.127 150.245 289.401 152.31 285.658C154.375 281.915 155.472 268.653 154.375 264.006C153.246 259.327 152.697 256.907 152.697 256.907L159.409 250.002C159.409 250.002 163.507 234.32 149.503 220.315C135.498 206.311 117.557 203.697 117.557 203.697L88.4193 199.212V199.148Z" fill="#DAC2DE" stroke="#983795" stroke-width="0.8067" stroke-linecap="round" stroke-linejoin="round"/>
<path d="M102.04 171.397C102.04 171.397 103.169 188.112 99.3295 193.436C95.4896 198.761 88.3906 199.148 88.3906 199.148C88.3906 199.148 94.9088 201.116 98.2969 206.537C101.653 211.958 120.917 243.613 120.917 243.613C120.917 243.613 133.727 222.316 133.792 219.251C133.856 216.185 131.565 213.475 130.533 210.926C129.5 208.409 128.113 206.247 128.113 206.247L137.18 175.786L102.072 171.397H102.04Z" fill="white" stroke="#983795" stroke-width="0.8067" stroke-linecap="round" stroke-linejoin="round"/>
<path d="M130.664 141.356C136.375 142.388 141.216 146.454 142.764 152.069C142.829 152.327 142.893 152.585 142.958 152.811C144.087 157.845 143.7 172.43 142.958 176.528C142.216 180.626 134.375 192.791 131.019 194.082C127.663 195.372 111.045 196.889 103.01 172.236C103.01 172.236 101.978 174.753 98.9122 171.849C98.9122 171.849 95.8144 166.622 95.0723 161.588C94.3301 156.554 98.3313 155.425 98.3313 155.425C98.3313 155.425 106.818 160.007 111.4 150.843C115.369 142.872 116.885 138.871 130.664 141.356Z" fill="white" stroke="#983795" stroke-width="0.8067" stroke-linecap="round" stroke-linejoin="round"/>
<path d="M101.166 172.268C101.54 172.268 101.844 171.792 101.844 171.204C101.844 170.615 101.54 170.139 101.166 170.139C100.792 170.139 100.488 170.615 100.488 171.204C100.488 171.792 100.792 172.268 101.166 172.268Z" fill="white" stroke="#983795" stroke-width="0.8067" stroke-linecap="round" stroke-linejoin="round"/>
<path d="M90.9673 205.408C88.4181 205.408 81.9645 201.665 81.6741 201.503C81.4805 201.406 81.4482 201.181 81.545 200.987C81.6419 200.793 81.8677 200.761 82.0613 200.858C82.1259 200.89 88.6117 204.665 90.9673 204.665C93.3229 204.665 94.8072 204.181 94.8395 204.181C95.0331 204.117 95.2589 204.214 95.3235 204.407C95.388 204.601 95.2912 204.827 95.0976 204.891C95.0331 204.891 93.5165 205.408 90.9996 205.408H90.9673Z" fill="white" stroke="#983795" stroke-width="0.8067" stroke-linecap="round" stroke-linejoin="round"/>
<path d="M125.146 247.711C125.146 247.711 125.114 247.711 125.082 247.711L120.339 247.033H116.208C116.015 247.033 115.853 246.904 115.821 246.711C115.821 246.711 115.627 244.581 114.24 242.064C112.82 239.483 94.266 210.183 94.0724 209.893C93.9756 209.732 94.0079 209.473 94.2015 209.377C94.3628 209.28 94.6209 209.312 94.7178 209.506C95.4922 210.7 113.465 239.128 114.918 241.709C116.047 243.774 116.434 245.581 116.531 246.324H120.371L124.888 246.969C125.663 245.291 129.761 236.385 131.536 233.836C133.568 230.964 137.828 220.509 136.763 217.153C136.698 216.96 136.795 216.734 137.021 216.669C137.215 216.605 137.441 216.701 137.505 216.927C138.667 220.606 134.214 231.351 132.149 234.255C130.277 236.934 125.501 247.421 125.469 247.517C125.405 247.646 125.276 247.743 125.114 247.743L125.146 247.711Z" fill="#983795"/>
<path d="M59.2602 243.968C59.2602 243.968 59.002 243.903 58.9375 243.774C56.4528 239.515 53.0324 213.83 52.8711 212.765C52.8711 212.571 53.0002 212.378 53.1938 212.345C53.3874 212.345 53.581 212.474 53.6133 212.668C53.6455 212.926 57.1627 239.289 59.5828 243.419C59.6796 243.613 59.6151 243.839 59.4538 243.936C59.3892 243.968 59.3247 244 59.2602 244V243.968Z" fill="white" stroke="#983795" stroke-width="0.8067" stroke-linecap="round" stroke-linejoin="round"/>
</g>
</svg>
