<svg width="665" height="376" viewBox="0 0 665 376" fill="none" xmlns="http://www.w3.org/2000/svg">
<g clip-path="url(#clip0_382_225)">
<path d="M651.65 365.601C641.674 372.012 631.823 375.231 627.539 375.881L13.3624 376.088C13.2933 375.936 13.2242 375.784 13.1413 375.646C9.05148 367.217 6.05321 359.521 3.95303 352.406C1.81141 345.138 0.609332 338.478 0.153373 332.316C-3.86736 276.523 72.8719 303.646 30.1638 209.387C-35.8812 63.6178 158.33 -50.22 309.86 47.4382C465.149 147.514 501.363 108.481 529.301 95.6317C550.828 85.7249 570.019 81.0824 587.014 80.3639C608.389 79.452 626.296 84.7715 641.011 93.6973C672.707 112.889 689.646 148.785 694.69 175.176C696.002 182.057 697.135 188.716 698.075 195.141C708.7 267.335 699.291 334.996 651.664 365.601H651.65Z" fill="#F8F9FA"/>
<g opacity="0.25" filter="url(#filter0_f_382_225)">
<ellipse cx="142" cy="304" rx="50" ry="6" fill="url(#paint0_radial_382_225)"/>
</g>
<g opacity="0.25" filter="url(#filter1_f_382_225)">
<ellipse cx="230" cy="304" rx="82" ry="6" fill="url(#paint1_radial_382_225)"/>
</g>
<g opacity="0.25" filter="url(#filter2_f_382_225)">
<ellipse cx="314" cy="304" rx="82" ry="6" fill="url(#paint2_radial_382_225)"/>
</g>
<g opacity="0.25" filter="url(#filter3_f_382_225)">
<ellipse cx="387" cy="304" rx="82" ry="6" fill="url(#paint3_radial_382_225)"/>
</g>
<g opacity="0.25" filter="url(#filter4_f_382_225)">
<ellipse cx="488" cy="304" rx="82" ry="6" fill="url(#paint4_radial_382_225)"/>
</g>
<path d="M391.699 215.091C391.699 215.091 391.699 231.602 394.149 237.726C396.598 243.849 404.602 283.018 404.602 283.018L405.499 290.322L416.631 289.622C416.631 289.622 415.515 241.269 414.181 230.181C412.847 219.093 412.169 216.731 412.169 216.731L391.699 215.069V215.091Z" fill="#8D9FCB" stroke="#1C4098" stroke-width="0.765434" stroke-linejoin="round"/>
<path d="M416.611 285.86C416.611 285.86 414.161 282.558 412.39 282.798C410.618 283.039 408.825 286.341 408.388 287.041C407.95 287.741 405.501 290.343 405.501 290.343C405.501 290.343 403.489 290.103 404.167 294.586C404.845 299.069 404.386 304.733 405.064 305.193C405.742 305.674 431.548 305.193 431.548 305.193C431.548 305.193 432.663 302.131 431.11 299.288C429.557 296.467 418.863 289.862 418.863 289.862L416.633 285.86H416.611Z" fill="white" stroke="#1C4098" stroke-width="0.765434" stroke-linejoin="round"/>
<path d="M431.924 302.612H404.652C404.696 304.011 404.805 305.017 405.068 305.214C405.746 305.695 431.552 305.214 431.552 305.214C431.552 305.214 431.946 304.121 431.924 302.612Z" fill="white" stroke="#1C4098" stroke-width="0.765434" stroke-linejoin="round"/>
<path d="M366.988 215.091C366.988 215.091 367.885 229.24 366.551 237.726C365.217 246.211 359.203 285.839 359.203 285.839C359.203 285.839 360.318 289.382 358.525 290.081C356.754 290.781 350.061 287.719 348.946 285.839C347.831 283.958 349.384 224.276 349.384 224.276L351.155 215.55L366.945 215.069L366.988 215.091Z" fill="#8D9FCB" stroke="#1C4098" stroke-width="0.765434" stroke-linejoin="round"/>
<path d="M347.414 285.86C347.414 285.86 349.864 282.558 351.635 282.798C353.407 283.039 355.2 286.341 355.637 287.041C356.075 287.741 358.524 290.343 358.524 290.343C358.524 290.343 360.536 290.103 359.858 294.586C359.18 299.069 359.64 304.733 358.962 305.193C358.284 305.674 332.478 305.193 332.478 305.193C332.478 305.193 331.362 302.131 332.915 299.288C334.468 296.467 345.162 289.862 345.162 289.862L347.393 285.86H347.414Z" fill="white" stroke="#1C4098" stroke-width="0.765434" stroke-linejoin="round"/>
<path d="M332.122 302.612H359.393C359.35 304.011 359.24 305.017 358.978 305.214C358.3 305.695 332.494 305.214 332.494 305.214C332.494 305.214 332.1 304.121 332.122 302.612Z" fill="white" stroke="#1C4098" stroke-width="0.765434" stroke-linejoin="round"/>
<path d="M406.371 151.866L414.615 218.393L383.014 219.333L374.332 180.887L370.767 218.153H342.074L349.641 150.466L406.371 151.866Z" fill="#0BBBEF" stroke="#1C4098" stroke-width="0.765434" stroke-linejoin="round"/>
<path d="M374.33 180.887L370.94 170.805L366.129 168.858" stroke="#1C4098" stroke-width="0.765434" stroke-linejoin="round"/>
<path d="M300.923 114.491L300.18 133.802H350.436L347.965 116.044L300.923 114.491Z" fill="white" stroke="#1C4098" stroke-width="0.765434" stroke-linejoin="round"/>
<path d="M365.526 54.7873L353.017 52.0317C353.017 52.0317 338.233 51.3538 326.227 57.8928L350.414 77.3348L353.17 154.25C353.17 154.25 362.596 158.558 379.151 158.558C395.706 158.558 407.559 153.747 407.559 153.747L403.667 87.4822L419.413 105.372L433.54 88.86C433.54 88.86 415.192 66.1376 410.315 62.1792C405.438 58.2208 403.339 56.4931 398.943 56.3181C394.569 56.1432 389.692 56.6681 389.692 56.6681L380.769 54.9404L365.504 54.7654L365.526 54.7873Z" fill="white" stroke="#1C4098" stroke-width="0.765434" stroke-linejoin="round"/>
<path d="M316.268 44.137C316.268 44.137 315.394 54.0657 315.087 54.5469C314.781 55.028 293.983 58.2647 292.955 59.6643C291.928 61.064 280.512 97.2581 280.512 97.2581L298.532 103.928L298.379 118.537L349.794 121.643C349.794 121.643 348.767 65.2629 348.482 64.1695C348.198 63.076 331.774 54.7 331.774 54.7L330.593 42.4312L316.225 44.137H316.268Z" fill="#0BBBEF" stroke="#1C4098" stroke-width="0.765434" stroke-linejoin="round"/>
<path d="M299.34 88.707L299.93 76.8975" stroke="#1C4098" stroke-width="0.765434" stroke-linejoin="round"/>
<path d="M325.198 70.2272L335.52 56.6244C333.355 55.4872 331.78 54.678 331.78 54.678L330.599 42.4092L316.231 44.115C316.231 44.115 315.356 54.0438 315.05 54.5249C314.984 54.6343 313.825 54.8748 312.098 55.2247L325.154 70.2054L325.198 70.2272Z" fill="white" stroke="#1C4098" stroke-width="0.765434" stroke-linejoin="round"/>
<path d="M342.778 83.2834L340.285 106.115L358.59 110.008C358.59 110.008 355.375 71.3427 354.478 69.3088C353.604 67.2968 349.492 64.9568 347.436 64.0382C345.381 63.0978 343.916 63.2509 343.916 63.2509" fill="#0BBBEF"/>
<path d="M342.778 83.2834L340.285 106.115L358.59 110.008C358.59 110.008 355.375 71.3427 354.478 69.3088C353.604 67.2968 349.492 64.9568 347.436 64.0382C345.381 63.0978 343.916 63.2509 343.916 63.2509" stroke="#1C4098" stroke-width="0.765434" stroke-linejoin="round"/>
<path d="M289.148 120.09L290.089 117.509" stroke="#1C4098" stroke-width="0.765434" stroke-linejoin="round"/>
<path d="M340.287 106.093C340.287 106.093 305.427 109.351 302.781 109.657C300.135 109.964 290.621 112.916 289.746 113.375C288.872 113.834 283.164 122.845 283.164 122.845C283.164 122.845 282.573 127.809 283.317 128.596C284.039 129.384 284.782 128.443 285.066 127.197C285.351 125.95 285.504 123.304 285.504 123.304L289.156 120.045C289.156 120.045 287.406 123.938 287.253 125.316C287.1 126.716 286.816 131.986 287.253 132.139C287.691 132.292 288.566 132.139 288.566 132.139L289.593 128.093C289.593 128.093 290.031 131.505 290.468 131.986C290.906 132.445 291.78 132.445 292.087 131.833C292.371 131.221 292.677 127.022 292.677 127.022L293.552 124.069C293.552 124.069 293.267 130.127 293.399 131.221C293.552 132.314 294.864 131.68 295.017 130.915C295.17 130.127 296.045 124.857 296.045 124.857C296.045 124.857 298.975 121.904 300.288 120.964C301.6 120.024 305.864 116.306 305.864 116.306C305.864 116.306 336.197 120.658 344.836 120.658C353.474 120.658 357.87 117.399 358.307 116.306C358.745 115.212 357.586 109.789 357.586 109.789L340.287 106.071V106.093Z" fill="white" stroke="#1C4098" stroke-width="0.765434" stroke-linejoin="round"/>
<path d="M289.598 128.159L290.407 122.998L291.938 120.636" stroke="#1C4098" stroke-width="0.765434" stroke-linejoin="round"/>
<path d="M293.551 124.113L294.688 122.779" stroke="#1C4098" stroke-width="0.765434" stroke-linejoin="round"/>
<path d="M284.208 55.5528C284.208 55.5528 281.212 49.145 280.271 48.642C279.309 48.139 275.023 46.4551 273.754 45.6022C272.486 44.7493 269.949 42.7373 269.14 43.5902C268.352 44.4431 269.468 46.2801 270.561 47.133C271.677 47.9859 275.001 49.9979 275.001 49.9979L268.003 48.9919C268.003 48.9919 259.43 42.7591 259.889 45.121C260.37 47.4829 263.235 53.7158 267.193 56.4057C271.174 59.0957 280.074 60.4516 280.381 61.6325C280.709 62.8135 285.782 101.719 288.013 105.262C290.244 108.805 295.646 112.676 298.336 112.326C301.047 111.998 303.103 101.041 302.622 97.3455C302.141 93.6495 287.182 63.2946 286.613 61.6981C285.936 59.8174 284.164 55.5965 284.164 55.5965L284.208 55.5528Z" fill="white" stroke="#1C4098" stroke-width="0.765434" stroke-linejoin="round"/>
<path d="M279.899 55.9028C279.899 55.9028 277.603 53.3878 275.744 52.9285C273.885 52.4693 269.314 50.7634 269.052 50.5885C268.789 50.4135 264.722 44.0276 264.131 44.3994C263.541 44.7712 264.306 47.0019 265.662 49.3419C267.018 51.682 268.024 54.2844 269.38 55.9903C270.736 57.6961 275.307 59.5769 275.985 59.9487" stroke="#1C4098" stroke-width="0.765434" stroke-linejoin="round"/>
<path d="M261.684 45.0332C261.684 45.0332 262.996 51.9002 267.26 56.3616" stroke="#1C4098" stroke-width="0.765434" stroke-linejoin="round"/>
<path d="M275.027 49.9757L278.373 49.8882" stroke="#1C4098" stroke-width="0.765434" stroke-linejoin="round"/>
<path d="M279.011 283.762C279.011 283.762 273.806 293.494 273.128 294.368C272.45 295.243 268.82 299.661 268.405 300.973C267.989 302.285 267.989 304.21 270.067 304.8C272.144 305.391 289.881 304.8 289.881 304.8C289.881 304.8 291.411 304.8 292.505 302.154C293.62 299.508 296.135 295.199 296.135 295.199C296.135 295.199 291.521 285.118 288.896 283.63C286.272 282.165 278.989 283.74 278.989 283.74L279.011 283.762Z" fill="white" stroke="#1C4098" stroke-width="0.765434" stroke-linejoin="round"/>
<path d="M290.996 302.023C290.996 302.023 284.61 297.605 279.624 297.321C275.009 297.058 269.804 299.42 269.061 299.77C268.733 300.273 268.492 300.711 268.405 300.995C267.989 302.307 267.989 304.232 270.067 304.822C272.144 305.412 289.881 304.822 289.881 304.822C289.881 304.822 291.411 304.822 292.505 302.176C293.62 299.53 296.135 295.221 296.135 295.221C296.135 295.221 295.938 294.806 295.61 294.106L290.974 302.023H290.996Z" fill="white" stroke="#1C4098" stroke-width="0.765434" stroke-linejoin="round"/>
<path d="M284.346 283.805C284.346 283.805 280.475 289.382 281.022 290.716C281.568 292.028 283.646 292.772 284.893 291.897C286.139 291.022 289.223 284.593 289.223 284.593C289.223 284.593 286.292 283.368 284.346 283.805Z" fill="white" stroke="#1C4098" stroke-width="0.765434" stroke-linejoin="round"/>
<path d="M352.055 287.435L355.314 293.034C355.314 293.034 362.531 298.764 363.362 300.819C364.193 302.875 363.777 304.646 362.815 305.237C361.853 305.827 343.264 305.237 343.264 305.237H333.969C333.969 305.237 332.723 303.181 333.007 300.382C333.291 297.583 334.713 295.811 334.713 295.811C334.713 295.811 340.902 285.248 343.001 284.089C345.079 282.908 352.077 287.435 352.077 287.435H352.055Z" fill="white" stroke="#1C4098" stroke-width="0.765434" stroke-linejoin="round"/>
<path d="M342.847 302.613C342.847 302.613 334.952 302.613 334.252 302.46C333.902 302.394 333.421 302.285 333.027 302.175C333.246 304.012 333.99 305.237 333.99 305.237H343.284C343.284 305.237 361.851 305.827 362.836 305.237C363.798 304.647 364.213 302.875 363.382 300.819C363.273 300.535 363.01 300.141 362.661 299.726L362.551 299.791C362.551 299.791 357.98 296.555 353.541 296.708C349.101 296.861 342.869 302.591 342.869 302.591L342.847 302.613Z" fill="white" stroke="#1C4098" stroke-width="0.765434" stroke-linejoin="round"/>
<path d="M343.178 285.205C343.178 285.205 346.174 293.056 347.552 293.056C348.93 293.056 350.461 291.744 350.176 290.125C349.892 288.507 347.399 285.27 347.399 285.27C347.399 285.27 343.222 283.215 343.156 285.205H343.178Z" fill="white" stroke="#1C4098" stroke-width="0.765434" stroke-linejoin="round"/>
<path d="M350.33 131.353L300.03 130.74L299.264 159.958L296.575 216.556C296.575 216.556 290.407 241.881 288.68 251.504C286.952 261.105 285.202 274.183 285.202 274.183C285.202 274.183 279.997 276.829 279.801 278.272C279.604 279.694 279.035 283.783 279.035 283.783C279.035 283.783 287.521 282.974 289.248 284.592C290.976 286.233 296.181 295.221 296.181 295.221C296.181 295.221 301.954 288.07 302.917 285.62C303.879 283.171 304.273 274.379 304.273 274.379L316.804 219.837L328.57 169.974L330.888 229.022L333.775 279.89C333.775 279.89 330.122 285.402 330.297 286.014C330.494 286.626 334.737 295.811 334.737 295.811C334.737 295.811 340.707 286.211 343.222 285.183C345.737 284.155 352.079 287.435 352.079 287.435C352.079 287.435 352.276 281.706 351.883 279.475C351.489 277.222 351.314 273.745 351.314 273.745C351.314 273.745 353.632 216.731 353.829 215.507C354.026 214.282 356.913 172.795 354.988 157.684C353.064 142.572 350.352 131.331 350.352 131.331L350.33 131.353Z" fill="#CFE2F1" stroke="#1C4098" stroke-width="0.765434" stroke-linejoin="round"/>
<path d="M308.887 157.706L319.1 164.857" stroke="#1C4098" stroke-width="0.765434" stroke-linejoin="round"/>
<path d="M339.44 163.916L336.641 166.278" stroke="#1C4098" stroke-width="0.765434" stroke-linejoin="round"/>
<path d="M348.965 155.868L341.508 162.167" stroke="#1C4098" stroke-width="0.765434" stroke-linejoin="round"/>
<path d="M327.797 150.029L328.147 156.284" stroke="#1C4098" stroke-width="0.765434" stroke-linejoin="round"/>
<path d="M326.797 131.768L327.584 146.027" stroke="#1C4098" stroke-width="0.765434" stroke-linejoin="round"/>
<path d="M331.035 131.768L332.194 145.852" stroke="#1C4098" stroke-width="0.765434" stroke-linejoin="round"/>
<path d="M305.124 142.834C304.206 143.862 303.068 144.737 301.734 145.24" stroke="#1C4098" stroke-width="0.765434" stroke-linejoin="round"/>
<path d="M309.456 132.577C309.456 132.577 308.975 136.164 307.27 139.597" stroke="#1C4098" stroke-width="0.765434" stroke-linejoin="round"/>
<path d="M343.004 133.386C343.004 133.386 345.891 141.565 351.096 143.599" stroke="#1C4098" stroke-width="0.765434" stroke-linejoin="round"/>
<path d="M351.465 219.203C351.465 219.203 345.867 216.338 342.783 216.753C339.7 217.169 334.691 220.843 334.691 220.843C334.691 220.843 344.336 221.871 351.465 219.203Z" fill="#8D9FCB" fill-opacity="0.4"/>
<path d="M314.086 220.624C314.086 220.624 309.275 217.365 305.032 216.95C300.789 216.534 298.668 217.147 298.668 217.147C298.668 217.147 301.358 222.264 306.76 222.658C312.161 223.073 314.086 220.624 314.086 220.624Z" fill="#8D9FCB" fill-opacity="0.4"/>
<path d="M298.762 272.673C299.177 275.166 299.658 277.265 300.205 278.665" stroke="#1C4098" stroke-width="0.765434" stroke-linejoin="round"/>
<path d="M296.352 246.78C296.352 246.78 296.898 258.677 298.123 268.321" stroke="#1C4098" stroke-width="0.765434" stroke-linejoin="round"/>
<path d="M340.486 261.914C340.486 261.914 337.599 274.182 335.281 278.666" stroke="#1C4098" stroke-width="0.765434" stroke-linejoin="round"/>
<path d="M361.934 49.976L364.536 56.8649C364.536 56.8649 367.292 77.5097 369.238 76.6568C371.184 75.8039 380.763 54.9841 380.763 54.9841C380.763 54.9841 377.527 51.7037 377.024 50.5009C376.542 49.298 374.749 43.437 374.749 43.437L361.934 49.976Z" fill="#8D9FCB" stroke="#1C4098" stroke-width="0.765434" stroke-linejoin="round"/>
<path d="M354.336 28.5435C354.336 28.5435 353.221 36.4165 354.03 39.5876C354.817 42.7587 357.354 50.3037 360.197 51.4627C363.04 52.6218 366.517 53.1467 367.151 52.4687C367.786 51.7908 375.527 47.6137 376.774 45.2737C378.042 42.9336 379.77 33.7265 379.77 33.7265C379.77 33.7265 382.307 27.5375 381.673 24.5195C381.039 21.5015 379.464 16.6464 376.774 15.8154C374.084 14.9844 361.465 13.6284 358.928 14.4814C356.392 15.3343 352.608 21.3484 353.242 23.0105C353.877 24.6726 354.358 28.5435 354.358 28.5435H354.336Z" fill="#8D9FCB" stroke="#1C4098" stroke-width="0.765434" stroke-linejoin="round"/>
<path d="M379.294 15.8376C379.294 15.8376 378.66 12.4916 375.182 9.14554C371.705 5.7995 365.713 6.95859 363.023 6.3025C360.333 5.64642 358.124 1.77551 355.762 3.78751C353.4 5.7995 353.225 7.46159 354.822 8.64254C356.418 9.8235 358.299 10.1515 358.299 10.1515C358.299 10.1515 350.71 10.4796 350.557 12.4916C350.404 14.5036 351.498 15.5096 352.919 15.6627C354.341 15.8158 357.49 15.3346 357.49 15.3346C357.49 15.3346 352.919 16.8436 352.11 20.3646C351.323 23.8856 354.319 28.5657 354.319 28.5657C354.319 28.5657 355.587 20.8676 357.162 18.6807C358.737 16.4937 361.273 16.1657 361.273 16.1657C361.273 16.1657 369.956 18.5057 372.317 18.3526C374.679 18.1777 377.522 18.0246 377.522 18.0246C377.522 18.0246 377.522 24.2137 378.791 26.4006C380.059 28.5876 379.731 32.7646 379.731 33.7706C379.731 34.7766 380.672 33.0927 381.306 32.4366C381.94 31.7805 384.936 26.2475 384.936 22.9015C384.936 19.5554 380.978 14.8754 379.25 15.8814L379.294 15.8376Z" fill="#1C4098" stroke="#1C4098" stroke-width="0.765434" stroke-linejoin="round"/>
<path d="M379.769 33.7487C379.769 33.7487 384.187 31.2337 384.515 34.4266C384.821 37.5977 378.348 40.9656 378.348 40.9656L379.769 33.7705V33.7487Z" fill="#8D9FCB" stroke="#1C4098" stroke-width="0.765434" stroke-linejoin="round"/>
<path d="M354.344 28.5439C354.344 28.5439 351.348 27.5379 351.348 30.0529C351.348 32.5679 353.71 35.914 353.71 35.914L354.344 28.5439Z" fill="#8D9FCB" stroke="#1C4098" stroke-width="0.765434" stroke-linejoin="round"/>
<path d="M403.661 87.4826L396.531 80.2656" stroke="#1C4098" stroke-width="0.765434" stroke-linejoin="round"/>
<path d="M390.195 81.2935C390.195 81.2935 396.209 87.8325 398.79 88.8603" stroke="#8D9FCB" stroke-width="0.765434" stroke-linejoin="round"/>
<path d="M362.918 59.7734C362.918 59.7734 362.765 79.0405 370.07 91.2656" stroke="#8D9FCB" stroke-width="0.765434" stroke-linejoin="round"/>
<path d="M360.969 116.043C360.969 116.043 370.701 133.933 375.906 137.716" stroke="#8D9FCB" stroke-width="0.765434" stroke-linejoin="round"/>
<path d="M422.169 102.463L422.978 103.841C422.978 103.841 410.643 136.71 410.162 137.563C409.681 138.416 409.025 139.291 409.025 139.291L402.53 138.438H395.225C395.225 138.438 387.593 143.249 386.303 145.152C385.012 147.055 384.837 147.908 385.646 147.908C386.456 147.908 388.577 146.18 388.883 145.677C389.211 145.152 394.569 143.271 394.569 143.271C394.569 143.271 390.676 147.58 389.867 148.607C389.058 149.635 387.265 152.916 387.44 153.594C387.615 154.272 389.233 153.594 389.714 153.069C390.195 152.544 392.645 149.963 392.645 149.963L397.85 146.18C397.85 146.18 393.782 151.691 392.82 152.719C391.836 153.747 389.736 156.152 390.392 156.677C391.048 157.202 393.148 155.475 393.148 155.475L397.85 151.516L400.605 148.761L398.659 153.572L396.384 157.705C396.384 157.705 396.866 158.383 398.178 157.355C399.468 156.327 402.245 152.544 402.245 152.544C402.245 152.544 411.168 148.411 413.443 144.977C415.717 141.544 417.817 139.466 417.817 139.466C417.817 139.466 439.402 107.974 440.539 105.043C441.676 102.113 442.332 99.7072 441.348 98.3294C440.364 96.9516 431.922 90.9375 431.922 90.9375L422.19 102.463H422.169Z" fill="#8D9FCB" stroke="#1C4098" stroke-width="0.765434" stroke-linejoin="round"/>
<path d="M402.132 138.307C402.132 138.307 397.474 135.508 396.009 134.152C394.544 132.796 393.45 135.223 394.456 136.667C395.047 137.52 397.474 138.416 397.474 138.416L402.132 138.329V138.307Z" fill="#8D9FCB" stroke="#1C4098" stroke-width="0.765434" stroke-linejoin="round"/>
<path d="M347.086 55.4214C347.086 55.4214 342.756 52.5347 338.185 52.5347C333.614 52.5347 331.777 54.6779 331.777 54.6779L341.269 59.5985C341.269 59.5985 346.452 58.0239 347.064 55.3996L347.086 55.4214Z" fill="#8D9FCB" stroke="#1C4098" stroke-width="0.765434" stroke-linejoin="round"/>
<path d="M342.882 53.606C342.882 53.606 345.856 53.9996 347.081 55.443C348.306 56.8864 349.793 65.7873 350.164 66.837C350.536 67.8868 351.389 77.1813 351.039 79.412C350.689 81.6427 349.683 82.0364 349.443 80.8554C349.202 79.6744 348.327 74.054 348.327 74.054C348.327 74.054 347.453 79.412 346.84 80.4617C346.228 81.5115 345.616 82.6924 344.741 81.7739C343.866 80.8554 344.5 80.0681 344.5 80.0681C344.5 80.0681 343.625 82.0364 342.641 81.7739C341.657 81.5115 342.138 78.6247 342.138 78.6247C342.138 78.6247 340.542 81.5115 339.908 81.2491C339.295 80.9866 339.164 78.4935 339.164 78.0998C339.164 77.7062 339.667 70.7735 339.667 70.7735C339.667 70.7735 338.552 58.461 339.798 55.5961" fill="#8D9FCB"/>
<path d="M342.882 53.606C342.882 53.606 345.856 53.9996 347.081 55.443C348.306 56.8864 349.793 65.7873 350.164 66.837C350.536 67.8868 351.389 77.1813 351.039 79.412C350.689 81.6427 349.683 82.0364 349.443 80.8554C349.202 79.6744 348.327 74.054 348.327 74.054C348.327 74.054 347.453 79.412 346.84 80.4617C346.228 81.5115 345.616 82.6924 344.741 81.7739C343.866 80.8554 344.5 80.0681 344.5 80.0681C344.5 80.0681 343.625 82.0364 342.641 81.7739C341.657 81.5115 342.138 78.6247 342.138 78.6247C342.138 78.6247 340.542 81.5115 339.908 81.2491C339.295 80.9866 339.164 78.4935 339.164 78.0998C339.164 77.7062 339.667 70.7735 339.667 70.7735C339.667 70.7735 338.552 58.461 339.798 55.5961" stroke="#1C4098" stroke-width="0.765434" stroke-linejoin="round"/>
<path d="M344.504 80.0467L345.357 74.6668L345.86 67.9966" stroke="#1C4098" stroke-width="0.765434" stroke-linejoin="round"/>
<path d="M342.137 78.6031L342.64 71.4081V67.3403" stroke="#1C4098" stroke-width="0.765434" stroke-linejoin="round"/>
<path d="M350.168 66.8154C350.168 66.8154 352.267 72.4359 353.252 74.0105C354.236 75.5851 355.22 77.4222 353.623 77.947C352.027 78.4719 351.152 74.7978 351.152 74.7978L350.168 66.8154Z" fill="#CFE2F1" stroke="#1C4098" stroke-width="0.765434" stroke-linejoin="round"/>
<path d="M308.348 26.2474C308.348 26.2474 308.785 34.9296 310.25 38.5162C311.716 42.081 318.014 48.7512 319.173 50.1508C320.354 51.5505 324.728 52.0097 326.499 51.0912C328.249 50.1508 334.547 39.9159 334.854 37.4446C335.138 34.9515 335.291 25.0227 335.291 25.0227C335.291 25.0227 326.806 17.7183 322.257 18.3525C317.708 18.9649 308.348 26.2693 308.348 26.2693V26.2474Z" fill="white" stroke="#1C4098" stroke-width="0.765434" stroke-linejoin="round"/>
<path d="M329.305 38.1881C328.278 36.4823 323.882 39.4347 322.723 39.5878C321.542 39.7409 316.424 37.882 315.834 38.8224C315.462 39.4128 315.878 43.743 316.206 46.761C317.583 48.3356 318.764 49.6259 319.202 50.1508C320.383 51.5504 324.757 52.0097 326.528 51.0912C327.184 50.7412 328.496 49.0573 329.896 46.9797C329.962 43.8086 330.049 39.4566 329.305 38.21V38.1881ZM327.075 47.767C325.828 48.2044 323.16 47.767 320.776 48.095C318.414 48.4231 317.583 46.8922 317.168 45.9081C316.752 44.924 316.643 39.7846 316.643 39.7846C316.643 39.7846 321.389 40.3313 322.526 40.4407C323.663 40.55 327.775 38.5818 328.299 38.8005C328.824 39.0192 329.021 43.8305 329.021 45.0333C329.021 46.2361 328.299 47.3296 327.053 47.767H327.075Z" fill="#1C4098" stroke="#1C4098" stroke-width="0.765434" stroke-linejoin="round"/>
<path d="M308.352 26.2473C308.352 26.2473 305.027 25.46 305.027 29.4403C305.027 33.4206 309.379 35.9574 309.379 35.9574L308.352 26.2473Z" fill="white" stroke="#1C4098" stroke-width="0.765434" stroke-linejoin="round"/>
<path d="M335.293 25.0008C335.293 25.0008 337.874 24.4978 338.18 26.8816C338.486 29.2654 335.184 34.9952 335.184 34.9952L335.293 25.0008Z" fill="white" stroke="#1C4098" stroke-width="0.765434" stroke-linejoin="round"/>
<path d="M318.46 2.97824C318.46 2.97824 311.571 3.74368 309.669 4.99024C307.766 6.23681 306.891 21.7423 307.044 23.6231C307.198 25.482 309.669 25.1758 309.669 25.1758C309.669 25.1758 316.842 18.5056 322.266 18.3525C327.689 18.1994 336.175 26.7286 336.459 24.2573C336.743 21.7642 335.431 9.51724 333.682 6.56485C331.932 3.61246 326.071 2.3659 318.46 3.00011V2.97824Z" fill="#0BBBEF" stroke="#1C4098" stroke-width="0.765434" stroke-linejoin="round"/>
<path d="M313.339 17.2367C313.339 17.2367 307.915 20.4953 307.041 23.6008C306.166 26.7062 307.478 28.259 309.971 27.6248C312.464 27.0124 318.172 20.3203 322.568 21.2607C326.964 22.2011 333.7 27.6248 335.602 26.8375C337.505 26.072 337.789 22.6385 334.574 19.708C331.36 16.7556 322.415 14.7436 319.047 15.0498C315.679 15.356 313.339 17.2149 313.339 17.2149V17.2367Z" fill="#0BBBEF" stroke="#1C4098" stroke-width="0.765434" stroke-linejoin="round"/>
<path d="M473.278 6.54354C473.278 6.54354 470.434 5.16576 463.043 7.5058C455.651 9.84584 448.412 22.6176 446.597 28.9379C444.782 35.2582 450.861 48.03 450.621 49.6703C450.38 51.3105 448.281 53.1038 448.806 53.7817C449.33 54.4597 449.199 55.0283 455.148 56.7997C461.096 58.593 472.25 61.1955 478.723 59.8177C485.196 58.4399 490.248 55.5532 489.986 54.1973C489.723 52.8195 488.827 51.8572 489.089 50.0858C489.352 48.2925 494.666 37.5983 493.879 31.5404C493.091 25.5044 482.353 9.71462 480.013 8.46806C477.673 7.22149 473.278 6.54354 473.278 6.54354Z" fill="#0BBBEF" stroke="#1C4098" stroke-width="0.765434" stroke-linejoin="round"/>
<path d="M427.919 159.215C427.919 159.215 431.155 185.611 437.651 200.898C444.146 216.207 445.764 223.074 445.764 223.074C445.764 223.074 446.114 240.482 449.198 252.335C452.26 264.189 458.755 281.028 458.93 281.794C459.105 282.559 457.858 289.448 457.311 292.51C456.765 295.572 453.528 302.264 454.075 303.401C454.621 304.538 456.415 305.5 457.311 305.5H472.467C472.467 305.5 474.807 304.735 474.807 300.908C474.807 297.081 472.467 286.364 472.642 282.559C472.817 278.732 471.745 234.359 472.467 229.591C473.189 224.802 474.085 186.377 474.085 186.377C474.085 186.377 482.374 222.33 484.539 230.16C486.704 238.011 497.158 277.004 496.983 280.066C496.808 283.128 496.261 293.844 496.261 298.043C496.261 302.242 494.096 303.598 496.983 304.735C499.869 305.872 512.138 304.735 512.138 304.735C512.138 304.735 513.757 304.166 513.757 300.711C513.757 297.255 509.252 282.931 509.601 280.831C509.951 278.732 515.2 259.99 513.757 242.582C512.313 225.173 508.53 222.702 507.983 216.579C507.436 210.455 517.912 183.687 516.643 157.684C516.643 157.684 455.846 163.414 427.875 159.215H427.919Z" fill="white" stroke="#1C4098" stroke-width="0.765434" stroke-linejoin="round"/>
<path d="M472.485 305.522H457.33C456.433 305.522 454.618 304.56 454.093 303.423C453.546 302.286 456.805 295.572 457.33 292.532C457.876 289.47 459.123 282.581 458.948 281.816C458.948 281.75 458.882 281.597 458.795 281.357C461.529 282.1 467.236 283.281 472.66 281.969C472.66 282.231 472.66 282.428 472.66 282.581C472.485 286.408 474.825 297.124 474.825 300.93C474.825 304.735 472.485 305.522 472.485 305.522ZM496.979 280.875C496.76 284.681 496.301 294.15 496.301 298.065C496.301 302.264 494.136 303.62 497.023 304.757C499.91 305.894 512.178 304.757 512.178 304.757C512.178 304.757 513.797 304.188 513.797 300.733C513.797 297.54 509.926 284.987 509.641 281.488C505.486 282.625 500.762 281.925 496.979 280.854V280.875Z" fill="white" stroke="#1C4098" stroke-width="0.765434" stroke-linejoin="round"/>
<path d="M465.272 292.313C461.379 292.553 458.164 294.544 456.284 296.009C455.168 299.092 453.703 302.592 454.097 303.401C454.643 304.538 456.437 305.5 457.333 305.5H472.489C472.489 305.5 474.829 304.735 474.829 300.908C474.829 300.186 474.742 299.224 474.61 298.108C472.555 295.462 469.165 292.072 465.272 292.313Z" fill="#1C4098" stroke="#1C4098" stroke-width="0.765434" stroke-linejoin="round"/>
<path d="M512.186 304.756C512.186 304.756 513.804 304.188 513.804 300.732C513.804 299.683 513.388 297.627 512.82 295.199C510.567 292.772 507.702 290.476 504.794 290.388C498.473 290.191 496.505 296.708 496.505 296.708L496.33 296.796C496.33 297.255 496.33 297.671 496.33 298.042C496.33 302.241 494.165 303.597 497.052 304.735C499.939 305.872 512.208 304.735 512.208 304.735L512.186 304.756Z" fill="#1C4098" stroke="#1C4098" stroke-width="0.765434" stroke-linejoin="round"/>
<path d="M460.526 47.2861C460.526 47.2861 461.226 53.6502 459.301 57.7616C457.355 61.8731 454.009 63.9289 450.488 64.6724C446.967 65.416 435.857 67.4717 431.09 71.2114C426.322 74.9511 422.626 91.7688 422.101 96.4489C421.576 101.129 421.227 103.928 421.227 103.928L430.565 105.24L430.39 119.631L421.926 160.395C421.926 160.395 438.329 168.99 466.387 169.559C494.424 170.127 520.536 160.024 520.536 160.024L513.297 121.14L519.814 108.433C519.814 108.433 519.989 91.4189 516.993 82.0806C513.997 72.7423 498.995 68.0622 494.052 66.75C489.11 65.4379 483.992 63.9507 482.068 61.895C480.121 59.8392 478.197 52.9285 478 48.817L460.548 47.3299L460.526 47.2861Z" fill="#0BBBEF" stroke="#1C4098" stroke-width="0.765434" stroke-linejoin="round"/>
<path d="M440.387 81.665C440.387 81.665 436.363 88.3134 436.363 92.0312" stroke="#1C4098" stroke-width="0.765434" stroke-linejoin="round"/>
<path d="M493.855 86.1704C493.855 86.1704 496.611 89.8882 497.376 93.8904" stroke="#1C4098" stroke-width="0.765434" stroke-linejoin="round"/>
<path d="M458.977 84.3115C458.977 84.3115 464.75 89.101 466.5 91.2223" stroke="#1C4098" stroke-width="0.765434" stroke-linejoin="round"/>
<path d="M486.578 64.4543C484.609 63.6889 482.969 62.8578 482.051 61.8737C480.104 59.818 478.18 52.9072 477.983 48.7957L460.531 47.3086C460.531 47.3086 461.231 53.6726 459.306 57.7841C457.382 61.8737 454.058 63.9294 450.559 64.6949C451.477 68.8938 455.37 81.9499 468.842 82.103C478.88 82.2124 484.106 72.0868 486.578 64.4762V64.4543Z" fill="white" stroke="#1C4098" stroke-width="0.765434" stroke-linejoin="round"/>
<path d="M472.881 14.7666C472.881 14.7666 470.3 19.1624 466.932 21.9179C463.564 24.6735 457.594 27.9539 457.594 27.9539C457.594 27.9539 457.069 31.2562 456.697 32.3497C456.304 33.4432 455.801 34.4054 455.801 34.4054C455.801 34.4054 456.194 42.9127 459.3 47.8552C462.405 52.7977 468.376 55.5533 471.612 55.0065C474.849 54.4598 478.479 52.6665 481.191 47.4616C483.903 42.2347 484.69 33.5963 484.559 30.5783C484.428 27.5603 473.668 18.222 472.903 14.7885L472.881 14.7666Z" fill="white" stroke="#1C4098" stroke-width="0.765434" stroke-linejoin="round"/>
<path d="M455.779 34.406C455.779 34.406 452.674 33.5749 452.805 37.2928C452.936 41.0106 457.463 43.1975 457.463 43.1975L455.779 34.406Z" fill="white" stroke="#1C4098" stroke-width="0.765434" stroke-linejoin="round"/>
<path d="M484.408 34.4058C484.408 34.4058 487.12 33.7278 486.617 37.4238C486.092 41.1416 482.855 42.7818 482.855 42.7818L484.408 34.4058Z" fill="white" stroke="#1C4098" stroke-width="0.765434" stroke-linejoin="round"/>
<path d="M454.492 101.305C454.492 101.305 448.062 95.8154 439.249 95.0718C430.435 94.3282 423.875 101.895 424.006 103.229C424.137 104.563 427.636 122.496 434.066 125.164C440.495 127.832 472.666 126.192 481.61 125.317C490.555 124.443 505.667 121.162 505.667 121.162L457.707 102.923L454.492 101.283V101.305Z" fill="white" stroke="#1C4098" stroke-width="0.765434" stroke-linejoin="round"/>
<path d="M472.708 119.193L481.609 125.317L489.963 123.808L470.434 116.788L472.708 119.193Z" fill="#1C4098" stroke="#1C4098" stroke-width="0.765434" stroke-linejoin="round"/>
<path d="M519.798 108.434C519.798 108.434 519.973 98.8547 514.812 95.7055C509.65 92.5344 504.096 95.4212 501.777 96.9958C499.481 98.5704 498.103 103.185 498.103 103.185C498.103 103.185 451.084 103.447 447.41 103.229C443.714 102.988 438.071 105.306 437.743 105.656C437.415 106.006 431.336 112.676 431.117 113.376C430.898 114.076 430.133 116.591 430.133 117.509C430.133 118.428 431.336 119.128 431.336 119.128C431.336 119.128 431.664 119.696 432.429 120.156C433.195 120.615 433.632 120.855 434.594 120.855C435.556 120.855 437.962 118.909 437.962 118.909C437.962 118.909 442.839 115.104 443.714 114.994C444.589 114.885 450.45 115.454 452.177 114.754C453.905 114.054 456.42 113.136 456.42 113.136C456.42 113.136 490.099 125.645 497.032 125.492C503.942 125.339 512.778 128.072 514.396 126.345C516.014 124.617 518.398 119.74 519.798 108.434Z" fill="white" stroke="#1C4098" stroke-width="0.765434" stroke-linejoin="round"/>
<path d="M442.095 111.167C442.095 111.167 436.781 116.001 435.797 116.81C434.812 117.619 434.594 120.834 434.594 120.834" stroke="#1C4098" stroke-width="0.765434" stroke-linejoin="round"/>
<path d="M440.259 108.74C440.259 108.74 434.507 114.383 433.961 115.52C433.414 116.679 432.43 120.112 432.43 120.112" stroke="#1C4098" stroke-width="0.765434" stroke-linejoin="round"/>
<path d="M437.435 107.821C437.435 107.821 432.864 112.895 432.34 114.032C431.793 115.191 431.355 119.106 431.355 119.106" stroke="#1C4098" stroke-width="0.765434" stroke-linejoin="round"/>
<path d="M482.773 103.294L496.617 96.3836C496.617 96.3836 503.943 95.6619 504.49 96.0992C505.037 96.5366 504.905 97.1052 504.227 98.1112C503.55 99.1172 501.778 99.992 501.384 100.276C500.969 100.561 498.673 103.294 498.673 103.294H482.795H482.773Z" fill="white" stroke="#1C4098" stroke-width="0.765434" stroke-linejoin="round"/>
<path d="M504.492 96.0996C504.492 96.0996 502.961 96.8869 502.327 97.1056C501.693 97.3243 497.012 99.4894 496.509 100.014C496.028 100.539 493.863 101.873 493.863 101.873" stroke="#1C4098" stroke-width="0.765434" stroke-linejoin="round"/>
<path d="M500.223 96.1865C500.223 96.1865 497.008 97.3237 495.543 98.2641C494.078 99.2045 489.879 101.785 489.879 101.785" stroke="#1C4098" stroke-width="0.765434" stroke-linejoin="round"/>
<path d="M198.205 160.198L201.792 213.779L203.76 277.791H214.28L222.218 217.65L227.489 165.753L234.421 215.703L242.01 276.566L253.448 276.326C253.448 276.326 255.832 227.579 255.7 220.558C255.547 213.516 255.176 201.401 255.176 201.401L258.128 159.936L198.184 160.177L198.205 160.198Z" fill="white" stroke="#1C4098" stroke-width="0.765434" stroke-linejoin="round"/>
<path d="M203.75 277.791C203.75 277.791 198.742 292.137 197.649 295.767C196.555 299.398 195.199 301.891 195.593 303.378C195.987 304.865 198.305 305.368 198.305 305.368H214.532C214.532 305.368 215.779 305.368 215.494 301.06C215.21 296.751 214.27 277.791 214.27 277.791H203.75Z" fill="white" stroke="#1C4098" stroke-width="0.765434" stroke-linejoin="round"/>
<path d="M242.009 276.588C242.009 276.588 239.691 300.732 239.932 302.219C240.172 303.706 239.647 305.04 241.506 305.368C243.365 305.696 259.898 305.368 259.898 305.368C259.898 305.368 261.32 304.865 260.817 302.219C260.314 299.573 254.103 281.224 253.841 280.393C253.578 279.562 253.447 276.326 253.447 276.326L242.009 276.566V276.588Z" fill="white" stroke="#1C4098" stroke-width="0.765434" stroke-linejoin="round"/>
<path d="M260.834 302.219C260.506 300.513 257.816 292.312 255.87 286.473C254.055 285.161 251.343 283.455 248.74 282.886C246.685 282.427 243.71 284.045 241.13 285.926C240.496 292.903 239.774 301.366 239.927 302.241C240.168 303.728 239.643 305.062 241.502 305.39C243.361 305.718 259.894 305.39 259.894 305.39C259.894 305.39 261.315 304.887 260.812 302.241L260.834 302.219Z" fill="#1C4098" stroke="#1C4098" stroke-width="0.765434" stroke-linejoin="round"/>
<path d="M198.305 305.368H214.532C214.532 305.368 215.779 305.368 215.494 301.06C215.341 298.632 214.969 291.503 214.663 285.773C213.46 284.592 211.82 283.214 210.224 282.711C207.14 281.727 201.214 285.686 201.214 285.686L200.929 285.926C199.595 289.819 198.174 294.018 197.649 295.768C196.555 299.398 195.199 301.891 195.593 303.378C195.987 304.865 198.305 305.368 198.305 305.368Z" fill="#1C4098" stroke="#1C4098" stroke-width="0.765434" stroke-linejoin="round"/>
<path d="M191.003 64.2348C191.003 64.2348 187.417 69.5272 186.498 75.4538C185.58 81.3805 174.207 113.091 176.679 120.352C179.172 127.613 186.17 127.285 187.417 126.782C188.663 126.279 194.262 120.505 194.262 116.547C194.262 112.588 193.321 110.445 193.649 108.783C193.956 107.143 197.848 95.0927 197.848 95.0927C197.848 95.0927 198.789 106.487 198.942 107.318C199.095 108.149 196.908 123.501 195.508 133.058C194.109 142.637 193.956 163.435 193.956 163.435C193.956 163.435 213.573 165.25 232.883 164.747C252.194 164.244 259.827 162.429 259.827 162.429C259.827 162.429 257.968 142.943 255.781 134.37C253.594 125.798 251.888 120.68 251.888 120.68L250.182 112.107L262.801 114.097C262.801 114.097 262.014 74.6447 258.602 67.887C255.168 61.1293 247.077 59.1392 247.077 59.1392H195.858L191.025 64.2566L191.003 64.2348Z" fill="white" stroke="#1C4098" stroke-width="0.765434" stroke-linejoin="round"/>
<path d="M233.062 96.6014C233.062 96.6014 229.257 92.6649 229.038 92.0088C228.841 91.3527 228.513 88.8377 228.12 88.0723C227.704 87.3068 224.314 85.0105 223.68 84.3544C223.046 83.6983 222.433 81.074 221.515 81.2927C220.596 81.5114 220.181 83.261 220.378 83.8077C220.575 84.3544 221.624 86.5414 221.624 86.5414C221.624 86.5414 217.6 85.2292 216.988 85.2292C216.376 85.2292 215.348 86.432 215.435 87.1975C215.545 87.9629 216.048 89.0564 216.048 89.0564C216.048 89.0564 214.714 94.6331 214.801 95.9453C214.888 97.2575 215.72 98.7883 216.66 99.3351C217.578 99.8818 226.457 102.506 226.457 102.506L228.316 103.381L233.062 96.6014Z" stroke="#1C4098" stroke-width="0.765434" stroke-linejoin="round"/>
<path d="M249.396 83.5459L247.996 102.857C247.996 102.857 232.884 95.4211 232.425 95.7491C231.966 96.0772 225.252 105.809 225.886 106.487C226.498 107.143 228.685 108.63 229.319 108.805C229.954 108.98 232.6 113.748 239.445 117.728C246.29 121.686 256.722 127.46 259.368 126.979C262.014 126.476 263.72 120.877 263.72 118.056C263.72 115.235 263.108 81.2496 262.168 74.82C261.227 68.3903 256.416 62.9448 252.195 62.1138" fill="white"/>
<path d="M249.396 83.5459L247.996 102.857C247.996 102.857 232.884 95.4211 232.425 95.7491C231.966 96.0772 225.252 105.809 225.886 106.487C226.498 107.143 228.685 108.63 229.319 108.805C229.954 108.98 232.6 113.748 239.445 117.728C246.29 121.686 256.722 127.46 259.368 126.979C262.014 126.476 263.72 120.877 263.72 118.056C263.72 115.235 263.108 81.2496 262.168 74.82C261.227 68.3903 256.416 62.9448 252.195 62.1138" stroke="#1C4098" stroke-width="0.765434" stroke-linejoin="round"/>
<path d="M256.527 107.121L259.523 108.63" stroke="#1C4098" stroke-width="0.765434" stroke-linejoin="round"/>
<path d="M247.992 102.856L254.247 105.984" stroke="#1C4098" stroke-width="0.765434" stroke-linejoin="round"/>
<path d="M206.483 124.923H186.582C186.582 124.923 182.142 155.715 182.93 157.049C183.717 158.383 193.296 161.707 196.751 161.882C200.206 162.057 207.576 161.554 207.905 160.876C208.211 160.22 206.483 124.923 206.483 124.923Z" fill="#0BBBEF" stroke="#1C4098" stroke-width="0.765434" stroke-linejoin="round"/>
<path d="M195.267 113.682C195.267 113.682 193.365 114.403 192.905 115.234C192.446 116.065 195.049 122.976 196.055 123.567C197.061 124.157 197.848 123.217 197.848 121.664C197.848 120.111 196.623 114.753 196.273 114.294C195.945 113.813 196.055 113.704 195.267 113.704V113.682Z" fill="white" stroke="#1C4098" stroke-width="0.765434" stroke-linejoin="round"/>
<path d="M192.603 116.197C192.603 116.197 190.285 117.291 189.804 118.669C189.322 120.024 192.209 125.208 193.325 126.235C194.44 127.263 195.643 127.001 195.73 125.82C195.818 124.639 194.855 121.665 194.287 120.221C193.718 118.778 192.603 116.219 192.603 116.219V116.197Z" fill="white" stroke="#1C4098" stroke-width="0.765434" stroke-linejoin="round"/>
<path d="M189.559 119.762C189.559 119.762 187.394 120.943 187.547 122.561C187.7 124.179 190.04 127.154 190.915 127.832C191.79 128.51 192.686 128.772 192.992 127.482C193.32 126.213 191.396 123.326 191.396 123.326L189.559 119.762Z" fill="white" stroke="#1C4098" stroke-width="0.765434" stroke-linejoin="round"/>
<path d="M187.551 122.583C187.551 122.583 186.436 123.676 186.589 125.382C186.742 127.088 187.551 128.772 188.36 129.034C189.169 129.297 189.475 128.182 189.322 127.416C189.169 126.651 188.841 125.71 188.841 125.71C188.841 125.71 187.638 123.152 187.551 122.561V122.583Z" fill="white" stroke="#1C4098" stroke-width="0.765434" stroke-linejoin="round"/>
<path d="M196.299 114.272C196.299 114.272 200.236 114.491 201.264 114.075C202.313 113.66 203.669 112.37 204.15 113.485C204.632 114.578 203.101 116.197 202.313 116.722C201.504 117.225 198.617 117.575 198.136 117.575C197.655 117.575 197.087 117.749 197.087 117.749L196.277 114.294L196.299 114.272Z" fill="white" stroke="#1C4098" stroke-width="0.765434" stroke-linejoin="round"/>
<path d="M181.207 110.117C181.207 110.117 187.484 106.946 192.032 109.111" stroke="#1C4098" stroke-width="0.765434" stroke-linejoin="round"/>
<path d="M197.849 95.0931L194.547 76.832" stroke="#1C4098" stroke-width="0.765434" stroke-linejoin="round"/>
<path d="M203.668 71.1675L202.246 125.426H204.914L205.548 70.3364L203.668 71.1675Z" fill="#0BBBEF" stroke="#1C4098" stroke-width="0.765434" stroke-linejoin="round"/>
<path d="M224.943 0.353735C224.943 0.353735 218.25 -1.28648 214.052 2.49695C209.853 6.30225 204.713 15.0501 204.56 21.3048C204.407 27.5813 206.747 35.8261 206.747 35.8261C206.747 35.8261 205.194 38.1443 205.501 39.9595C205.807 41.7746 205.807 44.5739 205.807 44.5739L204.866 48.7073C204.866 48.7073 197.54 53.9997 195.222 56.471C192.882 58.9422 188.836 64.5627 188.836 64.5627L207.053 77.7719L212.04 68.8491C212.04 68.8491 227.458 80.2431 234.15 77.925C240.842 75.6068 250.508 61.0854 250.508 61.0854C250.508 61.0854 248.802 54.4808 247.709 52.8406C246.615 51.2004 242.876 50.6974 242.876 50.6974C242.876 50.6974 241.935 47.3951 241.476 46.5641C241.017 45.733 240.229 44.2459 240.229 44.2459L238.983 39.6314L238.677 35.17C238.677 35.17 240.864 29.0684 240.229 23.1199C239.595 17.1714 239.442 9.25464 234.784 5.12129C230.104 0.987952 224.964 0.331866 224.964 0.331866L224.943 0.353735Z" fill="#1C4098" stroke="#1C4098" stroke-width="0.765434" stroke-linejoin="round"/>
<path d="M207.816 36.832C207.816 36.832 216.542 52.6874 234.913 55.9679" stroke="#1C4098" stroke-width="0.765434" stroke-linejoin="round"/>
<path d="M238.965 45.0771C238.965 45.0771 234.613 51.8348 225.734 52.0098" stroke="#1C4098" stroke-width="0.765434" stroke-linejoin="round"/>
<path d="M205.785 41.4463C205.785 41.4463 214.664 62.7472 222.297 67.6897" stroke="#1C4098" stroke-width="0.765434" stroke-linejoin="round"/>
<path d="M205.169 50.0415C205.169 50.0415 204.863 56.1431 206.875 61.5886C208.909 67.0341 210.308 68.1932 210.308 68.1932" stroke="#1C4098" stroke-width="0.765434" stroke-linejoin="round"/>
<path d="M245.657 61.0854C245.657 61.0854 235.838 70.1613 232.426 70.6643C229.015 71.1673 224.641 69.1772 224.641 69.1772" stroke="#1C4098" stroke-width="0.765434" stroke-linejoin="round"/>
<path d="M236.469 55.6398C236.469 55.6398 238.962 56.6239 241.761 51.8345" stroke="#1C4098" stroke-width="0.765434" stroke-linejoin="round"/>
<path d="M208.917 24.7815C208.917 24.7815 208.305 19.839 210.623 12.4033" stroke="#1C4098" stroke-width="0.765434" stroke-linejoin="round"/>
<path d="M225.58 8.4458C225.58 8.4458 213.902 19.9929 212.043 21.327C210.184 22.6391 208.938 24.7823 208.938 24.7823C208.938 24.7823 209.091 36.1764 211.431 40.1348C213.771 44.0931 221.403 50.1947 224.815 49.0575C228.248 47.8984 236.187 44.4431 236.646 37.5104C237.105 30.5778 237.893 24.3012 237.259 22.158C236.646 20.0148 225.58 8.46767 225.58 8.46767V8.4458Z" fill="white" stroke="#1C4098" stroke-width="0.765434" stroke-linejoin="round"/>
<path d="M175.148 123.566C175.301 122.232 175.213 130.543 173.879 145.392C173.333 151.603 170.84 162.625 170.84 162.625C170.84 162.625 171.539 168.902 171.299 171.242C171.08 173.582 168.084 179.88 167.625 180.646C167.165 181.411 165.963 182.002 165.722 180.427C165.482 178.852 163.426 121.773 163.426 121.773L175.148 123.588V123.566Z" fill="#CFE2F1" stroke="#1C4098" stroke-width="0.765434" stroke-linejoin="round"/>
<path d="M170.574 61.8726C170.574 61.8726 171.951 78.9527 173.023 87.2631C174.095 95.5735 174.095 104.956 174.27 108.717C174.444 112.479 174.926 115.934 174.926 115.934C174.926 115.934 176.369 116.918 175.888 118.471C175.407 120.024 174.904 121.401 174.904 121.401C174.904 121.401 175.297 123.129 175.122 123.588C174.969 124.048 176.128 124.726 173.023 125.076C169.918 125.425 164.953 123.851 164.953 123.851C164.953 123.851 165.062 91.6807 165.106 85.9072C165.128 80.1336 167.665 69.8987 167.665 69.8987L170.574 61.8726Z" fill="#0BBBEF" stroke="#1C4098" stroke-width="0.765434" stroke-linejoin="round"/>
<path d="M167.574 120.658C167.574 120.658 171.839 121.117 173.501 119.455" stroke="#1C4098" stroke-width="0.765434" stroke-linejoin="round"/>
<path d="M173.328 115.387C173.328 115.387 167.773 118.777 167.336 118.777" stroke="#1C4098" stroke-width="0.765434" stroke-linejoin="round"/>
<path d="M117.827 137.497C117.827 137.497 118.308 150.794 117.521 157.005C116.734 163.216 115.881 167.109 118.418 175.616C120.954 184.145 120.605 211.526 120.298 215.134C120.014 218.721 118.374 226.375 118.09 236.523C117.805 246.67 122.354 276.959 122.354 276.959C122.354 276.959 121.02 280.24 121.326 282.427C121.611 284.614 122.201 289.141 122.354 289.775C122.507 290.409 120.298 297.429 119.402 300.075C118.527 302.722 120.43 304.602 122.201 305.237C123.972 305.871 141.643 305.237 141.643 305.237H179.652C179.652 305.237 183.195 305.084 182.889 301.169C182.605 297.276 179.346 296.948 177.728 296.336C176.109 295.701 166.684 291.349 165.35 290.409C164.016 289.469 162.113 287.282 162.113 287.282C162.113 287.282 162.55 283.389 161.829 281.814C161.085 280.262 159.904 279.015 159.62 276.828C159.335 274.641 162.856 219.377 164.344 206.889C165.809 194.402 166.727 157.202 166.356 155.299C165.962 153.418 167.099 145.48 165.109 143.227C163.119 140.975 159.117 151.45 148.707 149.372C138.319 147.295 121.283 135.442 119.817 135.092C118.352 134.72 117.827 137.519 117.827 137.519V137.497Z" fill="#CFE2F1" stroke="#1C4098" stroke-width="0.765434" stroke-linejoin="round"/>
<path d="M153.195 161.707L147.028 166.015L143.004 232.476L142.129 278.687C142.129 278.687 143.157 284.001 143.004 285.401C142.851 286.8 142.413 289.928 142.413 289.928" fill="#8D9FCB" fill-opacity="0.4"/>
<path d="M153.195 161.707L147.028 166.015L143.004 232.476L142.129 278.687C142.129 278.687 143.157 284.001 143.004 285.401C142.851 286.8 142.413 289.928 142.413 289.928" stroke="#1C4098" stroke-width="0.765434" stroke-linejoin="round"/>
<path d="M135.975 42.0804L135.515 51.8998C135.515 51.8998 111.218 61.0412 110.125 62.8783C109.031 64.7153 97.6812 102.746 97.6812 102.746C97.6812 102.746 97.0688 103.184 95.9972 104.562C94.9256 105.939 94.2695 107.93 94.2695 107.93C94.2695 107.93 96.2378 110.663 101.749 113.812C107.26 116.984 108.157 116.065 108.769 115.3C109.381 114.534 109.491 111.101 109.491 111.101C109.491 111.101 109.928 110.969 110.584 109.264C111.218 107.558 111.896 104.78 111.896 104.78L117.014 91.5274L120.666 130.39C120.666 130.39 116.664 131.024 116.751 132.905C116.839 134.785 117.145 139.487 117.582 139.487C118.02 139.487 127.73 144.692 130.464 146.814C133.197 148.935 139.08 153.834 147.566 156.152C156.051 158.47 162.699 152.609 164.755 148.323C166.811 144.014 166.986 142.768 166.636 139.793C166.286 136.819 166.089 128.99 166.089 128.99C166.089 128.99 168.713 77.684 168.888 77.2247C169.063 76.7654 171.797 64.5185 170.55 61.8286C169.304 59.1386 151.349 53.4963 151.087 52.4028C150.824 51.3093 150.584 44.7266 150.584 44.7266L135.931 42.0366L135.975 42.0804Z" fill="#0BBBEF" stroke="#1C4098" stroke-width="0.765434" stroke-linejoin="round"/>
<path d="M151.14 52.4467C150.877 51.3532 150.637 44.7705 150.637 44.7705L135.984 42.0806L135.525 51.9C135.525 51.9 132.682 52.9716 128.898 54.4369C132.551 59.5981 143.289 74.6006 145.104 75.191C147.291 75.8909 148.668 74.0757 148.712 72.9822C148.734 72.1293 153.983 60.1011 156.257 54.8742C153.392 53.737 151.205 52.8185 151.118 52.4467H151.14Z" fill="white" stroke="#1C4098" stroke-width="0.765434" stroke-linejoin="round"/>
<path d="M151.136 52.4467C150.874 51.3532 150.633 44.7705 150.633 44.7705L135.981 42.0806L135.521 51.9C135.521 51.9 134.647 52.228 133.203 52.7748C136.33 57.8266 143.832 72.3261 146.172 69.7674C148.14 67.6242 151.53 58.3078 152.929 53.4965C151.858 53.0153 151.18 52.6436 151.136 52.4467Z" fill="#CFE2F1" stroke="#1C4098" stroke-width="0.765434" stroke-linejoin="round"/>
<path d="M135.545 3.93977C135.545 3.93977 130.472 6.25794 129.772 9.5165C129.072 12.7751 130.122 26.859 130.122 26.859C130.122 26.859 128.416 24.7596 127.454 27.3839C126.492 30.0083 127.782 35.9786 129.51 37.1377C131.237 38.2968 132.134 37.8594 132.134 37.8594C132.134 37.8594 133.927 41.5116 134.933 42.8019C135.917 44.0922 142.106 48.8379 143.003 49.0129C143.9 49.1878 147.399 49.4721 149.214 48.2912C151.029 47.1102 154.659 43.4799 155.95 40.3963C157.218 37.3127 157.328 34.1853 157.349 33.573C157.349 32.9388 159.908 17.5645 158.99 13.7811C158.071 9.99763 155.994 6.01737 151.051 3.50238C146.108 0.98738 140.357 1.55599 135.567 3.89603L135.545 3.93977Z" fill="#CFE2F1" stroke="#1C4098" stroke-width="0.765434" stroke-linejoin="round"/>
<path d="M158.266 27.0776C158.266 27.0776 160.387 25.4374 160.89 28.2586C161.393 31.0797 156.91 37.4875 156.91 37.4875L158.266 27.0776Z" fill="#CFE2F1" stroke="#1C4098" stroke-width="0.765434" stroke-linejoin="round"/>
<path d="M158.117 11.1353C158.335 12.9504 157.986 15.3342 157.854 17.0619C157.679 19.1832 158.423 21.4139 158.795 22.3762C159.167 18.7896 159.363 15.3561 158.992 13.8252C158.773 12.9286 158.489 12.0319 158.117 11.1353Z" fill="#1C4098" stroke="#1C4098" stroke-width="0.765434" stroke-linejoin="round"/>
<path d="M149.874 7.876C152.367 7.19805 154.969 7.72291 156.85 8.70704C155.582 6.71692 153.745 4.92361 151.033 3.54583C146.09 1.03084 140.339 1.59944 135.549 3.93948C135.549 3.93948 130.476 6.25766 129.776 9.51622C129.076 12.7748 130.126 26.8588 130.126 26.8588C130.126 26.8588 131.263 27.996 131.328 26.2683C131.394 24.5406 129.863 21.3695 130.191 19.9699C130.519 18.5702 131.394 18.9201 131.766 16.9081C132.116 14.8961 128.857 10.8721 131.285 8.61957C133.712 6.367 137.846 6.34513 140.601 7.21992C143.357 8.0947 147.337 8.55396 149.874 7.85413V7.876Z" fill="#1C4098" stroke="#1C4098" stroke-width="0.765434" stroke-linejoin="round"/>
<path d="M117.068 91.5492L111.316 67.9082" stroke="#1C4098" stroke-width="0.765434" stroke-linejoin="round"/>
<path d="M109.828 78.0122L112.802 81.2489" stroke="#1C4098" stroke-width="0.765434" stroke-linejoin="round"/>
<path d="M100.902 104.102L108.841 109.701C108.841 109.701 99.7214 99.8594 102.346 100.887C104.97 101.915 106.807 104.321 106.807 104.321" stroke="#1C4098" stroke-width="0.765434" stroke-linejoin="round"/>
<path d="M137.73 143.161C140.748 145.414 142.629 146.354 142.629 146.354" stroke="#1C4098" stroke-width="0.765434" stroke-linejoin="round"/>
<path d="M122.445 131.265C122.445 131.265 125.944 132.796 132.09 138.482C133.008 139.313 133.861 140.078 134.692 140.778" stroke="#1C4098" stroke-width="0.765434" stroke-linejoin="round"/>
<path d="M132.949 134.917C132.949 134.917 142.288 142.899 150.095 142.549" stroke="#1C4098" stroke-width="0.765434" stroke-linejoin="round"/>
<path d="M94.299 107.93C94.299 107.93 91.609 113.616 93.971 118.689C96.311 123.763 117.546 157.005 117.546 157.005L119.252 163.478L124.085 150.05L120.171 147.885C120.171 147.885 110.067 122.232 109.389 120.024C108.711 117.815 108.624 115.934 103.878 112.172C99.1322 108.411 96.0923 106.596 94.2771 107.93H94.299Z" fill="#CFE2F1" stroke="#1C4098" stroke-width="0.765434" stroke-linejoin="round"/>
<path d="M177.752 296.335C176.134 295.701 166.708 291.349 165.374 290.409C164.04 289.468 162.137 287.281 162.137 287.281C162.137 287.281 151.093 292.749 147.113 294.301C143.133 295.854 142.258 296.182 142.258 296.182V305.236H179.677C179.677 305.236 183.219 305.083 182.913 301.168C182.629 297.276 179.37 296.948 177.752 296.335Z" fill="white" stroke="#1C4098" stroke-width="0.765434" stroke-linejoin="round"/>
<path d="M142.762 305.236H179.656C179.656 305.236 182.171 305.105 182.783 302.743H142.849L142.784 305.236H142.762Z" fill="white" stroke="#1C4098" stroke-width="0.765434" stroke-linejoin="round"/>
<path d="M142.857 302.262C142.857 300.709 142.113 292.902 142.113 292.902C142.113 292.902 134.743 284.001 131.069 283.695C127.395 283.389 122.387 289.774 122.387 289.774C122.54 290.409 120.331 297.429 119.435 300.075C118.56 302.721 120.462 304.602 122.234 305.236C124.005 305.87 141.676 305.236 141.676 305.236C143.141 305.083 142.857 303.837 142.857 302.262Z" fill="white" stroke="#1C4098" stroke-width="0.765434" stroke-linejoin="round"/>
<path d="M119.41 302.569C119.869 303.881 121.072 304.821 122.231 305.215C124.003 305.849 141.673 305.215 141.673 305.215C142.176 305.171 142.461 304.974 142.636 304.69L142.854 302.547H119.432L119.41 302.569Z" fill="white" stroke="#1C4098" stroke-width="0.765434" stroke-linejoin="round"/>
</g>
<defs>
<filter id="filter0_f_382_225" x="80" y="286" width="124" height="36" filterUnits="userSpaceOnUse" color-interpolation-filters="sRGB">
<feFlood flood-opacity="0" result="BackgroundImageFix"/>
<feBlend mode="normal" in="SourceGraphic" in2="BackgroundImageFix" result="shape"/>
<feGaussianBlur stdDeviation="6" result="effect1_foregroundBlur_382_225"/>
</filter>
<filter id="filter1_f_382_225" x="136" y="286" width="188" height="36" filterUnits="userSpaceOnUse" color-interpolation-filters="sRGB">
<feFlood flood-opacity="0" result="BackgroundImageFix"/>
<feBlend mode="normal" in="SourceGraphic" in2="BackgroundImageFix" result="shape"/>
<feGaussianBlur stdDeviation="6" result="effect1_foregroundBlur_382_225"/>
</filter>
<filter id="filter2_f_382_225" x="220" y="286" width="188" height="36" filterUnits="userSpaceOnUse" color-interpolation-filters="sRGB">
<feFlood flood-opacity="0" result="BackgroundImageFix"/>
<feBlend mode="normal" in="SourceGraphic" in2="BackgroundImageFix" result="shape"/>
<feGaussianBlur stdDeviation="6" result="effect1_foregroundBlur_382_225"/>
</filter>
<filter id="filter3_f_382_225" x="293" y="286" width="188" height="36" filterUnits="userSpaceOnUse" color-interpolation-filters="sRGB">
<feFlood flood-opacity="0" result="BackgroundImageFix"/>
<feBlend mode="normal" in="SourceGraphic" in2="BackgroundImageFix" result="shape"/>
<feGaussianBlur stdDeviation="6" result="effect1_foregroundBlur_382_225"/>
</filter>
<filter id="filter4_f_382_225" x="394" y="286" width="188" height="36" filterUnits="userSpaceOnUse" color-interpolation-filters="sRGB">
<feFlood flood-opacity="0" result="BackgroundImageFix"/>
<feBlend mode="normal" in="SourceGraphic" in2="BackgroundImageFix" result="shape"/>
<feGaussianBlur stdDeviation="6" result="effect1_foregroundBlur_382_225"/>
</filter>
<radialGradient id="paint0_radial_382_225" cx="0" cy="0" r="1" gradientUnits="userSpaceOnUse" gradientTransform="translate(142 304) scale(50 6)">
<stop stop-color="#1C4098"/>
<stop offset="1" stop-color="white"/>
</radialGradient>
<radialGradient id="paint1_radial_382_225" cx="0" cy="0" r="1" gradientUnits="userSpaceOnUse" gradientTransform="translate(230 304) scale(82 6)">
<stop stop-color="#1C4098"/>
<stop offset="1" stop-color="white"/>
</radialGradient>
<radialGradient id="paint2_radial_382_225" cx="0" cy="0" r="1" gradientUnits="userSpaceOnUse" gradientTransform="translate(314 304) scale(82 6)">
<stop stop-color="#1C4098"/>
<stop offset="1" stop-color="white"/>
</radialGradient>
<radialGradient id="paint3_radial_382_225" cx="0" cy="0" r="1" gradientUnits="userSpaceOnUse" gradientTransform="translate(387 304) scale(82 6)">
<stop stop-color="#1C4098"/>
<stop offset="1" stop-color="white"/>
</radialGradient>
<radialGradient id="paint4_radial_382_225" cx="0" cy="0" r="1" gradientUnits="userSpaceOnUse" gradientTransform="translate(488 304) scale(82 6)">
<stop stop-color="#1C4098"/>
<stop offset="1" stop-color="white"/>
</radialGradient>
<clipPath id="clip0_382_225">
<rect width="665" height="376" fill="white"/>
</clipPath>
</defs>
</svg>
