<svg width="12" height="14" viewBox="0 0 12 14" fill="none" xmlns="http://www.w3.org/2000/svg">
<path fill-rule="evenodd" clip-rule="evenodd" d="M10.4727 12.303C10.682 12.298 11.0403 12.2088 11.0435 11.6722C11.0482 11.1055 11.0476 9.24077 11.047 7.44562L11.047 7.43982C11.0468 6.85364 11.0466 6.27505 11.0466 5.75167H0.95113V11.4421C0.95113 11.7804 1.02089 12.0318 1.15723 12.1665C1.25235 12.2584 1.38552 12.3049 1.55356 12.3049C1.92453 12.3045 10.4727 12.303 10.4727 12.303ZM1.58844 2.88804C1.14137 2.89055 0.95113 3.10145 0.95113 3.59354V3.59417V4.81028H11.0466V3.5948V3.5631C11.0498 3.48245 11.0276 3.22542 10.8786 3.06724C10.7739 2.95395 10.6091 2.89558 10.3776 2.88773C10.3649 2.88742 9.99712 2.88742 9.42323 2.88742V3.57942C9.42323 3.83928 9.21079 4.05017 8.94762 4.05017C8.68446 4.05017 8.47202 3.83928 8.47202 3.57942V2.88742H4.09646H3.45281V3.57942C3.45281 3.83928 3.2372 4.05017 2.9772 4.05017C2.71404 4.05017 2.5016 3.83928 2.5016 3.57942V2.88742L2.03102 2.88765C1.77412 2.88777 1.61565 2.88784 1.58844 2.88804ZM11.5889 2.43875C12.0011 2.89067 12.0011 3.47503 11.9979 3.60496L11.9982 4.0285C11.9993 5.56186 12.003 10.6687 11.9947 11.678C11.9884 12.8273 11.0816 13.2441 10.4728 13.2441H10.4696L10.4159 13.2441C9.69269 13.2442 1.91032 13.2457 1.55365 13.246H1.55048C1.12878 13.246 0.760976 13.1028 0.485126 12.832C0.161715 12.5125 9.15249e-06 12.044 9.15249e-06 11.4395C0.00290468 11.0045 0.000511727 4.88602 7.4576e-05 3.76829L9.15249e-06 3.59428C-0.00316154 2.38571 0.818048 1.95042 1.58536 1.94603C1.62341 1.94571 1.96901 1.94571 2.50169 1.94571V1.22515C2.50169 0.965291 2.71412 0.754395 2.97729 0.754395C3.23729 0.754395 3.4529 0.965291 3.4529 1.22515V1.9454L8.47211 1.94571V1.22515C8.47211 0.965291 8.68454 0.754395 8.94771 0.754395C9.21088 0.754395 9.42332 0.965291 9.42332 1.22515V1.94571C9.96233 1.94603 10.327 1.94603 10.3935 1.94603C11.0309 1.96674 11.3923 2.22534 11.5889 2.43875ZM5.40354 10.2378C5.40354 9.92081 5.66353 9.66409 5.98377 9.66409C6.30401 9.66409 6.56401 9.92081 6.56401 10.2378C6.56401 10.5548 6.30401 10.8115 5.98377 10.8115C5.66353 10.8115 5.40354 10.5548 5.40354 10.2378ZM3.01583 9.66409C2.69559 9.66409 2.43559 9.92081 2.43559 10.2378C2.43559 10.5548 2.69559 10.8115 3.01583 10.8115C3.33607 10.8115 3.59606 10.5548 3.59606 10.2378C3.59606 9.92081 3.33607 9.66409 3.01583 9.66409ZM8.37107 10.238C8.37107 9.92099 8.63106 9.66427 8.9513 9.66427C9.27154 9.66427 9.53154 9.92099 9.53154 10.238C9.53154 10.5549 9.27154 10.8117 8.9513 10.8117C8.63106 10.8117 8.37107 10.5549 8.37107 10.238ZM5.98353 7.0754C5.66329 7.0754 5.40329 7.33212 5.40329 7.64909C5.40329 7.96607 5.66329 8.22278 5.98353 8.22278C6.30377 8.22278 6.56377 7.96607 6.56377 7.64909C6.56377 7.33212 6.30377 7.0754 5.98353 7.0754ZM8.37107 7.64909C8.37107 7.33212 8.63106 7.0754 8.9513 7.0754C9.27154 7.0754 9.53154 7.33212 9.53154 7.64909C9.53154 7.96607 9.27154 8.22278 8.9513 8.22278C8.63106 8.22278 8.37107 7.96607 8.37107 7.64909Z" fill="#1C4098"/>
</svg>
