<svg width="147" height="24" viewBox="0 0 147 24" fill="none" xmlns="http://www.w3.org/2000/svg">
<path d="M0 20.4908H11.1702V17.1157H3.77183V13.4892H11.1702V10.1141H3.77183V6.61605H11.1702V3.24097H0V20.4908Z" fill="#122A64"/>
<path d="M40.3449 3.24097V13.1204C40.3449 15.8584 38.9424 17.261 36.6234 17.261C34.3044 17.261 32.9018 15.8081 32.9018 12.9974V3.24097H29.1077V13.098C29.1077 18.1718 31.9407 20.759 36.5731 20.759C41.2055 20.759 44.1391 18.1998 44.1391 12.9751V3.24097H40.3449Z" fill="#122A64"/>
<path d="M24.1002 11.4719C25.3351 10.7846 26.3688 9.70057 26.3688 7.7504V7.7001C26.3688 6.51547 25.9721 5.55435 25.1842 4.76646C24.3293 3.91151 23.0496 3.39184 21.4403 3.26891C21.1944 3.25214 20.9374 3.24097 20.6748 3.24097H13.9078V20.4908H20.8704C21.0659 20.4908 21.2559 20.4852 21.4403 20.474C25.011 20.3232 27.3244 18.753 27.3244 15.7578V15.7076C27.3244 13.3942 26.0894 12.2319 24.0946 11.4663L24.1002 11.4719ZM17.6014 6.56576H20.1048C20.6301 6.56576 21.0715 6.64399 21.4403 6.77251C22.1891 7.04632 22.597 7.57717 22.597 8.33712V8.38742C22.597 9.19207 22.1723 9.70616 21.4403 9.97438C21.01 10.1308 20.4792 10.2091 19.8589 10.2091H17.6014V6.56017V6.56576ZM23.5581 15.2885C23.5581 16.4172 22.7758 17.0095 21.4403 17.1325C21.2615 17.1492 21.0715 17.1604 20.8704 17.1604H17.6014V13.3662H20.7474C20.9933 13.3662 21.228 13.3774 21.4403 13.3998C22.8988 13.5562 23.5581 14.2268 23.5581 15.2382V15.2885Z" fill="#122A64"/>
<path d="M56.0911 0H55.0015V24H56.0911V0Z" fill="#122A64"/>
<path d="M66.8086 17.5124L67.9429 16.1658C69.6361 17.6968 71.2621 18.4624 73.5085 18.4624C75.7548 18.4624 77.1238 17.3001 77.1238 15.702V15.6573C77.1238 14.1485 76.3136 13.2936 72.905 12.5727C69.1723 11.7625 67.4568 10.5555 67.4568 7.89009V7.84538C67.4568 5.29172 69.7087 3.41418 72.7932 3.41418C75.1569 3.41418 76.85 4.08473 78.4985 5.40906L77.4312 6.8228C75.9225 5.59346 74.4137 5.06261 72.7485 5.06261C70.6363 5.06261 69.2952 6.22489 69.2952 7.68333V7.72804C69.2952 9.25912 70.1278 10.1141 73.7041 10.8796C77.3194 11.6675 78.9902 12.9918 78.9902 15.4729V15.5176C78.9902 18.3003 76.6712 20.1108 73.447 20.1108C70.871 20.1108 68.7644 19.2503 66.8142 17.5124H66.8086Z" fill="#122A64"/>
<path d="M82.7171 3.64331H88.7912C92.4568 3.64331 94.8652 5.59348 94.8652 8.78976V8.83446C94.8652 12.3381 91.9427 14.143 88.4894 14.143H84.5444V19.8706H82.7115V3.64331H82.7171ZM88.5621 12.4778C91.2498 12.4778 93.0156 11.0417 93.0156 8.90711V8.8624C93.0156 6.54343 91.2778 5.33644 88.6571 5.33644H84.55V12.4778H88.5621Z" fill="#122A64"/>
<path d="M97.4917 11.8072V11.7625C97.4917 7.28662 100.856 3.36951 105.795 3.36951C110.735 3.36951 114.054 7.24192 114.054 11.7178V11.7625C114.054 16.2384 110.69 20.1555 105.751 20.1555C100.811 20.1555 97.4917 16.2831 97.4917 11.8072ZM112.149 11.8072V11.7625C112.149 8.07451 109.461 5.06264 105.745 5.06264C102.029 5.06264 99.3916 8.02981 99.3916 11.7178V11.7625C99.3916 15.4505 102.079 18.4624 105.795 18.4624C109.511 18.4624 112.149 15.4952 112.149 11.8072Z" fill="#122A64"/>
<path d="M117.921 3.64331H124.9C126.895 3.64331 128.493 4.2468 129.516 5.26939C130.304 6.05728 130.768 7.19162 130.768 8.47125V8.51595C130.768 11.2037 128.912 12.7851 126.359 13.2489L131.343 19.8817H129.091L124.381 13.573H119.743V19.8817H117.91V3.64331H117.921ZM124.738 11.9246C127.175 11.9246 128.912 10.6729 128.912 8.58301V8.5383C128.912 6.54343 127.381 5.33644 124.761 5.33644H119.754V11.9246H124.738Z" fill="#122A64"/>
<path d="M138.82 5.33644H133.372V3.64331H146.129V5.33644H140.681V19.8761H138.825V5.33644H138.82Z" fill="#122A64"/>
</svg>
